<?xml version="1.0" encoding="utf-8" standalone="no"?>
<!DOCTYPE svg PUBLIC "-//W3C//DTD SVG 1.1//EN"
  "http://www.w3.org/Graphics/SVG/1.1/DTD/svg11.dtd">
<svg xmlns:xlink="http://www.w3.org/1999/xlink" width="460.8pt" height="345.6pt" viewBox="0 0 460.8 345.6" xmlns="http://www.w3.org/2000/svg" version="1.1">
 <metadata>
  <rdf:RDF xmlns:dc="http://purl.org/dc/elements/1.1/" xmlns:cc="http://creativecommons.org/ns#" xmlns:rdf="http://www.w3.org/1999/02/22-rdf-syntax-ns#">
   <cc:Work>
    <dc:type rdf:resource="http://purl.org/dc/dcmitype/StillImage"/>
    <dc:date>2024-06-08T14:35:22.538312</dc:date>
    <dc:format>image/svg+xml</dc:format>
    <dc:creator>
     <cc:Agent>
      <dc:title>Matplotlib v3.9.0, https://matplotlib.org/</dc:title>
     </cc:Agent>
    </dc:creator>
   </cc:Work>
  </rdf:RDF>
 </metadata>
 <defs>
  <style type="text/css">*{stroke-linejoin: round; stroke-linecap: butt}</style>
 </defs>
 <g id="figure_1">
  <g id="patch_1">
   <path d="M 0 345.6 
L 460.8 345.6 
L 460.8 0 
L 0 0 
z
" style="fill: #ffffff"/>
  </g>
  <g id="axes_1">
   <g id="patch_2">
    <path d="M 57.17 303.64 
L 450 303.64 
L 450 10.82731 
L 57.17 10.82731 
z
" style="fill: #ffffff"/>
   </g>
   <g id="patch_3">
    <path d="M 71.199643 303.64 
L 78.214464 303.64 
L 78.214464 295.947056 
L 71.199643 295.947056 
z
" clip-path="url(#peecf2664cc)" style="fill: #1f77b4"/>
   </g>
   <g id="patch_4">
    <path d="M 127.318214 303.64 
L 134.333036 303.64 
L 134.333036 293.543011 
L 127.318214 293.543011 
z
" clip-path="url(#peecf2664cc)" style="fill: #1f77b4"/>
   </g>
   <g id="patch_5">
    <path d="M 183.436786 303.64 
L 190.451607 303.64 
L 190.451607 286.330875 
L 183.436786 286.330875 
z
" clip-path="url(#peecf2664cc)" style="fill: #1f77b4"/>
   </g>
   <g id="patch_6">
    <path d="M 239.555357 303.64 
L 246.570179 303.64 
L 246.570179 278.637931 
L 239.555357 278.637931 
z
" clip-path="url(#peecf2664cc)" style="fill: #1f77b4"/>
   </g>
   <g id="patch_7">
    <path d="M 295.673929 303.64 
L 302.68875 303.64 
L 302.68875 259.405571 
L 295.673929 259.405571 
z
" clip-path="url(#peecf2664cc)" style="fill: #1f77b4"/>
   </g>
   <g id="patch_8">
    <path d="M 351.7925 303.64 
L 358.807321 303.64 
L 358.807321 220.94085 
L 351.7925 220.94085 
z
" clip-path="url(#peecf2664cc)" style="fill: #1f77b4"/>
   </g>
   <g id="patch_9">
    <path d="M 407.911071 303.64 
L 414.925893 303.64 
L 414.925893 140.164935 
L 407.911071 140.164935 
z
" clip-path="url(#peecf2664cc)" style="fill: #1f77b4"/>
   </g>
   <g id="patch_10">
    <path d="M 78.214464 303.64 
L 85.229286 303.64 
L 85.229286 295.947056 
L 78.214464 295.947056 
z
" clip-path="url(#peecf2664cc)" style="fill: #ff7f0e"/>
   </g>
   <g id="patch_11">
    <path d="M 134.333036 303.64 
L 141.347857 303.64 
L 141.347857 294.985438 
L 134.333036 294.985438 
z
" clip-path="url(#peecf2664cc)" style="fill: #ff7f0e"/>
   </g>
   <g id="patch_12">
    <path d="M 190.451607 303.64 
L 197.466429 303.64 
L 197.466429 294.02382 
L 190.451607 294.02382 
z
" clip-path="url(#peecf2664cc)" style="fill: #ff7f0e"/>
   </g>
   <g id="patch_13">
    <path d="M 246.570179 303.64 
L 253.585 303.64 
L 253.585 292.100584 
L 246.570179 292.100584 
z
" clip-path="url(#peecf2664cc)" style="fill: #ff7f0e"/>
   </g>
   <g id="patch_14">
    <path d="M 302.68875 303.64 
L 309.703571 303.64 
L 309.703571 285.369257 
L 302.68875 285.369257 
z
" clip-path="url(#peecf2664cc)" style="fill: #ff7f0e"/>
   </g>
   <g id="patch_15">
    <path d="M 358.807321 303.64 
L 365.822143 303.64 
L 365.822143 274.791459 
L 358.807321 274.791459 
z
" clip-path="url(#peecf2664cc)" style="fill: #ff7f0e"/>
   </g>
   <g id="patch_16">
    <path d="M 414.925893 303.64 
L 421.940714 303.64 
L 421.940714 251.712626 
L 414.925893 251.712626 
z
" clip-path="url(#peecf2664cc)" style="fill: #ff7f0e"/>
   </g>
   <g id="patch_17">
    <path d="M 85.229286 303.64 
L 92.244107 303.64 
L 92.244107 294.216143 
L 85.229286 294.216143 
z
" clip-path="url(#peecf2664cc)" style="fill: #2ca02c"/>
   </g>
   <g id="patch_18">
    <path d="M 141.347857 303.64 
L 148.362679 303.64 
L 148.362679 291.619775 
L 141.347857 291.619775 
z
" clip-path="url(#peecf2664cc)" style="fill: #2ca02c"/>
   </g>
   <g id="patch_19">
    <path d="M 197.466429 303.64 
L 204.48125 303.64 
L 204.48125 281.522785 
L 197.466429 281.522785 
z
" clip-path="url(#peecf2664cc)" style="fill: #2ca02c"/>
   </g>
   <g id="patch_20">
    <path d="M 253.585 303.64 
L 260.599821 303.64 
L 260.599821 264.213661 
L 253.585 264.213661 
z
" clip-path="url(#peecf2664cc)" style="fill: #2ca02c"/>
   </g>
   <g id="patch_21">
    <path d="M 309.703571 303.64 
L 316.718393 303.64 
L 316.718393 228.633794 
L 309.703571 228.633794 
z
" clip-path="url(#peecf2664cc)" style="fill: #2ca02c"/>
   </g>
   <g id="patch_22">
    <path d="M 365.822143 303.64 
L 372.836964 303.64 
L 372.836964 158.435678 
L 365.822143 158.435678 
z
" clip-path="url(#peecf2664cc)" style="fill: #2ca02c"/>
   </g>
   <g id="patch_23">
    <path d="M 421.940714 303.64 
L 428.955536 303.64 
L 428.955536 24.770772 
L 421.940714 24.770772 
z
" clip-path="url(#peecf2664cc)" style="fill: #2ca02c"/>
   </g>
   <g id="patch_24">
    <path d="M 92.244107 303.64 
L 99.258929 303.64 
L 99.258929 293.062202 
L 92.244107 293.062202 
z
" clip-path="url(#peecf2664cc)" style="fill: #d62728"/>
   </g>
   <g id="patch_25">
    <path d="M 148.362679 303.64 
L 155.3775 303.64 
L 155.3775 293.062202 
L 148.362679 293.062202 
z
" clip-path="url(#peecf2664cc)" style="fill: #d62728"/>
   </g>
   <g id="patch_26">
    <path d="M 204.48125 303.64 
L 211.496071 303.64 
L 211.496071 291.619775 
L 204.48125 291.619775 
z
" clip-path="url(#peecf2664cc)" style="fill: #d62728"/>
   </g>
   <g id="patch_27">
    <path d="M 260.599821 303.64 
L 267.614643 303.64 
L 267.614643 288.254112 
L 260.599821 288.254112 
z
" clip-path="url(#peecf2664cc)" style="fill: #d62728"/>
   </g>
   <g id="patch_28">
    <path d="M 316.718393 303.64 
L 323.733214 303.64 
L 323.733214 281.041976 
L 316.718393 281.041976 
z
" clip-path="url(#peecf2664cc)" style="fill: #d62728"/>
   </g>
   <g id="patch_29">
    <path d="M 372.836964 303.64 
L 379.851786 303.64 
L 379.851786 265.175279 
L 372.836964 265.175279 
z
" clip-path="url(#peecf2664cc)" style="fill: #d62728"/>
   </g>
   <g id="patch_30">
    <path d="M 428.955536 303.64 
L 435.970357 303.64 
L 435.970357 241.134828 
L 428.955536 241.134828 
z
" clip-path="url(#peecf2664cc)" style="fill: #d62728"/>
   </g>
   <g id="matplotlib.axis_1">
    <g id="xtick_1">
     <g id="line2d_1">
      <defs>
       <path id="m4d622eebab" d="M 0 0 
L 0 3.5 
" style="stroke: #000000; stroke-width: 0.8"/>
      </defs>
      <g>
       <use xlink:href="#m4d622eebab" x="85.229286" y="303.64" style="stroke: #000000; stroke-width: 0.8"/>
      </g>
     </g>
     <g id="text_1">
      <!-- 1 -->
      <g transform="translate(82.048036 318.238437) scale(0.1 -0.1)">
       <defs>
        <path id="DejaVuSans-31" d="M 794 531 
L 1825 531 
L 1825 4091 
L 703 3866 
L 703 4441 
L 1819 4666 
L 2450 4666 
L 2450 531 
L 3481 531 
L 3481 0 
L 794 0 
L 794 531 
z
" transform="scale(0.015625)"/>
       </defs>
       <use xlink:href="#DejaVuSans-31"/>
      </g>
     </g>
    </g>
    <g id="xtick_2">
     <g id="line2d_2">
      <g>
       <use xlink:href="#m4d622eebab" x="141.347857" y="303.64" style="stroke: #000000; stroke-width: 0.8"/>
      </g>
     </g>
     <g id="text_2">
      <!-- 2 -->
      <g transform="translate(138.166607 318.238437) scale(0.1 -0.1)">
       <defs>
        <path id="DejaVuSans-32" d="M 1228 531 
L 3431 531 
L 3431 0 
L 469 0 
L 469 531 
Q 828 903 1448 1529 
Q 2069 2156 2228 2338 
Q 2531 2678 2651 2914 
Q 2772 3150 2772 3378 
Q 2772 3750 2511 3984 
Q 2250 4219 1831 4219 
Q 1534 4219 1204 4116 
Q 875 4013 500 3803 
L 500 4441 
Q 881 4594 1212 4672 
Q 1544 4750 1819 4750 
Q 2544 4750 2975 4387 
Q 3406 4025 3406 3419 
Q 3406 3131 3298 2873 
Q 3191 2616 2906 2266 
Q 2828 2175 2409 1742 
Q 1991 1309 1228 531 
z
" transform="scale(0.015625)"/>
       </defs>
       <use xlink:href="#DejaVuSans-32"/>
      </g>
     </g>
    </g>
    <g id="xtick_3">
     <g id="line2d_3">
      <g>
       <use xlink:href="#m4d622eebab" x="197.466429" y="303.64" style="stroke: #000000; stroke-width: 0.8"/>
      </g>
     </g>
     <g id="text_3">
      <!-- 4 -->
      <g transform="translate(194.285179 318.238437) scale(0.1 -0.1)">
       <defs>
        <path id="DejaVuSans-34" d="M 2419 4116 
L 825 1625 
L 2419 1625 
L 2419 4116 
z
M 2253 4666 
L 3047 4666 
L 3047 1625 
L 3713 1625 
L 3713 1100 
L 3047 1100 
L 3047 0 
L 2419 0 
L 2419 1100 
L 313 1100 
L 313 1709 
L 2253 4666 
z
" transform="scale(0.015625)"/>
       </defs>
       <use xlink:href="#DejaVuSans-34"/>
      </g>
     </g>
    </g>
    <g id="xtick_4">
     <g id="line2d_4">
      <g>
       <use xlink:href="#m4d622eebab" x="253.585" y="303.64" style="stroke: #000000; stroke-width: 0.8"/>
      </g>
     </g>
     <g id="text_4">
      <!-- 8 -->
      <g transform="translate(250.40375 318.238437) scale(0.1 -0.1)">
       <defs>
        <path id="DejaVuSans-38" d="M 2034 2216 
Q 1584 2216 1326 1975 
Q 1069 1734 1069 1313 
Q 1069 891 1326 650 
Q 1584 409 2034 409 
Q 2484 409 2743 651 
Q 3003 894 3003 1313 
Q 3003 1734 2745 1975 
Q 2488 2216 2034 2216 
z
M 1403 2484 
Q 997 2584 770 2862 
Q 544 3141 544 3541 
Q 544 4100 942 4425 
Q 1341 4750 2034 4750 
Q 2731 4750 3128 4425 
Q 3525 4100 3525 3541 
Q 3525 3141 3298 2862 
Q 3072 2584 2669 2484 
Q 3125 2378 3379 2068 
Q 3634 1759 3634 1313 
Q 3634 634 3220 271 
Q 2806 -91 2034 -91 
Q 1263 -91 848 271 
Q 434 634 434 1313 
Q 434 1759 690 2068 
Q 947 2378 1403 2484 
z
M 1172 3481 
Q 1172 3119 1398 2916 
Q 1625 2713 2034 2713 
Q 2441 2713 2670 2916 
Q 2900 3119 2900 3481 
Q 2900 3844 2670 4047 
Q 2441 4250 2034 4250 
Q 1625 4250 1398 4047 
Q 1172 3844 1172 3481 
z
" transform="scale(0.015625)"/>
       </defs>
       <use xlink:href="#DejaVuSans-38"/>
      </g>
     </g>
    </g>
    <g id="xtick_5">
     <g id="line2d_5">
      <g>
       <use xlink:href="#m4d622eebab" x="309.703571" y="303.64" style="stroke: #000000; stroke-width: 0.8"/>
      </g>
     </g>
     <g id="text_5">
      <!-- 16 -->
      <g transform="translate(303.341071 318.238437) scale(0.1 -0.1)">
       <defs>
        <path id="DejaVuSans-36" d="M 2113 2584 
Q 1688 2584 1439 2293 
Q 1191 2003 1191 1497 
Q 1191 994 1439 701 
Q 1688 409 2113 409 
Q 2538 409 2786 701 
Q 3034 994 3034 1497 
Q 3034 2003 2786 2293 
Q 2538 2584 2113 2584 
z
M 3366 4563 
L 3366 3988 
Q 3128 4100 2886 4159 
Q 2644 4219 2406 4219 
Q 1781 4219 1451 3797 
Q 1122 3375 1075 2522 
Q 1259 2794 1537 2939 
Q 1816 3084 2150 3084 
Q 2853 3084 3261 2657 
Q 3669 2231 3669 1497 
Q 3669 778 3244 343 
Q 2819 -91 2113 -91 
Q 1303 -91 875 529 
Q 447 1150 447 2328 
Q 447 3434 972 4092 
Q 1497 4750 2381 4750 
Q 2619 4750 2861 4703 
Q 3103 4656 3366 4563 
z
" transform="scale(0.015625)"/>
       </defs>
       <use xlink:href="#DejaVuSans-31"/>
       <use xlink:href="#DejaVuSans-36" x="63.623047"/>
      </g>
     </g>
    </g>
    <g id="xtick_6">
     <g id="line2d_6">
      <g>
       <use xlink:href="#m4d622eebab" x="365.822143" y="303.64" style="stroke: #000000; stroke-width: 0.8"/>
      </g>
     </g>
     <g id="text_6">
      <!-- 32 -->
      <g transform="translate(359.459643 318.238437) scale(0.1 -0.1)">
       <defs>
        <path id="DejaVuSans-33" d="M 2597 2516 
Q 3050 2419 3304 2112 
Q 3559 1806 3559 1356 
Q 3559 666 3084 287 
Q 2609 -91 1734 -91 
Q 1441 -91 1130 -33 
Q 819 25 488 141 
L 488 750 
Q 750 597 1062 519 
Q 1375 441 1716 441 
Q 2309 441 2620 675 
Q 2931 909 2931 1356 
Q 2931 1769 2642 2001 
Q 2353 2234 1838 2234 
L 1294 2234 
L 1294 2753 
L 1863 2753 
Q 2328 2753 2575 2939 
Q 2822 3125 2822 3475 
Q 2822 3834 2567 4026 
Q 2313 4219 1838 4219 
Q 1578 4219 1281 4162 
Q 984 4106 628 3988 
L 628 4550 
Q 988 4650 1302 4700 
Q 1616 4750 1894 4750 
Q 2613 4750 3031 4423 
Q 3450 4097 3450 3541 
Q 3450 3153 3228 2886 
Q 3006 2619 2597 2516 
z
" transform="scale(0.015625)"/>
       </defs>
       <use xlink:href="#DejaVuSans-33"/>
       <use xlink:href="#DejaVuSans-32" x="63.623047"/>
      </g>
     </g>
    </g>
    <g id="xtick_7">
     <g id="line2d_7">
      <g>
       <use xlink:href="#m4d622eebab" x="421.940714" y="303.64" style="stroke: #000000; stroke-width: 0.8"/>
      </g>
     </g>
     <g id="text_7">
      <!-- 64 -->
      <g transform="translate(415.578214 318.238437) scale(0.1 -0.1)">
       <use xlink:href="#DejaVuSans-36"/>
       <use xlink:href="#DejaVuSans-34" x="63.623047"/>
      </g>
     </g>
    </g>
    <g id="text_8">
     <!-- # disk segments -->
     <g transform="translate(211.617813 331.916562) scale(0.1 -0.1)">
      <defs>
       <path id="DejaVuSans-23" d="M 3272 2816 
L 2363 2816 
L 2100 1772 
L 3016 1772 
L 3272 2816 
z
M 2803 4594 
L 2478 3297 
L 3391 3297 
L 3719 4594 
L 4219 4594 
L 3897 3297 
L 4872 3297 
L 4872 2816 
L 3775 2816 
L 3519 1772 
L 4513 1772 
L 4513 1294 
L 3397 1294 
L 3072 0 
L 2572 0 
L 2894 1294 
L 1978 1294 
L 1656 0 
L 1153 0 
L 1478 1294 
L 494 1294 
L 494 1772 
L 1594 1772 
L 1856 2816 
L 850 2816 
L 850 3297 
L 1978 3297 
L 2297 4594 
L 2803 4594 
z
" transform="scale(0.015625)"/>
       <path id="DejaVuSans-20" transform="scale(0.015625)"/>
       <path id="DejaVuSans-64" d="M 2906 2969 
L 2906 4863 
L 3481 4863 
L 3481 0 
L 2906 0 
L 2906 525 
Q 2725 213 2448 61 
Q 2172 -91 1784 -91 
Q 1150 -91 751 415 
Q 353 922 353 1747 
Q 353 2572 751 3078 
Q 1150 3584 1784 3584 
Q 2172 3584 2448 3432 
Q 2725 3281 2906 2969 
z
M 947 1747 
Q 947 1113 1208 752 
Q 1469 391 1925 391 
Q 2381 391 2643 752 
Q 2906 1113 2906 1747 
Q 2906 2381 2643 2742 
Q 2381 3103 1925 3103 
Q 1469 3103 1208 2742 
Q 947 2381 947 1747 
z
" transform="scale(0.015625)"/>
       <path id="DejaVuSans-69" d="M 603 3500 
L 1178 3500 
L 1178 0 
L 603 0 
L 603 3500 
z
M 603 4863 
L 1178 4863 
L 1178 4134 
L 603 4134 
L 603 4863 
z
" transform="scale(0.015625)"/>
       <path id="DejaVuSans-73" d="M 2834 3397 
L 2834 2853 
Q 2591 2978 2328 3040 
Q 2066 3103 1784 3103 
Q 1356 3103 1142 2972 
Q 928 2841 928 2578 
Q 928 2378 1081 2264 
Q 1234 2150 1697 2047 
L 1894 2003 
Q 2506 1872 2764 1633 
Q 3022 1394 3022 966 
Q 3022 478 2636 193 
Q 2250 -91 1575 -91 
Q 1294 -91 989 -36 
Q 684 19 347 128 
L 347 722 
Q 666 556 975 473 
Q 1284 391 1588 391 
Q 1994 391 2212 530 
Q 2431 669 2431 922 
Q 2431 1156 2273 1281 
Q 2116 1406 1581 1522 
L 1381 1569 
Q 847 1681 609 1914 
Q 372 2147 372 2553 
Q 372 3047 722 3315 
Q 1072 3584 1716 3584 
Q 2034 3584 2315 3537 
Q 2597 3491 2834 3397 
z
" transform="scale(0.015625)"/>
       <path id="DejaVuSans-6b" d="M 581 4863 
L 1159 4863 
L 1159 1991 
L 2875 3500 
L 3609 3500 
L 1753 1863 
L 3688 0 
L 2938 0 
L 1159 1709 
L 1159 0 
L 581 0 
L 581 4863 
z
" transform="scale(0.015625)"/>
       <path id="DejaVuSans-65" d="M 3597 1894 
L 3597 1613 
L 953 1613 
Q 991 1019 1311 708 
Q 1631 397 2203 397 
Q 2534 397 2845 478 
Q 3156 559 3463 722 
L 3463 178 
Q 3153 47 2828 -22 
Q 2503 -91 2169 -91 
Q 1331 -91 842 396 
Q 353 884 353 1716 
Q 353 2575 817 3079 
Q 1281 3584 2069 3584 
Q 2775 3584 3186 3129 
Q 3597 2675 3597 1894 
z
M 3022 2063 
Q 3016 2534 2758 2815 
Q 2500 3097 2075 3097 
Q 1594 3097 1305 2825 
Q 1016 2553 972 2059 
L 3022 2063 
z
" transform="scale(0.015625)"/>
       <path id="DejaVuSans-67" d="M 2906 1791 
Q 2906 2416 2648 2759 
Q 2391 3103 1925 3103 
Q 1463 3103 1205 2759 
Q 947 2416 947 1791 
Q 947 1169 1205 825 
Q 1463 481 1925 481 
Q 2391 481 2648 825 
Q 2906 1169 2906 1791 
z
M 3481 434 
Q 3481 -459 3084 -895 
Q 2688 -1331 1869 -1331 
Q 1566 -1331 1297 -1286 
Q 1028 -1241 775 -1147 
L 775 -588 
Q 1028 -725 1275 -790 
Q 1522 -856 1778 -856 
Q 2344 -856 2625 -561 
Q 2906 -266 2906 331 
L 2906 616 
Q 2728 306 2450 153 
Q 2172 0 1784 0 
Q 1141 0 747 490 
Q 353 981 353 1791 
Q 353 2603 747 3093 
Q 1141 3584 1784 3584 
Q 2172 3584 2450 3431 
Q 2728 3278 2906 2969 
L 2906 3500 
L 3481 3500 
L 3481 434 
z
" transform="scale(0.015625)"/>
       <path id="DejaVuSans-6d" d="M 3328 2828 
Q 3544 3216 3844 3400 
Q 4144 3584 4550 3584 
Q 5097 3584 5394 3201 
Q 5691 2819 5691 2113 
L 5691 0 
L 5113 0 
L 5113 2094 
Q 5113 2597 4934 2840 
Q 4756 3084 4391 3084 
Q 3944 3084 3684 2787 
Q 3425 2491 3425 1978 
L 3425 0 
L 2847 0 
L 2847 2094 
Q 2847 2600 2669 2842 
Q 2491 3084 2119 3084 
Q 1678 3084 1418 2786 
Q 1159 2488 1159 1978 
L 1159 0 
L 581 0 
L 581 3500 
L 1159 3500 
L 1159 2956 
Q 1356 3278 1631 3431 
Q 1906 3584 2284 3584 
Q 2666 3584 2933 3390 
Q 3200 3197 3328 2828 
z
" transform="scale(0.015625)"/>
       <path id="DejaVuSans-6e" d="M 3513 2113 
L 3513 0 
L 2938 0 
L 2938 2094 
Q 2938 2591 2744 2837 
Q 2550 3084 2163 3084 
Q 1697 3084 1428 2787 
Q 1159 2491 1159 1978 
L 1159 0 
L 581 0 
L 581 3500 
L 1159 3500 
L 1159 2956 
Q 1366 3272 1645 3428 
Q 1925 3584 2291 3584 
Q 2894 3584 3203 3211 
Q 3513 2838 3513 2113 
z
" transform="scale(0.015625)"/>
       <path id="DejaVuSans-74" d="M 1172 4494 
L 1172 3500 
L 2356 3500 
L 2356 3053 
L 1172 3053 
L 1172 1153 
Q 1172 725 1289 603 
Q 1406 481 1766 481 
L 2356 481 
L 2356 0 
L 1766 0 
Q 1100 0 847 248 
Q 594 497 594 1153 
L 594 3053 
L 172 3053 
L 172 3500 
L 594 3500 
L 594 4494 
L 1172 4494 
z
" transform="scale(0.015625)"/>
      </defs>
      <use xlink:href="#DejaVuSans-23"/>
      <use xlink:href="#DejaVuSans-20" x="83.789062"/>
      <use xlink:href="#DejaVuSans-64" x="115.576172"/>
      <use xlink:href="#DejaVuSans-69" x="179.052734"/>
      <use xlink:href="#DejaVuSans-73" x="206.835938"/>
      <use xlink:href="#DejaVuSans-6b" x="258.935547"/>
      <use xlink:href="#DejaVuSans-20" x="316.845703"/>
      <use xlink:href="#DejaVuSans-73" x="348.632812"/>
      <use xlink:href="#DejaVuSans-65" x="400.732422"/>
      <use xlink:href="#DejaVuSans-67" x="462.255859"/>
      <use xlink:href="#DejaVuSans-6d" x="525.732422"/>
      <use xlink:href="#DejaVuSans-65" x="623.144531"/>
      <use xlink:href="#DejaVuSans-6e" x="684.667969"/>
      <use xlink:href="#DejaVuSans-74" x="748.046875"/>
      <use xlink:href="#DejaVuSans-73" x="787.255859"/>
     </g>
    </g>
   </g>
   <g id="matplotlib.axis_2">
    <g id="ytick_1">
     <g id="line2d_8">
      <defs>
       <path id="m7fbb5aa1aa" d="M 0 0 
L -3.5 0 
" style="stroke: #000000; stroke-width: 0.8"/>
      </defs>
      <g>
       <use xlink:href="#m7fbb5aa1aa" x="57.17" y="303.64" style="stroke: #000000; stroke-width: 0.8"/>
      </g>
     </g>
     <g id="text_9">
      <!-- 0 -->
      <g transform="translate(43.8075 307.439219) scale(0.1 -0.1)">
       <defs>
        <path id="DejaVuSans-30" d="M 2034 4250 
Q 1547 4250 1301 3770 
Q 1056 3291 1056 2328 
Q 1056 1369 1301 889 
Q 1547 409 2034 409 
Q 2525 409 2770 889 
Q 3016 1369 3016 2328 
Q 3016 3291 2770 3770 
Q 2525 4250 2034 4250 
z
M 2034 4750 
Q 2819 4750 3233 4129 
Q 3647 3509 3647 2328 
Q 3647 1150 3233 529 
Q 2819 -91 2034 -91 
Q 1250 -91 836 529 
Q 422 1150 422 2328 
Q 422 3509 836 4129 
Q 1250 4750 2034 4750 
z
" transform="scale(0.015625)"/>
       </defs>
       <use xlink:href="#DejaVuSans-30"/>
      </g>
     </g>
    </g>
    <g id="ytick_2">
     <g id="line2d_9">
      <g>
       <use xlink:href="#m7fbb5aa1aa" x="57.17" y="255.559099" style="stroke: #000000; stroke-width: 0.8"/>
      </g>
     </g>
     <g id="text_10">
      <!-- 500 -->
      <g transform="translate(31.0825 259.358317) scale(0.1 -0.1)">
       <defs>
        <path id="DejaVuSans-35" d="M 691 4666 
L 3169 4666 
L 3169 4134 
L 1269 4134 
L 1269 2991 
Q 1406 3038 1543 3061 
Q 1681 3084 1819 3084 
Q 2600 3084 3056 2656 
Q 3513 2228 3513 1497 
Q 3513 744 3044 326 
Q 2575 -91 1722 -91 
Q 1428 -91 1123 -41 
Q 819 9 494 109 
L 494 744 
Q 775 591 1075 516 
Q 1375 441 1709 441 
Q 2250 441 2565 725 
Q 2881 1009 2881 1497 
Q 2881 1984 2565 2268 
Q 2250 2553 1709 2553 
Q 1456 2553 1204 2497 
Q 953 2441 691 2322 
L 691 4666 
z
" transform="scale(0.015625)"/>
       </defs>
       <use xlink:href="#DejaVuSans-35"/>
       <use xlink:href="#DejaVuSans-30" x="63.623047"/>
       <use xlink:href="#DejaVuSans-30" x="127.246094"/>
      </g>
     </g>
    </g>
    <g id="ytick_3">
     <g id="line2d_10">
      <g>
       <use xlink:href="#m7fbb5aa1aa" x="57.17" y="207.478197" style="stroke: #000000; stroke-width: 0.8"/>
      </g>
     </g>
     <g id="text_11">
      <!-- 1000 -->
      <g transform="translate(24.72 211.277416) scale(0.1 -0.1)">
       <use xlink:href="#DejaVuSans-31"/>
       <use xlink:href="#DejaVuSans-30" x="63.623047"/>
       <use xlink:href="#DejaVuSans-30" x="127.246094"/>
       <use xlink:href="#DejaVuSans-30" x="190.869141"/>
      </g>
     </g>
    </g>
    <g id="ytick_4">
     <g id="line2d_11">
      <g>
       <use xlink:href="#m7fbb5aa1aa" x="57.17" y="159.397296" style="stroke: #000000; stroke-width: 0.8"/>
      </g>
     </g>
     <g id="text_12">
      <!-- 1500 -->
      <g transform="translate(24.72 163.196514) scale(0.1 -0.1)">
       <use xlink:href="#DejaVuSans-31"/>
       <use xlink:href="#DejaVuSans-35" x="63.623047"/>
       <use xlink:href="#DejaVuSans-30" x="127.246094"/>
       <use xlink:href="#DejaVuSans-30" x="190.869141"/>
      </g>
     </g>
    </g>
    <g id="ytick_5">
     <g id="line2d_12">
      <g>
       <use xlink:href="#m7fbb5aa1aa" x="57.17" y="111.316394" style="stroke: #000000; stroke-width: 0.8"/>
      </g>
     </g>
     <g id="text_13">
      <!-- 2000 -->
      <g transform="translate(24.72 115.115613) scale(0.1 -0.1)">
       <use xlink:href="#DejaVuSans-32"/>
       <use xlink:href="#DejaVuSans-30" x="63.623047"/>
       <use xlink:href="#DejaVuSans-30" x="127.246094"/>
       <use xlink:href="#DejaVuSans-30" x="190.869141"/>
      </g>
     </g>
    </g>
    <g id="ytick_6">
     <g id="line2d_13">
      <g>
       <use xlink:href="#m7fbb5aa1aa" x="57.17" y="63.235493" style="stroke: #000000; stroke-width: 0.8"/>
      </g>
     </g>
     <g id="text_14">
      <!-- 2500 -->
      <g transform="translate(24.72 67.034712) scale(0.1 -0.1)">
       <use xlink:href="#DejaVuSans-32"/>
       <use xlink:href="#DejaVuSans-35" x="63.623047"/>
       <use xlink:href="#DejaVuSans-30" x="127.246094"/>
       <use xlink:href="#DejaVuSans-30" x="190.869141"/>
      </g>
     </g>
    </g>
    <g id="ytick_7">
     <g id="line2d_14">
      <g>
       <use xlink:href="#m7fbb5aa1aa" x="57.17" y="15.154591" style="stroke: #000000; stroke-width: 0.8"/>
      </g>
     </g>
     <g id="text_15">
      <!-- 3000 -->
      <g transform="translate(24.72 18.95381) scale(0.1 -0.1)">
       <use xlink:href="#DejaVuSans-33"/>
       <use xlink:href="#DejaVuSans-30" x="63.623047"/>
       <use xlink:href="#DejaVuSans-30" x="127.246094"/>
       <use xlink:href="#DejaVuSans-30" x="190.869141"/>
      </g>
     </g>
    </g>
    <g id="text_16">
     <!-- Read latency in ns -->
     <g transform="translate(18.640313 203.263343) rotate(-90) scale(0.1 -0.1)">
      <defs>
       <path id="DejaVuSans-52" d="M 2841 2188 
Q 3044 2119 3236 1894 
Q 3428 1669 3622 1275 
L 4263 0 
L 3584 0 
L 2988 1197 
Q 2756 1666 2539 1819 
Q 2322 1972 1947 1972 
L 1259 1972 
L 1259 0 
L 628 0 
L 628 4666 
L 2053 4666 
Q 2853 4666 3247 4331 
Q 3641 3997 3641 3322 
Q 3641 2881 3436 2590 
Q 3231 2300 2841 2188 
z
M 1259 4147 
L 1259 2491 
L 2053 2491 
Q 2509 2491 2742 2702 
Q 2975 2913 2975 3322 
Q 2975 3731 2742 3939 
Q 2509 4147 2053 4147 
L 1259 4147 
z
" transform="scale(0.015625)"/>
       <path id="DejaVuSans-61" d="M 2194 1759 
Q 1497 1759 1228 1600 
Q 959 1441 959 1056 
Q 959 750 1161 570 
Q 1363 391 1709 391 
Q 2188 391 2477 730 
Q 2766 1069 2766 1631 
L 2766 1759 
L 2194 1759 
z
M 3341 1997 
L 3341 0 
L 2766 0 
L 2766 531 
Q 2569 213 2275 61 
Q 1981 -91 1556 -91 
Q 1019 -91 701 211 
Q 384 513 384 1019 
Q 384 1609 779 1909 
Q 1175 2209 1959 2209 
L 2766 2209 
L 2766 2266 
Q 2766 2663 2505 2880 
Q 2244 3097 1772 3097 
Q 1472 3097 1187 3025 
Q 903 2953 641 2809 
L 641 3341 
Q 956 3463 1253 3523 
Q 1550 3584 1831 3584 
Q 2591 3584 2966 3190 
Q 3341 2797 3341 1997 
z
" transform="scale(0.015625)"/>
       <path id="DejaVuSans-6c" d="M 603 4863 
L 1178 4863 
L 1178 0 
L 603 0 
L 603 4863 
z
" transform="scale(0.015625)"/>
       <path id="DejaVuSans-63" d="M 3122 3366 
L 3122 2828 
Q 2878 2963 2633 3030 
Q 2388 3097 2138 3097 
Q 1578 3097 1268 2742 
Q 959 2388 959 1747 
Q 959 1106 1268 751 
Q 1578 397 2138 397 
Q 2388 397 2633 464 
Q 2878 531 3122 666 
L 3122 134 
Q 2881 22 2623 -34 
Q 2366 -91 2075 -91 
Q 1284 -91 818 406 
Q 353 903 353 1747 
Q 353 2603 823 3093 
Q 1294 3584 2113 3584 
Q 2378 3584 2631 3529 
Q 2884 3475 3122 3366 
z
" transform="scale(0.015625)"/>
       <path id="DejaVuSans-79" d="M 2059 -325 
Q 1816 -950 1584 -1140 
Q 1353 -1331 966 -1331 
L 506 -1331 
L 506 -850 
L 844 -850 
Q 1081 -850 1212 -737 
Q 1344 -625 1503 -206 
L 1606 56 
L 191 3500 
L 800 3500 
L 1894 763 
L 2988 3500 
L 3597 3500 
L 2059 -325 
z
" transform="scale(0.015625)"/>
      </defs>
      <use xlink:href="#DejaVuSans-52"/>
      <use xlink:href="#DejaVuSans-65" x="64.982422"/>
      <use xlink:href="#DejaVuSans-61" x="126.505859"/>
      <use xlink:href="#DejaVuSans-64" x="187.785156"/>
      <use xlink:href="#DejaVuSans-20" x="251.261719"/>
      <use xlink:href="#DejaVuSans-6c" x="283.048828"/>
      <use xlink:href="#DejaVuSans-61" x="310.832031"/>
      <use xlink:href="#DejaVuSans-74" x="372.111328"/>
      <use xlink:href="#DejaVuSans-65" x="411.320312"/>
      <use xlink:href="#DejaVuSans-6e" x="472.84375"/>
      <use xlink:href="#DejaVuSans-63" x="536.222656"/>
      <use xlink:href="#DejaVuSans-79" x="591.203125"/>
      <use xlink:href="#DejaVuSans-20" x="650.382812"/>
      <use xlink:href="#DejaVuSans-69" x="682.169922"/>
      <use xlink:href="#DejaVuSans-6e" x="709.953125"/>
      <use xlink:href="#DejaVuSans-20" x="773.332031"/>
      <use xlink:href="#DejaVuSans-6e" x="805.119141"/>
      <use xlink:href="#DejaVuSans-73" x="868.498047"/>
     </g>
    </g>
   </g>
   <g id="patch_31">
    <path d="M 57.17 303.64 
L 57.17 10.82731 
" style="fill: none; stroke: #000000; stroke-width: 0.8; stroke-linejoin: miter; stroke-linecap: square"/>
   </g>
   <g id="patch_32">
    <path d="M 450 303.64 
L 450 10.82731 
" style="fill: none; stroke: #000000; stroke-width: 0.8; stroke-linejoin: miter; stroke-linecap: square"/>
   </g>
   <g id="patch_33">
    <path d="M 57.17 303.64 
L 450 303.64 
" style="fill: none; stroke: #000000; stroke-width: 0.8; stroke-linejoin: miter; stroke-linecap: square"/>
   </g>
   <g id="patch_34">
    <path d="M 57.17 10.82731 
L 450 10.82731 
" style="fill: none; stroke: #000000; stroke-width: 0.8; stroke-linejoin: miter; stroke-linecap: square"/>
   </g>
   <g id="legend_1">
    <g id="patch_35">
     <path d="M 64.17 77.53981 
L 248.17 77.53981 
Q 250.17 77.53981 250.17 75.53981 
L 250.17 17.82731 
Q 250.17 15.82731 248.17 15.82731 
L 64.17 15.82731 
Q 62.17 15.82731 62.17 17.82731 
L 62.17 75.53981 
Q 62.17 77.53981 64.17 77.53981 
z
" style="fill: #ffffff; opacity: 0.8; stroke: #cccccc; stroke-linejoin: miter"/>
    </g>
    <g id="patch_36">
     <path d="M 66.17 27.425748 
L 86.17 27.425748 
L 86.17 20.425748 
L 66.17 20.425748 
z
" style="fill: #1f77b4"/>
    </g>
    <g id="text_17">
     <!-- Status quo, key length=42 -->
     <g transform="translate(94.17 27.425748) scale(0.1 -0.1)">
      <defs>
       <path id="DejaVuSans-53" d="M 3425 4513 
L 3425 3897 
Q 3066 4069 2747 4153 
Q 2428 4238 2131 4238 
Q 1616 4238 1336 4038 
Q 1056 3838 1056 3469 
Q 1056 3159 1242 3001 
Q 1428 2844 1947 2747 
L 2328 2669 
Q 3034 2534 3370 2195 
Q 3706 1856 3706 1288 
Q 3706 609 3251 259 
Q 2797 -91 1919 -91 
Q 1588 -91 1214 -16 
Q 841 59 441 206 
L 441 856 
Q 825 641 1194 531 
Q 1563 422 1919 422 
Q 2459 422 2753 634 
Q 3047 847 3047 1241 
Q 3047 1584 2836 1778 
Q 2625 1972 2144 2069 
L 1759 2144 
Q 1053 2284 737 2584 
Q 422 2884 422 3419 
Q 422 4038 858 4394 
Q 1294 4750 2059 4750 
Q 2388 4750 2728 4690 
Q 3069 4631 3425 4513 
z
" transform="scale(0.015625)"/>
       <path id="DejaVuSans-75" d="M 544 1381 
L 544 3500 
L 1119 3500 
L 1119 1403 
Q 1119 906 1312 657 
Q 1506 409 1894 409 
Q 2359 409 2629 706 
Q 2900 1003 2900 1516 
L 2900 3500 
L 3475 3500 
L 3475 0 
L 2900 0 
L 2900 538 
Q 2691 219 2414 64 
Q 2138 -91 1772 -91 
Q 1169 -91 856 284 
Q 544 659 544 1381 
z
M 1991 3584 
L 1991 3584 
z
" transform="scale(0.015625)"/>
       <path id="DejaVuSans-71" d="M 947 1747 
Q 947 1113 1208 752 
Q 1469 391 1925 391 
Q 2381 391 2643 752 
Q 2906 1113 2906 1747 
Q 2906 2381 2643 2742 
Q 2381 3103 1925 3103 
Q 1469 3103 1208 2742 
Q 947 2381 947 1747 
z
M 2906 525 
Q 2725 213 2448 61 
Q 2172 -91 1784 -91 
Q 1150 -91 751 415 
Q 353 922 353 1747 
Q 353 2572 751 3078 
Q 1150 3584 1784 3584 
Q 2172 3584 2448 3432 
Q 2725 3281 2906 2969 
L 2906 3500 
L 3481 3500 
L 3481 -1331 
L 2906 -1331 
L 2906 525 
z
" transform="scale(0.015625)"/>
       <path id="DejaVuSans-6f" d="M 1959 3097 
Q 1497 3097 1228 2736 
Q 959 2375 959 1747 
Q 959 1119 1226 758 
Q 1494 397 1959 397 
Q 2419 397 2687 759 
Q 2956 1122 2956 1747 
Q 2956 2369 2687 2733 
Q 2419 3097 1959 3097 
z
M 1959 3584 
Q 2709 3584 3137 3096 
Q 3566 2609 3566 1747 
Q 3566 888 3137 398 
Q 2709 -91 1959 -91 
Q 1206 -91 779 398 
Q 353 888 353 1747 
Q 353 2609 779 3096 
Q 1206 3584 1959 3584 
z
" transform="scale(0.015625)"/>
       <path id="DejaVuSans-2c" d="M 750 794 
L 1409 794 
L 1409 256 
L 897 -744 
L 494 -744 
L 750 256 
L 750 794 
z
" transform="scale(0.015625)"/>
       <path id="DejaVuSans-68" d="M 3513 2113 
L 3513 0 
L 2938 0 
L 2938 2094 
Q 2938 2591 2744 2837 
Q 2550 3084 2163 3084 
Q 1697 3084 1428 2787 
Q 1159 2491 1159 1978 
L 1159 0 
L 581 0 
L 581 4863 
L 1159 4863 
L 1159 2956 
Q 1366 3272 1645 3428 
Q 1925 3584 2291 3584 
Q 2894 3584 3203 3211 
Q 3513 2838 3513 2113 
z
" transform="scale(0.015625)"/>
       <path id="DejaVuSans-3d" d="M 678 2906 
L 4684 2906 
L 4684 2381 
L 678 2381 
L 678 2906 
z
M 678 1631 
L 4684 1631 
L 4684 1100 
L 678 1100 
L 678 1631 
z
" transform="scale(0.015625)"/>
      </defs>
      <use xlink:href="#DejaVuSans-53"/>
      <use xlink:href="#DejaVuSans-74" x="63.476562"/>
      <use xlink:href="#DejaVuSans-61" x="102.685547"/>
      <use xlink:href="#DejaVuSans-74" x="163.964844"/>
      <use xlink:href="#DejaVuSans-75" x="203.173828"/>
      <use xlink:href="#DejaVuSans-73" x="266.552734"/>
      <use xlink:href="#DejaVuSans-20" x="318.652344"/>
      <use xlink:href="#DejaVuSans-71" x="350.439453"/>
      <use xlink:href="#DejaVuSans-75" x="413.916016"/>
      <use xlink:href="#DejaVuSans-6f" x="477.294922"/>
      <use xlink:href="#DejaVuSans-2c" x="538.476562"/>
      <use xlink:href="#DejaVuSans-20" x="570.263672"/>
      <use xlink:href="#DejaVuSans-6b" x="602.050781"/>
      <use xlink:href="#DejaVuSans-65" x="656.335938"/>
      <use xlink:href="#DejaVuSans-79" x="717.859375"/>
      <use xlink:href="#DejaVuSans-20" x="777.039062"/>
      <use xlink:href="#DejaVuSans-6c" x="808.826172"/>
      <use xlink:href="#DejaVuSans-65" x="836.609375"/>
      <use xlink:href="#DejaVuSans-6e" x="898.132812"/>
      <use xlink:href="#DejaVuSans-67" x="961.511719"/>
      <use xlink:href="#DejaVuSans-74" x="1024.988281"/>
      <use xlink:href="#DejaVuSans-68" x="1064.197266"/>
      <use xlink:href="#DejaVuSans-3d" x="1127.576172"/>
      <use xlink:href="#DejaVuSans-34" x="1211.365234"/>
      <use xlink:href="#DejaVuSans-32" x="1274.988281"/>
     </g>
    </g>
    <g id="patch_37">
     <path d="M 66.17 42.103873 
L 86.17 42.103873 
L 86.17 35.103873 
L 66.17 35.103873 
z
" style="fill: #ff7f0e"/>
    </g>
    <g id="text_18">
     <!-- Hash sharing, key length=42 -->
     <g transform="translate(94.17 42.103873) scale(0.1 -0.1)">
      <defs>
       <path id="DejaVuSans-48" d="M 628 4666 
L 1259 4666 
L 1259 2753 
L 3553 2753 
L 3553 4666 
L 4184 4666 
L 4184 0 
L 3553 0 
L 3553 2222 
L 1259 2222 
L 1259 0 
L 628 0 
L 628 4666 
z
" transform="scale(0.015625)"/>
       <path id="DejaVuSans-72" d="M 2631 2963 
Q 2534 3019 2420 3045 
Q 2306 3072 2169 3072 
Q 1681 3072 1420 2755 
Q 1159 2438 1159 1844 
L 1159 0 
L 581 0 
L 581 3500 
L 1159 3500 
L 1159 2956 
Q 1341 3275 1631 3429 
Q 1922 3584 2338 3584 
Q 2397 3584 2469 3576 
Q 2541 3569 2628 3553 
L 2631 2963 
z
" transform="scale(0.015625)"/>
      </defs>
      <use xlink:href="#DejaVuSans-48"/>
      <use xlink:href="#DejaVuSans-61" x="75.195312"/>
      <use xlink:href="#DejaVuSans-73" x="136.474609"/>
      <use xlink:href="#DejaVuSans-68" x="188.574219"/>
      <use xlink:href="#DejaVuSans-20" x="251.953125"/>
      <use xlink:href="#DejaVuSans-73" x="283.740234"/>
      <use xlink:href="#DejaVuSans-68" x="335.839844"/>
      <use xlink:href="#DejaVuSans-61" x="399.21875"/>
      <use xlink:href="#DejaVuSans-72" x="460.498047"/>
      <use xlink:href="#DejaVuSans-69" x="501.611328"/>
      <use xlink:href="#DejaVuSans-6e" x="529.394531"/>
      <use xlink:href="#DejaVuSans-67" x="592.773438"/>
      <use xlink:href="#DejaVuSans-2c" x="656.25"/>
      <use xlink:href="#DejaVuSans-20" x="688.037109"/>
      <use xlink:href="#DejaVuSans-6b" x="719.824219"/>
      <use xlink:href="#DejaVuSans-65" x="774.109375"/>
      <use xlink:href="#DejaVuSans-79" x="835.632812"/>
      <use xlink:href="#DejaVuSans-20" x="894.8125"/>
      <use xlink:href="#DejaVuSans-6c" x="926.599609"/>
      <use xlink:href="#DejaVuSans-65" x="954.382812"/>
      <use xlink:href="#DejaVuSans-6e" x="1015.90625"/>
      <use xlink:href="#DejaVuSans-67" x="1079.285156"/>
      <use xlink:href="#DejaVuSans-74" x="1142.761719"/>
      <use xlink:href="#DejaVuSans-68" x="1181.970703"/>
      <use xlink:href="#DejaVuSans-3d" x="1245.349609"/>
      <use xlink:href="#DejaVuSans-34" x="1329.138672"/>
      <use xlink:href="#DejaVuSans-32" x="1392.761719"/>
     </g>
    </g>
    <g id="patch_38">
     <path d="M 66.17 56.781998 
L 86.17 56.781998 
L 86.17 49.781998 
L 66.17 49.781998 
z
" style="fill: #2ca02c"/>
    </g>
    <g id="text_19">
     <!-- Status quo, key length=168 -->
     <g transform="translate(94.17 56.781998) scale(0.1 -0.1)">
      <use xlink:href="#DejaVuSans-53"/>
      <use xlink:href="#DejaVuSans-74" x="63.476562"/>
      <use xlink:href="#DejaVuSans-61" x="102.685547"/>
      <use xlink:href="#DejaVuSans-74" x="163.964844"/>
      <use xlink:href="#DejaVuSans-75" x="203.173828"/>
      <use xlink:href="#DejaVuSans-73" x="266.552734"/>
      <use xlink:href="#DejaVuSans-20" x="318.652344"/>
      <use xlink:href="#DejaVuSans-71" x="350.439453"/>
      <use xlink:href="#DejaVuSans-75" x="413.916016"/>
      <use xlink:href="#DejaVuSans-6f" x="477.294922"/>
      <use xlink:href="#DejaVuSans-2c" x="538.476562"/>
      <use xlink:href="#DejaVuSans-20" x="570.263672"/>
      <use xlink:href="#DejaVuSans-6b" x="602.050781"/>
      <use xlink:href="#DejaVuSans-65" x="656.335938"/>
      <use xlink:href="#DejaVuSans-79" x="717.859375"/>
      <use xlink:href="#DejaVuSans-20" x="777.039062"/>
      <use xlink:href="#DejaVuSans-6c" x="808.826172"/>
      <use xlink:href="#DejaVuSans-65" x="836.609375"/>
      <use xlink:href="#DejaVuSans-6e" x="898.132812"/>
      <use xlink:href="#DejaVuSans-67" x="961.511719"/>
      <use xlink:href="#DejaVuSans-74" x="1024.988281"/>
      <use xlink:href="#DejaVuSans-68" x="1064.197266"/>
      <use xlink:href="#DejaVuSans-3d" x="1127.576172"/>
      <use xlink:href="#DejaVuSans-31" x="1211.365234"/>
      <use xlink:href="#DejaVuSans-36" x="1274.988281"/>
      <use xlink:href="#DejaVuSans-38" x="1338.611328"/>
     </g>
    </g>
    <g id="patch_39">
     <path d="M 66.17 71.460123 
L 86.17 71.460123 
L 86.17 64.460123 
L 66.17 64.460123 
z
" style="fill: #d62728"/>
    </g>
    <g id="text_20">
     <!-- Hash sharing, key length=168 -->
     <g transform="translate(94.17 71.460123) scale(0.1 -0.1)">
      <use xlink:href="#DejaVuSans-48"/>
      <use xlink:href="#DejaVuSans-61" x="75.195312"/>
      <use xlink:href="#DejaVuSans-73" x="136.474609"/>
      <use xlink:href="#DejaVuSans-68" x="188.574219"/>
      <use xlink:href="#DejaVuSans-20" x="251.953125"/>
      <use xlink:href="#DejaVuSans-73" x="283.740234"/>
      <use xlink:href="#DejaVuSans-68" x="335.839844"/>
      <use xlink:href="#DejaVuSans-61" x="399.21875"/>
      <use xlink:href="#DejaVuSans-72" x="460.498047"/>
      <use xlink:href="#DejaVuSans-69" x="501.611328"/>
      <use xlink:href="#DejaVuSans-6e" x="529.394531"/>
      <use xlink:href="#DejaVuSans-67" x="592.773438"/>
      <use xlink:href="#DejaVuSans-2c" x="656.25"/>
      <use xlink:href="#DejaVuSans-20" x="688.037109"/>
      <use xlink:href="#DejaVuSans-6b" x="719.824219"/>
      <use xlink:href="#DejaVuSans-65" x="774.109375"/>
      <use xlink:href="#DejaVuSans-79" x="835.632812"/>
      <use xlink:href="#DejaVuSans-20" x="894.8125"/>
      <use xlink:href="#DejaVuSans-6c" x="926.599609"/>
      <use xlink:href="#DejaVuSans-65" x="954.382812"/>
      <use xlink:href="#DejaVuSans-6e" x="1015.90625"/>
      <use xlink:href="#DejaVuSans-67" x="1079.285156"/>
      <use xlink:href="#DejaVuSans-74" x="1142.761719"/>
      <use xlink:href="#DejaVuSans-68" x="1181.970703"/>
      <use xlink:href="#DejaVuSans-3d" x="1245.349609"/>
      <use xlink:href="#DejaVuSans-31" x="1329.138672"/>
      <use xlink:href="#DejaVuSans-36" x="1392.761719"/>
      <use xlink:href="#DejaVuSans-38" x="1456.384766"/>
     </g>
    </g>
   </g>
  </g>
 </g>
 <defs>
  <clipPath id="peecf2664cc">
   <rect x="57.17" y="10.82731" width="392.83" height="292.81269"/>
  </clipPath>
 </defs>
</svg>
