<svg version="1.1" xmlns="http://www.w3.org/2000/svg" viewBox="0 0 1152.255623953683 856.7738095238096" width="1152.255623953683" height="856.7738095238096">
  <!-- svg-source:excalidraw -->
  
  <defs>
    <style class="style-fonts">
      @font-face {
        font-family: "Virgil";
        src: url("https://excalidraw.com/Virgil.woff2");
      }
      @font-face {
        font-family: "Cascadia";
        src: url("https://excalidraw.com/Cascadia.woff2");
      }
      @font-face {
        font-family: "Assistant";
        src: url("https://excalidraw.com/Assistant-Regular.woff2");
      }
    </style>
    
  </defs>
  <rect x="0" y="0" width="1152.255623953683" height="856.7738095238096" fill="#ffffff"></rect><g transform="translate(22.119972229003906 296.42857142857156) rotate(0 12.8699951171875 12.5)"><text x="12.8699951171875" y="17.52" font-family="Virgil, Segoe UI Emoji" font-size="20px" fill="#1e1e1e" text-anchor="middle" style="white-space: pre;" direction="ltr" dominant-baseline="alphabetic">L0</text></g><g transform="translate(28.14711325509211 461.07142857142844) rotate(0 8.699996948242188 12.5)"><text x="8.699996948242188" y="17.52" font-family="Virgil, Segoe UI Emoji" font-size="20px" fill="#1e1e1e" text-anchor="middle" style="white-space: pre;" direction="ltr" dominant-baseline="alphabetic">L1</text></g><g transform="translate(23.737117222377265 550.0714285714284) rotate(0 13.109992980957031 12.5)"><text x="13.109992980957031" y="17.52" font-family="Virgil, Segoe UI Emoji" font-size="20px" fill="#1e1e1e" text-anchor="middle" style="white-space: pre;" direction="ltr" dominant-baseline="alphabetic">L2</text></g><g transform="translate(23.047122410365546 641.0714285714284) rotate(0 12.79998779296875 12.5)"><text x="12.79998779296875" y="17.52" font-family="Virgil, Segoe UI Emoji" font-size="20px" fill="#1e1e1e" text-anchor="middle" style="white-space: pre;" direction="ltr" dominant-baseline="alphabetic">L3</text></g><g stroke-linecap="round"><g transform="translate(55.124228460448876 233.57142857142844) rotate(0 434.40859189203786 0)"><path d="M0.69 1.17 C145.39 1, 723.07 -0.67, 867.64 -0.98" stroke="#1e1e1e" stroke-width="1.5" fill="none" stroke-dasharray="1.5 7"></path></g></g><mask></mask><g transform="translate(10 147.42857142857156) rotate(0 33.989967346191406 12.5)"><text x="33.989967346191406" y="17.52" font-family="Virgil, Segoe UI Emoji" font-size="20px" fill="#1e1e1e" text-anchor="middle" style="white-space: pre;" direction="ltr" dominant-baseline="alphabetic">Memory</text></g><g stroke-linecap="round" transform="translate(421.2756816319056 10) rotate(0 53.5 30)"><path d="M15 0 C29.41 -0.78, 46.42 -0.16, 92 0 M15 0 C41.71 -0.37, 68.11 -1.34, 92 0 M92 0 C102.44 1.28, 105.47 5.92, 107 15 M92 0 C102.47 -2.26, 105.84 4.44, 107 15 M107 15 C105.12 20.7, 108.45 26.31, 107 45 M107 15 C108.21 25.77, 106.25 37.76, 107 45 M107 45 C107.02 54.09, 100.33 61.1, 92 60 M107 45 C106.76 55.54, 101.68 61.53, 92 60 M92 60 C74.43 61.34, 62.54 58.6, 15 60 M92 60 C74.47 59.96, 58.5 59.97, 15 60 M15 60 C5.68 58.21, -0.2 55.19, 0 45 M15 60 C6.53 59.23, -1.95 54.85, 0 45 M0 45 C-0.73 32.2, 1.26 23.36, 0 15 M0 45 C0.3 37.94, -1.12 30.12, 0 15 M0 15 C1.3 6.72, 6.92 -1.58, 15 0 M0 15 C-1.58 4.54, 6.46 0.58, 15 0" stroke="#1e1e1e" stroke-width="1" fill="none"></path></g><g transform="translate(442.33571733747203 15) rotate(0 32.439964294433594 25)"><text x="32.439964294433594" y="17.52" font-family="Virgil, Segoe UI Emoji" font-size="20px" fill="#1e1e1e" text-anchor="middle" style="white-space: pre;" direction="ltr" dominant-baseline="alphabetic">Write </text><text x="32.439964294433594" y="42.519999999999996" font-family="Virgil, Segoe UI Emoji" font-size="20px" fill="#1e1e1e" text-anchor="middle" style="white-space: pre;" direction="ltr" dominant-baseline="alphabetic">Buffer</text></g><g stroke-linecap="round"><g transform="translate(422.0909329726087 77.66666666666652) rotate(0 -129.38392609711764 101.59523809523807)"><path d="M-0.37 0.51 C-43.32 34.49, -215.43 170.28, -258.43 204.11 M1.64 -0.27 C-41.37 33.37, -215.77 168.27, -259.2 202.46" stroke="#1e1e1e" stroke-width="1" fill="none"></path></g><g transform="translate(422.0909329726087 77.66666666666652) rotate(0 -129.38392609711764 101.59523809523807)"><path d="M-259.4 202.66 L-251.05 188.44 L-246.28 198.97 L-257.46 201.95" stroke="none" stroke-width="0" fill="#1e1e1e" fill-rule="evenodd"></path><path d="M-259.2 202.46 C-256.96 199.72, -254.83 196.62, -252.38 189.11 M-259.2 202.46 C-256.88 198.69, -255.42 194.25, -252.38 189.11 M-252.38 189.11 C-250.29 191.21, -247.19 196.43, -244.58 199.11 M-252.38 189.11 C-251.23 191.52, -248.76 193.31, -244.58 199.11 M-244.58 199.11 C-249.48 200.32, -256.9 200.38, -259.2 202.46 M-244.58 199.11 C-249.88 200.83, -255.7 201.76, -259.2 202.46 M-259.2 202.46 C-259.2 202.46, -259.2 202.46, -259.2 202.46 M-259.2 202.46 C-259.2 202.46, -259.2 202.46, -259.2 202.46" stroke="#1e1e1e" stroke-width="1" fill="none"></path></g></g><mask></mask><g transform="translate(269.1414206368582 119.57142857142844) rotate(0 24.41997528076172 12.5)"><text x="24.41997528076172" y="17.52" font-family="Virgil, Segoe UI Emoji" font-size="20px" fill="#1e1e1e" text-anchor="middle" style="white-space: pre;" direction="ltr" dominant-baseline="alphabetic">Flush</text></g><g transform="translate(1036.2957393101283 485.2857142857142) rotate(0 52.979942321777344 12.5)"><text x="52.979942321777344" y="17.52" font-family="Virgil, Segoe UI Emoji" font-size="20px" fill="#1e1e1e" text-anchor="middle" style="white-space: pre;" direction="ltr" dominant-baseline="alphabetic">Compaction</text></g><g stroke-linecap="round"><g transform="translate(983.5613959176194 323.2857142857142) rotate(0 13.64285714285711 178.1428571428571)"><path d="M0.27 0.77 C4.59 29.32, 25.66 111.36, 26.37 170.41 C27.08 229.47, 8.31 324.18, 4.53 355.11 M-1.05 0.12 C3.6 28.4, 27.77 109.3, 28.6 168.58 C29.42 227.86, 8.06 324.41, 3.89 355.8" stroke="#1e1e1e" stroke-width="1" fill="none"></path></g><g transform="translate(983.5613959176194 323.2857142857142) rotate(0 13.64285714285711 178.1428571428571)"><path d="M4.67 355 L-1.27 342.52 L14 342.17 L5.25 357.78" stroke="none" stroke-width="0" fill="#1e1e1e" fill-rule="evenodd"></path><path d="M3.89 355.8 C3.62 349.81, 2.03 346.4, -0.08 341.34 M3.89 355.8 C2.49 353.05, 2.88 349.23, -0.08 341.34 M-0.08 341.34 C4.19 342.97, 7.11 343.81, 12.42 343.47 M-0.08 341.34 C3.29 341.55, 6.13 342.76, 12.42 343.47 M12.42 343.47 C10.98 345.57, 7.98 350.2, 3.89 355.8 M12.42 343.47 C10.35 345.43, 8.68 348.14, 3.89 355.8 M3.89 355.8 C3.89 355.8, 3.89 355.8, 3.89 355.8 M3.89 355.8 C3.89 355.8, 3.89 355.8, 3.89 355.8" stroke="#1e1e1e" stroke-width="1" fill="none"></path></g></g><mask></mask><g stroke-linecap="round"><g transform="translate(89.65569795880947 797.4880952380954) rotate(0 426.42857142857133 0)"><path d="M-0.92 0.55 C141.22 0.23, 710.91 -1.04, 853.1 -1.18 M0.8 -0.2 C142.78 -0.49, 710.55 -0.44, 852.28 -0.26" stroke="#1e1e1e" stroke-width="1" fill="none"></path></g><g transform="translate(89.65569795880947 797.4880952380954) rotate(0 426.42857142857133 0)"><path d="M-2.11 1.74 L14.24 -7.11 L14.05 8.84 L0.09 0.55" stroke="none" stroke-width="0" fill="#1e1e1e" fill-rule="evenodd"></path><path d="M-0.92 0.55 C4.11 -1.09, 6.32 -4.2, 12.66 -5.81 M-0.92 0.55 C3.4 -1.96, 6.41 -2.47, 12.66 -5.81 M12.66 -5.81 C13.18 -1.59, 12.38 -1.08, 12.69 6.86 M12.66 -5.81 C12.15 -0.88, 12.62 3.51, 12.69 6.86 M12.69 6.86 C9.23 4.53, 3.39 4.28, -0.92 0.55 M12.69 6.86 C7.06 3.94, 1.77 2.13, -0.92 0.55 M-0.92 0.55 C-0.92 0.55, -0.92 0.55, -0.92 0.55 M-0.92 0.55 C-0.92 0.55, -0.92 0.55, -0.92 0.55" stroke="#1e1e1e" stroke-width="1" fill="none"></path></g><g transform="translate(89.65569795880947 797.4880952380954) rotate(0 426.42857142857133 0)"><path d="M851.09 0.92 L840.26 4.78 L840.05 -4.63 L853.29 -0.26" stroke="none" stroke-width="0" fill="#1e1e1e" fill-rule="evenodd"></path><path d="M852.28 -0.26 C848.63 1.98, 842.08 2.96, 838.68 6.07 M852.28 -0.26 C848.99 0.79, 844.5 3.78, 838.68 6.07 M838.68 6.07 C839.02 4.32, 838.22 -1.14, 838.69 -6.61 M838.68 6.07 C838.15 1.83, 838.62 -2.95, 838.69 -6.61 M838.69 -6.61 C843.09 -5.05, 845.03 -1.69, 852.28 -0.26 M838.69 -6.61 C843.51 -4.42, 848.74 -1.33, 852.28 -0.26 M852.28 -0.26 C852.28 -0.26, 852.28 -0.26, 852.28 -0.26 M852.28 -0.26 C852.28 -0.26, 852.28 -0.26, 852.28 -0.26" stroke="#1e1e1e" stroke-width="1" fill="none"></path></g></g><mask></mask><g transform="translate(479.38860484531915 821.7738095238096) rotate(0 47.409950256347656 12.5)"><text x="47.409950256347656" y="17.52" font-family="Virgil, Segoe UI Emoji" font-size="20px" fill="#1e1e1e" text-anchor="middle" style="white-space: pre;" direction="ltr" dominant-baseline="alphabetic">Key range</text></g><g stroke-linecap="round" transform="translate(251.09209769112726 422.81547619047706) rotate(0 21.357142857142946 37.14285714285711)"><path d="M10.68 0 C17.32 0.65, 25.95 0.73, 32.04 0 M10.68 0 C17.84 0.4, 24.42 0.5, 32.04 0 M32.04 0 C39.37 1.51, 42.64 4.98, 42.71 10.68 M32.04 0 C38.87 -1.81, 42.05 5.43, 42.71 10.68 M42.71 10.68 C43.98 24.07, 41.53 35.5, 42.71 63.61 M42.71 10.68 C43.34 28.76, 43.08 48.08, 42.71 63.61 M42.71 63.61 C42.69 70.31, 40.5 72.29, 32.04 74.29 M42.71 63.61 C44.13 72.24, 40.1 73.11, 32.04 74.29 M32.04 74.29 C27.29 75, 23.3 75.89, 10.68 74.29 M32.04 74.29 C26.24 74.88, 22.62 74.7, 10.68 74.29 M10.68 74.29 C3.71 73.16, 0.59 70.95, 0 63.61 M10.68 74.29 C5.4 74.9, 1.09 71.31, 0 63.61 M0 63.61 C-1.71 48.95, -1 36.24, 0 10.68 M0 63.61 C-1.05 44.91, -0.7 27.44, 0 10.68 M0 10.68 C0.75 3.48, 5.28 -0.14, 10.68 0 M0 10.68 C-0.76 2.12, 2.5 -0.7, 10.68 0" stroke="#1971c2" stroke-width="1" fill="none"></path></g><g transform="translate(257.51924787248896 434.95833333333394) rotate(0 14.92999267578125 25)"><text x="14.92999267578125" y="17.52" font-family="Virgil, Segoe UI Emoji" font-size="20px" fill="#1971c2" text-anchor="middle" style="white-space: pre;" direction="ltr" dominant-baseline="alphabetic">64</text><text x="14.92999267578125" y="42.519999999999996" font-family="Virgil, Segoe UI Emoji" font-size="20px" fill="#1971c2" text-anchor="middle" style="white-space: pre;" direction="ltr" dominant-baseline="alphabetic">MB</text></g><g stroke-linecap="round" transform="translate(72.62781197684149 272.6726190476206) rotate(0 22.071428571428612 37.14285714285711)"><path d="M11.04 0 C17.35 1.88, 23.17 -0.9, 33.11 0 M11.04 0 C18.35 0.66, 26.03 0.81, 33.11 0 M33.11 0 C40.95 1.24, 45.87 2.77, 44.14 11.04 M33.11 0 C38.93 2.26, 43.51 2.12, 44.14 11.04 M44.14 11.04 C46.2 31.1, 44.64 51.68, 44.14 63.25 M44.14 11.04 C44.89 26.98, 42.95 43.9, 44.14 63.25 M44.14 63.25 C44.31 69.14, 39.99 74.07, 33.11 74.29 M44.14 63.25 C41.98 68.39, 41.4 73.49, 33.11 74.29 M33.11 74.29 C25.34 74.29, 22.54 75.86, 11.04 74.29 M33.11 74.29 C28.66 73.65, 23.29 73.83, 11.04 74.29 M11.04 74.29 C4.3 73.27, -1.12 70.39, 0 63.25 M11.04 74.29 C2.9 74.48, -1.55 68.36, 0 63.25 M0 63.25 C0.85 41.79, -1.52 20.22, 0 11.04 M0 63.25 C0.44 51.34, -0.54 38.66, 0 11.04 M0 11.04 C1.31 1.7, 4.24 0.53, 11.04 0 M0 11.04 C-1.46 2.92, 3.07 -0.92, 11.04 0" stroke="#2f9e44" stroke-width="1" fill="none"></path></g><g transform="translate(79.7692478724889 284.81547619047797) rotate(0 14.92999267578125 25)"><text x="14.92999267578125" y="17.52" font-family="Virgil, Segoe UI Emoji" font-size="20px" fill="#2f9e44" text-anchor="middle" style="white-space: pre;" direction="ltr" dominant-baseline="alphabetic">8 </text><text x="14.92999267578125" y="42.519999999999996" font-family="Virgil, Segoe UI Emoji" font-size="20px" fill="#2f9e44" text-anchor="middle" style="white-space: pre;" direction="ltr" dominant-baseline="alphabetic">MB</text></g><g stroke-linecap="round" transform="translate(121.19924054826993 289.8154761904775) rotate(0 22.071428571428612 37.14285714285711)"><path d="M11.04 0 C18.9 1.43, 25.87 -1.94, 33.11 0 M11.04 0 C19.52 0.88, 27.74 -0.14, 33.11 0 M33.11 0 C41.84 -0.11, 43.01 3.01, 44.14 11.04 M33.11 0 C40.03 -0.23, 44.8 4.8, 44.14 11.04 M44.14 11.04 C45.09 20.82, 44.37 35.74, 44.14 63.25 M44.14 11.04 C43.64 30.13, 44.06 51.08, 44.14 63.25 M44.14 63.25 C43.02 70.72, 39.81 75.72, 33.11 74.29 M44.14 63.25 C44.7 71.39, 40.81 73.8, 33.11 74.29 M33.11 74.29 C24.12 72.32, 16.23 76.1, 11.04 74.29 M33.11 74.29 C28.73 74.29, 24.21 73.84, 11.04 74.29 M11.04 74.29 C2.24 73.09, 1.29 71.69, 0 63.25 M11.04 74.29 C4.38 75.08, -1.7 71.26, 0 63.25 M0 63.25 C-0.5 51.69, -0.55 42.78, 0 11.04 M0 63.25 C-0.48 43.49, 0.56 22.17, 0 11.04 M0 11.04 C-1.76 4.03, 4.18 -1.66, 11.04 0 M0 11.04 C1.67 5.93, 5.91 -1.73, 11.04 0" stroke="#2f9e44" stroke-width="1" fill="none"></path></g><g transform="translate(128.34067644391735 301.95833333333485) rotate(0 14.92999267578125 25)"><text x="14.92999267578125" y="17.52" font-family="Virgil, Segoe UI Emoji" font-size="20px" fill="#2f9e44" text-anchor="middle" style="white-space: pre;" direction="ltr" dominant-baseline="alphabetic">8 </text><text x="14.92999267578125" y="42.519999999999996" font-family="Virgil, Segoe UI Emoji" font-size="20px" fill="#2f9e44" text-anchor="middle" style="white-space: pre;" direction="ltr" dominant-baseline="alphabetic">MB</text></g><g stroke-linecap="round" transform="translate(169.7706691196986 304.1011904761908) rotate(0 22.07142857142864 37.14285714285711)"><path d="M11.04 0 C17.96 0.01, 23.71 -0.36, 33.11 0 M11.04 0 C18.23 1.06, 27.92 -0.6, 33.11 0 M33.11 0 C41.79 1.15, 42.82 2.72, 44.14 11.04 M33.11 0 C39.69 -0.84, 44.28 4.73, 44.14 11.04 M44.14 11.04 C44.29 29.49, 44.41 49.22, 44.14 63.25 M44.14 11.04 C43.83 23.92, 44.54 36.54, 44.14 63.25 M44.14 63.25 C46 70.8, 41.23 75.29, 33.11 74.29 M44.14 63.25 C44.25 70.15, 39.73 72.21, 33.11 74.29 M33.11 74.29 C25.72 74.58, 21.67 75.03, 11.04 74.29 M33.11 74.29 C23.97 75.03, 16.57 73.94, 11.04 74.29 M11.04 74.29 C4.73 74.43, 1.51 70.45, 0 63.25 M11.04 74.29 C4.69 75.79, 0.64 71.46, 0 63.25 M0 63.25 C-0.87 46.41, -2.34 30.04, 0 11.04 M0 63.25 C0.3 45.76, 0.07 28.45, 0 11.04 M0 11.04 C-0.56 4.07, 4.4 -1.07, 11.04 0 M0 11.04 C-0.92 2.99, 5.1 -1.33, 11.04 0" stroke="#2f9e44" stroke-width="1" fill="none"></path></g><g transform="translate(176.91210501534601 316.24404761904816) rotate(0 14.92999267578125 25)"><text x="14.92999267578125" y="17.52" font-family="Virgil, Segoe UI Emoji" font-size="20px" fill="#2f9e44" text-anchor="middle" style="white-space: pre;" direction="ltr" dominant-baseline="alphabetic">8 </text><text x="14.92999267578125" y="42.519999999999996" font-family="Virgil, Segoe UI Emoji" font-size="20px" fill="#2f9e44" text-anchor="middle" style="white-space: pre;" direction="ltr" dominant-baseline="alphabetic">MB</text></g><g transform="translate(227.55638340541304 364.1011904761908) rotate(0 8.219993591308594 12.5)"><text x="0" y="17.52" font-family="Virgil, Segoe UI Emoji" font-size="20px" fill="#1e1e1e" text-anchor="start" style="white-space: pre;" direction="ltr" dominant-baseline="alphabetic">...</text></g><g stroke-linecap="round" transform="translate(300.4849548339844 422.6726190476202) rotate(0 21.357142857142946 37.14285714285711)"><path d="M10.68 0 C16.54 -1.45, 25.63 -1.33, 32.04 0 M10.68 0 C18.51 0.63, 24.02 -0.09, 32.04 0 M32.04 0 C40.42 -2, 41.82 5.51, 42.71 10.68 M32.04 0 C41.28 0.68, 41.51 4.41, 42.71 10.68 M42.71 10.68 C42.76 26.03, 44.06 40.58, 42.71 63.61 M42.71 10.68 C43.38 27.71, 42.38 43.87, 42.71 63.61 M42.71 63.61 C43.49 69.62, 40.68 75.77, 32.04 74.29 M42.71 63.61 C42.33 71.06, 38.56 73.27, 32.04 74.29 M32.04 74.29 C25.22 75.59, 23.87 74.36, 10.68 74.29 M32.04 74.29 C24.97 74.73, 19.96 74.11, 10.68 74.29 M10.68 74.29 C3.45 74.99, -0.5 70.47, 0 63.61 M10.68 74.29 C3.28 76.24, -1.26 68.66, 0 63.61 M0 63.61 C-1.66 40.76, 0.64 21.77, 0 10.68 M0 63.61 C-0.83 51.69, -0.41 42.04, 0 10.68 M0 10.68 C-1.69 5.13, 2.69 1.78, 10.68 0 M0 10.68 C1.16 3.97, 2.73 -0.35, 10.68 0" stroke="#1971c2" stroke-width="1" fill="none"></path></g><g transform="translate(306.91210501534607 434.81547619047706) rotate(0 14.92999267578125 25)"><text x="14.92999267578125" y="17.52" font-family="Virgil, Segoe UI Emoji" font-size="20px" fill="#1971c2" text-anchor="middle" style="white-space: pre;" direction="ltr" dominant-baseline="alphabetic">64</text><text x="14.92999267578125" y="42.519999999999996" font-family="Virgil, Segoe UI Emoji" font-size="20px" fill="#1971c2" text-anchor="middle" style="white-space: pre;" direction="ltr" dominant-baseline="alphabetic">MB</text></g><g stroke-linecap="round" transform="translate(345.7885262625558 512.7440476190482) rotate(0 21.357142857142946 37.14285714285711)"><path d="M10.68 0 C14.52 -1.48, 22.13 -1.79, 32.04 0 M10.68 0 C18.35 0.89, 27.42 0.5, 32.04 0 M32.04 0 C40.17 -0.27, 41.74 2.15, 42.71 10.68 M32.04 0 C37.04 1.71, 42.94 3.04, 42.71 10.68 M42.71 10.68 C41.04 23.91, 41.53 36.9, 42.71 63.61 M42.71 10.68 C43.23 21.65, 41.54 31.35, 42.71 63.61 M42.71 63.61 C43.21 71.16, 38.41 74.4, 32.04 74.29 M42.71 63.61 C41.17 70.77, 41.12 73.44, 32.04 74.29 M32.04 74.29 C25.13 72.79, 18.07 73.04, 10.68 74.29 M32.04 74.29 C26.72 74.92, 20.02 74.2, 10.68 74.29 M10.68 74.29 C2.47 73.96, -0.09 69.58, 0 63.61 M10.68 74.29 C4.67 76.15, 1.39 68.58, 0 63.61 M0 63.61 C-0.49 45.67, -0.06 23.76, 0 10.68 M0 63.61 C-1.3 44.65, 0.3 24.61, 0 10.68 M0 10.68 C1.98 3.44, 3.38 -0.22, 10.68 0 M0 10.68 C0.79 3.74, 2.04 1.55, 10.68 0" stroke="#f08c00" stroke-width="1" fill="none"></path></g><g transform="translate(352.2156764439175 524.886904761905) rotate(0 14.92999267578125 25)"><text x="14.92999267578125" y="17.52" font-family="Virgil, Segoe UI Emoji" font-size="20px" fill="#f08c00" text-anchor="middle" style="white-space: pre;" direction="ltr" dominant-baseline="alphabetic">64</text><text x="14.92999267578125" y="42.519999999999996" font-family="Virgil, Segoe UI Emoji" font-size="20px" fill="#f08c00" text-anchor="middle" style="white-space: pre;" direction="ltr" dominant-baseline="alphabetic">MB</text></g><g stroke-linecap="round" transform="translate(395.18138340541293 512.6011904761913) rotate(0 21.357142857142946 37.14285714285711)"><path d="M10.68 0 C17.22 -0.42, 20.75 -0.87, 32.04 0 M10.68 0 C19.57 -0.25, 26.97 -0.82, 32.04 0 M32.04 0 C37.31 1.49, 42.91 3.11, 42.71 10.68 M32.04 0 C38.14 -0.88, 41.51 1.86, 42.71 10.68 M42.71 10.68 C40.5 24.54, 43.27 42.51, 42.71 63.61 M42.71 10.68 C42.51 28.23, 41.89 45.39, 42.71 63.61 M42.71 63.61 C41.37 70.76, 40.87 73.55, 32.04 74.29 M42.71 63.61 C43 72.58, 40.06 74.01, 32.04 74.29 M32.04 74.29 C26.58 73.53, 22.07 74.75, 10.68 74.29 M32.04 74.29 C23.61 74.12, 16.22 73.71, 10.68 74.29 M10.68 74.29 C4.52 75.91, 1.21 68.86, 0 63.61 M10.68 74.29 C4.93 75.03, 0.92 70.36, 0 63.61 M0 63.61 C1.29 46.06, 1.28 24.09, 0 10.68 M0 63.61 C0.66 45.51, -0.42 27.41, 0 10.68 M0 10.68 C0.68 3.71, 2.24 1.35, 10.68 0 M0 10.68 C2.26 2.65, 2 1.4, 10.68 0" stroke="#f08c00" stroke-width="1" fill="none"></path></g><g transform="translate(401.6085335867746 524.7440476190482) rotate(0 14.92999267578125 25)"><text x="14.92999267578125" y="17.52" font-family="Virgil, Segoe UI Emoji" font-size="20px" fill="#f08c00" text-anchor="middle" style="white-space: pre;" direction="ltr" dominant-baseline="alphabetic">64</text><text x="14.92999267578125" y="42.519999999999996" font-family="Virgil, Segoe UI Emoji" font-size="20px" fill="#f08c00" text-anchor="middle" style="white-space: pre;" direction="ltr" dominant-baseline="alphabetic">MB</text></g><g stroke-linecap="round" transform="translate(440.07424054827015 511.3154761904766) rotate(0 21.357142857142946 37.14285714285711)"><path d="M10.68 0 C15.52 -1.76, 19.55 0.7, 32.04 0 M10.68 0 C16.26 0.41, 21.4 -0.47, 32.04 0 M32.04 0 C39.09 0.77, 42.51 4.3, 42.71 10.68 M32.04 0 C38.76 0.49, 41.89 3.82, 42.71 10.68 M42.71 10.68 C44.64 29.31, 44.3 46.21, 42.71 63.61 M42.71 10.68 C43.14 29.77, 43.08 48.21, 42.71 63.61 M42.71 63.61 C41.63 69.77, 40.95 74.37, 32.04 74.29 M42.71 63.61 C40.72 70.62, 38.77 73.26, 32.04 74.29 M32.04 74.29 C25.63 72.41, 18.72 73.33, 10.68 74.29 M32.04 74.29 C24.34 74.46, 17.83 74.82, 10.68 74.29 M10.68 74.29 C2.58 75.36, -1.78 71.24, 0 63.61 M10.68 74.29 C3.13 72.78, 1.47 69.94, 0 63.61 M0 63.61 C0.7 52.39, 0.73 42.18, 0 10.68 M0 63.61 C0.96 43.24, 1.16 25.28, 0 10.68 M0 10.68 C0.7 5.41, 2.27 1.15, 10.68 0 M0 10.68 C1.08 3.19, 2.71 -1, 10.68 0" stroke="#f08c00" stroke-width="1" fill="none"></path></g><g transform="translate(446.50139072963185 523.4583333333339) rotate(0 14.92999267578125 25)"><text x="14.92999267578125" y="17.52" font-family="Virgil, Segoe UI Emoji" font-size="20px" fill="#f08c00" text-anchor="middle" style="white-space: pre;" direction="ltr" dominant-baseline="alphabetic">64</text><text x="14.92999267578125" y="42.519999999999996" font-family="Virgil, Segoe UI Emoji" font-size="20px" fill="#f08c00" text-anchor="middle" style="white-space: pre;" direction="ltr" dominant-baseline="alphabetic">MB</text></g><g stroke-linecap="round" transform="translate(489.46709769112726 511.1726190476197) rotate(0 21.357142857142946 37.14285714285711)"><path d="M10.68 0 C14.77 1.72, 22.08 -0.43, 32.04 0 M10.68 0 C18.38 0.44, 26.04 0.42, 32.04 0 M32.04 0 C38.81 0.43, 42 3.78, 42.71 10.68 M32.04 0 C39.96 1.95, 43.03 5.25, 42.71 10.68 M42.71 10.68 C44.1 26.97, 41.4 49.09, 42.71 63.61 M42.71 10.68 C42.64 27.93, 44.08 46.18, 42.71 63.61 M42.71 63.61 C40.98 70.63, 38.82 73.39, 32.04 74.29 M42.71 63.61 C43.83 70.86, 40.19 75.49, 32.04 74.29 M32.04 74.29 C28.57 72.54, 22.7 73.39, 10.68 74.29 M32.04 74.29 C24.6 74.95, 17.27 74.67, 10.68 74.29 M10.68 74.29 C3.18 72.98, 1.28 70.04, 0 63.61 M10.68 74.29 C1.54 74.91, -1.52 71.69, 0 63.61 M0 63.61 C1.13 45.71, 0.76 32.65, 0 10.68 M0 63.61 C0.02 53.34, -0.98 41.8, 0 10.68 M0 10.68 C0.94 3.24, 2.82 -0.87, 10.68 0 M0 10.68 C-0.07 3.86, 3.24 0.89, 10.68 0" stroke="#f08c00" stroke-width="1" fill="none"></path></g><g transform="translate(495.89424787248896 523.315476190477) rotate(0 14.92999267578125 25)"><text x="14.92999267578125" y="17.52" font-family="Virgil, Segoe UI Emoji" font-size="20px" fill="#f08c00" text-anchor="middle" style="white-space: pre;" direction="ltr" dominant-baseline="alphabetic">64</text><text x="14.92999267578125" y="42.519999999999996" font-family="Virgil, Segoe UI Emoji" font-size="20px" fill="#f08c00" text-anchor="middle" style="white-space: pre;" direction="ltr" dominant-baseline="alphabetic">MB</text></g><g stroke-linecap="round" transform="translate(535.7885262625558 599.1726190476188) rotate(0 21.357142857142954 37.14285714285711)"><path d="M10.68 0 C16.91 -1.32, 21.33 0.71, 32.04 0 M10.68 0 C16.67 0.68, 22.21 -0.28, 32.04 0 M32.04 0 C41.13 -1.62, 43.46 4.71, 42.71 10.68 M32.04 0 C39.89 1.8, 43.44 2.15, 42.71 10.68 M42.71 10.68 C44.85 29.99, 42.69 49.81, 42.71 63.61 M42.71 10.68 C41.87 22.49, 43.2 34.91, 42.71 63.61 M42.71 63.61 C41.75 69.24, 39.32 72.99, 32.04 74.29 M42.71 63.61 C44.62 69.28, 39.43 75.72, 32.04 74.29 M32.04 74.29 C27.21 74.03, 20.59 74.56, 10.68 74.29 M32.04 74.29 C24.63 73.77, 18.4 74.38, 10.68 74.29 M10.68 74.29 C4.1 74.35, -1.92 69.74, 0 63.61 M10.68 74.29 C4.31 76.23, 1.8 72.19, 0 63.61 M0 63.61 C-0.73 43.83, -0.43 27.53, 0 10.68 M0 63.61 C1.04 44.68, -0.1 28.06, 0 10.68 M0 10.68 C1.07 3.92, 2.28 1.48, 10.68 0 M0 10.68 C-1.05 1.49, 2.39 1.65, 10.68 0" stroke="#e03131" stroke-width="1" fill="none"></path></g><g transform="translate(542.2156764439176 611.3154761904761) rotate(0 14.92999267578125 25)"><text x="14.92999267578125" y="17.52" font-family="Virgil, Segoe UI Emoji" font-size="20px" fill="#e03131" text-anchor="middle" style="white-space: pre;" direction="ltr" dominant-baseline="alphabetic">64</text><text x="14.92999267578125" y="42.519999999999996" font-family="Virgil, Segoe UI Emoji" font-size="20px" fill="#e03131" text-anchor="middle" style="white-space: pre;" direction="ltr" dominant-baseline="alphabetic">MB</text></g><g stroke-linecap="round" transform="translate(585.1813834054129 599.0297619047619) rotate(0 21.357142857142954 37.14285714285711)"><path d="M10.68 0 C14.59 0.43, 22.06 0.98, 32.04 0 M10.68 0 C19.94 -0.79, 27.6 0.59, 32.04 0 M32.04 0 C39.79 1.56, 43.35 2.33, 42.71 10.68 M32.04 0 C40.77 2.07, 41.8 5.47, 42.71 10.68 M42.71 10.68 C41.28 23.85, 43.61 40.26, 42.71 63.61 M42.71 10.68 C42.76 22.45, 43.32 35.06, 42.71 63.61 M42.71 63.61 C44.37 69.47, 39.39 75.54, 32.04 74.29 M42.71 63.61 C41.49 70.81, 40.27 74.8, 32.04 74.29 M32.04 74.29 C26.35 75.92, 20.28 73.02, 10.68 74.29 M32.04 74.29 C27.08 74.33, 20.62 73.81, 10.68 74.29 M10.68 74.29 C4.21 75.98, 1.57 72, 0 63.61 M10.68 74.29 C4.82 73.8, 0.37 69.76, 0 63.61 M0 63.61 C1.03 48.92, 1.15 38.4, 0 10.68 M0 63.61 C0.79 51.63, -0.39 40.03, 0 10.68 M0 10.68 C-0.91 1.76, 2.54 1.44, 10.68 0 M0 10.68 C-1.41 3.64, 3.87 1.3, 10.68 0" stroke="#e03131" stroke-width="1" fill="none"></path></g><g transform="translate(591.6085335867747 611.1726190476193) rotate(0 14.92999267578125 25)"><text x="14.92999267578125" y="17.52" font-family="Virgil, Segoe UI Emoji" font-size="20px" fill="#e03131" text-anchor="middle" style="white-space: pre;" direction="ltr" dominant-baseline="alphabetic">64</text><text x="14.92999267578125" y="42.519999999999996" font-family="Virgil, Segoe UI Emoji" font-size="20px" fill="#e03131" text-anchor="middle" style="white-space: pre;" direction="ltr" dominant-baseline="alphabetic">MB</text></g><g stroke-linecap="round" transform="translate(630.0742405482702 597.7440476190482) rotate(0 21.357142857142954 37.14285714285711)"><path d="M10.68 0 C19.35 1.04, 24.36 1.86, 32.04 0 M10.68 0 C15.67 0.66, 20.34 -0.74, 32.04 0 M32.04 0 C40.56 1.8, 41.92 5.22, 42.71 10.68 M32.04 0 C38.82 -0.58, 42.64 2.07, 42.71 10.68 M42.71 10.68 C41.72 23.41, 41.67 31.18, 42.71 63.61 M42.71 10.68 C43.59 21.98, 42.88 35.17, 42.71 63.61 M42.71 63.61 C41.65 70.8, 40.12 74.73, 32.04 74.29 M42.71 63.61 C42.3 69.67, 39.35 74.67, 32.04 74.29 M32.04 74.29 C22.8 73.93, 15.9 74.69, 10.68 74.29 M32.04 74.29 C25.89 75.03, 19.87 74.82, 10.68 74.29 M10.68 74.29 C4.66 73.86, 0.32 69.89, 0 63.61 M10.68 74.29 C2.42 73.66, 1.73 71.75, 0 63.61 M0 63.61 C-1.67 50.54, 1.56 40.46, 0 10.68 M0 63.61 C-0.12 45.88, -0.17 30.66, 0 10.68 M0 10.68 C-1.23 3.63, 3.83 1.13, 10.68 0 M0 10.68 C0.69 5.71, 1.35 2.2, 10.68 0" stroke="#e03131" stroke-width="1" fill="none"></path></g><g transform="translate(636.5013907296318 609.8869047619055) rotate(0 14.92999267578125 25)"><text x="14.92999267578125" y="17.52" font-family="Virgil, Segoe UI Emoji" font-size="20px" fill="#e03131" text-anchor="middle" style="white-space: pre;" direction="ltr" dominant-baseline="alphabetic">64</text><text x="14.92999267578125" y="42.519999999999996" font-family="Virgil, Segoe UI Emoji" font-size="20px" fill="#e03131" text-anchor="middle" style="white-space: pre;" direction="ltr" dominant-baseline="alphabetic">MB</text></g><g stroke-linecap="round" transform="translate(679.4670976911273 597.6011904761913) rotate(0 21.357142857142954 37.14285714285711)"><path d="M10.68 0 C16.69 0.54, 27.09 0.43, 32.04 0 M10.68 0 C19.46 1.03, 26.44 0.96, 32.04 0 M32.04 0 C38.87 -0.5, 42.65 2.26, 42.71 10.68 M32.04 0 C36.92 1.18, 41.96 2.1, 42.71 10.68 M42.71 10.68 C40.87 32, 41.07 54.66, 42.71 63.61 M42.71 10.68 C42.24 23.27, 43.26 36.01, 42.71 63.61 M42.71 63.61 C42.35 69.81, 39.33 74.62, 32.04 74.29 M42.71 63.61 C44.57 71.05, 37.68 73.02, 32.04 74.29 M32.04 74.29 C25.93 72.43, 18.72 75, 10.68 74.29 M32.04 74.29 C24.37 74.21, 15.77 74, 10.68 74.29 M10.68 74.29 C2.57 73.74, 1.5 71.61, 0 63.61 M10.68 74.29 C1.92 75.44, 1.53 69.11, 0 63.61 M0 63.61 C-0.12 48.98, 0.99 36.01, 0 10.68 M0 63.61 C-0.34 52.52, 0.4 41.93, 0 10.68 M0 10.68 C0.6 5.43, 1.64 1.92, 10.68 0 M0 10.68 C-2.19 2.88, 2.37 -1.04, 10.68 0" stroke="#e03131" stroke-width="1" fill="none"></path></g><g transform="translate(685.8942478724889 609.7440476190486) rotate(0 14.92999267578125 25)"><text x="14.92999267578125" y="17.52" font-family="Virgil, Segoe UI Emoji" font-size="20px" fill="#e03131" text-anchor="middle" style="white-space: pre;" direction="ltr" dominant-baseline="alphabetic">64</text><text x="14.92999267578125" y="42.519999999999996" font-family="Virgil, Segoe UI Emoji" font-size="20px" fill="#e03131" text-anchor="middle" style="white-space: pre;" direction="ltr" dominant-baseline="alphabetic">MB</text></g><g stroke-linecap="round" transform="translate(728.6456691196986 596.3154761904757) rotate(0 21.357142857142954 37.14285714285711)"><path d="M10.68 0 C14.32 -0.14, 21.28 -0.93, 32.04 0 M10.68 0 C18.04 -0.78, 23.64 0.15, 32.04 0 M32.04 0 C37.36 -1.45, 43.94 3.11, 42.71 10.68 M32.04 0 C38.58 2.22, 40.47 3.22, 42.71 10.68 M42.71 10.68 C42.71 27.12, 41.5 45.49, 42.71 63.61 M42.71 10.68 C43.53 30.27, 42.58 47.94, 42.71 63.61 M42.71 63.61 C41.3 68.76, 37.19 73.13, 32.04 74.29 M42.71 63.61 C44.71 71.06, 40.35 76.43, 32.04 74.29 M32.04 74.29 C27.6 74.99, 22.04 73.39, 10.68 74.29 M32.04 74.29 C23.57 73.9, 17.06 73.92, 10.68 74.29 M10.68 74.29 C4.66 75.42, -0.91 68.87, 0 63.61 M10.68 74.29 C3.11 76.25, -0.62 70.36, 0 63.61 M0 63.61 C-0.45 44.33, -0.9 26.58, 0 10.68 M0 63.61 C1.28 47.03, 0.24 29.01, 0 10.68 M0 10.68 C-1.17 4.42, 2.95 1.85, 10.68 0 M0 10.68 C0.47 5.4, 2.73 -0.93, 10.68 0" stroke="#e03131" stroke-width="1" fill="none"></path></g><g transform="translate(735.0728193010602 608.458333333333) rotate(0 14.92999267578125 25)"><text x="14.92999267578125" y="17.52" font-family="Virgil, Segoe UI Emoji" font-size="20px" fill="#e03131" text-anchor="middle" style="white-space: pre;" direction="ltr" dominant-baseline="alphabetic">64</text><text x="14.92999267578125" y="42.519999999999996" font-family="Virgil, Segoe UI Emoji" font-size="20px" fill="#e03131" text-anchor="middle" style="white-space: pre;" direction="ltr" dominant-baseline="alphabetic">MB</text></g><g stroke-linecap="round" transform="translate(778.0385262625557 596.1726190476188) rotate(0 21.357142857142946 37.14285714285711)"><path d="M10.68 0 C16.96 1.59, 21.5 1.78, 32.04 0 M10.68 0 C14.17 -0.72, 20.06 -0.22, 32.04 0 M32.04 0 C38.66 1.93, 40.76 3.26, 42.71 10.68 M32.04 0 C39.58 -0.21, 43.4 3.61, 42.71 10.68 M42.71 10.68 C43.63 25.31, 43.08 41.96, 42.71 63.61 M42.71 10.68 C41.96 28.12, 41.68 46.94, 42.71 63.61 M42.71 63.61 C44.45 71.02, 40.2 76.15, 32.04 74.29 M42.71 63.61 C41.75 71.45, 38.34 75.53, 32.04 74.29 M32.04 74.29 C26.27 72.65, 18.06 73.22, 10.68 74.29 M32.04 74.29 C27.12 74.76, 20.64 73.27, 10.68 74.29 M10.68 74.29 C3.17 76, -0.54 70.41, 0 63.61 M10.68 74.29 C4.35 72.09, -1.49 69.63, 0 63.61 M0 63.61 C0.96 50.73, -1.05 42.14, 0 10.68 M0 63.61 C-0.54 43.66, -0.26 23.77, 0 10.68 M0 10.68 C0.41 5.16, 2.84 -0.81, 10.68 0 M0 10.68 C-0.02 4.14, 5.02 0.16, 10.68 0" stroke="#e03131" stroke-width="1" fill="none"></path></g><g transform="translate(784.4656764439173 608.3154761904761) rotate(0 14.92999267578125 25)"><text x="14.92999267578125" y="17.52" font-family="Virgil, Segoe UI Emoji" font-size="20px" fill="#e03131" text-anchor="middle" style="white-space: pre;" direction="ltr" dominant-baseline="alphabetic">64</text><text x="14.92999267578125" y="42.519999999999996" font-family="Virgil, Segoe UI Emoji" font-size="20px" fill="#e03131" text-anchor="middle" style="white-space: pre;" direction="ltr" dominant-baseline="alphabetic">MB</text></g><g stroke-linecap="round" transform="translate(822.9313834054129 594.886904761905) rotate(0 21.357142857142946 37.14285714285711)"><path d="M10.68 0 C16.77 -0.36, 26.64 -1.97, 32.04 0 M10.68 0 C15.28 1.01, 19.41 -0.1, 32.04 0 M32.04 0 C39.53 -0.18, 43.31 3.6, 42.71 10.68 M32.04 0 C38.68 -1.34, 43.97 4.97, 42.71 10.68 M42.71 10.68 C43.85 25.97, 40.96 40.23, 42.71 63.61 M42.71 10.68 C43.06 21.5, 42.71 32.97, 42.71 63.61 M42.71 63.61 C41.87 71.36, 38.45 75.36, 32.04 74.29 M42.71 63.61 C43.61 71.91, 38.21 75.98, 32.04 74.29 M32.04 74.29 C26.4 76.16, 21.69 75.28, 10.68 74.29 M32.04 74.29 C24.22 74.94, 16.52 73.93, 10.68 74.29 M10.68 74.29 C4.25 72.38, -1.3 69.77, 0 63.61 M10.68 74.29 C1.74 72.66, -1.88 71.4, 0 63.61 M0 63.61 C2.08 50.69, 0.88 36.91, 0 10.68 M0 63.61 C0.37 46.25, -0.2 26.88, 0 10.68 M0 10.68 C-0.02 4.07, 4.83 0.14, 10.68 0 M0 10.68 C0.88 2.68, 2.51 -0.7, 10.68 0" stroke="#e03131" stroke-width="1" fill="none"></path></g><g transform="translate(829.3585335867747 607.0297619047624) rotate(0 14.92999267578125 25)"><text x="14.92999267578125" y="17.52" font-family="Virgil, Segoe UI Emoji" font-size="20px" fill="#e03131" text-anchor="middle" style="white-space: pre;" direction="ltr" dominant-baseline="alphabetic">64</text><text x="14.92999267578125" y="42.519999999999996" font-family="Virgil, Segoe UI Emoji" font-size="20px" fill="#e03131" text-anchor="middle" style="white-space: pre;" direction="ltr" dominant-baseline="alphabetic">MB</text></g><g stroke-linecap="round" transform="translate(872.32424054827 594.7440476190482) rotate(0 21.357142857142946 37.14285714285711)"><path d="M10.68 0 C15.44 1.41, 22.66 -0.31, 32.04 0 M10.68 0 C19.33 -0.06, 27.91 0.05, 32.04 0 M32.04 0 C38.74 -1.16, 43.81 4.78, 42.71 10.68 M32.04 0 C38.98 0.77, 44.69 4.66, 42.71 10.68 M42.71 10.68 C40.24 24.07, 41.05 43.14, 42.71 63.61 M42.71 10.68 C42.57 27.64, 42.64 44.51, 42.71 63.61 M42.71 63.61 C43.49 71.75, 38.34 75.76, 32.04 74.29 M42.71 63.61 C40.93 71.3, 38.04 73.27, 32.04 74.29 M32.04 74.29 C24.66 73.49, 13.15 74.01, 10.68 74.29 M32.04 74.29 C24.15 73.3, 14.92 73.77, 10.68 74.29 M10.68 74.29 C1.98 72.88, -1.63 71.31, 0 63.61 M10.68 74.29 C2.21 72.65, 2.23 72.68, 0 63.61 M0 63.61 C0.73 47.52, 1.72 33.06, 0 10.68 M0 63.61 C0.18 43.75, 0.83 23.45, 0 10.68 M0 10.68 C0.77 2.8, 2.64 -0.61, 10.68 0 M0 10.68 C-0.06 4.15, 1.66 -1.5, 10.68 0" stroke="#e03131" stroke-width="1" fill="none"></path></g><g transform="translate(878.7513907296318 606.8869047619055) rotate(0 14.92999267578125 25)"><text x="14.92999267578125" y="17.52" font-family="Virgil, Segoe UI Emoji" font-size="20px" fill="#e03131" text-anchor="middle" style="white-space: pre;" direction="ltr" dominant-baseline="alphabetic">64</text><text x="14.92999267578125" y="42.519999999999996" font-family="Virgil, Segoe UI Emoji" font-size="20px" fill="#e03131" text-anchor="middle" style="white-space: pre;" direction="ltr" dominant-baseline="alphabetic">MB</text></g><g stroke-linecap="round"><g transform="translate(96.12781197684092 701.2440476190495) rotate(0 405.7142857142857 0)"><path d="M-0.67 -0.09 C134.55 0.05, 675.16 -0.23, 810.55 -0.19 M1.18 -1.18 C136.84 -0.76, 677.82 0.79, 812.8 1.24" stroke="#1e1e1e" stroke-width="1" fill="none"></path></g><g transform="translate(96.12781197684092 701.2440476190495) rotate(0 405.7142857142857 0)"><path d="M811.93 2.39 L799.14 7.6 L801.18 -6.78 L811.84 0.9" stroke="none" stroke-width="0" fill="#1e1e1e" fill-rule="evenodd"></path><path d="M812.8 1.24 C809.41 1.56, 806.07 4.48, 799.19 7.54 M812.8 1.24 C808.71 2.72, 803.7 5.2, 799.19 7.54 M799.19 7.54 C798.26 5.84, 798.97 2.14, 799.22 -5.14 M799.19 7.54 C799.34 3.1, 798.75 -0.3, 799.22 -5.14 M799.22 -5.14 C803.11 -3.21, 807.3 -2.6, 812.8 1.24 M799.22 -5.14 C802.98 -3.09, 806.37 -2.03, 812.8 1.24 M812.8 1.24 C812.8 1.24, 812.8 1.24, 812.8 1.24 M812.8 1.24 C812.8 1.24, 812.8 1.24, 812.8 1.24" stroke="#1e1e1e" stroke-width="1" fill="none"></path></g></g><mask></mask><g transform="translate(484.6992405482695 712.6726190476215) rotate(0 38.43995666503906 12.5)"><text x="0" y="17.52" font-family="Virgil, Segoe UI Emoji" font-size="20px" fill="#1e1e1e" text-anchor="start" style="white-space: pre;" direction="ltr" dominant-baseline="alphabetic">Key age</text></g></svg>