<svg version="1.1" xmlns="http://www.w3.org/2000/svg" viewBox="0 0 621.1569751585876 449.4743242443842" width="621.1569751585876" height="449.4743242443842">
  <!-- svg-source:excalidraw -->
  
  <defs>
    <style class="style-fonts">
      @font-face {
        font-family: "Virgil";
        src: url("https://excalidraw.com/Virgil.woff2");
      }
      @font-face {
        font-family: "Cascadia";
        src: url("https://excalidraw.com/Cascadia.woff2");
      }
      @font-face {
        font-family: "Assistant";
        src: url("https://excalidraw.com/Assistant-Regular.woff2");
      }
    </style>
    
  </defs>
  <rect x="0" y="0" width="621.1569751585876" height="449.4743242443842" fill="#ffffff"></rect><g stroke-linecap="round" transform="translate(10 11.474324244385116) rotate(0 48.5 37)"><path d="M18.5 0 C39.35 -1.54, 57.01 -0.6, 78.5 0 M18.5 0 C40.18 0.78, 61.66 0.11, 78.5 0 M78.5 0 C92.12 1.73, 95.11 7.1, 97 18.5 M78.5 0 C92.06 -1.75, 96.49 6.32, 97 18.5 M97 18.5 C96.23 28.12, 97.42 39.33, 97 55.5 M97 18.5 C97.9 29.99, 96.62 42.2, 97 55.5 M97 55.5 C98.99 66.69, 91.21 73.52, 78.5 74 M97 55.5 C97.11 69.86, 88.7 74.1, 78.5 74 M78.5 74 C54.79 74.42, 34.78 75.49, 18.5 74 M78.5 74 C66.42 74.25, 52.87 73.38, 18.5 74 M18.5 74 C7.97 72.44, 0.96 67.8, 0 55.5 M18.5 74 C4.94 72.63, -0.87 65.84, 0 55.5 M0 55.5 C0.64 48.18, -1.78 39.61, 0 18.5 M0 55.5 C0.17 43.51, -0.19 29.52, 0 18.5 M0 18.5 C-1.82 5.78, 8.15 0.34, 18.5 0 M0 18.5 C-1.53 7.63, 5.31 0.71, 18.5 0" stroke="#1e1e1e" stroke-width="1" fill="none"></path></g><g transform="translate(25.77002716064453 35.974324244385116) rotate(0 32.72997283935547 12.5)"><text x="32.72997283935547" y="17.52" font-family="Virgil, Segoe UI Emoji" font-size="20px" fill="#1e1e1e" text-anchor="middle" style="white-space: pre;" direction="ltr" dominant-baseline="alphabetic">64 MB</text></g><g stroke-linecap="round" transform="translate(114.5 11.474324244385116) rotate(0 48.5 37)"><path d="M18.5 0 C33.99 -1.64, 47.91 1.19, 78.5 0 M18.5 0 C42.72 0.7, 64.71 0.3, 78.5 0 M78.5 0 C91.9 -1.52, 96.55 6.3, 97 18.5 M78.5 0 C90.85 -0.41, 97.43 5.35, 97 18.5 M97 18.5 C97.38 26.45, 99.09 37.05, 97 55.5 M97 18.5 C97.88 28.48, 97.07 39.37, 97 55.5 M97 55.5 C97.1 69.59, 88.98 74.09, 78.5 74 M97 55.5 C98.59 69.18, 89.62 72.19, 78.5 74 M78.5 74 C56.42 75.38, 38.2 75.1, 18.5 74 M78.5 74 C60.05 72.83, 40.27 73.59, 18.5 74 M18.5 74 C5.1 72.81, -0.76 66.1, 0 55.5 M18.5 74 C3.99 74.02, -1.35 68.57, 0 55.5 M0 55.5 C1.2 43.06, 1.65 32.31, 0 18.5 M0 55.5 C-0.78 41.5, 1.12 28.06, 0 18.5 M0 18.5 C-1.33 7.44, 5.42 0.62, 18.5 0 M0 18.5 C0.25 5.12, 6.15 -1.7, 18.5 0" stroke="#1e1e1e" stroke-width="1" fill="none"></path></g><g transform="translate(130.27002716064453 35.974324244385116) rotate(0 32.72997283935547 12.5)"><text x="32.72997283935547" y="17.52" font-family="Virgil, Segoe UI Emoji" font-size="20px" fill="#1e1e1e" text-anchor="middle" style="white-space: pre;" direction="ltr" dominant-baseline="alphabetic">64 MB</text></g><g stroke-linecap="round" transform="translate(221.33333333333212 13.474324244385116) rotate(0 48.5 37)"><path d="M18.5 0 C33.21 1.49, 44.73 0.96, 78.5 0 M18.5 0 C42.22 -1.04, 64.66 -0.21, 78.5 0 M78.5 0 C90.85 -0.36, 97.38 5.46, 97 18.5 M78.5 0 C89.1 0.56, 95.36 6.5, 97 18.5 M97 18.5 C97.07 28.3, 98.24 41.35, 97 55.5 M97 18.5 C97.12 28.36, 96.14 36.5, 97 55.5 M97 55.5 C98.38 69.01, 89.78 72.43, 78.5 74 M97 55.5 C97.84 68.47, 92.91 71.84, 78.5 74 M78.5 74 C58.43 72.33, 36.15 75.97, 18.5 74 M78.5 74 C64.65 73.4, 51.49 73.12, 18.5 74 M18.5 74 C4.27 74.02, -1.17 68.48, 0 55.5 M18.5 74 C6.48 71.96, -0.8 68.84, 0 55.5 M0 55.5 C1.22 45.24, -1.33 34.53, 0 18.5 M0 55.5 C-1.03 45.75, -0.74 35.02, 0 18.5 M0 18.5 C0.22 5.26, 6.15 -1.47, 18.5 0 M0 18.5 C1.52 4.36, 5.95 -1.68, 18.5 0" stroke="#1e1e1e" stroke-width="1" fill="none"></path></g><g transform="translate(237.10336049397665 37.974324244385116) rotate(0 32.72997283935547 12.5)"><text x="32.72997283935547" y="17.52" font-family="Virgil, Segoe UI Emoji" font-size="20px" fill="#1e1e1e" text-anchor="middle" style="white-space: pre;" direction="ltr" dominant-baseline="alphabetic">64 MB</text></g><g stroke-linecap="round" transform="translate(329 12.474324244385116) rotate(0 48.5 37)"><path d="M18.5 0 C43.72 -2.28, 66.41 0.68, 78.5 0 M18.5 0 C31.93 -0.22, 45.54 -0.39, 78.5 0 M78.5 0 C89.33 0.49, 95.58 6.45, 97 18.5 M78.5 0 C90.42 2.3, 99.22 5.83, 97 18.5 M97 18.5 C96.01 28.8, 96.68 38.45, 97 55.5 M97 18.5 C97.35 33.44, 96.13 46.43, 97 55.5 M97 55.5 C97.73 68.39, 92.64 72.12, 78.5 74 M97 55.5 C97.97 67.94, 91.47 74.52, 78.5 74 M78.5 74 C64.44 75.5, 53.47 73.47, 18.5 74 M78.5 74 C63.12 73.49, 49.06 73.8, 18.5 74 M18.5 74 C6.44 72.22, -0.7 68.71, 0 55.5 M18.5 74 C5.22 75.52, 0.04 69.52, 0 55.5 M0 55.5 C-0.18 47.65, 0.54 34.51, 0 18.5 M0 55.5 C0.25 41.58, 0.13 27.84, 0 18.5 M0 18.5 C1.32 4.6, 5.98 -1.46, 18.5 0 M0 18.5 C-2 5.46, 5.19 0.99, 18.5 0" stroke="#1e1e1e" stroke-width="1" fill="none"></path></g><g transform="translate(344.77002716064453 36.974324244385116) rotate(0 32.72997283935547 12.5)"><text x="32.72997283935547" y="17.52" font-family="Virgil, Segoe UI Emoji" font-size="20px" fill="#1e1e1e" text-anchor="middle" style="white-space: pre;" direction="ltr" dominant-baseline="alphabetic">64 MB</text></g><g stroke-linecap="round"><g transform="translate(12.169801829797507 49.58154934884942) rotate(0 46.83176575176776 0)"><path d="M0.64 -0.91 C16.39 -0.99, 77.89 -0.04, 93.4 0.08 M-0.48 1.22 C15.19 1.3, 76.74 1.7, 92.31 1.66" stroke="#1971c2" stroke-width="4" fill="none"></path></g><g transform="translate(12.169801829797507 49.58154934884942) rotate(0 46.83176575176776 0)"><path d="M91.61 2.53 L77.87 9.29 L78.76 -3.25 L91.62 0.58" stroke="none" stroke-width="0" fill="#1971c2" fill-rule="evenodd"></path><path d="M92.31 1.66 C88.4 2.69, 86.84 4.33, 78.7 7.96 M92.31 1.66 C87.91 3.57, 84.11 5.27, 78.7 7.96 M78.7 7.96 C78.39 3.99, 79.14 2.07, 78.73 -4.72 M78.7 7.96 C78.71 5.44, 78.1 1.84, 78.73 -4.72 M78.73 -4.72 C82.6 -1.74, 89.2 1.41, 92.31 1.66 M78.73 -4.72 C81.76 -3.24, 83.66 -2.59, 92.31 1.66 M92.31 1.66 C92.31 1.66, 92.31 1.66, 92.31 1.66 M92.31 1.66 C92.31 1.66, 92.31 1.66, 92.31 1.66" stroke="#1971c2" stroke-width="4" fill="none"></path></g></g><mask></mask><g stroke-opacity="0.4" fill-opacity="0.4" stroke-linecap="round" transform="translate(14.499999999998181 101.47432424438603) rotate(0 48.5 37)"><path d="M18.5 0 C39.83 0.15, 60.53 0.51, 78.5 0 M78.5 0 C90.13 -1.51, 97.49 4.74, 97 18.5 M97 18.5 C98.86 29.84, 96.3 42.63, 97 55.5 M97 55.5 C98.99 66.69, 91.21 73.52, 78.5 74 M78.5 74 C60.29 74.82, 43.08 72.39, 18.5 74 M18.5 74 C4.6 74.73, 0.56 69.64, 0 55.5 M0 55.5 C0.4 48.33, -1.99 38.95, 0 18.5 M0 18.5 C1.8 4.6, 7.13 -0.03, 18.5 0" stroke="#1e1e1e" stroke-width="1.5" fill="none" stroke-dasharray="1.5 7"></path></g><g stroke-opacity="0.4" fill-opacity="0.4" transform="translate(30.270027160642712 125.97432424438603) rotate(0 32.72997283935547 12.5)"><text x="32.72997283935547" y="17.52" font-family="Virgil, Segoe UI Emoji" font-size="20px" fill="#1e1e1e" text-anchor="middle" style="white-space: pre;" direction="ltr" dominant-baseline="alphabetic">64 MB</text></g><g stroke-linecap="round" transform="translate(118.99999999999818 101.47432424438603) rotate(0 48.5 37)"><path d="M18.5 0 C35.84 -1.62, 55.07 -1.54, 78.5 0 M18.5 0 C38.33 -0.75, 55.91 -0.17, 78.5 0 M78.5 0 C92.82 -1.15, 97.38 5.68, 97 18.5 M78.5 0 C90.95 2.02, 94.87 6.27, 97 18.5 M97 18.5 C95.65 32.88, 97.77 47.61, 97 55.5 M97 18.5 C97.43 26.35, 96.24 33.09, 97 55.5 M97 55.5 C98.8 66.27, 91.79 73.97, 78.5 74 M97 55.5 C95.77 66.46, 89.96 72.01, 78.5 74 M78.5 74 C66.83 73.92, 52.1 72.95, 18.5 74 M78.5 74 C57.89 75.13, 36.9 73.86, 18.5 74 M18.5 74 C4.35 73.62, 1.98 68.17, 0 55.5 M18.5 74 C4.64 75.47, -0.86 68.54, 0 55.5 M0 55.5 C-1.31 45.32, -1.4 32.3, 0 18.5 M0 55.5 C-0.1 47.53, -0.14 38.09, 0 18.5 M0 18.5 C1.2 5.58, 7.81 0.11, 18.5 0 M0 18.5 C2.24 5.96, 5.64 -0.4, 18.5 0" stroke="#1e1e1e" stroke-width="1" fill="none"></path></g><g transform="translate(134.7700271606427 125.97432424438603) rotate(0 32.72997283935547 12.5)"><text x="32.72997283935547" y="17.52" font-family="Virgil, Segoe UI Emoji" font-size="20px" fill="#1e1e1e" text-anchor="middle" style="white-space: pre;" direction="ltr" dominant-baseline="alphabetic">64 MB</text></g><g stroke-linecap="round" transform="translate(225.83333333333212 103.47432424438603) rotate(0 48.5 37)"><path d="M18.5 0 C32.27 0.06, 47.45 2.35, 78.5 0 M18.5 0 C36.61 -0.83, 52.92 -0.5, 78.5 0 M78.5 0 C90.93 1.76, 95.15 6.25, 97 18.5 M78.5 0 C92.42 1.35, 95.79 4.36, 97 18.5 M97 18.5 C95.22 31.79, 97.2 43.97, 97 55.5 M97 18.5 C97.56 29.65, 97.14 42.36, 97 55.5 M97 55.5 C95.93 66.64, 90.08 72.27, 78.5 74 M97 55.5 C94.82 67.85, 89.49 74.74, 78.5 74 M78.5 74 C60.55 72.97, 42.16 73.83, 18.5 74 M78.5 74 C55.2 73.48, 34.71 73.84, 18.5 74 M18.5 74 C4.84 75.28, -0.75 68.45, 0 55.5 M18.5 74 C6.42 72.95, -0.02 66.14, 0 55.5 M0 55.5 C-1.17 40.21, -0.32 27.55, 0 18.5 M0 55.5 C0.77 42.51, 0.99 30.16, 0 18.5 M0 18.5 C1.95 5.99, 5.71 -0.35, 18.5 0 M0 18.5 C0.17 7.84, 6.4 0.42, 18.5 0" stroke="#1e1e1e" stroke-width="1" fill="none"></path></g><g transform="translate(241.60336049397665 127.97432424438603) rotate(0 32.72997283935547 12.5)"><text x="32.72997283935547" y="17.52" font-family="Virgil, Segoe UI Emoji" font-size="20px" fill="#1e1e1e" text-anchor="middle" style="white-space: pre;" direction="ltr" dominant-baseline="alphabetic">64 MB</text></g><g stroke-linecap="round" transform="translate(333.5 102.47432424438603) rotate(0 48.5 37)"><path d="M18.5 0 C35.12 -1.21, 53.19 1.41, 78.5 0 M18.5 0 C33.11 1.02, 46.69 0.19, 78.5 0 M78.5 0 C92.21 1.17, 95.94 4.6, 97 18.5 M78.5 0 C91.68 0.64, 99.08 4, 97 18.5 M97 18.5 C97.47 29.32, 95.71 45.61, 97 55.5 M97 18.5 C96.64 26.12, 96.8 34.05, 97 55.5 M97 55.5 C95.1 67.85, 89.66 74.64, 78.5 74 M97 55.5 C97.32 65.79, 90.03 75.01, 78.5 74 M78.5 74 C64.44 73.32, 46.37 72.19, 18.5 74 M78.5 74 C60.98 74.74, 44.42 74.41, 18.5 74 M18.5 74 C6.39 73.09, -0.02 66.36, 0 55.5 M18.5 74 C7.69 72.19, -0.22 66.16, 0 55.5 M0 55.5 C0.98 46.7, -1.11 40.94, 0 18.5 M0 55.5 C0.67 45.4, -0.53 35.3, 0 18.5 M0 18.5 C0.15 7.62, 6.37 0.36, 18.5 0 M0 18.5 C-0.76 5.45, 4.78 2.21, 18.5 0" stroke="#1e1e1e" stroke-width="1" fill="none"></path></g><g transform="translate(349.27002716064453 126.97432424438603) rotate(0 32.72997283935547 12.5)"><text x="32.72997283935547" y="17.52" font-family="Virgil, Segoe UI Emoji" font-size="20px" fill="#1e1e1e" text-anchor="middle" style="white-space: pre;" direction="ltr" dominant-baseline="alphabetic">64 MB</text></g><g stroke-linecap="round"><g transform="translate(120.00313516312963 139.58154934885033) rotate(0 46.83176575176776 0)"><path d="M1.19 -0.69 C16.9 -0.82, 78.47 -0.58, 93.89 -0.29 M0.36 1.56 C15.97 1.56, 77.62 1.48, 93.06 1.1" stroke="#1971c2" stroke-width="4" fill="none"></path></g><g transform="translate(120.00313516312963 139.58154934885033) rotate(0 46.83176575176776 0)"><path d="M93.04 -0.38 L80.86 6.02 L79.21 -6.55 L91.32 0.48" stroke="none" stroke-width="0" fill="#1971c2" fill-rule="evenodd"></path><path d="M93.06 1.1 C88.6 3.25, 85.47 4.79, 79.54 7.59 M93.06 1.1 C88.27 4.06, 82.11 5.55, 79.54 7.59 M79.54 7.59 C78.26 3.85, 79.47 -0.59, 79.39 -5.09 M79.54 7.59 C80.18 3, 79.87 -0.6, 79.39 -5.09 M79.39 -5.09 C81.43 -4.93, 86.11 -2.87, 93.06 1.1 M79.39 -5.09 C83.68 -2.58, 88.17 -0.36, 93.06 1.1 M93.06 1.1 C93.06 1.1, 93.06 1.1, 93.06 1.1 M93.06 1.1 C93.06 1.1, 93.06 1.1, 93.06 1.1" stroke="#1971c2" stroke-width="4" fill="none"></path></g></g><mask></mask><g stroke-opacity="0.4" fill-opacity="0.4" stroke-linecap="round" transform="translate(121.74999999999909 192.47432424438603) rotate(0 48.5 37)"><path d="M18.5 0 C41.98 -0.01, 68.19 -1.96, 78.5 0 M78.5 0 C90.92 1.38, 98.17 5.11, 97 18.5 M97 18.5 C98.94 24.81, 97.98 34.98, 97 55.5 M97 55.5 C97.56 68.28, 89 72.69, 78.5 74 M78.5 74 C55.06 73.22, 30.49 73.53, 18.5 74 M18.5 74 C4.43 72.1, 0.02 66.66, 0 55.5 M0 55.5 C-0.75 44.09, -0.88 32.24, 0 18.5 M0 18.5 C0.03 7.63, 5.48 -1.08, 18.5 0" stroke="#1e1e1e" stroke-width="1.5" fill="none" stroke-dasharray="1.5 7"></path></g><g stroke-opacity="0.4" fill-opacity="0.4" transform="translate(137.52002716064362 216.97432424438603) rotate(0 32.72997283935547 12.5)"><text x="32.72997283935547" y="17.52" font-family="Virgil, Segoe UI Emoji" font-size="20px" fill="#1e1e1e" text-anchor="middle" style="white-space: pre;" direction="ltr" dominant-baseline="alphabetic">64 MB</text></g><g stroke-linecap="round" transform="translate(226.2499999999991 192.47432424438603) rotate(0 48.5 37)"><path d="M18.5 0 C36.88 1.93, 56.26 -0.5, 78.5 0 M18.5 0 C32.69 -1.11, 45.49 -0.12, 78.5 0 M78.5 0 C91.39 0.45, 95.17 4.86, 97 18.5 M78.5 0 C92.91 -1.8, 98.1 6.13, 97 18.5 M97 18.5 C95.05 25.72, 96.8 35.57, 97 55.5 M97 18.5 C96.7 31.23, 96.64 43.74, 97 55.5 M97 55.5 C97.03 69.3, 90.15 72.92, 78.5 74 M97 55.5 C94.91 67.39, 93.11 74.39, 78.5 74 M78.5 74 C65.11 74, 49.57 73.76, 18.5 74 M78.5 74 C64.83 72.8, 50.48 73.22, 18.5 74 M18.5 74 C5.32 74.86, -0.91 66.61, 0 55.5 M18.5 74 C7.55 73.32, 1.89 67.96, 0 55.5 M0 55.5 C-0.31 40.94, 1.49 26.29, 0 18.5 M0 55.5 C-0.48 44.69, 1.05 31.16, 0 18.5 M0 18.5 C0.28 4.9, 4.95 -1, 18.5 0 M0 18.5 C1.63 8.37, 6.21 -0.64, 18.5 0" stroke="#1e1e1e" stroke-width="1" fill="none"></path></g><g transform="translate(242.02002716064362 216.97432424438603) rotate(0 32.72997283935547 12.5)"><text x="32.72997283935547" y="17.52" font-family="Virgil, Segoe UI Emoji" font-size="20px" fill="#1e1e1e" text-anchor="middle" style="white-space: pre;" direction="ltr" dominant-baseline="alphabetic">64 MB</text></g><g stroke-linecap="round"><g transform="translate(227.25313516312963 230.58154934885033) rotate(0 46.83176575176776 0)"><path d="M-0.63 -0.94 C14.91 -1, 78.21 0.37, 94.1 0.33 M1.23 1.18 C16.59 0.68, 77.83 -1.35, 93.39 -1.61" stroke="#1971c2" stroke-width="4" fill="none"></path></g><g transform="translate(227.25313516312963 230.58154934885033) rotate(0 46.83176575176776 0)"><path d="M92.47 -2.84 L81.17 4.49 L81.27 -7.48 L95.33 -1.79" stroke="none" stroke-width="0" fill="#1971c2" fill-rule="evenodd"></path><path d="M93.39 -1.61 C87.29 1.33, 83.94 4.61, 79.96 5.08 M93.39 -1.61 C90.86 -0.06, 87.2 0.66, 79.96 5.08 M79.96 5.08 C79.91 -0.54, 79.05 -5.29, 79.63 -7.59 M79.96 5.08 C79.64 2.58, 80.03 -0.89, 79.63 -7.59 M79.63 -7.59 C84.29 -5.93, 88.05 -4.88, 93.39 -1.61 M79.63 -7.59 C83.7 -5.97, 85.84 -4.15, 93.39 -1.61 M93.39 -1.61 C93.39 -1.61, 93.39 -1.61, 93.39 -1.61 M93.39 -1.61 C93.39 -1.61, 93.39 -1.61, 93.39 -1.61" stroke="#1971c2" stroke-width="4" fill="none"></path></g></g><mask></mask><g stroke-opacity="0.4" fill-opacity="0.4" stroke-linecap="round" transform="translate(12.33333333333303 192.47432424438603) rotate(0 48.5 37)"><path d="M18.5 0 C33.89 1.59, 46.28 0.62, 78.5 0 M78.5 0 C90.93 0.56, 97.45 4.33, 97 18.5 M97 18.5 C98.29 27.15, 96.26 34.68, 97 55.5 M97 55.5 C96.24 66.1, 88.94 74.02, 78.5 74 M78.5 74 C62.24 73.38, 50.41 73.26, 18.5 74 M18.5 74 C7.49 74.03, 1.46 67.15, 0 55.5 M0 55.5 C2.32 46.73, -0.99 38.57, 0 18.5 M0 18.5 C-0.75 6.78, 6.39 -0.91, 18.5 0" stroke="#1e1e1e" stroke-width="1.5" fill="none" stroke-dasharray="1.5 7"></path></g><g stroke-opacity="0.4" fill-opacity="0.4" transform="translate(28.10336049397756 216.97432424438603) rotate(0 32.72997283935547 12.5)"><text x="32.72997283935547" y="17.52" font-family="Virgil, Segoe UI Emoji" font-size="20px" fill="#1e1e1e" text-anchor="middle" style="white-space: pre;" direction="ltr" dominant-baseline="alphabetic">64 MB</text></g><g stroke-opacity="0.4" fill-opacity="0.4" stroke-linecap="round" transform="translate(223.125 280.80765757771906) rotate(0 48.5 37)"><path d="M18.5 0 C42.01 0.31, 65.79 -2.08, 78.5 0 M78.5 0 C89.53 1.8, 95.44 7.13, 97 18.5 M97 18.5 C96.05 27.81, 94.91 40.61, 97 55.5 M97 55.5 C95.83 68.48, 91.11 72.22, 78.5 74 M78.5 74 C63.92 73.79, 48.16 73.07, 18.5 74 M18.5 74 C5.09 72.18, -0.38 69.81, 0 55.5 M0 55.5 C-0.5 44.4, 0.47 31.14, 0 18.5 M0 18.5 C-0.02 4.69, 7.49 -1.57, 18.5 0" stroke="#1e1e1e" stroke-width="1.5" fill="none" stroke-dasharray="1.5 7"></path></g><g stroke-opacity="0.4" fill-opacity="0.4" transform="translate(238.89502716064453 305.30765757771906) rotate(0 32.72997283935547 12.5)"><text x="32.72997283935547" y="17.52" font-family="Virgil, Segoe UI Emoji" font-size="20px" fill="#1e1e1e" text-anchor="middle" style="white-space: pre;" direction="ltr" dominant-baseline="alphabetic">64 MB</text></g><g stroke-linecap="round" transform="translate(327.625 280.80765757771906) rotate(0 48.5 37)"><path d="M18.5 0 C36.87 2.35, 56.28 1.51, 78.5 0 M18.5 0 C36.03 -0.51, 53.38 0.36, 78.5 0 M78.5 0 C89.66 0.64, 97.28 4.39, 97 18.5 M78.5 0 C90.03 1.01, 96.05 7.69, 97 18.5 M97 18.5 C96.19 27.84, 96.89 42.81, 97 55.5 M97 18.5 C96.38 30.53, 96.86 41.49, 97 55.5 M97 55.5 C96.98 66.36, 92.16 72.43, 78.5 74 M97 55.5 C96.78 66.16, 88.83 73.3, 78.5 74 M78.5 74 C61.82 74.93, 47 75.37, 18.5 74 M78.5 74 C59.93 73.77, 41.89 74.67, 18.5 74 M18.5 74 C6.37 74.36, -0.66 67.21, 0 55.5 M18.5 74 C4.78 76.21, 2.13 65.98, 0 55.5 M0 55.5 C-0.77 45.29, 2.15 32.28, 0 18.5 M0 55.5 C0 46.27, 0.12 35.12, 0 18.5 M0 18.5 C0.91 7.5, 7.03 1.72, 18.5 0 M0 18.5 C0.25 8.28, 8.08 2.3, 18.5 0" stroke="#1e1e1e" stroke-width="1" fill="none"></path></g><g transform="translate(343.39502716064453 305.30765757771906) rotate(0 32.72997283935547 12.5)"><text x="32.72997283935547" y="17.52" font-family="Virgil, Segoe UI Emoji" font-size="20px" fill="#1e1e1e" text-anchor="middle" style="white-space: pre;" direction="ltr" dominant-baseline="alphabetic">64 MB</text></g><g stroke-linecap="round"><g transform="translate(328.6281351631296 318.91488268218336) rotate(0 46.83176575176776 0)"><path d="M0.58 -0.02 C15.9 0.02, 77.58 -0.54, 93.02 -0.71 M-0.58 -1.07 C15.04 -0.81, 79.93 0.31, 95.4 0.45" stroke="#1971c2" stroke-width="4" fill="none"></path></g><g transform="translate(328.6281351631296 318.91488268218336) rotate(0 46.83176575176776 0)"><path d="M94.74 -0.17 L80.51 8.52 L83.74 -7.69 L95.68 -0.82" stroke="none" stroke-width="0" fill="#1971c2" fill-rule="evenodd"></path><path d="M95.4 0.45 C89.99 2.11, 83.78 4.75, 81.72 6.6 M95.4 0.45 C91.98 2, 89.6 2.41, 81.72 6.6 M81.72 6.6 C82.55 3.26, 82.68 -0.56, 81.89 -6.08 M81.72 6.6 C82.5 3.59, 81.5 0.77, 81.89 -6.08 M81.89 -6.08 C84.77 -4.39, 87.9 -1.67, 95.4 0.45 M81.89 -6.08 C84.22 -4.76, 87.55 -2.76, 95.4 0.45 M95.4 0.45 C95.4 0.45, 95.4 0.45, 95.4 0.45 M95.4 0.45 C95.4 0.45, 95.4 0.45, 95.4 0.45" stroke="#1971c2" stroke-width="4" fill="none"></path></g></g><mask></mask><g stroke-opacity="0.4" fill-opacity="0.4" stroke-linecap="round" transform="translate(120.375 282.474324244386) rotate(0 48.5 37)"><path d="M18.5 0 C38.19 -0.44, 58.52 -1.57, 78.5 0 M78.5 0 C90.85 -1.17, 97.64 6.44, 97 18.5 M97 18.5 C96.05 27.64, 96.91 35.59, 97 55.5 M97 55.5 C96.31 66.75, 89.01 73.62, 78.5 74 M78.5 74 C55.83 72.85, 31.23 73.82, 18.5 74 M18.5 74 C5.26 73.98, -1.47 69.16, 0 55.5 M0 55.5 C-1.71 46.69, -0.81 39.97, 0 18.5 M0 18.5 C-0.91 4.94, 7.37 -0.59, 18.5 0" stroke="#1e1e1e" stroke-width="1.5" fill="none" stroke-dasharray="1.5 7"></path></g><g stroke-opacity="0.4" fill-opacity="0.4" transform="translate(136.14502716064453 306.974324244386) rotate(0 32.72997283935547 12.5)"><text x="32.72997283935547" y="17.52" font-family="Virgil, Segoe UI Emoji" font-size="20px" fill="#1e1e1e" text-anchor="middle" style="white-space: pre;" direction="ltr" dominant-baseline="alphabetic">64 MB</text></g><g stroke-linecap="round" transform="translate(332.3333333333321 195.80765757771906) rotate(0 48.5 37)"><path d="M18.5 0 C34.25 -0.6, 50.6 0.85, 78.5 0 M18.5 0 C30.76 0.4, 43.86 0.47, 78.5 0 M78.5 0 C90.15 -1.08, 95.18 5.78, 97 18.5 M78.5 0 C93.11 0.39, 95.47 7.63, 97 18.5 M97 18.5 C96.2 28.2, 95.64 39.26, 97 55.5 M97 18.5 C96.1 26.39, 96.54 35.32, 97 55.5 M97 55.5 C96.09 66.61, 92.04 73.41, 78.5 74 M97 55.5 C98.89 67.96, 93.07 73.8, 78.5 74 M78.5 74 C63.32 74.25, 45.59 73.38, 18.5 74 M78.5 74 C63.29 73.77, 46.38 73.94, 18.5 74 M18.5 74 C4.95 73, 1.42 69.75, 0 55.5 M18.5 74 C6.21 73.36, 0.84 69.35, 0 55.5 M0 55.5 C-0.81 44.83, 1.02 33.21, 0 18.5 M0 55.5 C0.79 42.21, -0.44 27.07, 0 18.5 M0 18.5 C0.55 7.21, 5.8 1.49, 18.5 0 M0 18.5 C-1.19 6.49, 3.98 0.02, 18.5 0" stroke="#1e1e1e" stroke-width="1" fill="none"></path></g><g transform="translate(348.10336049397665 220.30765757771906) rotate(0 32.72997283935547 12.5)"><text x="32.72997283935547" y="17.52" font-family="Virgil, Segoe UI Emoji" font-size="20px" fill="#1e1e1e" text-anchor="middle" style="white-space: pre;" direction="ltr" dominant-baseline="alphabetic">64 MB</text></g><g stroke-opacity="0.4" fill-opacity="0.4" stroke-linecap="round" transform="translate(14 279.140990911053) rotate(0 48.5 37)"><path d="M18.5 0 C31.21 -0.78, 48.34 -0.91, 78.5 0 M78.5 0 C92.16 0.03, 98.46 5.48, 97 18.5 M97 18.5 C98.64 27.94, 95.33 37.98, 97 55.5 M97 55.5 C96.25 68.45, 91.05 73.09, 78.5 74 M78.5 74 C58.98 74.21, 41.13 72.66, 18.5 74 M18.5 74 C5.56 73.15, 0.86 66.92, 0 55.5 M0 55.5 C1.42 46.78, 1.73 37.66, 0 18.5 M0 18.5 C-0.45 5.82, 6.31 1.45, 18.5 0" stroke="#1e1e1e" stroke-width="1.5" fill="none" stroke-dasharray="1.5 7"></path></g><g stroke-opacity="0.4" fill-opacity="0.4" transform="translate(29.77002716064453 303.640990911053) rotate(0 32.72997283935547 12.5)"><text x="32.72997283935547" y="17.52" font-family="Virgil, Segoe UI Emoji" font-size="20px" fill="#1e1e1e" text-anchor="middle" style="white-space: pre;" direction="ltr" dominant-baseline="alphabetic">64 MB</text></g><g stroke-opacity="0.4" fill-opacity="0.4" stroke-linecap="round" transform="translate(225.99999999999636 363.80765757771815) rotate(0 48.5 37)"><path d="M18.5 0 C35.73 0.28, 51.77 -0.44, 78.5 0 M78.5 0 C89.75 -1.82, 96.62 8.15, 97 18.5 M97 18.5 C96.01 30.84, 96.97 41.03, 97 55.5 M97 55.5 C96.98 66.36, 92.16 72.43, 78.5 74 M78.5 74 C60.45 72.63, 44.49 72.56, 18.5 74 M18.5 74 C4.94 75.2, -0.59 69.47, 0 55.5 M0 55.5 C-0.81 43.84, -0.21 34.33, 0 18.5 M0 18.5 C0.2 6.53, 5.51 -0.62, 18.5 0" stroke="#1e1e1e" stroke-width="1.5" fill="none" stroke-dasharray="1.5 7"></path></g><g stroke-opacity="0.4" fill-opacity="0.4" transform="translate(241.7700271606409 388.30765757771815) rotate(0 32.72997283935547 12.5)"><text x="32.72997283935547" y="17.52" font-family="Virgil, Segoe UI Emoji" font-size="20px" fill="#1e1e1e" text-anchor="middle" style="white-space: pre;" direction="ltr" dominant-baseline="alphabetic">64 MB</text></g><g stroke-opacity="0.4" fill-opacity="0.4" stroke-linecap="round" transform="translate(333.66666666666424 362.80765757771815) rotate(0 48.5 37)"><path d="M18.5 0 C35.52 -1.61, 54.33 2.19, 78.5 0 M78.5 0 C91.17 -1.33, 98.28 5.42, 97 18.5 M97 18.5 C97.03 29.27, 98.36 41.41, 97 55.5 M97 55.5 C96.81 66.37, 89.09 73.39, 78.5 74 M78.5 74 C61.82 74.93, 47 75.37, 18.5 74 M18.5 74 C6.28 75.95, -0.18 67.38, 0 55.5 M0 55.5 C0.18 45.4, -0.69 33.96, 0 18.5 M0 18.5 C-1.21 8.09, 8.02 -1.61, 18.5 0" stroke="#1e1e1e" stroke-width="1.5" fill="none" stroke-dasharray="1.5 7"></path></g><g stroke-opacity="0.4" fill-opacity="0.4" transform="translate(349.4366938273088 387.30765757771815) rotate(0 32.72997283935547 12.5)"><text x="32.72997283935547" y="17.52" font-family="Virgil, Segoe UI Emoji" font-size="20px" fill="#1e1e1e" text-anchor="middle" style="white-space: pre;" direction="ltr" dominant-baseline="alphabetic">64 MB</text></g><g stroke-opacity="0.4" fill-opacity="0.4" stroke-linecap="round" transform="translate(12.666666666662422 365.4743242443842) rotate(0 48.5 37)"><path d="M18.5 0 C31.38 -1.92, 44.86 -1.34, 78.5 0 M78.5 0 C91.45 0.22, 96.09 6.15, 97 18.5 M97 18.5 C97.06 25.41, 95.5 34.63, 97 55.5 M97 55.5 C96.15 68.7, 89.92 72.77, 78.5 74 M78.5 74 C57 76.44, 35.09 74.04, 18.5 74 M18.5 74 C5.82 74.15, 1.45 68.04, 0 55.5 M0 55.5 C-1.08 45.65, 1.97 30.35, 0 18.5 M0 18.5 C0.28 4.9, 4.95 -1, 18.5 0" stroke="#1e1e1e" stroke-width="1.5" fill="none" stroke-dasharray="1.5 7"></path></g><g stroke-opacity="0.4" fill-opacity="0.4" transform="translate(28.436693827306954 389.9743242443842) rotate(0 32.72997283935547 12.5)"><text x="32.72997283935547" y="17.52" font-family="Virgil, Segoe UI Emoji" font-size="20px" fill="#1e1e1e" text-anchor="middle" style="white-space: pre;" direction="ltr" dominant-baseline="alphabetic">64 MB</text></g><g stroke-opacity="0.4" fill-opacity="0.4" stroke-linecap="round" transform="translate(115.3333333333303 364.4743242443842) rotate(0 48.5 37)"><path d="M18.5 0 C33.13 0.44, 45.61 0.21, 78.5 0 M78.5 0 C89.36 1.32, 95.43 5.98, 97 18.5 M97 18.5 C95.83 27.76, 95.76 34.07, 97 55.5 M97 55.5 C98.2 67.25, 92.47 74.11, 78.5 74 M78.5 74 C54.31 74.01, 32.26 74.07, 18.5 74 M18.5 74 C6.53 73.34, -0.62 66.63, 0 55.5 M0 55.5 C-0.06 39.58, -1.55 25.2, 0 18.5 M0 18.5 C1.42 8.08, 6.2 -0.56, 18.5 0" stroke="#1e1e1e" stroke-width="1.5" fill="none" stroke-dasharray="1.5 7"></path></g><g stroke-opacity="0.4" fill-opacity="0.4" transform="translate(131.10336049397483 388.9743242443842) rotate(0 32.72997283935547 12.5)"><text x="32.72997283935547" y="17.52" font-family="Virgil, Segoe UI Emoji" font-size="20px" fill="#1e1e1e" text-anchor="middle" style="white-space: pre;" direction="ltr" dominant-baseline="alphabetic">64 MB</text></g><g stroke-linecap="round"><g transform="translate(118.87777256463414 49.10383440303326) rotate(0 46.83176575176776 0)"><path d="M-0.33 -0.56 C15.13 -0.5, 76.73 0.9, 92.48 0.95 M1.7 1.77 C17.53 1.45, 79.24 -0.53, 94.56 -0.68" stroke="#1971c2" stroke-width="4" fill="none"></path></g><g transform="translate(118.87777256463414 49.10383440303326) rotate(0 46.83176575176776 0)"><path d="M94.37 -2.06 L79.52 6.84 L80.81 -5.23 L96.07 -1.48" stroke="none" stroke-width="0" fill="#1971c2" fill-rule="evenodd"></path><path d="M94.56 -0.68 C90.2 -0.37, 88.37 3.56, 81.12 5.96 M94.56 -0.68 C90.94 1.31, 87.41 3.37, 81.12 5.96 M81.12 5.96 C80.55 2.23, 81.41 -1.77, 80.83 -6.71 M81.12 5.96 C81.47 1.44, 81.36 -4.34, 80.83 -6.71 M80.83 -6.71 C84.99 -6.3, 87.52 -2.37, 94.56 -0.68 M80.83 -6.71 C83.57 -5.49, 88.3 -3.52, 94.56 -0.68 M94.56 -0.68 C94.56 -0.68, 94.56 -0.68, 94.56 -0.68 M94.56 -0.68 C94.56 -0.68, 94.56 -0.68, 94.56 -0.68" stroke="#1971c2" stroke-width="4" fill="none"></path></g></g><mask></mask><g stroke-linecap="round"><g transform="translate(223.21668633583658 47.263701972483204) rotate(0 46.83176575176776 0)"><path d="M0.86 -0.78 C16.5 -0.61, 78.27 0.34, 93.72 0.33 M-0.15 1.42 C15.35 1.28, 77.32 -1.39, 92.8 -1.61" stroke="#1971c2" stroke-width="4" fill="none"></path></g><g transform="translate(223.21668633583658 47.263701972483204) rotate(0 46.83176575176776 0)"><path d="M93.49 -0.46 L80.97 4.27 L80.34 -5.99 L94 -0.96" stroke="none" stroke-width="0" fill="#1971c2" fill-rule="evenodd"></path><path d="M92.8 -1.61 C87.92 0.49, 85.47 2.21, 79.4 5.14 M92.8 -1.61 C89.64 0.56, 87.11 1.26, 79.4 5.14 M79.4 5.14 C79.6 -0.7, 78.4 -4.2, 79.01 -7.54 M79.4 5.14 C79.76 2.05, 79.18 -0.06, 79.01 -7.54 M79.01 -7.54 C82.94 -5.52, 89.27 -2.71, 92.8 -1.61 M79.01 -7.54 C81.86 -6.74, 85.78 -3.94, 92.8 -1.61 M92.8 -1.61 C92.8 -1.61, 92.8 -1.61, 92.8 -1.61 M92.8 -1.61 C92.8 -1.61, 92.8 -1.61, 92.8 -1.61" stroke="#1971c2" stroke-width="4" fill="none"></path></g></g><mask></mask><g stroke-linecap="round"><g transform="translate(331.55001966917007 48.93036863914972) rotate(0 46.83176575176776 0)"><path d="M-0.77 0.75 C14.8 0.47, 78.55 -0.82, 94.44 -1.12 M1.02 0.1 C16.42 -0.13, 78.35 -0.1, 93.89 -0.17" stroke="#1971c2" stroke-width="4" fill="none"></path></g><g transform="translate(331.55001966917007 48.93036863914972) rotate(0 46.83176575176776 0)"><path d="M93.82 -2.14 L80.55 5.31 L80.22 -8.43 L91.97 1.14" stroke="none" stroke-width="0" fill="#1971c2" fill-rule="evenodd"></path><path d="M93.89 -0.17 C89.65 3.15, 82.1 5.76, 80.31 6.2 M93.89 -0.17 C91.11 1.61, 87.76 2.82, 80.31 6.2 M80.31 6.2 C81.25 2.52, 81.1 0.92, 80.29 -6.48 M80.31 6.2 C79.84 1.03, 80.33 -2.54, 80.29 -6.48 M80.29 -6.48 C83.63 -6.31, 87.28 -3.22, 93.89 -0.17 M80.29 -6.48 C83.55 -4.64, 86.7 -3.05, 93.89 -0.17 M93.89 -0.17 C93.89 -0.17, 93.89 -0.17, 93.89 -0.17 M93.89 -0.17 C93.89 -0.17, 93.89 -0.17, 93.89 -0.17" stroke="#1971c2" stroke-width="4" fill="none"></path></g></g><mask></mask><g stroke-linecap="round"><g transform="translate(543.763690043027 11.140990911051631) rotate(0 0 206.84936192786927)"><path d="M-0.84 -1.14 C-0.76 68.04, 0.57 345, 0.83 413.98 M0.93 0.87 C0.88 69.77, 0.42 343.23, 0.31 412.01" stroke="#1e1e1e" stroke-width="1" fill="none"></path></g><g transform="translate(543.763690043027 11.140990911051631) rotate(0 0 206.84936192786927)"><path d="M-0.4 410.62 L-6.72 396.53 L6.92 398.85 L-1.31 413.51" stroke="none" stroke-width="0" fill="#1e1e1e" fill-rule="evenodd"></path><path d="M0.31 412.01 C-3.08 408.48, -3.4 403.8, -6 398.4 M0.31 412.01 C-0.73 409, -1.91 406.76, -6 398.4 M-6 398.4 C-3.59 397.7, 0.94 397.31, 6.68 398.42 M-6 398.4 C-1.08 398.75, 2.44 398.04, 6.68 398.42 M6.68 398.42 C4.98 403.36, 2.15 406.67, 0.31 412.01 M6.68 398.42 C5.06 402.1, 2.87 407.1, 0.31 412.01 M0.31 412.01 C0.31 412.01, 0.31 412.01, 0.31 412.01 M0.31 412.01 C0.31 412.01, 0.31 412.01, 0.31 412.01" stroke="#1e1e1e" stroke-width="1" fill="none"></path></g></g><mask></mask><g transform="translate(567.097023376361 171.50638143345623) rotate(0 22.02997589111328 12.5)"><text x="0" y="17.52" font-family="Virgil, Segoe UI Emoji" font-size="20px" fill="#1e1e1e" text-anchor="start" style="white-space: pre;" direction="ltr" dominant-baseline="alphabetic">Time</text></g></svg>