<svg version="1.1" xmlns="http://www.w3.org/2000/svg" viewBox="0 0 993.8367374965122 419.4843797604917" width="993.8367374965122" height="419.4843797604917">
  <!-- svg-source:excalidraw -->
  
  <defs>
    <style class="style-fonts">
      @font-face {
        font-family: "Virgil";
        src: url("https://excalidraw.com/Virgil.woff2");
      }
      @font-face {
        font-family: "Cascadia";
        src: url("https://excalidraw.com/Cascadia.woff2");
      }
      @font-face {
        font-family: "Assistant";
        src: url("https://excalidraw.com/Assistant-Regular.woff2");
      }
    </style>
    
  </defs>
  <rect x="0" y="0" width="993.8367374965122" height="419.4843797604917" fill="#ffffff"></rect><g stroke-linecap="round" transform="translate(164.1785714285715 21.85937976049263) rotate(0 21.357142857142946 37.14285714285711)"><path d="M10.68 0 C17.85 0.15, 22.98 -0.6, 32.04 0 M10.68 0 C15.87 0.29, 22.29 -0.13, 32.04 0 M32.04 0 C38.58 1.06, 42.97 2.48, 42.71 10.68 M32.04 0 C37.6 -2.28, 43.04 5.54, 42.71 10.68 M42.71 10.68 C41.08 30.31, 42.96 50.82, 42.71 63.61 M42.71 10.68 C42.9 28.72, 43.34 47.44, 42.71 63.61 M42.71 63.61 C41.14 69.07, 40.53 76.07, 32.04 74.29 M42.71 63.61 C43.71 69.86, 39.97 73.35, 32.04 74.29 M32.04 74.29 C26.53 73.54, 19.92 73.81, 10.68 74.29 M32.04 74.29 C24.98 73.99, 19.94 74, 10.68 74.29 M10.68 74.29 C2.34 74.83, -0.35 71.33, 0 63.61 M10.68 74.29 C5.39 73.13, 1.6 71.17, 0 63.61 M0 63.61 C-1.28 48.03, 0.68 32.97, 0 10.68 M0 63.61 C-0.46 47.72, -0.14 30.43, 0 10.68 M0 10.68 C1.14 2.26, 2.31 1.09, 10.68 0 M0 10.68 C-1.02 3.59, 2.27 -0.56, 10.68 0" stroke="#1971c2" stroke-width="1" fill="none"></path></g><g transform="translate(170.6057216099332 34.00223690334997) rotate(0 14.92999267578125 25)"><text x="14.92999267578125" y="17.52" font-family="Virgil, Segoe UI Emoji" font-size="20px" fill="#1971c2" text-anchor="middle" style="white-space: pre;" direction="ltr" dominant-baseline="alphabetic">64</text><text x="14.92999267578125" y="42.519999999999996" font-family="Virgil, Segoe UI Emoji" font-size="20px" fill="#1971c2" text-anchor="middle" style="white-space: pre;" direction="ltr" dominant-baseline="alphabetic">MB</text></g><g stroke-linecap="round" transform="translate(10 23.145094046208214) rotate(0 22.071428571428612 37.14285714285711)"><path d="M11.04 0 C17.2 0.21, 23.9 -1.45, 33.11 0 M11.04 0 C17.95 0.56, 25.56 -0.51, 33.11 0 M33.11 0 C39.11 -1.98, 44.43 5.4, 44.14 11.04 M33.11 0 C42.42 0.19, 44.25 1.75, 44.14 11.04 M44.14 11.04 C45.1 23.77, 42.97 39.35, 44.14 63.25 M44.14 11.04 C43.82 24.72, 45.29 40.96, 44.14 63.25 M44.14 63.25 C45.01 69.86, 41.18 73.48, 33.11 74.29 M44.14 63.25 C44.32 68.52, 40.19 75.52, 33.11 74.29 M33.11 74.29 C27.03 74.55, 21.01 72.41, 11.04 74.29 M33.11 74.29 C26.41 74.51, 20.77 74.53, 11.04 74.29 M11.04 74.29 C5.27 73.28, 1.39 70.99, 0 63.25 M11.04 74.29 C3.56 73.07, -0.11 68.81, 0 63.25 M0 63.25 C0.13 48.91, -0.78 31.61, 0 11.04 M0 63.25 C0.45 43.8, -0.74 26.2, 0 11.04 M0 11.04 C-0.88 3.7, 2.55 -0.49, 11.04 0 M0 11.04 C-0.73 1.86, 4.23 -1.61, 11.04 0" stroke="#2f9e44" stroke-width="1" fill="none"></path></g><g transform="translate(17.14143589564742 35.28795118906555) rotate(0 14.92999267578125 25)"><text x="14.92999267578125" y="17.52" font-family="Virgil, Segoe UI Emoji" font-size="20px" fill="#2f9e44" text-anchor="middle" style="white-space: pre;" direction="ltr" dominant-baseline="alphabetic">8 </text><text x="14.92999267578125" y="42.519999999999996" font-family="Virgil, Segoe UI Emoji" font-size="20px" fill="#2f9e44" text-anchor="middle" style="white-space: pre;" direction="ltr" dominant-baseline="alphabetic">MB</text></g><g stroke-linecap="round" transform="translate(59.99999999999977 23.145094046208214) rotate(0 22.07142857142864 37.14285714285711)"><path d="M11.04 0 C18.32 -0.44, 24.24 -0.4, 33.11 0 M11.04 0 C18.15 -0.87, 26.75 0.98, 33.11 0 M33.11 0 C42.16 0.16, 44.24 2.01, 44.14 11.04 M33.11 0 C39.6 0.23, 43.43 4.72, 44.14 11.04 M44.14 11.04 C43.38 25.91, 44.29 35.66, 44.14 63.25 M44.14 11.04 C44.94 22.01, 44.86 33.32, 44.14 63.25 M44.14 63.25 C44.3 68.8, 40.22 75.36, 33.11 74.29 M44.14 63.25 C43.32 71.79, 39.95 74, 33.11 74.29 M33.11 74.29 C25.65 74.46, 18.69 72.86, 11.04 74.29 M33.11 74.29 C26.68 73.85, 19.36 74.54, 11.04 74.29 M11.04 74.29 C3.57 73.23, -0.1 69.04, 0 63.25 M11.04 74.29 C3.71 74.74, 0.65 70.87, 0 63.25 M0 63.25 C1.37 44.42, -0.21 25.82, 0 11.04 M0 63.25 C-0.12 51, -0.24 38.48, 0 11.04 M0 11.04 C-0.64 2.1, 4.16 -1.4, 11.04 0 M0 11.04 C-1.65 4.88, 4 2.29, 11.04 0" stroke="#2f9e44" stroke-width="1" fill="none"></path></g><g transform="translate(67.14143589564719 35.28795118906555) rotate(0 14.92999267578125 25)"><text x="14.92999267578125" y="17.52" font-family="Virgil, Segoe UI Emoji" font-size="20px" fill="#2f9e44" text-anchor="middle" style="white-space: pre;" direction="ltr" dominant-baseline="alphabetic">8 </text><text x="14.92999267578125" y="42.519999999999996" font-family="Virgil, Segoe UI Emoji" font-size="20px" fill="#2f9e44" text-anchor="middle" style="white-space: pre;" direction="ltr" dominant-baseline="alphabetic">MB</text></g><g stroke-linecap="round" transform="translate(112.85714285714278 23.145094046206395) rotate(0 22.07142857142864 37.14285714285711)"><path d="M11.04 0 C18.04 0.32, 21.86 -1.29, 33.11 0 M11.04 0 C16.32 -0.11, 19.95 -1.03, 33.11 0 M33.11 0 C39.72 0.2, 43.52 4.58, 44.14 11.04 M33.11 0 C39.34 -1.4, 45.16 3.17, 44.14 11.04 M44.14 11.04 C42.61 32.72, 46.05 52.52, 44.14 63.25 M44.14 11.04 C44.41 23.83, 44.21 38.97, 44.14 63.25 M44.14 63.25 C43.43 71.63, 40.01 74.04, 33.11 74.29 M44.14 63.25 C44.51 70.1, 38.36 73.72, 33.11 74.29 M33.11 74.29 C26.61 73.8, 19.63 75.74, 11.04 74.29 M33.11 74.29 C27.54 73.8, 22.04 73.55, 11.04 74.29 M11.04 74.29 C3.7 74.68, 0.56 70.84, 0 63.25 M11.04 74.29 C5.27 73.51, -0.22 71.99, 0 63.25 M0 63.25 C-1.2 45.15, 1.19 28.67, 0 11.04 M0 63.25 C-0.03 46.73, 0.53 31.09, 0 11.04 M0 11.04 C-1.44 4.73, 3.96 1.99, 11.04 0 M0 11.04 C0.54 4.86, 3.75 1.44, 11.04 0" stroke="#2f9e44" stroke-width="1" fill="none"></path></g><g transform="translate(119.9985787527902 35.28795118906373) rotate(0 14.92999267578125 25)"><text x="14.92999267578125" y="17.52" font-family="Virgil, Segoe UI Emoji" font-size="20px" fill="#2f9e44" text-anchor="middle" style="white-space: pre;" direction="ltr" dominant-baseline="alphabetic">8 </text><text x="14.92999267578125" y="42.519999999999996" font-family="Virgil, Segoe UI Emoji" font-size="20px" fill="#2f9e44" text-anchor="middle" style="white-space: pre;" direction="ltr" dominant-baseline="alphabetic">MB</text></g><g stroke-linecap="round" transform="translate(213.5714285714286 21.716522617635746) rotate(0 21.357142857142946 37.14285714285711)"><path d="M10.68 0 C15.38 0.43, 25.77 1.84, 32.04 0 M10.68 0 C16.89 0.28, 23.53 0.63, 32.04 0 M32.04 0 C38.17 -1.22, 43.6 3.12, 42.71 10.68 M32.04 0 C41.2 0.54, 40.9 1.66, 42.71 10.68 M42.71 10.68 C42.44 30.91, 42.38 49.86, 42.71 63.61 M42.71 10.68 C42.29 22.28, 42.43 32.73, 42.71 63.61 M42.71 63.61 C43.03 70.29, 37.32 73.8, 32.04 74.29 M42.71 63.61 C43.15 70.18, 37.75 74.91, 32.04 74.29 M32.04 74.29 C24.99 75.85, 20.35 74.35, 10.68 74.29 M32.04 74.29 C26.77 74.32, 21.77 74.23, 10.68 74.29 M10.68 74.29 C4.95 73.61, -0.19 71.92, 0 63.61 M10.68 74.29 C4.08 73.84, 1.31 69.23, 0 63.61 M0 63.61 C-0.26 49.91, -0.77 37.82, 0 10.68 M0 63.61 C-0.84 52.44, 0.01 41.22, 0 10.68 M0 10.68 C0.47 4.58, 3.62 1.25, 10.68 0 M0 10.68 C-0.12 5.17, 2.02 -0.1, 10.68 0" stroke="#1971c2" stroke-width="1" fill="none"></path></g><g transform="translate(219.9985787527903 33.859379760493084) rotate(0 14.92999267578125 25)"><text x="14.92999267578125" y="17.52" font-family="Virgil, Segoe UI Emoji" font-size="20px" fill="#1971c2" text-anchor="middle" style="white-space: pre;" direction="ltr" dominant-baseline="alphabetic">64</text><text x="14.92999267578125" y="42.519999999999996" font-family="Virgil, Segoe UI Emoji" font-size="20px" fill="#1971c2" text-anchor="middle" style="white-space: pre;" direction="ltr" dominant-baseline="alphabetic">MB</text></g><g stroke-linecap="round" transform="translate(266.0178571428572 24.64509404620685) rotate(0 21.357142857142946 37.14285714285711)"><path d="M10.68 0 C17.55 -0.08, 22.43 -0.93, 32.04 0 M10.68 0 C16.81 -0.71, 24.37 -0.32, 32.04 0 M32.04 0 C40.93 0.47, 41.14 1.91, 42.71 10.68 M32.04 0 C40.74 2.05, 43.71 2.7, 42.71 10.68 M42.71 10.68 C40.69 28.2, 43.57 45.49, 42.71 63.61 M42.71 10.68 C42.75 29.06, 41.68 47.63, 42.71 63.61 M42.71 63.61 C43.09 70.26, 37.93 74.83, 32.04 74.29 M42.71 63.61 C42.31 71.42, 40.99 73.13, 32.04 74.29 M32.04 74.29 C23.08 74.18, 14.69 74.3, 10.68 74.29 M32.04 74.29 C25.9 73.97, 18.27 74.91, 10.68 74.29 M10.68 74.29 C4.01 73.9, 1.14 69.42, 0 63.61 M10.68 74.29 C2.12 75.53, -1.02 70.76, 0 63.61 M0 63.61 C-1.45 51.19, -1.27 36.37, 0 10.68 M0 63.61 C0.16 45.47, -0.04 26.93, 0 10.68 M0 10.68 C-0.1 4.96, 2.22 -0.08, 10.68 0 M0 10.68 C-1.48 2.58, 3.54 1.64, 10.68 0" stroke="#f08c00" stroke-width="1" fill="none"></path></g><g transform="translate(272.4450073242189 36.78795118906419) rotate(0 14.92999267578125 25)"><text x="14.92999267578125" y="17.52" font-family="Virgil, Segoe UI Emoji" font-size="20px" fill="#f08c00" text-anchor="middle" style="white-space: pre;" direction="ltr" dominant-baseline="alphabetic">64</text><text x="14.92999267578125" y="42.519999999999996" font-family="Virgil, Segoe UI Emoji" font-size="20px" fill="#f08c00" text-anchor="middle" style="white-space: pre;" direction="ltr" dominant-baseline="alphabetic">MB</text></g><g stroke-linecap="round" transform="translate(315.41071428571433 24.502236903349967) rotate(0 21.357142857142946 37.14285714285711)"><path d="M10.68 0 C17.39 -0.54, 24.6 -0.9, 32.04 0 M10.68 0 C16.67 0.28, 20.1 -0.78, 32.04 0 M32.04 0 C40.53 1.79, 43.58 2.81, 42.71 10.68 M32.04 0 C39.97 -0.93, 42.89 1.48, 42.71 10.68 M42.71 10.68 C44.02 25.47, 42.75 41.49, 42.71 63.61 M42.71 10.68 C42.42 25.16, 41.62 40.39, 42.71 63.61 M42.71 63.61 C42.37 71.33, 40.75 73.28, 32.04 74.29 M42.71 63.61 C44.31 71.17, 39.03 73.07, 32.04 74.29 M32.04 74.29 C26.13 74.85, 19.66 75.68, 10.68 74.29 M32.04 74.29 C26.58 74.22, 21.23 73.76, 10.68 74.29 M10.68 74.29 C2.31 75.37, -0.88 70.75, 0 63.61 M10.68 74.29 C2.27 73.73, -0.73 68.91, 0 63.61 M0 63.61 C1.42 46.74, 2.36 29.79, 0 10.68 M0 63.61 C-0.07 45.72, -0.69 26.39, 0 10.68 M0 10.68 C-1.29 2.71, 3.55 1.43, 10.68 0 M0 10.68 C2.13 4.95, 4.72 1.36, 10.68 0" stroke="#f08c00" stroke-width="1" fill="none"></path></g><g transform="translate(321.83786446707603 36.645094046207305) rotate(0 14.92999267578125 25)"><text x="14.92999267578125" y="17.52" font-family="Virgil, Segoe UI Emoji" font-size="20px" fill="#f08c00" text-anchor="middle" style="white-space: pre;" direction="ltr" dominant-baseline="alphabetic">64</text><text x="14.92999267578125" y="42.519999999999996" font-family="Virgil, Segoe UI Emoji" font-size="20px" fill="#f08c00" text-anchor="middle" style="white-space: pre;" direction="ltr" dominant-baseline="alphabetic">MB</text></g><g stroke-linecap="round" transform="translate(360.30357142857156 23.216522617634382) rotate(0 21.357142857142946 37.14285714285711)"><path d="M10.68 0 C15.2 0.99, 21.73 1.88, 32.04 0 M10.68 0 C18.27 1.07, 24.92 -0.2, 32.04 0 M32.04 0 C39.87 -0.81, 42.87 1.75, 42.71 10.68 M32.04 0 C38.88 1.23, 41.89 4.74, 42.71 10.68 M42.71 10.68 C42.21 23.53, 42.16 40.42, 42.71 63.61 M42.71 10.68 C42.22 25.61, 43.19 39.44, 42.71 63.61 M42.71 63.61 C44.1 71.11, 39.05 73.23, 32.04 74.29 M42.71 63.61 C42.6 68.93, 39.18 74.74, 32.04 74.29 M32.04 74.29 C24.35 74.24, 19.22 74.89, 10.68 74.29 M32.04 74.29 C25.42 74.69, 19.61 74.16, 10.68 74.29 M10.68 74.29 C2.43 73.8, -0.64 69.14, 0 63.61 M10.68 74.29 C4.11 72.68, -1.65 71.93, 0 63.61 M0 63.61 C0.5 47.05, 0.73 30.27, 0 10.68 M0 63.61 C-0.29 43.61, 0.35 25.17, 0 10.68 M0 10.68 C1.85 4.77, 4.57 1.18, 10.68 0 M0 10.68 C1.52 4.05, 3.27 -1.71, 10.68 0" stroke="#f08c00" stroke-width="1" fill="none"></path></g><g transform="translate(366.73072160993325 35.35937976049172) rotate(0 14.92999267578125 25)"><text x="14.92999267578125" y="17.52" font-family="Virgil, Segoe UI Emoji" font-size="20px" fill="#f08c00" text-anchor="middle" style="white-space: pre;" direction="ltr" dominant-baseline="alphabetic">64</text><text x="14.92999267578125" y="42.519999999999996" font-family="Virgil, Segoe UI Emoji" font-size="20px" fill="#f08c00" text-anchor="middle" style="white-space: pre;" direction="ltr" dominant-baseline="alphabetic">MB</text></g><g stroke-linecap="round" transform="translate(409.69642857142867 23.0736654747775) rotate(0 21.357142857142946 37.14285714285711)"><path d="M10.68 0 C18.5 -1.77, 23.73 1.18, 32.04 0 M10.68 0 C19.35 -0.32, 27.39 -0.83, 32.04 0 M32.04 0 C38.92 1.07, 42 4.59, 42.71 10.68 M32.04 0 C38.64 -0.28, 43.08 3.06, 42.71 10.68 M42.71 10.68 C42.11 20.49, 43.13 32.4, 42.71 63.61 M42.71 10.68 C43.83 28.34, 43.08 45.08, 42.71 63.61 M42.71 63.61 C42.62 69.16, 39.18 74.68, 32.04 74.29 M42.71 63.61 C43.36 70.99, 40.75 73.51, 32.04 74.29 M32.04 74.29 C25.44 75.47, 18.33 73.09, 10.68 74.29 M32.04 74.29 C23.91 74.05, 16.58 73.5, 10.68 74.29 M10.68 74.29 C4.04 72.89, -1.44 71.77, 0 63.61 M10.68 74.29 C3.88 76.57, 0.54 71.9, 0 63.61 M0 63.61 C1.07 46.23, -0.41 30.25, 0 10.68 M0 63.61 C0.93 50.58, 0.51 36.94, 0 10.68 M0 10.68 C1.32 3.99, 3.31 -1.49, 10.68 0 M0 10.68 C0.21 3.11, 2.77 0.77, 10.68 0" stroke="#f08c00" stroke-width="1" fill="none"></path></g><g transform="translate(416.12357875279037 35.21652261763484) rotate(0 14.92999267578125 25)"><text x="14.92999267578125" y="17.52" font-family="Virgil, Segoe UI Emoji" font-size="20px" fill="#f08c00" text-anchor="middle" style="white-space: pre;" direction="ltr" dominant-baseline="alphabetic">64</text><text x="14.92999267578125" y="42.519999999999996" font-family="Virgil, Segoe UI Emoji" font-size="20px" fill="#f08c00" text-anchor="middle" style="white-space: pre;" direction="ltr" dominant-baseline="alphabetic">MB</text></g><g stroke-linecap="round" transform="translate(463.16071428571433 22.502236903349058) rotate(0 21.357142857142954 37.14285714285711)"><path d="M10.68 0 C17.19 0.72, 19.38 0.57, 32.04 0 M10.68 0 C16.1 0.73, 21.4 0.71, 32.04 0 M32.04 0 C38.7 -0.25, 43.03 3.12, 42.71 10.68 M32.04 0 C37.05 -0.56, 43.15 3.02, 42.71 10.68 M42.71 10.68 C43.46 24.92, 41.85 37.36, 42.71 63.61 M42.71 10.68 C42.64 26.8, 42.7 44.68, 42.71 63.61 M42.71 63.61 C43.28 70.96, 40.54 73.61, 32.04 74.29 M42.71 63.61 C42.49 72.1, 39.68 73.84, 32.04 74.29 M32.04 74.29 C25.5 73.27, 16.81 73.03, 10.68 74.29 M32.04 74.29 C26.39 73.42, 19.54 74.64, 10.68 74.29 M10.68 74.29 C3.84 76.27, 0.47 71.75, 0 63.61 M10.68 74.29 C3.63 75.73, -0.12 72.33, 0 63.61 M0 63.61 C-0.83 51.26, 1.45 40.8, 0 10.68 M0 63.61 C0.4 44.75, -0.39 24.71, 0 10.68 M0 10.68 C0.18 3.17, 2.87 0.67, 10.68 0 M0 10.68 C0.63 2.98, 3.39 -1.29, 10.68 0" stroke="#e03131" stroke-width="1" fill="none"></path></g><g transform="translate(469.58786446707603 34.645094046206395) rotate(0 14.92999267578125 25)"><text x="14.92999267578125" y="17.52" font-family="Virgil, Segoe UI Emoji" font-size="20px" fill="#e03131" text-anchor="middle" style="white-space: pre;" direction="ltr" dominant-baseline="alphabetic">64</text><text x="14.92999267578125" y="42.519999999999996" font-family="Virgil, Segoe UI Emoji" font-size="20px" fill="#e03131" text-anchor="middle" style="white-space: pre;" direction="ltr" dominant-baseline="alphabetic">MB</text></g><g stroke-linecap="round" transform="translate(512.5535714285714 22.359379760492175) rotate(0 21.357142857142954 37.14285714285711)"><path d="M10.68 0 C17.2 0.08, 23.54 -0.32, 32.04 0 M10.68 0 C18 -0.23, 25.94 -0.33, 32.04 0 M32.04 0 C37.32 -0.49, 43.09 3.09, 42.71 10.68 M32.04 0 C37.75 0.62, 42.31 4.25, 42.71 10.68 M42.71 10.68 C42.83 30.67, 41.39 50.77, 42.71 63.61 M42.71 10.68 C43 22.53, 43.41 33.81, 42.71 63.61 M42.71 63.61 C42.52 71.92, 39.61 73.9, 32.04 74.29 M42.71 63.61 C44.02 69.23, 37.72 75.53, 32.04 74.29 M32.04 74.29 C26.09 73.53, 19.53 74.64, 10.68 74.29 M32.04 74.29 C27.26 75.39, 22.45 74.91, 10.68 74.29 M10.68 74.29 C3.62 75.54, -0.1 72.12, 0 63.61 M10.68 74.29 C2.02 74.19, -1.48 69.75, 0 63.61 M0 63.61 C0.83 48.77, 0.81 33.25, 0 10.68 M0 63.61 C0.16 46.4, -0.28 29.91, 0 10.68 M0 10.68 C0.55 3.05, 3.41 -1.12, 10.68 0 M0 10.68 C-0.44 2.11, 1.92 0.3, 10.68 0" stroke="#e03131" stroke-width="1" fill="none"></path></g><g transform="translate(518.9807216099332 34.50223690334951) rotate(0 14.92999267578125 25)"><text x="14.92999267578125" y="17.52" font-family="Virgil, Segoe UI Emoji" font-size="20px" fill="#e03131" text-anchor="middle" style="white-space: pre;" direction="ltr" dominant-baseline="alphabetic">64</text><text x="14.92999267578125" y="42.519999999999996" font-family="Virgil, Segoe UI Emoji" font-size="20px" fill="#e03131" text-anchor="middle" style="white-space: pre;" direction="ltr" dominant-baseline="alphabetic">MB</text></g><g stroke-linecap="round" transform="translate(557.4464285714287 21.07366547477841) rotate(0 21.357142857142954 37.14285714285711)"><path d="M10.68 0 C18.32 -0.69, 24.85 -0.43, 32.04 0 M10.68 0 C15.91 -0.2, 23.16 -0.19, 32.04 0 M32.04 0 C37.93 0.54, 42.37 4.16, 42.71 10.68 M32.04 0 C40.99 -1.16, 44.31 4, 42.71 10.68 M42.71 10.68 C40.87 26.3, 42.83 42.44, 42.71 63.61 M42.71 10.68 C42.99 27.77, 43.31 43.47, 42.71 63.61 M42.71 63.61 C43.85 69.42, 37.91 75.37, 32.04 74.29 M42.71 63.61 C41.7 70.76, 37.86 73.73, 32.04 74.29 M32.04 74.29 C24.91 72.9, 21.63 74.62, 10.68 74.29 M32.04 74.29 C23.53 75.02, 14.92 75.09, 10.68 74.29 M10.68 74.29 C2.22 74.2, -1.29 69.88, 0 63.61 M10.68 74.29 C3.54 75.93, 2.13 72.12, 0 63.61 M0 63.61 C0.12 44.82, -1.8 26.7, 0 10.68 M0 63.61 C0.46 48.5, 0.11 33.34, 0 10.68 M0 10.68 C-0.38 2.3, 2.13 0.26, 10.68 0 M0 10.68 C1.88 5.83, 5.6 -0.1, 10.68 0" stroke="#e03131" stroke-width="1" fill="none"></path></g><g transform="translate(563.8735787527903 33.216522617635746) rotate(0 14.92999267578125 25)"><text x="14.92999267578125" y="17.52" font-family="Virgil, Segoe UI Emoji" font-size="20px" fill="#e03131" text-anchor="middle" style="white-space: pre;" direction="ltr" dominant-baseline="alphabetic">64</text><text x="14.92999267578125" y="42.519999999999996" font-family="Virgil, Segoe UI Emoji" font-size="20px" fill="#e03131" text-anchor="middle" style="white-space: pre;" direction="ltr" dominant-baseline="alphabetic">MB</text></g><g stroke-linecap="round" transform="translate(606.8392857142858 20.930808331921526) rotate(0 21.357142857142954 37.14285714285711)"><path d="M10.68 0 C16.08 0.37, 21.53 -1.78, 32.04 0 M10.68 0 C15.95 0.32, 22.27 0.35, 32.04 0 M32.04 0 C40.75 -1.01, 44.1 3.95, 42.71 10.68 M32.04 0 C39.03 -1.22, 42.6 1.76, 42.71 10.68 M42.71 10.68 C43.05 28.01, 42.15 42.37, 42.71 63.61 M42.71 10.68 C43.4 29.08, 42.21 49.32, 42.71 63.61 M42.71 63.61 C41.83 70.75, 38.03 73.8, 32.04 74.29 M42.71 63.61 C41.98 68.91, 39.7 72.68, 32.04 74.29 M32.04 74.29 C29.15 74.79, 23.31 74.37, 10.68 74.29 M32.04 74.29 C23.62 74.39, 15.9 74.01, 10.68 74.29 M10.68 74.29 C3.55 75.72, 1.85 71.93, 0 63.61 M10.68 74.29 C4.72 75.65, 1.52 71.22, 0 63.61 M0 63.61 C0.01 47.7, 1.07 33.71, 0 10.68 M0 63.61 C-0.15 48.44, -0.67 34.67, 0 10.68 M0 10.68 C1.63 5.53, 5.33 -0.09, 10.68 0 M0 10.68 C2.19 3.25, 4.46 0.97, 10.68 0" stroke="#e03131" stroke-width="1" fill="none"></path></g><g transform="translate(613.2664358956474 33.07366547477886) rotate(0 14.92999267578125 25)"><text x="14.92999267578125" y="17.52" font-family="Virgil, Segoe UI Emoji" font-size="20px" fill="#e03131" text-anchor="middle" style="white-space: pre;" direction="ltr" dominant-baseline="alphabetic">64</text><text x="14.92999267578125" y="42.519999999999996" font-family="Virgil, Segoe UI Emoji" font-size="20px" fill="#e03131" text-anchor="middle" style="white-space: pre;" direction="ltr" dominant-baseline="alphabetic">MB</text></g><g stroke-linecap="round" transform="translate(656.0178571428571 19.64509404620594) rotate(0 21.357142857142954 37.14285714285711)"><path d="M10.68 0 C16.94 0.57, 23.7 -1.03, 32.04 0 M10.68 0 C18.46 -0.57, 25.35 0.13, 32.04 0 M32.04 0 C39.05 -1.06, 42.62 1.99, 42.71 10.68 M32.04 0 C39.18 0.46, 43.36 3.83, 42.71 10.68 M42.71 10.68 C43.73 30.68, 42.15 50.92, 42.71 63.61 M42.71 10.68 C41.94 23.12, 41.82 35.3, 42.71 63.61 M42.71 63.61 C42.08 69.14, 39.63 72.89, 32.04 74.29 M42.71 63.61 C41.06 71.93, 39.48 76.57, 32.04 74.29 M32.04 74.29 C26.38 74.19, 19.61 72.95, 10.68 74.29 M32.04 74.29 C25.71 74.91, 20.33 74.8, 10.68 74.29 M10.68 74.29 C4.57 75.47, 1.32 71.16, 0 63.61 M10.68 74.29 C3.27 72.57, 0.21 70.28, 0 63.61 M0 63.61 C-0.69 49.39, -1.3 35.1, 0 10.68 M0 63.61 C1.19 52.04, 1.26 38.46, 0 10.68 M0 10.68 C1.91 3.29, 4.34 0.84, 10.68 0 M0 10.68 C-1.36 4.14, 3.57 -2.3, 10.68 0" stroke="#e03131" stroke-width="1" fill="none"></path></g><g transform="translate(662.4450073242188 31.78795118906328) rotate(0 14.92999267578125 25)"><text x="14.92999267578125" y="17.52" font-family="Virgil, Segoe UI Emoji" font-size="20px" fill="#e03131" text-anchor="middle" style="white-space: pre;" direction="ltr" dominant-baseline="alphabetic">64</text><text x="14.92999267578125" y="42.519999999999996" font-family="Virgil, Segoe UI Emoji" font-size="20px" fill="#e03131" text-anchor="middle" style="white-space: pre;" direction="ltr" dominant-baseline="alphabetic">MB</text></g><g stroke-linecap="round" transform="translate(705.4107142857142 19.502236903349058) rotate(0 21.357142857142946 37.14285714285711)"><path d="M10.68 0 C18.03 -0.22, 24.9 1.72, 32.04 0 M10.68 0 C15.96 -0.57, 21.29 -0.82, 32.04 0 M32.04 0 C39.18 0.4, 43.28 3.79, 42.71 10.68 M32.04 0 C40.75 -0.78, 42.49 4.94, 42.71 10.68 M42.71 10.68 C41.31 26.51, 43.7 43.95, 42.71 63.61 M42.71 10.68 C42.1 25.83, 42.66 41.87, 42.71 63.61 M42.71 63.61 C41.28 71.77, 39.43 76.27, 32.04 74.29 M42.71 63.61 C43.26 71.9, 39.22 75.73, 32.04 74.29 M32.04 74.29 C25.66 72.85, 18.59 74.13, 10.68 74.29 M32.04 74.29 C24.61 75.01, 16.83 74.63, 10.68 74.29 M10.68 74.29 C3.31 72.8, 0.18 70.34, 0 63.61 M10.68 74.29 C2.77 75.06, 0.63 70.14, 0 63.61 M0 63.61 C-0.96 46.7, 0.56 34.28, 0 10.68 M0 63.61 C0.48 42.37, -0.08 21.82, 0 10.68 M0 10.68 C-1.19 4.07, 3.57 -2, 10.68 0 M0 10.68 C2.06 2.08, 4.62 -1.97, 10.68 0" stroke="#e03131" stroke-width="1" fill="none"></path></g><g transform="translate(711.8378644670759 31.645094046206395) rotate(0 14.92999267578125 25)"><text x="14.92999267578125" y="17.52" font-family="Virgil, Segoe UI Emoji" font-size="20px" fill="#e03131" text-anchor="middle" style="white-space: pre;" direction="ltr" dominant-baseline="alphabetic">64</text><text x="14.92999267578125" y="42.519999999999996" font-family="Virgil, Segoe UI Emoji" font-size="20px" fill="#e03131" text-anchor="middle" style="white-space: pre;" direction="ltr" dominant-baseline="alphabetic">MB</text></g><g stroke-linecap="round" transform="translate(750.3035714285714 18.21652261763529) rotate(0 21.357142857142946 37.14285714285711)"><path d="M10.68 0 C15.71 1.22, 23.14 -0.28, 32.04 0 M10.68 0 C15.97 0.37, 21.51 0.28, 32.04 0 M32.04 0 C40.54 -0.67, 42.52 4.76, 42.71 10.68 M32.04 0 C39.68 -0.45, 44.02 2.06, 42.71 10.68 M42.71 10.68 C43.03 22.13, 42.52 35.19, 42.71 63.61 M42.71 10.68 C42.12 22.89, 42.98 35.05, 42.71 63.61 M42.71 63.61 C43.19 71.75, 39.21 75.54, 32.04 74.29 M42.71 63.61 C42.59 72.33, 37.61 74.19, 32.04 74.29 M32.04 74.29 C28.43 76.14, 23.18 75.29, 10.68 74.29 M32.04 74.29 C24.24 73.59, 16.78 74.14, 10.68 74.29 M10.68 74.29 C2.87 74.96, 0.55 70.22, 0 63.61 M10.68 74.29 C3.39 72.99, -0.44 69.28, 0 63.61 M0 63.61 C1.9 53.27, -0.16 41.3, 0 10.68 M0 63.61 C-0.8 48.69, -0.2 32.26, 0 10.68 M0 10.68 C1.79 2.28, 4.48 -1.71, 10.68 0 M0 10.68 C-0.76 2.09, 1.32 0.61, 10.68 0" stroke="#e03131" stroke-width="1" fill="none"></path></g><g transform="translate(756.7307216099332 30.35937976049263) rotate(0 14.92999267578125 25)"><text x="14.92999267578125" y="17.52" font-family="Virgil, Segoe UI Emoji" font-size="20px" fill="#e03131" text-anchor="middle" style="white-space: pre;" direction="ltr" dominant-baseline="alphabetic">64</text><text x="14.92999267578125" y="42.519999999999996" font-family="Virgil, Segoe UI Emoji" font-size="20px" fill="#e03131" text-anchor="middle" style="white-space: pre;" direction="ltr" dominant-baseline="alphabetic">MB</text></g><g stroke-linecap="round" transform="translate(799.6964285714286 18.07366547477841) rotate(0 21.357142857142946 37.14285714285711)"><path d="M10.68 0 C17.51 -0.09, 24.9 0.04, 32.04 0 M10.68 0 C18.21 -0.36, 24.25 0.57, 32.04 0 M32.04 0 C39.61 -0.39, 43.85 2.26, 42.71 10.68 M32.04 0 C37.72 1.25, 41.7 3.59, 42.71 10.68 M42.71 10.68 C41 24.06, 41.19 35.04, 42.71 63.61 M42.71 10.68 C43.02 29.84, 42.82 48.61, 42.71 63.61 M42.71 63.61 C42.61 72.12, 37.81 74.2, 32.04 74.29 M42.71 63.61 C41.23 69.75, 39.14 75.93, 32.04 74.29 M32.04 74.29 C24.83 75.72, 15.69 74.15, 10.68 74.29 M32.04 74.29 C26.88 74.58, 22.68 73.99, 10.68 74.29 M10.68 74.29 C3.41 73.16, -0.38 69.47, 0 63.61 M10.68 74.29 C1.92 74.59, 1.88 73, 0 63.61 M0 63.61 C-0.24 43.82, 0.86 21.29, 0 10.68 M0 63.61 C0.89 45.75, 0.46 28.31, 0 10.68 M0 10.68 C-0.66 2.28, 1.61 0.53, 10.68 0 M0 10.68 C-1.14 2.21, 2.4 -0.59, 10.68 0" stroke="#e03131" stroke-width="1" fill="none"></path></g><g transform="translate(806.1235787527903 30.216522617635746) rotate(0 14.92999267578125 25)"><text x="14.92999267578125" y="17.52" font-family="Virgil, Segoe UI Emoji" font-size="20px" fill="#e03131" text-anchor="middle" style="white-space: pre;" direction="ltr" dominant-baseline="alphabetic">64</text><text x="14.92999267578125" y="42.519999999999996" font-family="Virgil, Segoe UI Emoji" font-size="20px" fill="#e03131" text-anchor="middle" style="white-space: pre;" direction="ltr" dominant-baseline="alphabetic">MB</text></g><g stroke-linecap="round" transform="translate(164.89285714285722 115.66295118906305) rotate(0 21.357142857142946 37.14285714285711)"><path d="M10.68 0 C16.41 0.41, 27.06 1.97, 32.04 0 M10.68 0 C14.62 0.63, 21.3 0.07, 32.04 0 M32.04 0 C37.84 1.35, 44.3 4.72, 42.71 10.68 M32.04 0 C38.7 0.02, 42.74 3.65, 42.71 10.68 M42.71 10.68 C43.04 22.61, 43.28 34.07, 42.71 63.61 M42.71 10.68 C43.24 22.47, 42.79 35.93, 42.71 63.61 M42.71 63.61 C43.17 69.75, 39.26 73.69, 32.04 74.29 M42.71 63.61 C42.79 72.5, 38.54 73.06, 32.04 74.29 M32.04 74.29 C27.55 73.48, 24.58 76.02, 10.68 74.29 M32.04 74.29 C27.46 74.6, 24.05 74.08, 10.68 74.29 M10.68 74.29 C1.61 74.13, -1.34 71.53, 0 63.61 M10.68 74.29 C5.34 72.58, 0.65 71.8, 0 63.61 M0 63.61 C0.97 50.79, 0.29 38.54, 0 10.68 M0 63.61 C0.2 47.13, -0.15 32.72, 0 10.68 M0 10.68 C-0.74 2.41, 3.35 -0.66, 10.68 0 M0 10.68 C1.12 1.5, 1.58 1.17, 10.68 0" stroke="#1971c2" stroke-width="1" fill="none"></path></g><g transform="translate(171.32000732421892 127.80580833192016) rotate(0 14.92999267578125 25)"><text x="14.92999267578125" y="17.52" font-family="Virgil, Segoe UI Emoji" font-size="20px" fill="#1971c2" text-anchor="middle" style="white-space: pre;" direction="ltr" dominant-baseline="alphabetic">64</text><text x="14.92999267578125" y="42.519999999999996" font-family="Virgil, Segoe UI Emoji" font-size="20px" fill="#1971c2" text-anchor="middle" style="white-space: pre;" direction="ltr" dominant-baseline="alphabetic">MB</text></g><g stroke-opacity="0.3" fill-opacity="0.3" stroke-linecap="round" transform="translate(10.714285714285893 116.94866547477864) rotate(0 22.071428571428612 37.14285714285711)"><path d="M11.04 0 C16.48 1.22, 23.13 -2.04, 33.11 0 M33.11 0 C41.37 1.8, 43.92 2.36, 44.14 11.04 M44.14 11.04 C44.16 30.23, 44.58 49.47, 44.14 63.25 M44.14 63.25 C42.34 71.61, 39.89 74.35, 33.11 74.29 M33.11 74.29 C24.2 73.26, 19.96 76.08, 11.04 74.29 M11.04 74.29 C2.83 75.05, 1.65 71.06, 0 63.25 M0 63.25 C0.04 51.67, -0.57 35.94, 0 11.04 M0 11.04 C-1.86 3.62, 2.16 -0.07, 11.04 0" stroke="#2f9e44" stroke-width="1.5" fill="none" stroke-dasharray="1.5 7"></path></g><g stroke-opacity="0.3" fill-opacity="0.3" transform="translate(17.855721609933312 129.09152261763575) rotate(0 14.92999267578125 25)"><text x="14.92999267578125" y="17.52" font-family="Virgil, Segoe UI Emoji" font-size="20px" fill="#2f9e44" text-anchor="middle" style="white-space: pre;" direction="ltr" dominant-baseline="alphabetic">8 </text><text x="14.92999267578125" y="42.519999999999996" font-family="Virgil, Segoe UI Emoji" font-size="20px" fill="#2f9e44" text-anchor="middle" style="white-space: pre;" direction="ltr" dominant-baseline="alphabetic">MB</text></g><g stroke-linecap="round" transform="translate(60.71428571428555 116.94866547477864) rotate(0 22.07142857142864 37.14285714285711)"><path d="M11.04 0 C20.12 2, 27.18 -1.11, 33.11 0 M11.04 0 C18.95 -0.12, 27.26 -0.09, 33.11 0 M33.11 0 C38.67 1, 43.57 3.74, 44.14 11.04 M33.11 0 C41.4 0.35, 45.48 2.09, 44.14 11.04 M44.14 11.04 C43.78 24.45, 46.29 36.78, 44.14 63.25 M44.14 11.04 C44.2 24.93, 43.9 36.74, 44.14 63.25 M44.14 63.25 C42.28 70.55, 38.95 74.21, 33.11 74.29 M44.14 63.25 C43.4 72.2, 42.64 72.03, 33.11 74.29 M33.11 74.29 C27.92 75.5, 20.86 72.28, 11.04 74.29 M33.11 74.29 C27.43 73.63, 20.49 74.84, 11.04 74.29 M11.04 74.29 C2.6 74.53, -1.01 71.64, 0 63.25 M11.04 74.29 C3.92 74.69, 1.13 70.5, 0 63.25 M0 63.25 C-1.22 46.23, 1.22 28.54, 0 11.04 M0 63.25 C0.54 49.69, -0.81 38.42, 0 11.04 M0 11.04 C1.13 2.59, 2.45 0.79, 11.04 0 M0 11.04 C-2.17 5.33, 5.6 1.86, 11.04 0" stroke="#2f9e44" stroke-width="1" fill="none"></path></g><g transform="translate(67.85572160993286 129.09152261763575) rotate(0 14.92999267578125 25)"><text x="14.92999267578125" y="17.52" font-family="Virgil, Segoe UI Emoji" font-size="20px" fill="#2f9e44" text-anchor="middle" style="white-space: pre;" direction="ltr" dominant-baseline="alphabetic">8 </text><text x="14.92999267578125" y="42.519999999999996" font-family="Virgil, Segoe UI Emoji" font-size="20px" fill="#2f9e44" text-anchor="middle" style="white-space: pre;" direction="ltr" dominant-baseline="alphabetic">MB</text></g><g stroke-linecap="round" transform="translate(113.57142857142856 116.94866547477682) rotate(0 22.07142857142864 37.14285714285711)"><path d="M11.04 0 C20.99 1.73, 29.42 -0.25, 33.11 0 M11.04 0 C16.78 0.49, 24.03 0.02, 33.11 0 M33.11 0 C41.28 0.3, 45.3 2.29, 44.14 11.04 M33.11 0 C39.14 2.17, 46.06 2.7, 44.14 11.04 M44.14 11.04 C43.6 28.81, 43.98 46.43, 44.14 63.25 M44.14 11.04 C43.07 30.7, 43.25 50.39, 44.14 63.25 M44.14 63.25 C43.49 71.99, 42.36 72.32, 33.11 74.29 M44.14 63.25 C43.52 69.44, 39.85 75.25, 33.11 74.29 M33.11 74.29 C24.93 72.73, 17.87 75.61, 11.04 74.29 M33.11 74.29 C27.58 74.51, 22.63 74.9, 11.04 74.29 M11.04 74.29 C3.89 74.64, 0.98 70.51, 0 63.25 M11.04 74.29 C4.26 72.12, 0.78 68.64, 0 63.25 M0 63.25 C-1.34 47.48, -0.85 33.11, 0 11.04 M0 63.25 C1.02 51.71, -0.17 41.65, 0 11.04 M0 11.04 C-1.88 5.12, 5.35 1.61, 11.04 0 M0 11.04 C1.56 3.92, 4.18 -1.87, 11.04 0" stroke="#2f9e44" stroke-width="1" fill="none"></path></g><g transform="translate(120.71286446707592 129.09152261763393) rotate(0 14.92999267578125 25)"><text x="14.92999267578125" y="17.52" font-family="Virgil, Segoe UI Emoji" font-size="20px" fill="#2f9e44" text-anchor="middle" style="white-space: pre;" direction="ltr" dominant-baseline="alphabetic">8 </text><text x="14.92999267578125" y="42.519999999999996" font-family="Virgil, Segoe UI Emoji" font-size="20px" fill="#2f9e44" text-anchor="middle" style="white-space: pre;" direction="ltr" dominant-baseline="alphabetic">MB</text></g><g stroke-linecap="round" transform="translate(214.28571428571433 115.52009404620617) rotate(0 21.357142857142946 37.14285714285711)"><path d="M10.68 0 C18.8 0.07, 26.96 -1.76, 32.04 0 M10.68 0 C18.56 0.15, 26.21 -0.7, 32.04 0 M32.04 0 C38 1.89, 44.39 2.71, 42.71 10.68 M32.04 0 C40.04 1.9, 43.23 2.44, 42.71 10.68 M42.71 10.68 C44.1 26.31, 41.49 41.15, 42.71 63.61 M42.71 10.68 C41.99 27.09, 43.26 41.13, 42.71 63.61 M42.71 63.61 C42.17 69.71, 38.62 75.12, 32.04 74.29 M42.71 63.61 C44.18 70.5, 36.91 74.11, 32.04 74.29 M32.04 74.29 C25.58 75.02, 23.01 73.37, 10.68 74.29 M32.04 74.29 C25.47 74.57, 19.19 74.35, 10.68 74.29 M10.68 74.29 C4.06 72.4, 0.68 69.01, 0 63.61 M10.68 74.29 C3.51 75.12, -0.85 69.41, 0 63.61 M0 63.61 C-1.61 46.56, 1.19 34.09, 0 10.68 M0 63.61 C-0.62 51.33, 1.16 38.42, 0 10.68 M0 10.68 C1.36 3.77, 4 -1.63, 10.68 0 M0 10.68 C-0.75 3.1, 5.41 2.18, 10.68 0" stroke="#1971c2" stroke-width="1" fill="none"></path></g><g transform="translate(220.71286446707603 127.66295118906328) rotate(0 14.92999267578125 25)"><text x="14.92999267578125" y="17.52" font-family="Virgil, Segoe UI Emoji" font-size="20px" fill="#1971c2" text-anchor="middle" style="white-space: pre;" direction="ltr" dominant-baseline="alphabetic">64</text><text x="14.92999267578125" y="42.519999999999996" font-family="Virgil, Segoe UI Emoji" font-size="20px" fill="#1971c2" text-anchor="middle" style="white-space: pre;" direction="ltr" dominant-baseline="alphabetic">MB</text></g><g stroke-linecap="round" transform="translate(266.732142857143 118.44866547477773) rotate(0 21.357142857142946 37.14285714285711)"><path d="M10.68 0 C18.11 -0.38, 23.61 1, 32.04 0 M10.68 0 C16.83 1.09, 24.98 -0.28, 32.04 0 M32.04 0 C39.92 1.65, 43.17 2.58, 42.71 10.68 M32.04 0 C39.28 -0.68, 42.79 5.33, 42.71 10.68 M42.71 10.68 C42.37 23.62, 42.36 38.95, 42.71 63.61 M42.71 10.68 C42.94 29.71, 42.95 50.18, 42.71 63.61 M42.71 63.61 C43.99 70.53, 37.2 74.13, 32.04 74.29 M42.71 63.61 C41.18 71.66, 40.93 72.58, 32.04 74.29 M32.04 74.29 C25.27 73.16, 19.04 74.38, 10.68 74.29 M32.04 74.29 C25.5 73.33, 18.8 73.42, 10.68 74.29 M10.68 74.29 C3.52 75.01, -0.74 69.58, 0 63.61 M10.68 74.29 C3.32 73.52, 1.12 68.67, 0 63.61 M0 63.61 C-1.36 51.05, 0.52 39.07, 0 10.68 M0 63.61 C0.24 44.03, -0.22 23.43, 0 10.68 M0 10.68 C-0.65 3.16, 5.17 1.89, 10.68 0 M0 10.68 C-0.39 5.73, 4.46 -1.21, 10.68 0" stroke="#f08c00" stroke-width="1" fill="none"></path></g><g transform="translate(273.1592930385047 130.59152261763484) rotate(0 14.92999267578125 25)"><text x="14.92999267578125" y="17.52" font-family="Virgil, Segoe UI Emoji" font-size="20px" fill="#f08c00" text-anchor="middle" style="white-space: pre;" direction="ltr" dominant-baseline="alphabetic">64</text><text x="14.92999267578125" y="42.519999999999996" font-family="Virgil, Segoe UI Emoji" font-size="20px" fill="#f08c00" text-anchor="middle" style="white-space: pre;" direction="ltr" dominant-baseline="alphabetic">MB</text></g><g stroke-linecap="round" transform="translate(316.1250000000001 118.30580833192084) rotate(0 21.357142857142946 37.14285714285711)"><path d="M10.68 0 C16.78 1.08, 20.88 -1.24, 32.04 0 M10.68 0 C19.49 0.92, 27.76 -0.4, 32.04 0 M32.04 0 C39.26 -0.59, 42.78 5.1, 42.71 10.68 M32.04 0 C38.54 -1.23, 40.57 3.49, 42.71 10.68 M42.71 10.68 C44.08 24.44, 40.73 33.88, 42.71 63.61 M42.71 10.68 C43.21 23.78, 41.6 37, 42.71 63.61 M42.71 63.61 C41.38 71.53, 40.7 72.8, 32.04 74.29 M42.71 63.61 C43.37 71.8, 37.91 74.57, 32.04 74.29 M32.04 74.29 C27.06 75.29, 21.29 74.81, 10.68 74.29 M32.04 74.29 C27.62 74.47, 22.88 73.53, 10.68 74.29 M10.68 74.29 C3.35 73.62, 0.97 68.94, 0 63.61 M10.68 74.29 C1.58 75.46, 1.3 69.47, 0 63.61 M0 63.61 C1.23 52.65, 1.4 39.71, 0 10.68 M0 63.61 C-0.44 46.96, 0.69 31.67, 0 10.68 M0 10.68 C-0.33 5.45, 4.34 -1.05, 10.68 0 M0 10.68 C1.06 2.78, 1.96 0.28, 10.68 0" stroke="#f08c00" stroke-width="1" fill="none"></path></g><g transform="translate(322.5521501813618 130.44866547477795) rotate(0 14.92999267578125 25)"><text x="14.92999267578125" y="17.52" font-family="Virgil, Segoe UI Emoji" font-size="20px" fill="#f08c00" text-anchor="middle" style="white-space: pre;" direction="ltr" dominant-baseline="alphabetic">64</text><text x="14.92999267578125" y="42.519999999999996" font-family="Virgil, Segoe UI Emoji" font-size="20px" fill="#f08c00" text-anchor="middle" style="white-space: pre;" direction="ltr" dominant-baseline="alphabetic">MB</text></g><g stroke-linecap="round" transform="translate(361.01785714285734 117.02009404620526) rotate(0 21.357142857142946 37.14285714285711)"><path d="M10.68 0 C20.22 1.79, 25.12 0.89, 32.04 0 M10.68 0 C18.9 -0.19, 27.05 0.88, 32.04 0 M32.04 0 C38.62 -1.07, 40.85 3.5, 42.71 10.68 M32.04 0 C37.41 -0.08, 41.97 5.15, 42.71 10.68 M42.71 10.68 C41.18 31.03, 43.03 53.73, 42.71 63.61 M42.71 10.68 C41.53 26.44, 42.97 40.64, 42.71 63.61 M42.71 63.61 C43.28 71.66, 38.08 74.53, 32.04 74.29 M42.71 63.61 C41.55 71.91, 39.4 74.69, 32.04 74.29 M32.04 74.29 C22.69 75.02, 15.41 74.3, 10.68 74.29 M32.04 74.29 C24.75 73.83, 18.16 73.27, 10.68 74.29 M10.68 74.29 C1.84 75.3, 1.13 69.64, 0 63.61 M10.68 74.29 C2.15 75.2, -2.17 72.38, 0 63.61 M0 63.61 C-0.21 43.75, -2.06 22.38, 0 10.68 M0 63.61 C-0.59 49.74, -0.04 33.46, 0 10.68 M0 10.68 C0.92 2.88, 2.16 0.24, 10.68 0 M0 10.68 C0.92 1.34, 4.48 0.48, 10.68 0" stroke="#f08c00" stroke-width="1" fill="none"></path></g><g transform="translate(367.44500732421903 129.16295118906237) rotate(0 14.92999267578125 25)"><text x="14.92999267578125" y="17.52" font-family="Virgil, Segoe UI Emoji" font-size="20px" fill="#f08c00" text-anchor="middle" style="white-space: pre;" direction="ltr" dominant-baseline="alphabetic">64</text><text x="14.92999267578125" y="42.519999999999996" font-family="Virgil, Segoe UI Emoji" font-size="20px" fill="#f08c00" text-anchor="middle" style="white-space: pre;" direction="ltr" dominant-baseline="alphabetic">MB</text></g><g stroke-linecap="round" transform="translate(410.41071428571445 116.87723690334838) rotate(0 21.357142857142946 37.14285714285711)"><path d="M10.68 0 C20.52 0.37, 26.09 0.03, 32.04 0 M10.68 0 C16.18 -0.7, 21.29 -0.2, 32.04 0 M32.04 0 C37.64 -0.07, 42.07 4.94, 42.71 10.68 M32.04 0 C41.33 -2.26, 42.09 2.4, 42.71 10.68 M42.71 10.68 C42.74 23.19, 42.78 38.27, 42.71 63.61 M42.71 10.68 C43.41 29.16, 42.58 46.83, 42.71 63.61 M42.71 63.61 C41.7 71.76, 39.37 74.64, 32.04 74.29 M42.71 63.61 C43.84 70.62, 39.74 72.12, 32.04 74.29 M32.04 74.29 C25.63 73.54, 16.63 74.07, 10.68 74.29 M32.04 74.29 C25.48 74.6, 21.21 73.55, 10.68 74.29 M10.68 74.29 C2.33 75.08, -1.88 72.16, 0 63.61 M10.68 74.29 C5.48 76.14, 1.56 70.97, 0 63.61 M0 63.61 C0.03 48.18, 2.33 29.2, 0 10.68 M0 63.61 C0.25 42.39, -0.9 21.98, 0 10.68 M0 10.68 C0.8 1.63, 4.36 0.41, 10.68 0 M0 10.68 C0.07 1.54, 1.42 -2.25, 10.68 0" stroke="#f08c00" stroke-width="1" fill="none"></path></g><g transform="translate(416.83786446707614 129.0200940462055) rotate(0 14.92999267578125 25)"><text x="14.92999267578125" y="17.52" font-family="Virgil, Segoe UI Emoji" font-size="20px" fill="#f08c00" text-anchor="middle" style="white-space: pre;" direction="ltr" dominant-baseline="alphabetic">64</text><text x="14.92999267578125" y="42.519999999999996" font-family="Virgil, Segoe UI Emoji" font-size="20px" fill="#f08c00" text-anchor="middle" style="white-space: pre;" direction="ltr" dominant-baseline="alphabetic">MB</text></g><g stroke-linecap="round" transform="translate(463.8750000000001 116.30580833191993) rotate(0 21.357142857142954 37.14285714285711)"><path d="M10.68 0 C16.97 0.05, 26 -0.55, 32.04 0 M10.68 0 C15.19 -0.03, 20.89 0.7, 32.04 0 M32.04 0 C41.05 -1.96, 42.17 2.55, 42.71 10.68 M32.04 0 C38.54 0.96, 44.18 3.33, 42.71 10.68 M42.71 10.68 C43.48 22.94, 41.19 32.67, 42.71 63.61 M42.71 10.68 C41.92 29.54, 42.53 47.54, 42.71 63.61 M42.71 63.61 C43.7 70.63, 39.66 72.4, 32.04 74.29 M42.71 63.61 C43.49 68.76, 39.11 75.12, 32.04 74.29 M32.04 74.29 C25.76 75.24, 19.02 72.54, 10.68 74.29 M32.04 74.29 C23.93 74.57, 16.1 74.89, 10.68 74.29 M10.68 74.29 C5.23 75.9, 1.36 70.94, 0 63.61 M10.68 74.29 C4.06 72.41, -0.75 70.26, 0 63.61 M0 63.61 C1.39 44.25, -1.55 24.24, 0 10.68 M0 63.61 C0.77 48.56, 0.77 35.65, 0 10.68 M0 10.68 C0.06 1.81, 1.7 -1.96, 10.68 0 M0 10.68 C-1.71 5.74, 1.81 -0.41, 10.68 0" stroke="#e03131" stroke-width="1" fill="none"></path></g><g transform="translate(470.3021501813618 128.44866547477704) rotate(0 14.92999267578125 25)"><text x="14.92999267578125" y="17.52" font-family="Virgil, Segoe UI Emoji" font-size="20px" fill="#e03131" text-anchor="middle" style="white-space: pre;" direction="ltr" dominant-baseline="alphabetic">64</text><text x="14.92999267578125" y="42.519999999999996" font-family="Virgil, Segoe UI Emoji" font-size="20px" fill="#e03131" text-anchor="middle" style="white-space: pre;" direction="ltr" dominant-baseline="alphabetic">MB</text></g><g stroke-linecap="round" transform="translate(513.2678571428572 116.16295118906305) rotate(0 21.357142857142954 37.14285714285711)"><path d="M10.68 0 C16.09 -1.81, 23.57 -1.46, 32.04 0 M10.68 0 C17.95 -1.13, 23.07 -0.65, 32.04 0 M32.04 0 C38.62 0.84, 43.99 3.36, 42.71 10.68 M32.04 0 C36.91 -0.18, 41.18 4.49, 42.71 10.68 M42.71 10.68 C43.25 29.57, 42.57 49.6, 42.71 63.61 M42.71 10.68 C43.26 29.23, 43.02 46.94, 42.71 63.61 M42.71 63.61 C43.39 69.01, 39.11 75.01, 32.04 74.29 M42.71 63.61 C41.86 69.41, 38.91 73.52, 32.04 74.29 M32.04 74.29 C25.61 75.24, 16.06 72.87, 10.68 74.29 M32.04 74.29 C25.61 75.25, 18.21 74.55, 10.68 74.29 M10.68 74.29 C4 72.66, -0.65 70.32, 0 63.61 M10.68 74.29 C5.41 76.46, -0.39 72.9, 0 63.61 M0 63.61 C-0.4 44.26, 0.52 28.51, 0 10.68 M0 63.61 C-0.18 51.96, -1.14 41.08, 0 10.68 M0 10.68 C-1.49 5.46, 2.04 -0.35, 10.68 0 M0 10.68 C-1.12 4.71, 2.08 -0.37, 10.68 0" stroke="#e03131" stroke-width="1" fill="none"></path></g><g transform="translate(519.695007324219 128.30580833192016) rotate(0 14.92999267578125 25)"><text x="14.92999267578125" y="17.52" font-family="Virgil, Segoe UI Emoji" font-size="20px" fill="#e03131" text-anchor="middle" style="white-space: pre;" direction="ltr" dominant-baseline="alphabetic">64</text><text x="14.92999267578125" y="42.519999999999996" font-family="Virgil, Segoe UI Emoji" font-size="20px" fill="#e03131" text-anchor="middle" style="white-space: pre;" direction="ltr" dominant-baseline="alphabetic">MB</text></g><g stroke-linecap="round" transform="translate(558.1607142857144 114.87723690334929) rotate(0 21.357142857142954 37.14285714285711)"><path d="M10.68 0 C15.02 -0.49, 20.9 2.05, 32.04 0 M10.68 0 C14.72 0.53, 19.93 0.01, 32.04 0 M32.04 0 C37.2 -0.15, 41.38 4.37, 42.71 10.68 M32.04 0 C40.93 -1.7, 43.37 4.63, 42.71 10.68 M42.71 10.68 C43.81 23.91, 43.13 37.71, 42.71 63.61 M42.71 10.68 C43.19 25.45, 42.83 42.29, 42.71 63.61 M42.71 63.61 C41.97 69.58, 38.95 73.62, 32.04 74.29 M42.71 63.61 C43.83 68.67, 37.18 75.46, 32.04 74.29 M32.04 74.29 C25.21 72.27, 18.24 75.82, 10.68 74.29 M32.04 74.29 C24.12 73.49, 15.45 74.11, 10.68 74.29 M10.68 74.29 C5.17 76.18, -0.33 72.61, 0 63.61 M10.68 74.29 C4.46 73.08, 1.06 69.95, 0 63.61 M0 63.61 C-1.99 52.22, 0.35 39.3, 0 10.68 M0 63.61 C-0.25 53.32, -0.27 40.95, 0 10.68 M0 10.68 C-0.98 4.56, 2.27 -0.32, 10.68 0 M0 10.68 C-0.53 5.28, 4.49 0.61, 10.68 0" stroke="#e03131" stroke-width="1" fill="none"></path></g><g transform="translate(564.5878644670761 127.0200940462064) rotate(0 14.92999267578125 25)"><text x="14.92999267578125" y="17.52" font-family="Virgil, Segoe UI Emoji" font-size="20px" fill="#e03131" text-anchor="middle" style="white-space: pre;" direction="ltr" dominant-baseline="alphabetic">64</text><text x="14.92999267578125" y="42.519999999999996" font-family="Virgil, Segoe UI Emoji" font-size="20px" fill="#e03131" text-anchor="middle" style="white-space: pre;" direction="ltr" dominant-baseline="alphabetic">MB</text></g><g stroke-linecap="round" transform="translate(607.5535714285716 114.7343797604924) rotate(0 21.357142857142954 37.14285714285711)"><path d="M10.68 0 C14.43 -0.74, 21.1 -0.74, 32.04 0 M10.68 0 C17 -0.06, 24.61 0.43, 32.04 0 M32.04 0 C40.7 -1.48, 43.28 4.49, 42.71 10.68 M32.04 0 C37.91 0.28, 41.55 4.74, 42.71 10.68 M42.71 10.68 C42.71 27.62, 40.92 44.23, 42.71 63.61 M42.71 10.68 C42.33 21.45, 42.6 33.04, 42.71 63.61 M42.71 63.61 C43.69 68.94, 37.43 75.3, 32.04 74.29 M42.71 63.61 C44.02 69.47, 37.74 75.2, 32.04 74.29 M32.04 74.29 C29.25 75.82, 23.46 74.9, 10.68 74.29 M32.04 74.29 C28.17 75.19, 22.53 75.19, 10.68 74.29 M10.68 74.29 C4.34 73.24, 0.92 70.05, 0 63.61 M10.68 74.29 C1.96 74.56, 0.92 68.51, 0 63.61 M0 63.61 C-1.86 43.76, -2.07 26.14, 0 10.68 M0 63.61 C-0.08 43.21, -0.24 21.66, 0 10.68 M0 10.68 C-0.46 5.05, 4.37 0.53, 10.68 0 M0 10.68 C1.2 2.67, 3.34 0.61, 10.68 0" stroke="#e03131" stroke-width="1" fill="none"></path></g><g transform="translate(613.9807216099332 126.87723690334951) rotate(0 14.92999267578125 25)"><text x="14.92999267578125" y="17.52" font-family="Virgil, Segoe UI Emoji" font-size="20px" fill="#e03131" text-anchor="middle" style="white-space: pre;" direction="ltr" dominant-baseline="alphabetic">64</text><text x="14.92999267578125" y="42.519999999999996" font-family="Virgil, Segoe UI Emoji" font-size="20px" fill="#e03131" text-anchor="middle" style="white-space: pre;" direction="ltr" dominant-baseline="alphabetic">MB</text></g><g stroke-linecap="round" transform="translate(656.7321428571429 113.44866547477682) rotate(0 21.357142857142954 37.14285714285711)"><path d="M10.68 0 C17.35 1.33, 22.14 -1.89, 32.04 0 M10.68 0 C17.69 -0.83, 23.45 0.38, 32.04 0 M32.04 0 C38.08 0.24, 41.7 4.59, 42.71 10.68 M32.04 0 C39.4 0.41, 43.84 3.45, 42.71 10.68 M42.71 10.68 C40.5 27.85, 42.94 44.36, 42.71 63.61 M42.71 10.68 C43.14 22.63, 41.8 36.87, 42.71 63.61 M42.71 63.61 C43.85 69.64, 37.93 75.08, 32.04 74.29 M42.71 63.61 C40.55 72.38, 41.07 76.14, 32.04 74.29 M32.04 74.29 C22.55 73.68, 15.92 75.94, 10.68 74.29 M32.04 74.29 C24 73.96, 15.64 74.15, 10.68 74.29 M10.68 74.29 C2.16 74.53, 0.8 68.8, 0 63.61 M10.68 74.29 C4.48 74.76, 0.07 68.71, 0 63.61 M0 63.61 C2.41 51.12, 0.16 40.71, 0 10.68 M0 63.61 C0.11 45.82, 0.75 26.8, 0 10.68 M0 10.68 C1.05 2.78, 3.37 0.53, 10.68 0 M0 10.68 C-0.44 3.56, 3.32 2.23, 10.68 0" stroke="#e03131" stroke-width="1" fill="none"></path></g><g transform="translate(663.1592930385045 125.59152261763393) rotate(0 14.92999267578125 25)"><text x="14.92999267578125" y="17.52" font-family="Virgil, Segoe UI Emoji" font-size="20px" fill="#e03131" text-anchor="middle" style="white-space: pre;" direction="ltr" dominant-baseline="alphabetic">64</text><text x="14.92999267578125" y="42.519999999999996" font-family="Virgil, Segoe UI Emoji" font-size="20px" fill="#e03131" text-anchor="middle" style="white-space: pre;" direction="ltr" dominant-baseline="alphabetic">MB</text></g><g stroke-linecap="round" transform="translate(706.125 113.30580833191993) rotate(0 21.357142857142946 37.14285714285711)"><path d="M10.68 0 C18.29 -1.13, 27.02 1.75, 32.04 0 M10.68 0 C14.96 0.02, 19.82 0.42, 32.04 0 M32.04 0 C39.37 0.35, 43.7 3.46, 42.71 10.68 M32.04 0 C39.74 -2.17, 43.49 1.59, 42.71 10.68 M42.71 10.68 C41.76 26.24, 42.24 43.19, 42.71 63.61 M42.71 10.68 C42.83 21.28, 41.64 33.37, 42.71 63.61 M42.71 63.61 C40.83 72.16, 40.82 75.9, 32.04 74.29 M42.71 63.61 C44.27 70.97, 39.66 72.41, 32.04 74.29 M32.04 74.29 C28.21 74.12, 22.49 75.24, 10.68 74.29 M32.04 74.29 C26.05 74.33, 21.87 73.25, 10.68 74.29 M10.68 74.29 C4.36 74.7, 0.06 68.97, 0 63.61 M10.68 74.29 C1.42 72.03, -1.71 72.91, 0 63.61 M0 63.61 C1.1 50.47, -0.23 39.44, 0 10.68 M0 63.61 C0.31 43.39, -0.31 24.21, 0 10.68 M0 10.68 C-0.38 3.56, 3.35 1.94, 10.68 0 M0 10.68 C-1.88 3.03, 5.77 -1.18, 10.68 0" stroke="#e03131" stroke-width="1" fill="none"></path></g><g transform="translate(712.5521501813616 125.44866547477704) rotate(0 14.92999267578125 25)"><text x="14.92999267578125" y="17.52" font-family="Virgil, Segoe UI Emoji" font-size="20px" fill="#e03131" text-anchor="middle" style="white-space: pre;" direction="ltr" dominant-baseline="alphabetic">64</text><text x="14.92999267578125" y="42.519999999999996" font-family="Virgil, Segoe UI Emoji" font-size="20px" fill="#e03131" text-anchor="middle" style="white-space: pre;" direction="ltr" dominant-baseline="alphabetic">MB</text></g><g stroke-linecap="round" transform="translate(751.0178571428572 112.02009404620617) rotate(0 21.357142857142946 37.14285714285711)"><path d="M10.68 0 C14.18 0.4, 21.57 -1.24, 32.04 0 M10.68 0 C17.45 0.07, 24.51 -0.16, 32.04 0 M32.04 0 C39.66 -1.89, 43.39 1.85, 42.71 10.68 M32.04 0 C39.11 0.84, 41.86 2.24, 42.71 10.68 M42.71 10.68 C40.75 24.28, 43.56 42.46, 42.71 63.61 M42.71 10.68 C41.45 24.4, 43.22 37.48, 42.71 63.61 M42.71 63.61 C44.07 70.94, 39.59 72.66, 32.04 74.29 M42.71 63.61 C41.97 70.26, 41.01 76.46, 32.04 74.29 M32.04 74.29 C24.94 75.29, 19.26 72.97, 10.68 74.29 M32.04 74.29 C25.77 74.29, 18.73 73.2, 10.68 74.29 M10.68 74.29 C1.7 72.33, -1.49 72.62, 0 63.61 M10.68 74.29 C1.81 73.88, -1.12 71.88, 0 63.61 M0 63.61 C1.58 51.95, 0.61 39.71, 0 10.68 M0 63.61 C-0.14 49.78, -0.05 36.92, 0 10.68 M0 10.68 C-1.63 3.1, 5.48 -1.02, 10.68 0 M0 10.68 C-0.58 3.03, 4.04 2.04, 10.68 0" stroke="#e03131" stroke-width="1" fill="none"></path></g><g transform="translate(757.445007324219 124.16295118906328) rotate(0 14.92999267578125 25)"><text x="14.92999267578125" y="17.52" font-family="Virgil, Segoe UI Emoji" font-size="20px" fill="#e03131" text-anchor="middle" style="white-space: pre;" direction="ltr" dominant-baseline="alphabetic">64</text><text x="14.92999267578125" y="42.519999999999996" font-family="Virgil, Segoe UI Emoji" font-size="20px" fill="#e03131" text-anchor="middle" style="white-space: pre;" direction="ltr" dominant-baseline="alphabetic">MB</text></g><g stroke-linecap="round" transform="translate(800.4107142857143 111.87723690334929) rotate(0 21.357142857142946 37.14285714285711)"><path d="M10.68 0 C17.94 -0.9, 25.74 0.33, 32.04 0 M10.68 0 C17.72 -0.93, 24.59 -0.85, 32.04 0 M32.04 0 C39.11 0.73, 41.97 2.41, 42.71 10.68 M32.04 0 C38.91 -0.76, 43.83 1.5, 42.71 10.68 M42.71 10.68 C41.9 20.78, 43.78 31.45, 42.71 63.61 M42.71 10.68 C43.83 30.47, 43.37 49.23, 42.71 63.61 M42.71 63.61 C42.07 70.32, 40.77 76.18, 32.04 74.29 M42.71 63.61 C42.33 72.9, 40.05 73.08, 32.04 74.29 M32.04 74.29 C24.89 74.94, 15.33 74.93, 10.68 74.29 M32.04 74.29 C24.26 73.12, 17.59 75.05, 10.68 74.29 M10.68 74.29 C2.04 73.93, -0.98 71.73, 0 63.61 M10.68 74.29 C2.08 73.91, -0.53 72.44, 0 63.61 M0 63.61 C-0.91 45.39, 0.39 27.17, 0 10.68 M0 63.61 C-0.76 47.51, 1.02 31.36, 0 10.68 M0 10.68 C-0.51 3.1, 3.98 1.77, 10.68 0 M0 10.68 C0.27 3.09, 1.89 0.47, 10.68 0" stroke="#e03131" stroke-width="1" fill="none"></path></g><g transform="translate(806.8378644670761 124.0200940462064) rotate(0 14.92999267578125 25)"><text x="14.92999267578125" y="17.52" font-family="Virgil, Segoe UI Emoji" font-size="20px" fill="#e03131" text-anchor="middle" style="white-space: pre;" direction="ltr" dominant-baseline="alphabetic">64</text><text x="14.92999267578125" y="42.519999999999996" font-family="Virgil, Segoe UI Emoji" font-size="20px" fill="#e03131" text-anchor="middle" style="white-space: pre;" direction="ltr" dominant-baseline="alphabetic">MB</text></g><g stroke-linecap="round"><g transform="translate(21.919642857142662 365.9129511890628) rotate(0 413.5714285714286 0)"><path d="M0.13 0.21 C138.18 0.1, 689.85 0.17, 827.73 -0.06 M-1.27 -0.72 C136.74 -0.69, 689.08 1.4, 827.09 1.45" stroke="#1e1e1e" stroke-width="1" fill="none"></path></g><g transform="translate(21.919642857142662 365.9129511890628) rotate(0 413.5714285714286 0)"><path d="M826.12 2.45 L812.2 7.43 L813.05 -3.43 L827.91 1.98" stroke="none" stroke-width="0" fill="#1e1e1e" fill-rule="evenodd"></path><path d="M827.09 1.45 C824 3.77, 820.27 4.99, 813.48 7.76 M827.09 1.45 C824.3 2.9, 821.24 3.5, 813.48 7.76 M813.48 7.76 C812.4 3, 814.19 1.13, 813.51 -4.92 M813.48 7.76 C812.97 5.1, 814.1 2.04, 813.51 -4.92 M813.51 -4.92 C817.29 -3.09, 823.21 0.94, 827.09 1.45 M813.51 -4.92 C819.16 -2.93, 824.57 -0.27, 827.09 1.45 M827.09 1.45 C827.09 1.45, 827.09 1.45, 827.09 1.45 M827.09 1.45 C827.09 1.45, 827.09 1.45, 827.09 1.45" stroke="#1e1e1e" stroke-width="1" fill="none"></path></g></g><mask></mask><g transform="translate(376.205357142857 384.4843797604917) rotate(0 54.909934997558594 12.5)"><text x="0" y="17.52" font-family="Virgil, Segoe UI Emoji" font-size="20px" fill="#1e1e1e" text-anchor="start" style="white-space: pre;" direction="ltr" dominant-baseline="alphabetic">Read order</text></g><g stroke-linecap="round"><g transform="translate(918.3482142857143 10.680808331919934) rotate(0 0 166.42857142857144)"><path d="M-0.42 0.24 C-0.39 55.43, 0.28 276.68, 0.52 332.12 M1.56 -0.68 C1.46 54.56, -0.02 277.46, -0.16 333.27" stroke="#1e1e1e" stroke-width="1" fill="none"></path></g><g transform="translate(918.3482142857143 10.680808331919934) rotate(0 0 166.42857142857144)"><path d="M0.39 333.96 L-4.59 318.8 L8.23 319.97 L-0.1 334.15" stroke="none" stroke-width="0" fill="#1e1e1e" fill-rule="evenodd"></path><path d="M-0.16 333.27 C-2.01 329.46, -5.28 325.62, -6.43 319.64 M-0.16 333.27 C-2.11 329.36, -4.34 325.21, -6.43 319.64 M-6.43 319.64 C-2.16 318.83, 2.03 320.19, 6.24 319.7 M-6.43 319.64 C-3.73 319.62, -1.58 320.29, 6.24 319.7 M6.24 319.7 C2.77 325.04, 0.41 331.26, -0.16 333.27 M6.24 319.7 C5.45 322.04, 3.82 325.7, -0.16 333.27 M-0.16 333.27 C-0.16 333.27, -0.16 333.27, -0.16 333.27 M-0.16 333.27 C-0.16 333.27, -0.16 333.27, -0.16 333.27" stroke="#1e1e1e" stroke-width="1" fill="none"></path></g></g><mask></mask><g transform="translate(939.7767857142857 97.82366547477704) rotate(0 22.02997589111328 12.5)"><text x="0" y="17.52" font-family="Virgil, Segoe UI Emoji" font-size="20px" fill="#1e1e1e" text-anchor="start" style="white-space: pre;" direction="ltr" dominant-baseline="alphabetic">Time</text></g><g stroke-opacity="0.3" fill-opacity="0.3" stroke-linecap="round" transform="translate(170.60714285714266 254.03795118906214) rotate(0 21.357142857142946 37.14285714285711)"><path d="M10.68 0 C17.61 0.72, 23.72 -1.99, 32.04 0 M32.04 0 C39.15 -0.11, 43.72 4.35, 42.71 10.68 M42.71 10.68 C42.24 24.66, 42.69 38.1, 42.71 63.61 M42.71 63.61 C43.68 70.1, 38.03 74.1, 32.04 74.29 M32.04 74.29 C25.01 74.52, 19.35 74.9, 10.68 74.29 M10.68 74.29 C3.6 72.81, -1.6 71.58, 0 63.61 M0 63.61 C-1.95 46.36, -1.27 34.09, 0 10.68 M0 10.68 C-0.28 4.46, 4.2 -1.2, 10.68 0" stroke="#1971c2" stroke-width="1.5" fill="none" stroke-dasharray="1.5 7"></path></g><g stroke-opacity="0.3" fill-opacity="0.3" transform="translate(177.03429303850436 266.18080833191925) rotate(0 14.92999267578125 25)"><text x="14.92999267578125" y="17.52" font-family="Virgil, Segoe UI Emoji" font-size="20px" fill="#1971c2" text-anchor="middle" style="white-space: pre;" direction="ltr" dominant-baseline="alphabetic">64</text><text x="14.92999267578125" y="42.519999999999996" font-family="Virgil, Segoe UI Emoji" font-size="20px" fill="#1971c2" text-anchor="middle" style="white-space: pre;" direction="ltr" dominant-baseline="alphabetic">MB</text></g><g stroke-opacity="0.3" fill-opacity="0.3" stroke-linecap="round" transform="translate(16.42857142857133 255.32366547477773) rotate(0 22.071428571428612 37.14285714285711)"><path d="M11.04 0 C18.61 0.09, 27.2 0.99, 33.11 0 M33.11 0 C39.28 -0.33, 43.87 3.29, 44.14 11.04 M44.14 11.04 C45.13 29.33, 43.04 48.69, 44.14 63.25 M44.14 63.25 C43.25 70.91, 40.31 72.72, 33.11 74.29 M33.11 74.29 C26.25 72.88, 17.71 75.2, 11.04 74.29 M11.04 74.29 C3.59 74.3, 1.13 68.66, 0 63.25 M0 63.25 C0.05 52.67, 0.97 39.09, 0 11.04 M0 11.04 C-0.72 5.56, 3.31 1.69, 11.04 0" stroke="#2f9e44" stroke-width="1.5" fill="none" stroke-dasharray="1.5 7"></path></g><g stroke-opacity="0.3" fill-opacity="0.3" transform="translate(23.570007324218636 267.46652261763484) rotate(0 14.92999267578125 25)"><text x="14.92999267578125" y="17.52" font-family="Virgil, Segoe UI Emoji" font-size="20px" fill="#2f9e44" text-anchor="middle" style="white-space: pre;" direction="ltr" dominant-baseline="alphabetic">8 </text><text x="14.92999267578125" y="42.519999999999996" font-family="Virgil, Segoe UI Emoji" font-size="20px" fill="#2f9e44" text-anchor="middle" style="white-space: pre;" direction="ltr" dominant-baseline="alphabetic">MB</text></g><g stroke-opacity="0.3" fill-opacity="0.3" stroke-linecap="round" transform="translate(66.42857142857088 255.32366547477773) rotate(0 22.07142857142864 37.14285714285711)"><path d="M11.04 0 C16.35 -0.42, 23.76 -0.47, 33.11 0 M33.11 0 C41.71 0.07, 46.1 4.65, 44.14 11.04 M44.14 11.04 C42.96 25.36, 43.69 37.51, 44.14 63.25 M44.14 63.25 C44.39 68.83, 41.09 74.32, 33.11 74.29 M33.11 74.29 C28.03 74.39, 24.25 72.43, 11.04 74.29 M11.04 74.29 C2.08 73.02, 1.78 70.33, 0 63.25 M0 63.25 C-0.89 47.12, -0.54 28.93, 0 11.04 M0 11.04 C0.09 4.56, 5.2 -0.99, 11.04 0" stroke="#2f9e44" stroke-width="1.5" fill="none" stroke-dasharray="1.5 7"></path></g><g stroke-opacity="0.3" fill-opacity="0.3" transform="translate(73.57000732421818 267.46652261763484) rotate(0 14.92999267578125 25)"><text x="14.92999267578125" y="17.52" font-family="Virgil, Segoe UI Emoji" font-size="20px" fill="#2f9e44" text-anchor="middle" style="white-space: pre;" direction="ltr" dominant-baseline="alphabetic">8 </text><text x="14.92999267578125" y="42.519999999999996" font-family="Virgil, Segoe UI Emoji" font-size="20px" fill="#2f9e44" text-anchor="middle" style="white-space: pre;" direction="ltr" dominant-baseline="alphabetic">MB</text></g><g stroke-opacity="0.3" fill-opacity="0.3" stroke-linecap="round" transform="translate(119.285714285714 255.3236654747759) rotate(0 22.07142857142864 37.14285714285711)"><path d="M11.04 0 C18.54 0.11, 25.51 1.01, 33.11 0 M33.11 0 C39.83 -1.12, 43.95 2.79, 44.14 11.04 M44.14 11.04 C44.35 25.71, 44.73 43.98, 44.14 63.25 M44.14 63.25 C42.67 69.01, 41.31 74.2, 33.11 74.29 M33.11 74.29 C24.87 72.81, 21.61 73.79, 11.04 74.29 M11.04 74.29 C4.58 74.93, -1.2 69.88, 0 63.25 M0 63.25 C0.18 43.55, 1.62 21.11, 0 11.04 M0 11.04 C-0.56 2.16, 3.77 -1.62, 11.04 0" stroke="#2f9e44" stroke-width="1.5" fill="none" stroke-dasharray="1.5 7"></path></g><g stroke-opacity="0.3" fill-opacity="0.3" transform="translate(126.42715018136136 267.466522617633) rotate(0 14.92999267578125 25)"><text x="14.92999267578125" y="17.52" font-family="Virgil, Segoe UI Emoji" font-size="20px" fill="#2f9e44" text-anchor="middle" style="white-space: pre;" direction="ltr" dominant-baseline="alphabetic">8 </text><text x="14.92999267578125" y="42.519999999999996" font-family="Virgil, Segoe UI Emoji" font-size="20px" fill="#2f9e44" text-anchor="middle" style="white-space: pre;" direction="ltr" dominant-baseline="alphabetic">MB</text></g><g stroke-linecap="round" transform="translate(219.99999999999977 253.89509404620526) rotate(0 21.357142857142946 37.14285714285711)"><path d="M10.68 0 C16.53 -1.22, 23.45 -0.99, 32.04 0 M10.68 0 C17.53 -0.72, 24.45 0.19, 32.04 0 M32.04 0 C37.68 -1.6, 43.56 3.47, 42.71 10.68 M32.04 0 C39.17 1.29, 40.47 1.72, 42.71 10.68 M42.71 10.68 C44.08 23.86, 41.99 35.03, 42.71 63.61 M42.71 10.68 C42.66 31.97, 43.38 51.89, 42.71 63.61 M42.71 63.61 C42.16 69.21, 39.24 72.66, 32.04 74.29 M42.71 63.61 C43.38 71.12, 40.34 72.54, 32.04 74.29 M32.04 74.29 C25.98 73.33, 18.57 75.05, 10.68 74.29 M32.04 74.29 C25.85 74.3, 21.19 74.64, 10.68 74.29 M10.68 74.29 C4.03 73.48, 1.88 72.62, 0 63.61 M10.68 74.29 C4.34 72.52, -2.11 70.26, 0 63.61 M0 63.61 C-0.83 47.5, 0.94 32.46, 0 10.68 M0 63.61 C0.51 42.59, -0.11 21.54, 0 10.68 M0 10.68 C-0.87 4.78, 2.99 0.81, 10.68 0 M0 10.68 C-0.52 2.5, 4.85 -2.06, 10.68 0" stroke="#1971c2" stroke-width="1" fill="none"></path></g><g transform="translate(226.42715018136147 266.03795118906237) rotate(0 14.92999267578125 25)"><text x="14.92999267578125" y="17.52" font-family="Virgil, Segoe UI Emoji" font-size="20px" fill="#1971c2" text-anchor="middle" style="white-space: pre;" direction="ltr" dominant-baseline="alphabetic">64</text><text x="14.92999267578125" y="42.519999999999996" font-family="Virgil, Segoe UI Emoji" font-size="20px" fill="#1971c2" text-anchor="middle" style="white-space: pre;" direction="ltr" dominant-baseline="alphabetic">MB</text></g><g stroke-linecap="round" transform="translate(272.44642857142844 256.8236654747768) rotate(0 21.357142857142946 37.14285714285711)"><path d="M10.68 0 C16.19 -0.06, 19.53 0.35, 32.04 0 M10.68 0 C14.46 -0.8, 20.13 -0.05, 32.04 0 M32.04 0 C39.17 1.13, 40.77 1.96, 42.71 10.68 M32.04 0 C37.7 2.05, 42.39 4.59, 42.71 10.68 M42.71 10.68 C44.28 27.89, 44.09 45.93, 42.71 63.61 M42.71 10.68 C42.84 28.12, 43.16 46.27, 42.71 63.61 M42.71 63.61 C43.29 71.07, 40.19 72.77, 32.04 74.29 M42.71 63.61 C43.49 72.09, 41.45 75.52, 32.04 74.29 M32.04 74.29 C25.83 74.46, 21.7 72.57, 10.68 74.29 M32.04 74.29 C25.84 73.96, 20.12 75.31, 10.68 74.29 M10.68 74.29 C4.23 72.75, -1.84 70.32, 0 63.61 M10.68 74.29 C3.75 73.04, 1.29 69.44, 0 63.61 M0 63.61 C1.76 45.18, -1.3 30.66, 0 10.68 M0 63.61 C-0.1 48.47, 0.05 32.52, 0 10.68 M0 10.68 C-0.45 2.64, 4.68 -1.79, 10.68 0 M0 10.68 C-0.36 3.5, 4.44 -0.61, 10.68 0" stroke="#f08c00" stroke-width="1" fill="none"></path></g><g transform="translate(278.87357875279014 268.9665226176339) rotate(0 14.92999267578125 25)"><text x="14.92999267578125" y="17.52" font-family="Virgil, Segoe UI Emoji" font-size="20px" fill="#f08c00" text-anchor="middle" style="white-space: pre;" direction="ltr" dominant-baseline="alphabetic">64</text><text x="14.92999267578125" y="42.519999999999996" font-family="Virgil, Segoe UI Emoji" font-size="20px" fill="#f08c00" text-anchor="middle" style="white-space: pre;" direction="ltr" dominant-baseline="alphabetic">MB</text></g><g stroke-linecap="round" transform="translate(321.83928571428555 256.68080833191993) rotate(0 21.357142857142946 37.14285714285711)"><path d="M10.68 0 C15.15 0.6, 23.2 -1.5, 32.04 0 M10.68 0 C15.38 0.57, 19.1 -0.79, 32.04 0 M32.04 0 C37.89 1.78, 42.43 4.46, 42.71 10.68 M32.04 0 C39.9 -1.37, 41.88 5.72, 42.71 10.68 M42.71 10.68 C44.04 27.1, 42.17 39.92, 42.71 63.61 M42.71 10.68 C43.03 22.71, 43.25 33.63, 42.71 63.61 M42.71 63.61 C43.39 71.91, 41.15 75.36, 32.04 74.29 M42.71 63.61 C41.38 71.64, 39.79 73.09, 32.04 74.29 M32.04 74.29 C25.53 73.58, 19.69 74.57, 10.68 74.29 M32.04 74.29 C26.83 73.72, 20.03 74.28, 10.68 74.29 M10.68 74.29 C3.73 73.2, 1.13 69.61, 0 63.61 M10.68 74.29 C3.81 75.04, 1.73 72.95, 0 63.61 M0 63.61 C0.25 51.69, 0.12 41.42, 0 10.68 M0 63.61 C-0.08 44.05, 0.71 24.51, 0 10.68 M0 10.68 C-0.31 3.51, 4.32 -0.53, 10.68 0 M0 10.68 C-0.01 2.73, 2.7 -1.07, 10.68 0" stroke="#f08c00" stroke-width="1" fill="none"></path></g><g transform="translate(328.26643589564725 268.82366547477704) rotate(0 14.92999267578125 25)"><text x="14.92999267578125" y="17.52" font-family="Virgil, Segoe UI Emoji" font-size="20px" fill="#f08c00" text-anchor="middle" style="white-space: pre;" direction="ltr" dominant-baseline="alphabetic">64</text><text x="14.92999267578125" y="42.519999999999996" font-family="Virgil, Segoe UI Emoji" font-size="20px" fill="#f08c00" text-anchor="middle" style="white-space: pre;" direction="ltr" dominant-baseline="alphabetic">MB</text></g><g stroke-linecap="round" transform="translate(366.73214285714266 255.39509404620435) rotate(0 21.357142857142946 37.14285714285711)"><path d="M10.68 0 C16.16 1.01, 24.75 0.17, 32.04 0 M10.68 0 C17.66 1.06, 25.76 0.62, 32.04 0 M32.04 0 C39.8 -1.2, 41.99 5.44, 42.71 10.68 M32.04 0 C38.73 1.95, 42.81 4.57, 42.71 10.68 M42.71 10.68 C40.93 30.67, 40.83 51.07, 42.71 63.61 M42.71 10.68 C43.32 28.06, 43.98 44.8, 42.71 63.61 M42.71 63.61 C41.55 71.52, 39.71 73.24, 32.04 74.29 M42.71 63.61 C42.84 70.72, 37.12 74.31, 32.04 74.29 M32.04 74.29 C25.37 76.22, 22.22 75.01, 10.68 74.29 M32.04 74.29 C27.35 73.7, 23.06 73.68, 10.68 74.29 M10.68 74.29 C3.78 74.94, 1.5 72.66, 0 63.61 M10.68 74.29 C1.29 72.99, -0.04 70.67, 0 63.61 M0 63.61 C1.27 50.5, 0.86 38.06, 0 10.68 M0 63.61 C-0.45 50.13, 0.09 36.44, 0 10.68 M0 10.68 C-0.01 2.84, 2.81 -0.93, 10.68 0 M0 10.68 C-1.37 5.41, 5.18 -1.63, 10.68 0" stroke="#f08c00" stroke-width="1" fill="none"></path></g><g transform="translate(373.15929303850436 267.53795118906146) rotate(0 14.92999267578125 25)"><text x="14.92999267578125" y="17.52" font-family="Virgil, Segoe UI Emoji" font-size="20px" fill="#f08c00" text-anchor="middle" style="white-space: pre;" direction="ltr" dominant-baseline="alphabetic">64</text><text x="14.92999267578125" y="42.519999999999996" font-family="Virgil, Segoe UI Emoji" font-size="20px" fill="#f08c00" text-anchor="middle" style="white-space: pre;" direction="ltr" dominant-baseline="alphabetic">MB</text></g><g stroke-linecap="round" transform="translate(416.1249999999998 255.25223690334747) rotate(0 21.357142857142946 37.14285714285711)"><path d="M10.68 0 C19.12 -1.95, 23.71 -1.26, 32.04 0 M10.68 0 C19.31 -0.69, 26.94 0.84, 32.04 0 M32.04 0 C38.78 1.69, 42.8 4.44, 42.71 10.68 M32.04 0 C40.91 -1.14, 42.07 1.81, 42.71 10.68 M42.71 10.68 C42.63 27.82, 40.76 43.57, 42.71 63.61 M42.71 10.68 C42.66 30.1, 43.52 48.2, 42.71 63.61 M42.71 63.61 C42.83 70.72, 37.38 74.31, 32.04 74.29 M42.71 63.61 C42.12 71.54, 39.7 73.35, 32.04 74.29 M32.04 74.29 C22.08 72.52, 14.79 74.53, 10.68 74.29 M32.04 74.29 C26.9 74.49, 22.29 75.13, 10.68 74.29 M10.68 74.29 C1.59 73.16, -0.03 70.68, 0 63.61 M10.68 74.29 C2.11 74.08, -1 72.13, 0 63.61 M0 63.61 C-1.13 50.35, -2 34.54, 0 10.68 M0 63.61 C-0.21 47.51, -0.58 31.67, 0 10.68 M0 10.68 C-1.19 5.17, 4.97 -1.41, 10.68 0 M0 10.68 C0.5 4.16, 3.56 -1.57, 10.68 0" stroke="#f08c00" stroke-width="1" fill="none"></path></g><g transform="translate(422.55215018136147 267.3950940462046) rotate(0 14.92999267578125 25)"><text x="14.92999267578125" y="17.52" font-family="Virgil, Segoe UI Emoji" font-size="20px" fill="#f08c00" text-anchor="middle" style="white-space: pre;" direction="ltr" dominant-baseline="alphabetic">64</text><text x="14.92999267578125" y="42.519999999999996" font-family="Virgil, Segoe UI Emoji" font-size="20px" fill="#f08c00" text-anchor="middle" style="white-space: pre;" direction="ltr" dominant-baseline="alphabetic">MB</text></g><g stroke-linecap="round" transform="translate(469.58928571428555 254.68080833191902) rotate(0 21.357142857142954 37.14285714285711)"><path d="M10.68 0 C16.79 -0.15, 20.23 0.78, 32.04 0 M10.68 0 C15.62 0.65, 20.98 0.24, 32.04 0 M32.04 0 C40.68 -0.99, 42.16 2.04, 42.71 10.68 M32.04 0 C39.26 -1.87, 43.38 3.96, 42.71 10.68 M42.71 10.68 C43.5 31.28, 43.38 46.73, 42.71 63.61 M42.71 10.68 C42.92 28.65, 41.97 46.64, 42.71 63.61 M42.71 63.61 C42.2 71.44, 39.63 73.48, 32.04 74.29 M42.71 63.61 C44.88 72.91, 39.93 72.52, 32.04 74.29 M32.04 74.29 C26.5 75.43, 22.03 74.52, 10.68 74.29 M32.04 74.29 C23.94 73.93, 17.81 74.47, 10.68 74.29 M10.68 74.29 C2.3 74.11, -0.87 71.94, 0 63.61 M10.68 74.29 C2.91 75.22, -0.52 69.67, 0 63.61 M0 63.61 C0.42 45.52, -0.06 25.89, 0 10.68 M0 63.61 C-0.4 50.44, 0.9 34.97, 0 10.68 M0 10.68 C0.43 4.09, 3.56 -1.36, 10.68 0 M0 10.68 C-1.02 2.05, 3.27 -1.26, 10.68 0" stroke="#e03131" stroke-width="1" fill="none"></path></g><g transform="translate(476.01643589564725 266.82366547477613) rotate(0 14.92999267578125 25)"><text x="14.92999267578125" y="17.52" font-family="Virgil, Segoe UI Emoji" font-size="20px" fill="#e03131" text-anchor="middle" style="white-space: pre;" direction="ltr" dominant-baseline="alphabetic">64</text><text x="14.92999267578125" y="42.519999999999996" font-family="Virgil, Segoe UI Emoji" font-size="20px" fill="#e03131" text-anchor="middle" style="white-space: pre;" direction="ltr" dominant-baseline="alphabetic">MB</text></g><g stroke-linecap="round" transform="translate(518.9821428571427 254.53795118906214) rotate(0 21.357142857142954 37.14285714285711)"><path d="M10.68 0 C15.59 -0.79, 24.77 -0.44, 32.04 0 M10.68 0 C19.65 -0.59, 26.83 -0.85, 32.04 0 M32.04 0 C39.24 -1.62, 43.29 3.9, 42.71 10.68 M32.04 0 C40.34 -1.75, 43.49 4.93, 42.71 10.68 M42.71 10.68 C43.79 32.38, 41.96 53.09, 42.71 63.61 M42.71 10.68 C41.99 26.9, 42.48 42.02, 42.71 63.61 M42.71 63.61 C44.6 72.62, 39.83 72.75, 32.04 74.29 M42.71 63.61 C40.6 70.26, 39.35 73.04, 32.04 74.29 M32.04 74.29 C25.08 75.81, 18.75 72.34, 10.68 74.29 M32.04 74.29 C26.2 74.19, 21.2 74.89, 10.68 74.29 M10.68 74.29 C2.99 75.1, -0.45 69.81, 0 63.61 M10.68 74.29 C4.85 72.23, -0.36 70.66, 0 63.61 M0 63.61 C-0.58 44.95, -0.79 26.6, 0 10.68 M0 63.61 C-0.16 43.74, -0.37 22.67, 0 10.68 M0 10.68 C-0.89 2.25, 3.3 -1.09, 10.68 0 M0 10.68 C-1.14 3.35, 5.02 -2.13, 10.68 0" stroke="#e03131" stroke-width="1" fill="none"></path></g><g transform="translate(525.4092930385043 266.68080833191925) rotate(0 14.92999267578125 25)"><text x="14.92999267578125" y="17.52" font-family="Virgil, Segoe UI Emoji" font-size="20px" fill="#e03131" text-anchor="middle" style="white-space: pre;" direction="ltr" dominant-baseline="alphabetic">64</text><text x="14.92999267578125" y="42.519999999999996" font-family="Virgil, Segoe UI Emoji" font-size="20px" fill="#e03131" text-anchor="middle" style="white-space: pre;" direction="ltr" dominant-baseline="alphabetic">MB</text></g><g stroke-linecap="round" transform="translate(563.8749999999998 253.25223690334838) rotate(0 21.357142857142954 37.14285714285711)"><path d="M10.68 0 C18.01 0.12, 22.83 1.56, 32.04 0 M10.68 0 C16.07 -0.65, 21.67 0.33, 32.04 0 M32.04 0 C40.19 -1.52, 43.39 4.75, 42.71 10.68 M32.04 0 C41.45 1.23, 41.38 4.47, 42.71 10.68 M42.71 10.68 C42.44 26.25, 42.46 44.85, 42.71 63.61 M42.71 10.68 C43.78 29.39, 43.18 45.43, 42.71 63.61 M42.71 63.61 C40.88 70.32, 39.32 73.2, 32.04 74.29 M42.71 63.61 C44.01 69.44, 39.41 75.04, 32.04 74.29 M32.04 74.29 C22.9 74.04, 15.96 72.82, 10.68 74.29 M32.04 74.29 C25.54 74.82, 19.38 73.96, 10.68 74.29 M10.68 74.29 C4.68 72.5, -0.31 70.67, 0 63.61 M10.68 74.29 C4.44 73.67, -0.01 69.89, 0 63.61 M0 63.61 C1.85 51.12, -1.17 36.25, 0 10.68 M0 63.61 C-0.45 45.68, -0.13 28.52, 0 10.68 M0 10.68 C-0.99 3.38, 4.83 -1.85, 10.68 0 M0 10.68 C-2.02 4.36, 4.89 -2.1, 10.68 0" stroke="#e03131" stroke-width="1" fill="none"></path></g><g transform="translate(570.3021501813614 265.3950940462055) rotate(0 14.92999267578125 25)"><text x="14.92999267578125" y="17.52" font-family="Virgil, Segoe UI Emoji" font-size="20px" fill="#e03131" text-anchor="middle" style="white-space: pre;" direction="ltr" dominant-baseline="alphabetic">64</text><text x="14.92999267578125" y="42.519999999999996" font-family="Virgil, Segoe UI Emoji" font-size="20px" fill="#e03131" text-anchor="middle" style="white-space: pre;" direction="ltr" dominant-baseline="alphabetic">MB</text></g><g stroke-linecap="round" transform="translate(613.2678571428569 253.1093797604915) rotate(0 21.357142857142954 37.14285714285711)"><path d="M10.68 0 C16.19 -0.72, 22.15 -0.07, 32.04 0 M10.68 0 C15.87 -0.8, 20.36 0.56, 32.04 0 M32.04 0 C41.15 1.07, 41.55 4.35, 42.71 10.68 M32.04 0 C39.79 -1.2, 42.84 3.56, 42.71 10.68 M42.71 10.68 C43.43 22.34, 41.91 34.94, 42.71 63.61 M42.71 10.68 C41.98 31.38, 42.98 51.94, 42.71 63.61 M42.71 63.61 C43.84 69.61, 39.37 74.94, 32.04 74.29 M42.71 63.61 C44.44 72.95, 36.89 72.99, 32.04 74.29 M32.04 74.29 C25.48 73.28, 20.51 73.58, 10.68 74.29 M32.04 74.29 C25.33 73.29, 17.34 74.16, 10.68 74.29 M10.68 74.29 C4.32 73.75, -0.01 70, 0 63.61 M10.68 74.29 C2.7 73.22, -1.37 72.57, 0 63.61 M0 63.61 C0.9 44.01, -0.99 23.51, 0 10.68 M0 63.61 C-0.43 51.1, 0.7 37.85, 0 10.68 M0 10.68 C-1.76 4.25, 4.72 -1.82, 10.68 0 M0 10.68 C0.98 2.59, 3.47 -0.16, 10.68 0" stroke="#e03131" stroke-width="1" fill="none"></path></g><g transform="translate(619.6950073242186 265.2522369033486) rotate(0 14.92999267578125 25)"><text x="14.92999267578125" y="17.52" font-family="Virgil, Segoe UI Emoji" font-size="20px" fill="#e03131" text-anchor="middle" style="white-space: pre;" direction="ltr" dominant-baseline="alphabetic">64</text><text x="14.92999267578125" y="42.519999999999996" font-family="Virgil, Segoe UI Emoji" font-size="20px" fill="#e03131" text-anchor="middle" style="white-space: pre;" direction="ltr" dominant-baseline="alphabetic">MB</text></g><g stroke-linecap="round" transform="translate(662.4464285714282 251.8236654747759) rotate(0 21.357142857142954 37.14285714285711)"><path d="M10.68 0 C14.86 0.57, 22.64 1.02, 32.04 0 M10.68 0 C16.46 0.41, 19.66 0.27, 32.04 0 M32.04 0 C39.71 -1.04, 42.83 3.56, 42.71 10.68 M32.04 0 C37.12 0.02, 42.12 4.38, 42.71 10.68 M42.71 10.68 C44.4 28.48, 40.97 43.09, 42.71 63.61 M42.71 10.68 C43.32 24.92, 42.87 40.61, 42.71 63.61 M42.71 63.61 C44.22 72.66, 37.18 73.16, 32.04 74.29 M42.71 63.61 C42.68 70.67, 37.71 74.08, 32.04 74.29 M32.04 74.29 C27.36 73.77, 20.15 75.35, 10.68 74.29 M32.04 74.29 C27.92 74.01, 23.03 73.92, 10.68 74.29 M10.68 74.29 C2.81 73.36, -1.19 72.33, 0 63.61 M10.68 74.29 C5.18 72.66, 0.5 71.33, 0 63.61 M0 63.61 C-0.95 47.46, -0.73 30.84, 0 10.68 M0 63.61 C-1.21 48.55, 0.24 31.89, 0 10.68 M0 10.68 C0.85 2.71, 3.48 -0.14, 10.68 0 M0 10.68 C0.95 1.38, 1.29 -0.99, 10.68 0" stroke="#e03131" stroke-width="1" fill="none"></path></g><g transform="translate(668.87357875279 263.966522617633) rotate(0 14.92999267578125 25)"><text x="14.92999267578125" y="17.52" font-family="Virgil, Segoe UI Emoji" font-size="20px" fill="#e03131" text-anchor="middle" style="white-space: pre;" direction="ltr" dominant-baseline="alphabetic">64</text><text x="14.92999267578125" y="42.519999999999996" font-family="Virgil, Segoe UI Emoji" font-size="20px" fill="#e03131" text-anchor="middle" style="white-space: pre;" direction="ltr" dominant-baseline="alphabetic">MB</text></g><g stroke-linecap="round" transform="translate(711.8392857142853 251.68080833191902) rotate(0 21.357142857142946 37.14285714285711)"><path d="M10.68 0 C16.18 0.56, 25.92 1.88, 32.04 0 M10.68 0 C18.5 -0.6, 25.83 -0.09, 32.04 0 M32.04 0 C37.38 0.02, 42.2 4.27, 42.71 10.68 M32.04 0 C39.7 -0.93, 44.88 5.74, 42.71 10.68 M42.71 10.68 C41.9 28.51, 41.22 47.13, 42.71 63.61 M42.71 10.68 C43.52 24.57, 41.79 35.97, 42.71 63.61 M42.71 63.61 C42.68 70.68, 37.9 74.11, 32.04 74.29 M42.71 63.61 C41.72 72.13, 38.5 75.22, 32.04 74.29 M32.04 74.29 C24.33 74.1, 20.14 75.17, 10.68 74.29 M32.04 74.29 C25.82 73.74, 19.76 75.01, 10.68 74.29 M10.68 74.29 C4.97 72.87, 0.43 71.25, 0 63.61 M10.68 74.29 C3.56 72.72, -1.02 69.22, 0 63.61 M0 63.61 C0.11 49.67, -1.56 31.45, 0 10.68 M0 63.61 C0.12 45.47, -0.34 28.11, 0 10.68 M0 10.68 C0.83 1.66, 1.59 -0.87, 10.68 0 M0 10.68 C-2.19 5.3, 3.39 -1.15, 10.68 0" stroke="#e03131" stroke-width="1" fill="none"></path></g><g transform="translate(718.2664358956471 263.82366547477613) rotate(0 14.92999267578125 25)"><text x="14.92999267578125" y="17.52" font-family="Virgil, Segoe UI Emoji" font-size="20px" fill="#e03131" text-anchor="middle" style="white-space: pre;" direction="ltr" dominant-baseline="alphabetic">64</text><text x="14.92999267578125" y="42.519999999999996" font-family="Virgil, Segoe UI Emoji" font-size="20px" fill="#e03131" text-anchor="middle" style="white-space: pre;" direction="ltr" dominant-baseline="alphabetic">MB</text></g><g stroke-linecap="round" transform="translate(756.7321428571427 250.39509404620526) rotate(0 21.357142857142946 37.14285714285711)"><path d="M10.68 0 C18.88 -1.38, 25.73 0.34, 32.04 0 M10.68 0 C15.09 0.01, 21.01 0.36, 32.04 0 M32.04 0 C39.63 -0.81, 44.6 5.46, 42.71 10.68 M32.04 0 C39.93 -1.76, 40.6 3.09, 42.71 10.68 M42.71 10.68 C41.31 27.22, 43.08 44.83, 42.71 63.61 M42.71 10.68 C42.18 31.64, 41.56 52.57, 42.71 63.61 M42.71 63.61 C41.85 71.94, 38.59 75.1, 32.04 74.29 M42.71 63.61 C42.19 69.67, 40.45 72.23, 32.04 74.29 M32.04 74.29 C25.43 74.36, 19.16 73.62, 10.68 74.29 M32.04 74.29 C27.33 73.75, 21.42 74.72, 10.68 74.29 M10.68 74.29 C3.56 72.92, -0.89 69.42, 0 63.61 M10.68 74.29 C3.27 73.03, -1.14 70.52, 0 63.61 M0 63.61 C1.18 45.53, -1.33 25.99, 0 10.68 M0 63.61 C0.44 49.02, -0.97 35.9, 0 10.68 M0 10.68 C-1.91 5.08, 3.42 -1, 10.68 0 M0 10.68 C-1.72 1.74, 5.56 1.75, 10.68 0" stroke="#e03131" stroke-width="1" fill="none"></path></g><g transform="translate(763.1592930385043 262.53795118906237) rotate(0 14.92999267578125 25)"><text x="14.92999267578125" y="17.52" font-family="Virgil, Segoe UI Emoji" font-size="20px" fill="#e03131" text-anchor="middle" style="white-space: pre;" direction="ltr" dominant-baseline="alphabetic">64</text><text x="14.92999267578125" y="42.519999999999996" font-family="Virgil, Segoe UI Emoji" font-size="20px" fill="#e03131" text-anchor="middle" style="white-space: pre;" direction="ltr" dominant-baseline="alphabetic">MB</text></g><g stroke-linecap="round" transform="translate(806.1249999999998 250.25223690334838) rotate(0 21.357142857142946 37.14285714285711)"><path d="M10.68 0 C14.8 0.05, 21 -1.83, 32.04 0 M10.68 0 C17.34 -0.48, 24.48 0.87, 32.04 0 M32.04 0 C39.83 -1.53, 40.88 3.15, 42.71 10.68 M32.04 0 C39.35 -1.25, 44.01 2.28, 42.71 10.68 M42.71 10.68 C44.82 25.16, 41.76 43.56, 42.71 63.61 M42.71 10.68 C41.95 27.03, 42.1 42.57, 42.71 63.61 M42.71 63.61 C42.26 69.81, 40.28 72.5, 32.04 74.29 M42.71 63.61 C42.36 70.66, 40.03 73.67, 32.04 74.29 M32.04 74.29 C24.71 73.01, 20.85 75.61, 10.68 74.29 M32.04 74.29 C27.14 73.66, 21.8 73.69, 10.68 74.29 M10.68 74.29 C3.3 73.19, -0.99 70.55, 0 63.61 M10.68 74.29 C5.02 72.16, -2.02 71.52, 0 63.61 M0 63.61 C-0.36 44.59, 0.34 26.56, 0 10.68 M0 63.61 C-0.43 53.5, 0.45 41.38, 0 10.68 M0 10.68 C-1.49 1.98, 5.3 1.52, 10.68 0 M0 10.68 C2.15 2.3, 3.5 -0.2, 10.68 0" stroke="#e03131" stroke-width="1" fill="none"></path></g><g transform="translate(812.5521501813614 262.3950940462055) rotate(0 14.92999267578125 25)"><text x="14.92999267578125" y="17.52" font-family="Virgil, Segoe UI Emoji" font-size="20px" fill="#e03131" text-anchor="middle" style="white-space: pre;" direction="ltr" dominant-baseline="alphabetic">64</text><text x="14.92999267578125" y="42.519999999999996" font-family="Virgil, Segoe UI Emoji" font-size="20px" fill="#e03131" text-anchor="middle" style="white-space: pre;" direction="ltr" dominant-baseline="alphabetic">MB</text></g><g transform="translate(426.9196428571428 210.68080833191993) rotate(0 8.219993591308594 12.5)"><text x="0" y="17.52" font-family="Virgil, Segoe UI Emoji" font-size="20px" fill="#1e1e1e" text-anchor="start" style="white-space: pre;" direction="ltr" dominant-baseline="alphabetic">...</text></g></svg>