<svg version="1.1" xmlns="http://www.w3.org/2000/svg" viewBox="0 0 1021.9865677653311 932.9512497312614" width="1021.9865677653311" height="932.9512497312614">
  <!-- svg-source:excalidraw -->
  
  <defs>
    <style class="style-fonts">
      @font-face {
        font-family: "Virgil";
        src: url("https://excalidraw.com/Virgil.woff2");
      }
      @font-face {
        font-family: "Cascadia";
        src: url("https://excalidraw.com/Cascadia.woff2");
      }
      @font-face {
        font-family: "Assistant";
        src: url("https://excalidraw.com/Assistant-Regular.woff2");
      }
    </style>
    
  </defs>
  <rect x="0" y="0" width="1021.9865677653311" height="932.9512497312614" fill="#ffffff"></rect><g stroke-linecap="round" transform="translate(86.27568163190608 521.320297350309) rotate(0 204.92857142857133 36.99999999999999)"><path d="M18.5 0 C131.95 -1.42, 246.82 -0.6, 391.36 0 M18.5 0 C157.95 1.04, 297.08 0.39, 391.36 0 M391.36 0 C402.51 -0.94, 407.92 5.73, 409.86 18.5 M391.36 0 C405.44 -1.47, 409.06 5.32, 409.86 18.5 M409.86 18.5 C409.41 33.71, 409.37 48.89, 409.86 55.5 M409.86 18.5 C409.16 30.86, 409.39 43.95, 409.86 55.5 M409.86 55.5 C411.44 66.22, 405.41 74.06, 391.36 74 M409.86 55.5 C410.64 69.16, 403.56 75.73, 391.36 74 M391.36 74 C291.56 74.94, 194.3 73.17, 18.5 74 M391.36 74 C294.77 72.94, 197.43 72.8, 18.5 74 M18.5 74 C6.95 75.11, -0.9 69.54, 0 55.5 M18.5 74 C6.29 74.03, -0.08 67.44, 0 55.5 M0 55.5 C-0.09 47.35, 1.55 34.77, 0 18.5 M0 55.5 C-0.02 41.03, -0.72 26.72, 0 18.5 M0 18.5 C1.21 6.7, 4.74 -0.83, 18.5 0 M0 18.5 C1.04 6.44, 4.3 1.97, 18.5 0" stroke="#1e1e1e" stroke-width="1" fill="none"></path></g><g transform="translate(258.47428022112194 545.820297350309) rotate(0 32.72997283935547 12.5)"><text x="32.72997283935547" y="17.52" font-family="Virgil, Segoe UI Emoji" font-size="20px" fill="#1e1e1e" text-anchor="middle" style="white-space: pre;" direction="ltr" dominant-baseline="alphabetic">64 MB</text></g><g stroke-linecap="round" transform="translate(503.6328244890485 521.320297350309) rotate(0 214.21428571428567 36.99999999999999)"><path d="M18.5 0 C100.29 1.58, 180.13 0.82, 409.93 0 M18.5 0 C172.59 -0.02, 326.8 0.12, 409.93 0 M409.93 0 C423.78 -1.28, 427.73 5.43, 428.43 18.5 M409.93 0 C424.52 0.91, 427.1 5.48, 428.43 18.5 M428.43 18.5 C429 30.65, 427.07 41, 428.43 55.5 M428.43 18.5 C429.03 28.77, 429.1 40.68, 428.43 55.5 M428.43 55.5 C429.11 68.98, 422.15 75.5, 409.93 74 M428.43 55.5 C427.64 69.82, 422.12 72.63, 409.93 74 M409.93 74 C257.38 73.4, 105.21 73.26, 18.5 74 M409.93 74 C290.88 73.91, 171.12 74.08, 18.5 74 M18.5 74 C6.28 74.03, -0.07 67.49, 0 55.5 M18.5 74 C5.41 74.97, -2.08 67.9, 0 55.5 M0 55.5 C1.36 42.54, -1.32 27.33, 0 18.5 M0 55.5 C0.78 45.68, -0.54 34.91, 0 18.5 M0 18.5 C0.9 6.41, 4.54 1.71, 18.5 0 M0 18.5 C-0.06 3.96, 5.92 -0.03, 18.5 0" stroke="#1e1e1e" stroke-width="1" fill="none"></path></g><g transform="translate(685.1171373639786 545.820297350309) rotate(0 32.72997283935547 12.5)"><text x="32.72997283935547" y="17.52" font-family="Virgil, Segoe UI Emoji" font-size="20px" fill="#1e1e1e" text-anchor="middle" style="white-space: pre;" direction="ltr" dominant-baseline="alphabetic">64 MB</text></g><g stroke-linecap="round" transform="translate(80.66853877476274 606.320297350309) rotate(0 99.21428571428578 36.99999999999999)"><path d="M18.5 0 C82.3 -0.58, 142.1 -1.47, 179.93 0 M18.5 0 C60.13 -0.28, 99.89 -0.01, 179.93 0 M179.93 0 C194.23 0.79, 197.28 5.57, 198.43 18.5 M179.93 0 C192.81 -0.73, 199.48 6.95, 198.43 18.5 M198.43 18.5 C198.18 28.93, 199.63 42.92, 198.43 55.5 M198.43 18.5 C199.09 27.19, 198.69 35.48, 198.43 55.5 M198.43 55.5 C197.74 69.56, 192.14 72.8, 179.93 74 M198.43 55.5 C200.46 69.84, 190.98 73.08, 179.93 74 M179.93 74 C122.35 74.08, 64.22 75.52, 18.5 74 M179.93 74 C122.62 75.39, 65.16 75.21, 18.5 74 M18.5 74 C5.51 74.84, -1.81 67.89, 0 55.5 M18.5 74 C8.16 75.97, -1.1 69.76, 0 55.5 M0 55.5 C-0.36 40.97, -0.58 29.51, 0 18.5 M0 55.5 C0.72 43.53, -0.55 32.18, 0 18.5 M0 18.5 C-0.05 4.25, 5.95 -0.03, 18.5 0 M0 18.5 C-0.49 8.2, 4.94 1.43, 18.5 0" stroke="#1e1e1e" stroke-width="1" fill="none"></path></g><g transform="translate(147.15285164969305 630.820297350309) rotate(0 32.72997283935547 12.5)"><text x="32.72997283935547" y="17.52" font-family="Virgil, Segoe UI Emoji" font-size="20px" fill="#1e1e1e" text-anchor="middle" style="white-space: pre;" direction="ltr" dominant-baseline="alphabetic">64 MB</text></g><g stroke-linecap="round" transform="translate(290.88282448904874 606.320297350309) rotate(0 103.49999999999989 36.99999999999999)"><path d="M18.5 0 C66.17 -0.93, 115.28 2.52, 188.5 0 M18.5 0 C59.63 1.02, 98.22 0.33, 188.5 0 M188.5 0 C201.31 -0.63, 207.92 6.85, 207 18.5 M188.5 0 C201.03 -1.43, 205.33 6.15, 207 18.5 M207 18.5 C205.65 29.48, 207.32 37.7, 207 55.5 M207 18.5 C206.64 32.59, 206.92 44.36, 207 55.5 M207 55.5 C208.77 69.58, 199.72 73.2, 188.5 74 M207 55.5 C208.32 66.74, 201.88 74.11, 188.5 74 M188.5 74 C144.16 73.76, 99.32 74.77, 18.5 74 M188.5 74 C136.93 74.13, 85.11 73.74, 18.5 74 M18.5 74 C7.9 75.71, -0.96 69.51, 0 55.5 M18.5 74 C7.72 72.84, 0.52 67.21, 0 55.5 M0 55.5 C0.67 44.7, -0.69 37.66, 0 18.5 M0 55.5 C0.28 43, 0.19 32.4, 0 18.5 M0 18.5 C-0.43 7.94, 5.1 1.24, 18.5 0 M0 18.5 C2.06 5.22, 4.74 -1.15, 18.5 0" stroke="#1e1e1e" stroke-width="1" fill="none"></path></g><g transform="translate(361.6528516496933 630.820297350309) rotate(0 32.72997283935547 12.5)"><text x="32.72997283935547" y="17.52" font-family="Virgil, Segoe UI Emoji" font-size="20px" fill="#1e1e1e" text-anchor="middle" style="white-space: pre;" direction="ltr" dominant-baseline="alphabetic">64 MB</text></g><g stroke-linecap="round" transform="translate(511.3828244890485 608.320297350309) rotate(0 97.78571428571433 36.99999999999999)"><path d="M18.5 0 C49.45 -1.9, 82.22 0.76, 177.07 0 M18.5 0 C72.57 0.15, 126.62 0.81, 177.07 0 M177.07 0 C189.58 -1.25, 194.12 6.15, 195.57 18.5 M177.07 0 C188.26 1.64, 197.39 4.31, 195.57 18.5 M195.57 18.5 C196.73 32.66, 197.09 46.37, 195.57 55.5 M195.57 18.5 C196.43 33.66, 194.99 46.68, 195.57 55.5 M195.57 55.5 C196.72 66.88, 190.32 74.09, 177.07 74 M195.57 55.5 C194.82 67.41, 190.3 75.27, 177.07 74 M177.07 74 C136.69 74.02, 95.91 73.43, 18.5 74 M177.07 74 C123.71 74.9, 68.14 74.89, 18.5 74 M18.5 74 C7.52 72.99, 0.45 67.29, 0 55.5 M18.5 74 C5.09 73.12, 1.39 68.45, 0 55.5 M0 55.5 C0.39 45.41, 1.87 38.53, 0 18.5 M0 55.5 C-0.18 48.83, -0.49 41.01, 0 18.5 M0 18.5 C1.8 5.35, 4.92 -1, 18.5 0 M0 18.5 C1.69 4.32, 7.33 1.06, 18.5 0" stroke="#1e1e1e" stroke-width="1" fill="none"></path></g><g transform="translate(576.4385659354075 632.820297350309) rotate(0 32.72997283935547 12.5)"><text x="32.72997283935547" y="17.52" font-family="Virgil, Segoe UI Emoji" font-size="20px" fill="#1e1e1e" text-anchor="middle" style="white-space: pre;" direction="ltr" dominant-baseline="alphabetic">64 MB</text></g><g stroke-linecap="round" transform="translate(725.8828244890487 608.320297350309) rotate(0 101.35714285714289 36.99999999999999)"><path d="M18.5 0 C63.24 -2.78, 105.81 -1.15, 184.21 0 M18.5 0 C63.07 -1.19, 106.73 -0.57, 184.21 0 M184.21 0 C195.55 1.43, 204.29 4.55, 202.71 18.5 M184.21 0 C198.52 0.07, 203.49 7.49, 202.71 18.5 M202.71 18.5 C204.72 29.26, 201.8 42.04, 202.71 55.5 M202.71 18.5 C203.08 32.36, 202.96 47.22, 202.71 55.5 M202.71 55.5 C202.06 67.47, 197.33 75.11, 184.21 74 M202.71 55.5 C201.68 69.8, 196.67 74.03, 184.21 74 M184.21 74 C135.93 71.65, 86.02 75.19, 18.5 74 M184.21 74 C121.02 74.89, 56.69 75.12, 18.5 74 M18.5 74 C5.23 73.24, 1.21 68.37, 0 55.5 M18.5 74 C4.53 73.05, 1.04 68.11, 0 55.5 M0 55.5 C-2.23 47.19, -0.34 38.89, 0 18.5 M0 55.5 C1.1 40.72, -0.42 26.26, 0 18.5 M0 18.5 C1.47 4.56, 7.18 0.92, 18.5 0 M0 18.5 C-2 5.79, 4.18 0.99, 18.5 0" stroke="#1e1e1e" stroke-width="1" fill="none"></path></g><g transform="translate(794.5099945068364 632.820297350309) rotate(0 32.72997283935547 12.5)"><text x="32.72997283935547" y="17.52" font-family="Virgil, Segoe UI Emoji" font-size="20px" fill="#1e1e1e" text-anchor="middle" style="white-space: pre;" direction="ltr" dominant-baseline="alphabetic">64 MB</text></g><g stroke-linecap="round" transform="translate(80.88282448904852 690.320297350309) rotate(0 48.5 36.99999999999999)"><path d="M18.5 0 C32.41 0.77, 48.27 0.03, 78.5 0 M18.5 0 C32.26 0.72, 47.81 -0.8, 78.5 0 M78.5 0 C92.55 0.06, 97.68 7.32, 97 18.5 M78.5 0 C90.7 1.73, 96.21 8.15, 97 18.5 M97 18.5 C98.53 28.25, 95.97 41.38, 97 55.5 M97 18.5 C96.84 27.66, 97.56 37.73, 97 55.5 M97 55.5 C96.1 69.54, 90.94 74.03, 78.5 74 M97 55.5 C96.92 67.44, 90.08 74.97, 78.5 74 M78.5 74 C67.63 73.56, 55.03 75.87, 18.5 74 M78.5 74 C63.05 73.45, 49.14 74.1, 18.5 74 M18.5 74 C4.74 73.17, 0.9 68.07, 0 55.5 M18.5 74 C4.3 75.97, -0.06 65.63, 0 55.5 M0 55.5 C1.77 43.73, 1.25 35.89, 0 18.5 M0 55.5 C0.97 45.11, 0.74 36.79, 0 18.5 M0 18.5 C-1.74 5.84, 4.43 0.86, 18.5 0 M0 18.5 C0.73 5.56, 8.35 -1.31, 18.5 0" stroke="#1e1e1e" stroke-width="1" fill="none"></path></g><g transform="translate(96.65285164969305 714.820297350309) rotate(0 32.72997283935547 12.5)"><text x="32.72997283935547" y="17.52" font-family="Virgil, Segoe UI Emoji" font-size="20px" fill="#1e1e1e" text-anchor="middle" style="white-space: pre;" direction="ltr" dominant-baseline="alphabetic">64 MB</text></g><g stroke-linecap="round" transform="translate(185.38282448904852 690.320297350309) rotate(0 48.5 36.99999999999999)"><path d="M18.5 0 C38.01 -1.51, 59.99 -1.05, 78.5 0 M18.5 0 C41.64 0.51, 63.41 1.06, 78.5 0 M78.5 0 C90.72 1.5, 96.31 7.89, 97 18.5 M78.5 0 C90.69 -1.37, 99.04 8.18, 97 18.5 M97 18.5 C95.9 28.45, 96.95 35.92, 97 55.5 M97 18.5 C96.69 29.78, 97.2 39.36, 97 55.5 M97 55.5 C96.93 67.49, 90.18 74.84, 78.5 74 M97 55.5 C94.92 67.9, 92.83 75.97, 78.5 74 M78.5 74 C62.37 74.86, 47.7 73.47, 18.5 74 M78.5 74 C62.07 73.75, 47.53 74.28, 18.5 74 M18.5 74 C4.54 75.71, -0.05 65.92, 0 55.5 M18.5 74 C5.92 73.97, -0.49 69.87, 0 55.5 M0 55.5 C-1.05 45.13, -1.23 38.72, 0 18.5 M0 55.5 C-1.06 47.21, -1.05 39.67, 0 18.5 M0 18.5 C0.64 5.63, 8.06 -1.14, 18.5 0 M0 18.5 C2.16 4.34, 3.97 1.32, 18.5 0" stroke="#1e1e1e" stroke-width="1" fill="none"></path></g><g transform="translate(201.15285164969305 714.820297350309) rotate(0 32.72997283935547 12.5)"><text x="32.72997283935547" y="17.52" font-family="Virgil, Segoe UI Emoji" font-size="20px" fill="#1e1e1e" text-anchor="middle" style="white-space: pre;" direction="ltr" dominant-baseline="alphabetic">64 MB</text></g><g stroke-linecap="round" transform="translate(295.8828244890485 692.320297350309) rotate(0 48.5 36.99999999999999)"><path d="M18.5 0 C33.56 1.88, 44.16 2.02, 78.5 0 M18.5 0 C36.62 0.41, 54.51 0.52, 78.5 0 M78.5 0 C90.71 -1.2, 98.77 7.92, 97 18.5 M78.5 0 C89.55 -0.92, 98.32 5.07, 97 18.5 M97 18.5 C96.65 32.07, 98.12 43.18, 97 55.5 M97 18.5 C96.98 32.59, 96.69 47.45, 97 55.5 M97 55.5 C95.19 67.89, 92.57 75.71, 78.5 74 M97 55.5 C95.9 69.76, 92.39 72.84, 78.5 74 M78.5 74 C58.38 74.93, 40.32 72.29, 18.5 74 M78.5 74 C62.17 74.93, 47.45 73.11, 18.5 74 M18.5 74 C5.95 73.97, -0.43 69.6, 0 55.5 M18.5 74 C4.94 75.43, 2.06 66.89, 0 55.5 M0 55.5 C-1.42 47.71, 1.11 36.16, 0 18.5 M0 55.5 C0.64 44.74, 1.27 33.94, 0 18.5 M0 18.5 C1.88 4.58, 4.25 1.15, 18.5 0 M0 18.5 C0.1 7.71, 5.99 0.17, 18.5 0" stroke="#1e1e1e" stroke-width="1" fill="none"></path></g><g transform="translate(311.65285164969305 716.820297350309) rotate(0 32.72997283935547 12.5)"><text x="32.72997283935547" y="17.52" font-family="Virgil, Segoe UI Emoji" font-size="20px" fill="#1e1e1e" text-anchor="middle" style="white-space: pre;" direction="ltr" dominant-baseline="alphabetic">64 MB</text></g><g stroke-linecap="round" transform="translate(400.3828244890485 692.320297350309) rotate(0 48.5 36.99999999999999)"><path d="M18.5 0 C41.3 0.16, 65.12 -0.63, 78.5 0 M18.5 0 C40.95 -1.11, 64.4 0.36, 78.5 0 M78.5 0 C89.72 -0.8, 98.15 5.21, 97 18.5 M78.5 0 C91.88 0.11, 96.25 5.75, 97 18.5 M97 18.5 C98.91 31.15, 97.23 43.51, 97 55.5 M97 18.5 C95.97 29, 97.75 40.3, 97 55.5 M97 55.5 C96.04 69.51, 92.18 72.99, 78.5 74 M97 55.5 C97.52 67.21, 89.76 73.12, 78.5 74 M78.5 74 C56.05 74.48, 35.49 71.95, 18.5 74 M78.5 74 C55.25 73.41, 32 74.31, 18.5 74 M18.5 74 C5.1 75.24, 1.8 67.01, 0 55.5 M18.5 74 C4.74 72.85, 1.69 65.99, 0 55.5 M0 55.5 C-0.5 40.79, 0.69 30.18, 0 18.5 M0 55.5 C0.59 44.59, -1.31 35.84, 0 18.5 M0 18.5 C0.08 7.51, 6.01 0.15, 18.5 0 M0 18.5 C-2.11 7.61, 5 -1.76, 18.5 0" stroke="#1e1e1e" stroke-width="1" fill="none"></path></g><g transform="translate(416.15285164969305 716.820297350309) rotate(0 32.72997283935547 12.5)"><text x="32.72997283935547" y="17.52" font-family="Virgil, Segoe UI Emoji" font-size="20px" fill="#1e1e1e" text-anchor="middle" style="white-space: pre;" direction="ltr" dominant-baseline="alphabetic">64 MB</text></g><g stroke-linecap="round" transform="translate(513.8828244890485 694.320297350309) rotate(0 48.500000000000114 36.99999999999999)"><path d="M18.5 0 C40.04 -0.65, 60.29 -0.09, 78.5 0 M18.5 0 C32.36 -0.93, 47.9 -1, 78.5 0 M78.5 0 C91.75 0.09, 96.35 5.8, 97 18.5 M78.5 0 C91.73 1.27, 95.96 8.13, 97 18.5 M97 18.5 C96.67 29.15, 97.84 39.3, 97 55.5 M97 18.5 C96.84 30.55, 98 40.42, 97 55.5 M97 55.5 C97.45 67.29, 89.9 73.24, 78.5 74 M97 55.5 C98.39 68.45, 89.19 73.05, 78.5 74 M78.5 74 C59.5 73.46, 35.16 73.3, 18.5 74 M78.5 74 C60.04 75.15, 43.55 74.12, 18.5 74 M18.5 74 C4.92 73, 1.47 66.23, 0 55.5 M18.5 74 C7.33 75.06, -2 67.46, 0 55.5 M0 55.5 C-0.69 49.5, -1.3 41.58, 0 18.5 M0 55.5 C0.4 48, 0.28 39.24, 0 18.5 M0 18.5 C-1.84 7.42, 5.16 -1.53, 18.5 0 M0 18.5 C-0.19 5.43, 4.03 1.03, 18.5 0" stroke="#1e1e1e" stroke-width="1" fill="none"></path></g><g transform="translate(529.6528516496933 718.820297350309) rotate(0 32.72997283935547 12.5)"><text x="32.72997283935547" y="17.52" font-family="Virgil, Segoe UI Emoji" font-size="20px" fill="#1e1e1e" text-anchor="middle" style="white-space: pre;" direction="ltr" dominant-baseline="alphabetic">64 MB</text></g><g stroke-linecap="round" transform="translate(618.3828244890487 694.320297350309) rotate(0 48.5 36.99999999999999)"><path d="M18.5 0 C33.25 1.81, 52.13 -1.08, 78.5 0 M18.5 0 C34.54 0.33, 49.35 0.1, 78.5 0 M78.5 0 C91.61 1.11, 96.1 7.88, 97 18.5 M78.5 0 C90.96 0.03, 96.92 5.78, 97 18.5 M97 18.5 C97.22 30.12, 98.86 37.31, 97 55.5 M97 18.5 C97.48 32.43, 96.78 46.52, 97 55.5 M97 55.5 C98.21 68.37, 89.41 73.17, 78.5 74 M97 55.5 C98.04 68.11, 88.96 75.97, 78.5 74 M78.5 74 C60.62 73.51, 44.56 72.87, 18.5 74 M78.5 74 C56.15 73.26, 35.78 72.95, 18.5 74 M18.5 74 C7.18 74.92, -1.74 67.51, 0 55.5 M18.5 74 C4.18 74.99, 0.73 67.22, 0 55.5 M0 55.5 C-1.37 38.98, 1.36 26.37, 0 18.5 M0 55.5 C-0.89 42.55, -0.48 27.58, 0 18.5 M0 18.5 C-0.16 5.53, 4.31 0.9, 18.5 0 M0 18.5 C1.89 7.37, 4.73 -1.82, 18.5 0" stroke="#1e1e1e" stroke-width="1" fill="none"></path></g><g transform="translate(634.1528516496933 718.820297350309) rotate(0 32.72997283935547 12.5)"><text x="32.72997283935547" y="17.52" font-family="Virgil, Segoe UI Emoji" font-size="20px" fill="#1e1e1e" text-anchor="middle" style="white-space: pre;" direction="ltr" dominant-baseline="alphabetic">64 MB</text></g><g stroke-linecap="round" transform="translate(728.8828244890487 696.320297350309) rotate(0 48.5 36.99999999999999)"><path d="M18.5 0 C41.01 1.48, 64.17 1.25, 78.5 0 M18.5 0 C37.17 0.66, 54.61 0.96, 78.5 0 M78.5 0 C90.94 0.03, 96.93 5.83, 97 18.5 M78.5 0 C90.08 0.97, 94.92 6.24, 97 18.5 M97 18.5 C98.99 34.16, 96.31 47.58, 97 55.5 M97 18.5 C97.43 28.86, 96.11 38.27, 97 55.5 M97 55.5 C97.9 68.07, 89.21 75.71, 78.5 74 M97 55.5 C96.94 65.63, 90.59 73.97, 78.5 74 M78.5 74 C63.03 75.47, 44.26 72.44, 18.5 74 M78.5 74 C64 73.98, 47.61 73.36, 18.5 74 M18.5 74 C4.43 74.86, 0.64 67.3, 0 55.5 M18.5 74 C8.35 72.69, 2.16 66.01, 0 55.5 M0 55.5 C1.13 47.79, -0.06 38.54, 0 18.5 M0 55.5 C0.11 41.76, -0.74 29.1, 0 18.5 M0 18.5 C1.64 7.22, 4.91 -1.58, 18.5 0 M0 18.5 C1.06 6.04, 7.38 0.24, 18.5 0" stroke="#1e1e1e" stroke-width="1" fill="none"></path></g><g transform="translate(744.6528516496933 720.820297350309) rotate(0 32.72997283935547 12.5)"><text x="32.72997283935547" y="17.52" font-family="Virgil, Segoe UI Emoji" font-size="20px" fill="#1e1e1e" text-anchor="middle" style="white-space: pre;" direction="ltr" dominant-baseline="alphabetic">64 MB</text></g><g stroke-linecap="round" transform="translate(833.3828244890487 696.320297350309) rotate(0 48.5 36.99999999999999)"><path d="M18.5 0 C40.03 -0.93, 61.01 0.51, 78.5 0 M18.5 0 C39.88 -0.5, 61.11 -0.68, 78.5 0 M78.5 0 C90.18 0.84, 95.19 6.23, 97 18.5 M78.5 0 C92.83 1.97, 95.9 8.09, 97 18.5 M97 18.5 C96.27 31.16, 96.05 46.91, 97 55.5 M97 18.5 C97.19 30.71, 95.92 43.53, 97 55.5 M97 55.5 C96.95 65.92, 90.62 73.97, 78.5 74 M97 55.5 C96.51 69.87, 89.61 75.43, 78.5 74 M78.5 74 C54.12 75.1, 30.12 74.64, 18.5 74 M78.5 74 C56.86 74.33, 37.27 73.64, 18.5 74 M18.5 74 C8.06 72.86, 1.88 66.25, 0 55.5 M18.5 74 C3.97 75.32, 0.1 69.37, 0 55.5 M0 55.5 C1.23 43.67, -1.56 33.7, 0 18.5 M0 55.5 C1.16 46.1, -0.28 34.87, 0 18.5 M0 18.5 C0.92 6.05, 7.22 0.21, 18.5 0 M0 18.5 C-0.18 8.06, 6.32 1.85, 18.5 0" stroke="#1e1e1e" stroke-width="1" fill="none"></path></g><g transform="translate(849.1528516496933 720.820297350309) rotate(0 32.72997283935547 12.5)"><text x="32.72997283935547" y="17.52" font-family="Virgil, Segoe UI Emoji" font-size="20px" fill="#1e1e1e" text-anchor="middle" style="white-space: pre;" direction="ltr" dominant-baseline="alphabetic">64 MB</text></g><g stroke-linecap="round" transform="translate(163.4899673461914 341.60601163602325) rotate(0 114.42857142857144 37)"><path d="M18.5 0 C70.9 -1.65, 122.79 -0.64, 210.36 0 M18.5 0 C76 0.75, 133.26 0.36, 210.36 0 M210.36 0 C224.43 1.71, 227.9 7.84, 228.86 18.5 M210.36 0 C224.24 -1.16, 229.38 5.54, 228.86 18.5 M228.86 18.5 C229.25 26.45, 227.89 38.15, 228.86 55.5 M228.86 18.5 C228.53 29.09, 228.45 41.57, 228.86 55.5 M228.86 55.5 C228.43 69.6, 221.62 75.24, 210.36 74 M228.86 55.5 C230.92 66.89, 221.26 72.85, 210.36 74 M210.36 74 C139.6 73.24, 66.66 73.24, 18.5 74 M210.36 74 C145.48 72.92, 79.65 72.7, 18.5 74 M18.5 74 C4.25 75.15, 0.08 69.17, 0 55.5 M18.5 74 C5.99 74.17, -2.11 69.28, 0 55.5 M0 55.5 C-0.35 44.41, 1.18 38.68, 0 18.5 M0 55.5 C0.69 42.4, 0.76 29.52, 0 18.5 M0 18.5 C-0.16 7.81, 6.3 1.61, 18.5 0 M0 18.5 C1.57 6.47, 8.31 0.2, 18.5 0" stroke="#1e1e1e" stroke-width="1" fill="none"></path></g><g stroke-linecap="round" transform="translate(375.41853877476274 353.1774402074518) rotate(0 41.428571428571445 37)"><path d="M18.5 0 C35.75 0.32, 49.62 0.14, 64.36 0 M18.5 0 C30.57 -0.16, 45.32 0.66, 64.36 0 M64.36 0 C75.73 1.68, 84.21 5.16, 82.86 18.5 M64.36 0 C77.21 -0.63, 81.78 5.29, 82.86 18.5 M82.86 18.5 C82.13 32.74, 83.2 43.54, 82.86 55.5 M82.86 18.5 C82.74 32.76, 82.63 47.93, 82.86 55.5 M82.86 55.5 C81.79 69.08, 78.49 73.18, 64.36 74 M82.86 55.5 C81.43 66.69, 78.38 72.15, 64.36 74 M64.36 74 C47.95 71.87, 33.05 74.24, 18.5 74 M64.36 74 C52.76 72.95, 38.33 74.31, 18.5 74 M18.5 74 C6.25 75.34, -0.15 67.98, 0 55.5 M18.5 74 C4.05 75.44, -1.16 66.07, 0 55.5 M0 55.5 C1.02 46.34, 1.17 32.65, 0 18.5 M0 55.5 C0.36 47.42, -0.25 39.96, 0 18.5 M0 18.5 C0.14 7.77, 7.53 0.27, 18.5 0 M0 18.5 C2.14 6.37, 7.64 2.18, 18.5 0" stroke="#1e1e1e" stroke-width="1" fill="none"></path></g><g stroke-linecap="round" transform="translate(644.8471102033341 340.3202973503089) rotate(0 66.57142857142844 37)"><path d="M18.5 0 C43.03 -0.12, 67.16 -0.71, 114.64 0 M18.5 0 C52.25 0.82, 83.78 0.81, 114.64 0 M114.64 0 C128.33 -1.01, 133.6 5.62, 133.14 18.5 M114.64 0 C125.9 -0.88, 134.53 6.78, 133.14 18.5 M133.14 18.5 C133.23 25.33, 134.7 35.37, 133.14 55.5 M133.14 18.5 C132.89 26.94, 132.57 34.24, 133.14 55.5 M133.14 55.5 C134.94 67.01, 125.73 73, 114.64 74 M133.14 55.5 C134.84 65.99, 128.14 75.06, 114.64 74 M114.64 74 C95.01 73.8, 73.13 75.06, 18.5 74 M114.64 74 C90.32 73.81, 67.96 73.91, 18.5 74 M18.5 74 C6.01 74.15, -1.84 69.09, 0 55.5 M18.5 74 C5 72.24, -0.19 67.1, 0 55.5 M0 55.5 C0.88 46.58, -1.74 41.09, 0 18.5 M0 55.5 C-0.28 45.43, -0.13 34.52, 0 18.5 M0 18.5 C1.36 6.43, 8.03 0.17, 18.5 0 M0 18.5 C1.47 8.34, 4.93 -0.42, 18.5 0" stroke="#1e1e1e" stroke-width="1" fill="none"></path></g><g stroke-linecap="round" transform="translate(490.2756816319056 360.1774402074518) rotate(0 29.5 37)"><path d="M14.75 0 C23.42 -0.65, 33.61 -1.8, 44.25 0 M14.75 0 C23.21 0.59, 33.31 -0.76, 44.25 0 M44.25 0 C54.54 -0.55, 58.07 4.15, 59 14.75 M44.25 0 C55.47 0.61, 57.36 3.96, 59 14.75 M59 14.75 C60.77 30.06, 57.14 45.26, 59 59.25 M59 14.75 C58.37 28.66, 59.8 40.93, 59 59.25 M59 59.25 C57.76 68.09, 55.56 72.4, 44.25 74 M59 59.25 C60.17 70.15, 52.09 73.63, 44.25 74 M44.25 74 C37.42 75.99, 30.52 75.97, 14.75 74 M44.25 74 C37.78 74.84, 31.15 74.24, 14.75 74 M14.75 74 C3.08 75.26, -1.01 67.55, 0 59.25 M14.75 74 C4.73 73.27, -2.14 70.12, 0 59.25 M0 59.25 C-1.81 43.17, -0.35 26.3, 0 14.75 M0 59.25 C0.1 46.25, 0.72 31.77, 0 14.75 M0 14.75 C1.86 5.09, 6.19 1.89, 14.75 0 M0 14.75 C-1.23 4.49, 5.12 0.98, 14.75 0" stroke="#1e1e1e" stroke-width="1" fill="none"></path></g><g stroke-linecap="round" transform="translate(529.7756816319056 376.1774402074518) rotate(0 73.5 37)"><path d="M18.5 0 C51.95 -1.45, 83.78 2.1, 128.5 0 M18.5 0 C61.57 -1.43, 103.52 -1.19, 128.5 0 M128.5 0 C139.9 -0.76, 148.21 6.7, 147 18.5 M128.5 0 C139.19 -0.95, 148.04 6.44, 147 18.5 M147 18.5 C145.4 26.38, 147.29 34.25, 147 55.5 M147 18.5 C147.7 32.46, 146.18 46.75, 147 55.5 M147 55.5 C148.47 66.23, 141.85 74.92, 128.5 74 M147 55.5 C145 67.46, 138.84 74.99, 128.5 74 M128.5 74 C90.86 76.92, 53.92 73.13, 18.5 74 M128.5 74 C89.1 74.81, 48.93 75.37, 18.5 74 M18.5 74 C5.16 72.47, -0.16 67.2, 0 55.5 M18.5 74 C4.03 75.03, 1.89 69.04, 0 55.5 M0 55.5 C0.18 47.77, 0.5 37.77, 0 18.5 M0 55.5 C0.66 41.49, 0.91 27.3, 0 18.5 M0 18.5 C1.28 8.06, 5.09 -0.37, 18.5 0 M0 18.5 C0.21 7.14, 4.82 2.19, 18.5 0" stroke="#1e1e1e" stroke-width="1" fill="none"></path></g><g transform="translate(22.119972229003906 372.60601163602337) rotate(0 12.8699951171875 12.5)"><text x="12.8699951171875" y="17.52" font-family="Virgil, Segoe UI Emoji" font-size="20px" fill="#1e1e1e" text-anchor="middle" style="white-space: pre;" direction="ltr" dominant-baseline="alphabetic">L0</text></g><g transform="translate(28.14711325509211 537.2488687788806) rotate(0 8.699996948242188 12.5)"><text x="8.699996948242188" y="17.52" font-family="Virgil, Segoe UI Emoji" font-size="20px" fill="#1e1e1e" text-anchor="middle" style="white-space: pre;" direction="ltr" dominant-baseline="alphabetic">L1</text></g><g transform="translate(23.737117222377265 626.2488687788806) rotate(0 13.109992980957031 12.5)"><text x="13.109992980957031" y="17.52" font-family="Virgil, Segoe UI Emoji" font-size="20px" fill="#1e1e1e" text-anchor="middle" style="white-space: pre;" direction="ltr" dominant-baseline="alphabetic">L2</text></g><g transform="translate(23.047122410365546 717.2488687788806) rotate(0 12.79998779296875 12.5)"><text x="12.79998779296875" y="17.52" font-family="Virgil, Segoe UI Emoji" font-size="20px" fill="#1e1e1e" text-anchor="middle" style="white-space: pre;" direction="ltr" dominant-baseline="alphabetic">L3</text></g><g stroke-linecap="round"><g transform="translate(55.124228460448876 309.7488687788805) rotate(0 434.40859189203786 0)"><path d="M0.27 -0.33 C144.85 -0.3, 723.38 -0.57, 868.26 -0.46" stroke="#1e1e1e" stroke-width="1.5" fill="none" stroke-dasharray="1.5 7"></path></g></g><mask></mask><g transform="translate(10 223.60601163602337) rotate(0 33.989967346191406 12.5)"><text x="33.989967346191406" y="17.52" font-family="Virgil, Segoe UI Emoji" font-size="20px" fill="#1e1e1e" text-anchor="middle" style="white-space: pre;" direction="ltr" dominant-baseline="alphabetic">Memory</text></g><g stroke-linecap="round" transform="translate(421.2756816319056 86.17744020745181) rotate(0 53.5 30)"><path d="M15 0 C35.04 -1.89, 53.18 0.44, 92 0 M15 0 C39 -1.62, 62.94 -0.67, 92 0 M92 0 C101.57 1.77, 105.93 6.24, 107 15 M92 0 C104.06 -0.94, 105.57 3.85, 107 15 M107 15 C107.68 24.47, 106.43 35.69, 107 45 M107 15 C108.04 24.72, 108.03 34.79, 107 45 M107 45 C105.09 56.15, 102.08 61.34, 92 60 M107 45 C106.82 55.17, 99.89 61.44, 92 60 M92 60 C72.15 58.08, 54.48 61.58, 15 60 M92 60 C65.32 59.34, 38.25 59.5, 15 60 M15 60 C4.84 61.64, 0.14 56.61, 0 45 M15 60 C6.57 60.31, 2.14 55.2, 0 45 M0 45 C-0.65 34.26, 0.57 22, 0 15 M0 45 C0.03 32.69, 0.78 21.79, 0 15 M0 15 C-0.76 6.49, 5.97 -0.24, 15 0 M0 15 C0.93 6.83, 2.75 -1.1, 15 0" stroke="#1e1e1e" stroke-width="1" fill="none"></path></g><g transform="translate(442.33571733747203 91.17744020745181) rotate(0 32.439964294433594 25)"><text x="32.439964294433594" y="17.52" font-family="Virgil, Segoe UI Emoji" font-size="20px" fill="#1e1e1e" text-anchor="middle" style="white-space: pre;" direction="ltr" dominant-baseline="alphabetic">Write </text><text x="32.439964294433594" y="42.519999999999996" font-family="Virgil, Segoe UI Emoji" font-size="20px" fill="#1e1e1e" text-anchor="middle" style="white-space: pre;" direction="ltr" dominant-baseline="alphabetic">Buffer</text></g><g stroke-linecap="round"><g transform="translate(432.9571120151095 153.8441068741185) rotate(0 -12.86703155209841 98.73809523809521)"><path d="M-0.26 1.06 C-4.63 34.1, -22.31 165.57, -26.37 198.22 M1.81 0.57 C-2.16 33.27, -19.55 163.58, -24 196.49" stroke="#1e1e1e" stroke-width="1" fill="none"></path></g><g transform="translate(432.9571120151095 153.8441068741185) rotate(0 -12.86703155209841 98.73809523809521)"><path d="M-25.07 196.12 L-28.3 183.03 L-17.08 185.76 L-24.52 196.14" stroke="none" stroke-width="0" fill="#1e1e1e" fill-rule="evenodd"></path><path d="M-24 196.49 C-23.97 191.54, -25.66 189.55, -28.48 182.18 M-24 196.49 C-24.52 192.16, -25.85 189.4, -28.48 182.18 M-28.48 182.18 C-25.26 183.05, -23.46 184.2, -15.91 183.86 M-28.48 182.18 C-26.01 183.05, -22.33 183.52, -15.91 183.86 M-15.91 183.86 C-17.32 186.72, -21.78 191.05, -24 196.49 M-15.91 183.86 C-17.58 187.68, -20.84 190.08, -24 196.49 M-24 196.49 C-24 196.49, -24 196.49, -24 196.49 M-24 196.49 C-24 196.49, -24 196.49, -24 196.49" stroke="#1e1e1e" stroke-width="1" fill="none"></path></g></g><mask></mask><g stroke-linecap="round"><g transform="translate(498.1498575345536 154.22715942136358) rotate(0 58.12764434320502 107.97514039304411)"><path d="M-0.64 0.75 C18.96 36.48, 97.97 179.69, 117.33 215.46 M1.22 0.09 C20.78 36.5, 97.48 180.69, 116.95 216.74" stroke="#1e1e1e" stroke-width="1" fill="none"></path></g><g transform="translate(498.1498575345536 154.22715942136358) rotate(0 58.12764434320502 107.97514039304411)"><path d="M117.13 217.59 L103.78 209.65 L115.6 201.41 L116.84 215.83" stroke="none" stroke-width="0" fill="#1e1e1e" fill-rule="evenodd"></path><path d="M116.95 216.74 C114.46 215.52, 109.57 210.73, 104.94 207.75 M116.95 216.74 C114.26 214.74, 110.22 212.02, 104.94 207.75 M104.94 207.75 C106.97 207.64, 108.97 206.35, 116.12 201.76 M104.94 207.75 C107.49 206.79, 109.89 205.09, 116.12 201.76 M116.12 201.76 C115.24 204.76, 116.08 206.61, 116.95 216.74 M116.12 201.76 C116.06 206.33, 117.16 212.05, 116.95 216.74 M116.95 216.74 C116.95 216.74, 116.95 216.74, 116.95 216.74 M116.95 216.74 C116.95 216.74, 116.95 216.74, 116.95 216.74" stroke="#1e1e1e" stroke-width="1" fill="none"></path></g></g><mask></mask><g transform="translate(341.998563494001 245.74886877888036) rotate(0 24.41997528076172 12.5)"><text x="24.41997528076172" y="17.52" font-family="Virgil, Segoe UI Emoji" font-size="20px" fill="#1e1e1e" text-anchor="middle" style="white-space: pre;" direction="ltr" dominant-baseline="alphabetic">Flush</text></g><g stroke-linecap="round"><g transform="translate(983.5613959176194 399.46315449316614) rotate(0 13.64285714285711 178.14285714285717)"><path d="M-1.04 -0.2 C3.23 28.11, 25.3 111.01, 26.25 170.37 C27.2 229.73, 8.14 325.1, 4.67 355.97 M0.61 -1.34 C5.19 26.55, 27.83 108.78, 28.41 168.52 C28.99 228.27, 8.4 325.81, 4.1 357.12" stroke="#1e1e1e" stroke-width="1" fill="none"></path></g><g transform="translate(983.5613959176194 399.46315449316614) rotate(0 13.64285714285711 178.14285714285717)"><path d="M3.34 358.61 L1.07 342.42 L13.42 346.35 L2.14 356.16" stroke="none" stroke-width="0" fill="#1e1e1e" fill-rule="evenodd"></path><path d="M4.1 357.12 C2.39 350.71, 1.87 347.42, 0.1 342.66 M4.1 357.12 C3.57 352.55, 1.06 349.62, 0.1 342.66 M0.1 342.66 C4.01 342.14, 8.52 343.31, 12.6 344.76 M0.1 342.66 C2.3 343.45, 6.21 343.97, 12.6 344.76 M12.6 344.76 C10.4 348.52, 8.62 350.55, 4.1 357.12 M12.6 344.76 C9.87 349.65, 6.81 354.34, 4.1 357.12 M4.1 357.12 C4.1 357.12, 4.1 357.12, 4.1 357.12 M4.1 357.12 C4.1 357.12, 4.1 357.12, 4.1 357.12" stroke="#1e1e1e" stroke-width="1" fill="none"></path></g></g><mask></mask><g stroke-linecap="round"><g transform="translate(432.750936054048 10.927440207451582) rotate(0 0 395.2976190476192)"><path d="M1.02 -0.93 C1.39 131, 1.15 658.66, 1.13 790.45 M0.09 1.2 C0.5 133.42, 0.69 660.32, 0.78 791.92" stroke="#1971c2" stroke-width="1" fill="none"></path></g><g transform="translate(432.750936054048 10.927440207451582) rotate(0 0 395.2976190476192)"><path d="M-0.55 792.96 L-7.05 779.34 L7.32 780.1 L1.92 790.09" stroke="none" stroke-width="0" fill="#1971c2" fill-rule="evenodd"></path><path d="M0.78 791.92 C-1.59 790.53, -1.94 787.38, -5.57 778.33 M0.78 791.92 C-1.45 789.12, -2.26 785.88, -5.57 778.33 M-5.57 778.33 C-0.85 777.61, 1.59 778.76, 7.11 778.32 M-5.57 778.33 C-1.88 777.9, 1 778.23, 7.11 778.32 M7.11 778.32 C5.19 783.95, 1.73 787.81, 0.78 791.92 M7.11 778.32 C4.78 783.96, 2.07 788.96, 0.78 791.92 M0.78 791.92 C0.78 791.92, 0.78 791.92, 0.78 791.92 M0.78 791.92 C0.78 791.92, 0.78 791.92, 0.78 791.92" stroke="#1971c2" stroke-width="1" fill="none"></path></g></g><mask></mask><g transform="translate(457.389567602248 15.332202112214077) rotate(0 51.789939880371094 12.5)"><text x="51.789939880371094" y="17.52" font-family="Virgil, Segoe UI Emoji" font-size="20px" fill="#1971c2" text-anchor="middle" style="white-space: pre;" direction="ltr" dominant-baseline="alphabetic">Point read</text></g><g stroke-linecap="round"><g transform="translate(89.65569795880947 873.6655354455472) rotate(0 426.42857142857133 0)"><path d="M0.19 0.54 C142.56 0.46, 711.47 0.48, 853.57 0.34 M-1.17 -0.22 C141.16 -0.75, 710.8 -1.79, 852.99 -1.61" stroke="#1e1e1e" stroke-width="1" fill="none"></path></g><g transform="translate(89.65569795880947 873.6655354455472) rotate(0 426.42857142857133 0)"><path d="M0.12 -0.14 L14.94 -4.69 L15.25 6.46 L0.48 0.61" stroke="none" stroke-width="0" fill="#1e1e1e" fill-rule="evenodd"></path><path d="M0.19 0.54 C4.16 -0.14, 7.23 -2.68, 13.78 -5.8 M0.19 0.54 C4.6 -1.64, 8.45 -3.13, 13.78 -5.8 M13.78 -5.8 C12.89 -1.42, 13 4.95, 13.78 6.88 M13.78 -5.8 C13.96 -1.39, 13.26 4.52, 13.78 6.88 M13.78 6.88 C9.9 6.2, 7.13 2.68, 0.19 0.54 M13.78 6.88 C10.52 5.73, 6.36 3.15, 0.19 0.54 M0.19 0.54 C0.19 0.54, 0.19 0.54, 0.19 0.54 M0.19 0.54 C0.19 0.54, 0.19 0.54, 0.19 0.54" stroke="#1e1e1e" stroke-width="1" fill="none"></path></g><g transform="translate(89.65569795880947 873.6655354455472) rotate(0 426.42857142857133 0)"><path d="M852.92 -2.29 L840.56 5.85 L840.86 -8.35 L853.28 -1.54" stroke="none" stroke-width="0" fill="#1e1e1e" fill-rule="evenodd"></path><path d="M852.99 -1.61 C850.39 0.86, 846.8 1.43, 839.4 4.74 M852.99 -1.61 C849.83 -0.24, 846.16 1.78, 839.4 4.74 M839.4 4.74 C838.38 -0.39, 838.49 -3.52, 839.4 -7.94 M839.4 4.74 C839.62 -0.55, 838.92 -4.33, 839.4 -7.94 M839.4 -7.94 C842.25 -5.54, 846.22 -5.91, 852.99 -1.61 M839.4 -7.94 C843.83 -5.52, 847.29 -4.55, 852.99 -1.61 M852.99 -1.61 C852.99 -1.61, 852.99 -1.61, 852.99 -1.61 M852.99 -1.61 C852.99 -1.61, 852.99 -1.61, 852.99 -1.61" stroke="#1e1e1e" stroke-width="1" fill="none"></path></g></g><mask></mask><g transform="translate(479.38860484531915 897.9512497312614) rotate(0 47.409950256347656 12.5)"><text x="47.409950256347656" y="17.52" font-family="Virgil, Segoe UI Emoji" font-size="20px" fill="#1e1e1e" text-anchor="middle" style="white-space: pre;" direction="ltr" dominant-baseline="alphabetic">Key range</text></g><g stroke-linecap="round" transform="translate(721.8104598635709 367.34410687411776) rotate(0 84.42857142857133 37)"><path d="M18.5 0 C64.35 2.87, 106.82 1.24, 150.36 0 M18.5 0 C52.11 0.2, 85.68 0.7, 150.36 0 M150.36 0 C164.01 -1.81, 169.54 7.36, 168.86 18.5 M150.36 0 C161.74 1.7, 171.03 6.4, 168.86 18.5 M168.86 18.5 C169.85 28.52, 170.25 36.57, 168.86 55.5 M168.86 18.5 C168.9 27.2, 169.25 37.19, 168.86 55.5 M168.86 55.5 C170.79 67.91, 162.83 74.72, 150.36 74 M168.86 55.5 C170.15 68.72, 162.39 74.29, 150.36 74 M150.36 74 C105.42 74.78, 64.02 76.01, 18.5 74 M150.36 74 C117.72 72.87, 86.12 72.62, 18.5 74 M18.5 74 C7.54 73.01, 1.96 66.98, 0 55.5 M18.5 74 C5.38 74.03, -0.61 65.62, 0 55.5 M0 55.5 C-0.36 45.34, 0.96 32.73, 0 18.5 M0 55.5 C-0.91 42.38, 0.26 29.48, 0 18.5 M0 18.5 C-0.08 7.4, 7.29 1.85, 18.5 0 M0 18.5 C1.42 4.94, 7.18 1.03, 18.5 0" stroke="#1e1e1e" stroke-width="1" fill="none"></path></g></svg>