<svg version="1.1" xmlns="http://www.w3.org/2000/svg" viewBox="0 0 1038.2255729442556 1054.3071442576122" width="1038.2255729442556" height="1054.3071442576122">
  <!-- svg-source:excalidraw -->
  
  <defs>
    <style class="style-fonts">
      @font-face {
        font-family: "Virgil";
        src: url("https://excalidraw.com/Virgil.woff2");
      }
      @font-face {
        font-family: "Cascadia";
        src: url("https://excalidraw.com/Cascadia.woff2");
      }
      @font-face {
        font-family: "Assistant";
        src: url("https://excalidraw.com/Assistant-Regular.woff2");
      }
    </style>
    
  </defs>
  <rect x="0" y="0" width="1038.2255729442556" height="1054.3071442576122" fill="#ffffff"></rect><g stroke-linecap="round" transform="translate(329.20425306047696 312.1066928387752) rotate(0 57.285714285714334 37)"><path d="M18.5 0 C36.64 1.51, 51.37 -0.65, 96.07 0 M18.5 0 C45.37 -1.12, 71.03 0.14, 96.07 0 M96.07 0 C107.65 0.96, 113.04 6.14, 114.57 18.5 M96.07 0 C109.02 -0.3, 114.48 5.66, 114.57 18.5 M114.57 18.5 C115.74 30.75, 115.36 42.83, 114.57 55.5 M114.57 18.5 C114.6 28.64, 114.06 39.65, 114.57 55.5 M114.57 55.5 C112.75 69.73, 108.03 72.25, 96.07 74 M114.57 55.5 C114.74 66.45, 110.57 75.85, 96.07 74 M96.07 74 C76.15 74.52, 58.63 71.68, 18.5 74 M96.07 74 C79.56 74.23, 62.09 73.62, 18.5 74 M18.5 74 C4.98 74.55, -1.85 66.89, 0 55.5 M18.5 74 C4.06 74.72, 0.08 68.66, 0 55.5 M0 55.5 C1.37 44.88, -1.08 36.99, 0 18.5 M0 55.5 C0.46 43.18, 0.09 32.67, 0 18.5 M0 18.5 C-1.1 5.25, 6.9 -1.46, 18.5 0 M0 18.5 C-0.71 6.43, 4.42 -0.45, 18.5 0" stroke="#1e1e1e" stroke-width="1" fill="none"></path></g><g stroke-linecap="round" transform="translate(375.41853877476274 325.1066928387752) rotate(0 41.428571428571445 37)"><path d="M18.5 0 C29.49 -1.32, 41.76 -0.79, 64.36 0 M18.5 0 C35.68 0.99, 52.89 0.71, 64.36 0 M64.36 0 C75.16 -0.03, 83.39 5.9, 82.86 18.5 M64.36 0 C76.6 -0.51, 83.56 6.76, 82.86 18.5 M82.86 18.5 C83.75 26.81, 82.54 35.47, 82.86 55.5 M82.86 18.5 C82.34 33.83, 81.95 48.42, 82.86 55.5 M82.86 55.5 C82.49 66.08, 76.84 72.79, 64.36 74 M82.86 55.5 C85.02 69.68, 75.14 72.16, 64.36 74 M64.36 74 C53.08 72.6, 42.84 72.32, 18.5 74 M64.36 74 C50.76 73.96, 38.17 74.46, 18.5 74 M18.5 74 C4.32 73.06, -1.83 68.46, 0 55.5 M18.5 74 C6.25 74.83, -1.31 68.16, 0 55.5 M0 55.5 C-1.29 40.7, -0.07 25.92, 0 18.5 M0 55.5 C-0.2 43.88, -0.65 31.61, 0 18.5 M0 18.5 C0.73 4.71, 5.55 0.23, 18.5 0 M0 18.5 C-1.74 5.71, 8.01 1.72, 18.5 0" stroke="#1e1e1e" stroke-width="1" fill="none"></path></g><g stroke-linecap="round" transform="translate(644.8471102033338 312.2495499816321) rotate(0 66.57142857142844 37)"><path d="M18.5 0 C53.35 -0.03, 88.18 1.52, 114.64 0 M18.5 0 C42.08 -0.25, 65.64 -0.74, 114.64 0 M114.64 0 C127.51 -0.26, 133.06 5.73, 133.14 18.5 M114.64 0 C127.68 0.6, 131.5 7.4, 133.14 18.5 M133.14 18.5 C132.76 29.69, 135.1 40.78, 133.14 55.5 M133.14 18.5 C132.04 30.51, 132.76 39.74, 133.14 55.5 M133.14 55.5 C133.29 66.63, 128.86 75.61, 114.64 74 M133.14 55.5 C131.59 65.99, 125.04 71.83, 114.64 74 M114.64 74 C78.42 71.25, 45.22 73.35, 18.5 74 M114.64 74 C81.39 74.07, 48.4 73.32, 18.5 74 M18.5 74 C4.33 74.63, 0.07 68.56, 0 55.5 M18.5 74 C4.86 74.33, 1.98 69.47, 0 55.5 M0 55.5 C0.39 46.4, 0.52 39.85, 0 18.5 M0 55.5 C-0.51 47.13, 0.4 38.94, 0 18.5 M0 18.5 C-0.62 6.4, 4.65 -0.4, 18.5 0 M0 18.5 C1.85 7.89, 4.56 -0.27, 18.5 0" stroke="#1e1e1e" stroke-width="1" fill="none"></path></g><g stroke-linecap="round" transform="translate(490.2756816319054 332.1066928387752) rotate(0 29.5 37)"><path d="M14.75 0 C23.6 1.09, 28.26 -0.34, 44.25 0 M14.75 0 C25.07 -0.15, 37.19 -0.27, 44.25 0 M44.25 0 C54 -0.44, 59.62 5.43, 59 14.75 M44.25 0 C52.44 1.23, 59.01 5.71, 59 14.75 M59 14.75 C60.72 27.82, 58.86 39.77, 59 59.25 M59 14.75 C58.41 31, 58.67 48.4, 59 59.25 M59 59.25 C60.88 70.69, 52.73 72.4, 44.25 74 M59 59.25 C57.06 66.92, 55.44 72.42, 44.25 74 M44.25 74 C37.44 73.87, 32.27 72.1, 14.75 74 M44.25 74 C35.12 73.61, 26.92 74.4, 14.75 74 M14.75 74 C4.99 74.72, -1.14 69.37, 0 59.25 M14.75 74 C6.9 75.63, -1.87 67.91, 0 59.25 M0 59.25 C0.29 47.59, -1.77 34.66, 0 14.75 M0 59.25 C0.61 44.76, -0.07 31.85, 0 14.75 M0 14.75 C-1.51 4.52, 6.52 1.5, 14.75 0 M0 14.75 C-1.61 4.64, 4.93 1.01, 14.75 0" stroke="#1e1e1e" stroke-width="1" fill="none"></path></g><g stroke-linecap="round" transform="translate(529.7756816319054 348.1066928387752) rotate(0 73.50000000000011 37)"><path d="M18.5 0 C47.5 -0.97, 80.04 -1.31, 128.5 0 M18.5 0 C57.04 -0.12, 95 -0.21, 128.5 0 M128.5 0 C141.45 0.52, 145.57 7.24, 147 18.5 M128.5 0 C140.85 0.79, 146.84 5.58, 147 18.5 M147 18.5 C147.32 28.68, 149.04 39.14, 147 55.5 M147 18.5 C147.01 32.51, 147.87 48.53, 147 55.5 M147 55.5 C145.65 66.23, 139.15 72.12, 128.5 74 M147 55.5 C148.35 66.25, 138.91 72.02, 128.5 74 M128.5 74 C107.02 72.48, 83.52 72.9, 18.5 74 M128.5 74 C91.54 73.8, 56.45 73.84, 18.5 74 M18.5 74 C5.03 74.29, 1.72 69.25, 0 55.5 M18.5 74 C4.3 72.82, -0.6 68.06, 0 55.5 M0 55.5 C-1.78 46.07, 0.12 35.93, 0 18.5 M0 55.5 C-0.44 46.2, -0.89 36.48, 0 18.5 M0 18.5 C1.61 7.67, 4.77 -0.24, 18.5 0 M0 18.5 C0.02 7.18, 5.51 -0.47, 18.5 0" stroke="#1e1e1e" stroke-width="1" fill="none"></path></g><g transform="translate(22.119972229003906 344.53526426734675) rotate(0 12.8699951171875 12.5)"><text x="12.8699951171875" y="17.52" font-family="Virgil, Segoe UI Emoji" font-size="20px" fill="#1e1e1e" text-anchor="middle" style="white-space: pre;" direction="ltr" dominant-baseline="alphabetic">L0</text></g><g stroke-linecap="round"><g transform="translate(55.124228460448876 281.67812141020363) rotate(0 434.40859189203786 0)"><path d="M-0.46 0.57 C144.24 0.42, 722.96 0.11, 867.9 -0.02" stroke="#1e1e1e" stroke-width="1.5" fill="none" stroke-dasharray="1.5 7"></path></g></g><mask></mask><g transform="translate(10 195.53526426734675) rotate(0 33.989967346191406 12.5)"><text x="33.989967346191406" y="17.52" font-family="Virgil, Segoe UI Emoji" font-size="20px" fill="#1e1e1e" text-anchor="middle" style="white-space: pre;" direction="ltr" dominant-baseline="alphabetic">Memory</text></g><g stroke-linecap="round" transform="translate(421.2756816319054 58.10669283877519) rotate(0 53.5 30)"><path d="M15 0 C31.93 -0.29, 48.94 0.41, 92 0 M15 0 C40.1 -0.07, 65.12 -0.67, 92 0 M92 0 C102.07 1.83, 107.04 4.98, 107 15 M92 0 C100.79 1.95, 104.9 7.18, 107 15 M107 15 C105.53 25.33, 108.35 30.54, 107 45 M107 15 C107.34 20.9, 105.91 27.33, 107 45 M107 45 C105.05 54.58, 102.15 60.79, 92 60 M107 45 C105.15 54.5, 100.64 60.64, 92 60 M92 60 C76.66 59.36, 60.78 58.16, 15 60 M92 60 C66.98 60.04, 43.32 60.64, 15 60 M15 60 C3.99 60.33, 0.54 53.28, 0 45 M15 60 C4.78 60.21, -1.26 53.95, 0 45 M0 45 C0.45 33.39, -0.18 26.41, 0 15 M0 45 C0.22 34.19, -0.08 22.3, 0 15 M0 15 C-0.14 3.53, 5.13 -0.15, 15 0 M0 15 C1.4 5.94, 5.77 1.72, 15 0" stroke="#1e1e1e" stroke-width="1" fill="none"></path></g><g transform="translate(442.3357173374718 63.10669283877519) rotate(0 32.439964294433594 25)"><text x="32.439964294433594" y="17.52" font-family="Virgil, Segoe UI Emoji" font-size="20px" fill="#1e1e1e" text-anchor="middle" style="white-space: pre;" direction="ltr" dominant-baseline="alphabetic">Write </text><text x="32.439964294433594" y="42.519999999999996" font-family="Virgil, Segoe UI Emoji" font-size="20px" fill="#1e1e1e" text-anchor="middle" style="white-space: pre;" direction="ltr" dominant-baseline="alphabetic">Buffer</text></g><g stroke-linecap="round"><g transform="translate(452.6408027904074 125.7733595054417) rotate(0 -34.795484943994325 90.16666666666663)"><path d="M0.37 0.31 C-11.36 30.52, -58.79 150.9, -70.45 180.98 M-0.9 -0.57 C-12.25 29.31, -56.61 149.32, -68.19 179.19" stroke="#1e1e1e" stroke-width="1" fill="none"></path></g><g transform="translate(452.6408027904074 125.7733595054417) rotate(0 -34.795484943994325 90.16666666666663)"><path d="M-67.65 177.47 L-69.51 164.42 L-58.56 167.8 L-67.46 177.73" stroke="none" stroke-width="0" fill="#1e1e1e" fill-rule="evenodd"></path><path d="M-68.19 179.19 C-68.1 173.69, -68.02 170.35, -69.32 164.23 M-68.19 179.19 C-68.53 174.87, -68.92 169.17, -69.32 164.23 M-69.32 164.23 C-65.14 165.21, -64.52 166.65, -57.46 168.71 M-69.32 164.23 C-66.86 164.7, -64.13 165.69, -57.46 168.71 M-57.46 168.71 C-62.67 170.92, -65.55 176.26, -68.19 179.19 M-57.46 168.71 C-61.63 172.45, -65.53 175.45, -68.19 179.19 M-68.19 179.19 C-68.19 179.19, -68.19 179.19, -68.19 179.19 M-68.19 179.19 C-68.19 179.19, -68.19 179.19, -68.19 179.19" stroke="#1e1e1e" stroke-width="1" fill="none"></path></g></g><mask></mask><g stroke-linecap="round"><g transform="translate(498.14985753455335 126.15641205268685) rotate(0 58.12764434320502 107.97514039304411)"><path d="M-0.86 0.64 C18.46 36.65, 96.76 180.53, 116.26 216.36 M0.89 -0.07 C20.02 35.55, 96.24 178.32, 115.32 214.46" stroke="#1e1e1e" stroke-width="1" fill="none"></path></g><g transform="translate(498.14985753455335 126.15641205268685) rotate(0 58.12764434320502 107.97514039304411)"><path d="M115.13 214.64 L102.24 204.52 L115.27 198.02 L114.7 214.69" stroke="none" stroke-width="0" fill="#1e1e1e" fill-rule="evenodd"></path><path d="M115.32 214.46 C112.14 211.39, 107.89 208.29, 103.34 205.43 M115.32 214.46 C112.04 212.08, 108.35 210.25, 103.34 205.43 M103.34 205.43 C104.51 204.3, 107.2 204.16, 114.54 199.48 M103.34 205.43 C107.11 202.66, 112.27 200.56, 114.54 199.48 M114.54 199.48 C114.26 202.85, 115.34 204.77, 115.32 214.46 M114.54 199.48 C113.97 203.29, 114.19 208.05, 115.32 214.46 M115.32 214.46 C115.32 214.46, 115.32 214.46, 115.32 214.46 M115.32 214.46 C115.32 214.46, 115.32 214.46, 115.32 214.46" stroke="#1e1e1e" stroke-width="1" fill="none"></path></g></g><mask></mask><g transform="translate(341.998563494001 217.67812141020363) rotate(0 24.41997528076172 12.5)"><text x="24.41997528076172" y="17.52" font-family="Virgil, Segoe UI Emoji" font-size="20px" fill="#1e1e1e" text-anchor="middle" style="white-space: pre;" direction="ltr" dominant-baseline="alphabetic">Flush</text></g><g transform="translate(26.32389440910822 493.01740712448986) rotate(0 8.699996948242188 12.5)"><text x="8.699996948242188" y="17.52" font-family="Virgil, Segoe UI Emoji" font-size="20px" fill="#1e1e1e" text-anchor="middle" style="white-space: pre;" direction="ltr" dominant-baseline="alphabetic">L1</text></g><g stroke-linecap="round" transform="translate(334.4048437383026 460.1840737911566) rotate(0 82.28571428571422 37)"><path d="M18.5 0 C66.09 -0.32, 117.59 -1.78, 146.07 0 M18.5 0 C60.98 0.24, 101.78 -0.94, 146.07 0 M146.07 0 C157.71 0.38, 165.75 5.83, 164.57 18.5 M146.07 0 C156.96 -0.09, 162.79 4.14, 164.57 18.5 M164.57 18.5 C164 30.88, 165.68 44.77, 164.57 55.5 M164.57 18.5 C164.42 32.64, 163.72 47.93, 164.57 55.5 M164.57 55.5 C164.82 66.88, 157.69 74.76, 146.07 74 M164.57 55.5 C166.36 66.48, 156.9 73.5, 146.07 74 M146.07 74 C117.05 74.07, 88.57 74.11, 18.5 74 M146.07 74 C107.68 73.22, 70.53 73.74, 18.5 74 M18.5 74 C7.81 73.69, 0.59 69.12, 0 55.5 M18.5 74 C6.43 75.77, 0.84 66.27, 0 55.5 M0 55.5 C0.95 41.4, -1.88 32.69, 0 18.5 M0 55.5 C0.64 45.26, 0.8 36.79, 0 18.5 M0 18.5 C-1.06 6.18, 5.2 -0.55, 18.5 0 M0 18.5 C0.31 5.72, 4.75 1.39, 18.5 0" stroke="#1e1e1e" stroke-width="1" fill="none"></path></g><g stroke-linecap="round" transform="translate(359.4048437383026 476.85074045782324) rotate(0 82.28571428571422 37)"><path d="M18.5 0 C66.27 0.53, 111.45 1.38, 146.07 0 M18.5 0 C64.83 -1.75, 111.11 -0.4, 146.07 0 M146.07 0 C156.57 0.56, 163.17 5.77, 164.57 18.5 M146.07 0 C157.87 -0.07, 166.82 6.29, 164.57 18.5 M164.57 18.5 C165.86 27.59, 165.57 37.5, 164.57 55.5 M164.57 18.5 C164.65 27.04, 165.38 37.58, 164.57 55.5 M164.57 55.5 C163.15 69.2, 156.9 72.22, 146.07 74 M164.57 55.5 C165.81 69.68, 157.19 75.15, 146.07 74 M146.07 74 C100.76 73.98, 58.6 74.7, 18.5 74 M146.07 74 C109.23 71.97, 73.21 73.69, 18.5 74 M18.5 74 C4.56 73.77, 0.67 67.92, 0 55.5 M18.5 74 C7.14 75.53, 2.05 67, 0 55.5 M0 55.5 C0.27 48.79, -1.66 38.22, 0 18.5 M0 55.5 C1.06 44.77, 0.38 35.23, 0 18.5 M0 18.5 C-0.05 8.02, 5.51 1.5, 18.5 0 M0 18.5 C2.04 4.72, 4.98 -1.12, 18.5 0" stroke="#1e1e1e" stroke-width="1" fill="none"></path></g><g stroke-linecap="round" transform="translate(387.7381770716363 490.1840737911565) rotate(0 82.28571428571422 37)"><path d="M18.5 0 C55.6 1.87, 94.98 0.86, 146.07 0 M18.5 0 C52.74 0.51, 87.4 0.15, 146.07 0 M146.07 0 C156.74 1.38, 165.23 4.75, 164.57 18.5 M146.07 0 C159.98 -1.74, 162.52 7.4, 164.57 18.5 M164.57 18.5 C165.35 31.86, 164.29 45.81, 164.57 55.5 M164.57 18.5 C164.7 29.78, 163.9 40.34, 164.57 55.5 M164.57 55.5 C162.94 67.49, 160.2 72.39, 146.07 74 M164.57 55.5 C164.31 68.6, 158.5 74.97, 146.07 74 M146.07 74 C97.8 74.79, 54.28 74.04, 18.5 74 M146.07 74 C97.73 72.82, 50.26 74.32, 18.5 74 M18.5 74 C5.8 74.23, 1.64 67.78, 0 55.5 M18.5 74 C8.29 73.25, 1.73 69.87, 0 55.5 M0 55.5 C-1.11 48.22, 0.53 39.28, 0 18.5 M0 55.5 C0.12 47.75, -0.32 38.73, 0 18.5 M0 18.5 C0.64 5.48, 5.18 0.06, 18.5 0 M0 18.5 C-0.1 7.07, 7.74 0.55, 18.5 0" stroke="#1e1e1e" stroke-width="1" fill="none"></path></g><g stroke-linecap="round" transform="translate(421.07151040496956 506.8507404578231) rotate(0 82.28571428571422 37)"><path d="M18.5 0 C49.35 -0.71, 80.78 -0.58, 146.07 0 M18.5 0 C66.45 -0.75, 113.68 -0.62, 146.07 0 M146.07 0 C158.06 1.8, 162.96 5.94, 164.57 18.5 M146.07 0 C159.18 0.1, 165.54 7.69, 164.57 18.5 M164.57 18.5 C165.69 34.57, 164.94 48.83, 164.57 55.5 M164.57 18.5 C163.73 27.54, 165.23 35.24, 164.57 55.5 M164.57 55.5 C164.8 69.47, 158.35 75.85, 146.07 74 M164.57 55.5 C163.82 69.56, 160.44 72.55, 146.07 74 M146.07 74 C115.86 73.51, 83.97 71.73, 18.5 74 M146.07 74 C107.76 73.89, 68.17 74.5, 18.5 74 M18.5 74 C5.48 73.02, 0.06 67.75, 0 55.5 M18.5 74 C7.07 75.58, 0.55 68.37, 0 55.5 M0 55.5 C1.51 48.24, -1.8 41.13, 0 18.5 M0 55.5 C0.61 47.25, -0.03 38.33, 0 18.5 M0 18.5 C-0.2 4.95, 6.02 0.66, 18.5 0 M0 18.5 C1.42 7.71, 7.51 0.29, 18.5 0" stroke="#1e1e1e" stroke-width="1" fill="none"></path></g><g transform="translate(30.247231709726634 671.3507404578232) rotate(0 13.109992980957031 12.5)"><text x="13.109992980957031" y="17.52" font-family="Virgil, Segoe UI Emoji" font-size="20px" fill="#1e1e1e" text-anchor="middle" style="white-space: pre;" direction="ltr" dominant-baseline="alphabetic">L2</text></g><g transform="translate(649.6706224161065 522.1840737911566) rotate(0 62.0199356079101 12.5)"><text x="62.019935607910156" y="17.52" font-family="Virgil, Segoe UI Emoji" font-size="20px" fill="#1e1e1e" text-anchor="middle" style="white-space: pre;" direction="ltr" dominant-baseline="alphabetic">64 MiB each</text></g><g transform="translate(653.1272899983007 681.3507404578232) rotate(0 65.22993469238281 12.5)"><text x="65.22993469238281" y="17.52" font-family="Virgil, Segoe UI Emoji" font-size="20px" fill="#1e1e1e" text-anchor="middle" style="white-space: pre;" direction="ltr" dominant-baseline="alphabetic">512 MiB each</text></g><g stroke-linecap="round" transform="translate(341.0715104049691 626.8507404578235) rotate(0 82.28571428571422 37)"><path d="M18.5 0 C69.27 -0.79, 121.11 -0.66, 146.07 0 M18.5 0 C68.73 0.02, 117.43 1.68, 146.07 0 M146.07 0 C160.02 -0.98, 163.57 4.5, 164.57 18.5 M146.07 0 C158.73 0.1, 166.66 7.79, 164.57 18.5 M164.57 18.5 C163.99 30.99, 166.17 45.33, 164.57 55.5 M164.57 18.5 C164.27 32.59, 163.78 45.29, 164.57 55.5 M164.57 55.5 C162.59 69.5, 157.56 73.94, 146.07 74 M164.57 55.5 C165.21 66.17, 156.24 73.42, 146.07 74 M146.07 74 C113.93 72.71, 79.9 75.6, 18.5 74 M146.07 74 C115.09 74.32, 84.03 73.69, 18.5 74 M18.5 74 C5.63 74.47, -1.43 66.02, 0 55.5 M18.5 74 C4.2 75.05, 1.7 65.71, 0 55.5 M0 55.5 C1.34 43.52, 0.08 33.24, 0 18.5 M0 55.5 C-0.68 47.83, 0.28 39.85, 0 18.5 M0 18.5 C0.06 5.5, 7.32 0.05, 18.5 0 M0 18.5 C0.45 4.01, 4.91 1.36, 18.5 0" stroke="#1e1e1e" stroke-width="1" fill="none"></path></g><g stroke-linecap="round" transform="translate(366.0715104049691 643.51740712449) rotate(0 82.28571428571422 37)"><path d="M18.5 0 C68.46 0.23, 118.05 1.05, 146.07 0 M18.5 0 C47.07 1.91, 77.86 0.64, 146.07 0 M146.07 0 C157.4 -1.67, 164.85 6.26, 164.57 18.5 M146.07 0 C160.49 1.62, 165.87 5.64, 164.57 18.5 M164.57 18.5 C166.16 28.73, 165.97 38.79, 164.57 55.5 M164.57 18.5 C163.49 30.48, 163.42 45.17, 164.57 55.5 M164.57 55.5 C163.73 67.77, 158.96 72.55, 146.07 74 M164.57 55.5 C162.4 67.25, 157.3 74.88, 146.07 74 M146.07 74 C104.56 74.55, 65.7 74.14, 18.5 74 M146.07 74 C104.22 73.14, 60.9 74.11, 18.5 74 M18.5 74 C4.73 72.18, -1.71 68.74, 0 55.5 M18.5 74 C7.87 71.87, 0.46 67.01, 0 55.5 M0 55.5 C-0.28 47.47, -1.93 38.12, 0 18.5 M0 55.5 C0.71 41.99, 0.18 27.64, 0 18.5 M0 18.5 C1.16 6.21, 6.56 -1.88, 18.5 0 M0 18.5 C-1.26 7.53, 7.79 0.71, 18.5 0" stroke="#1e1e1e" stroke-width="1" fill="none"></path></g><g stroke-linecap="round" transform="translate(394.40484373830304 656.8507404578235) rotate(0 82.28571428571422 37)"><path d="M18.5 0 C60.32 0.97, 97.1 0.57, 146.07 0 M18.5 0 C46.32 -1.48, 72.02 -1.83, 146.07 0 M146.07 0 C158.68 0.09, 166.39 7.58, 164.57 18.5 M146.07 0 C159.7 -0.52, 163.76 5.6, 164.57 18.5 M164.57 18.5 C166.38 29.02, 165.87 37.23, 164.57 55.5 M164.57 18.5 C163.24 31.28, 163.81 42.37, 164.57 55.5 M164.57 55.5 C165.13 66.38, 156.52 73.49, 146.07 74 M164.57 55.5 C163.47 68.71, 158.65 74.01, 146.07 74 M146.07 74 C115.84 75.98, 88.44 75.6, 18.5 74 M146.07 74 C108.81 73.31, 71.36 72.16, 18.5 74 M18.5 74 C4.46 74.91, 1.48 65.98, 0 55.5 M18.5 74 C6.63 73.18, -1.02 69.22, 0 55.5 M0 55.5 C-1.69 46.2, 1.45 33.04, 0 18.5 M0 55.5 C-0.18 43.02, 0.37 31.23, 0 18.5 M0 18.5 C0.39 4.29, 5.08 1.18, 18.5 0 M0 18.5 C1.62 6.88, 4.47 -0.92, 18.5 0" stroke="#1e1e1e" stroke-width="1" fill="none"></path></g><g stroke-linecap="round" transform="translate(427.7381770716361 673.51740712449) rotate(0 82.28571428571422 37)"><path d="M18.5 0 C57.94 0.04, 98.43 -2.18, 146.07 0 M18.5 0 C66.22 -0.21, 115.09 0.67, 146.07 0 M146.07 0 C160.22 1.41, 165.7 5.71, 164.57 18.5 M146.07 0 C157.59 -0.57, 163.76 8.1, 164.57 18.5 M164.57 18.5 C165.83 29.56, 165.31 40.51, 164.57 55.5 M164.57 18.5 C163.78 26.09, 164.48 33.01, 164.57 55.5 M164.57 55.5 C162.69 67.33, 157.45 74.76, 146.07 74 M164.57 55.5 C164.82 67.84, 156.76 71.85, 146.07 74 M146.07 74 C99.13 75.34, 50.69 75.87, 18.5 74 M146.07 74 C116.37 73.39, 87.24 74.76, 18.5 74 M18.5 74 C7.65 72.15, 0.4 67.12, 0 55.5 M18.5 74 C5.15 75.38, -0.16 67.77, 0 55.5 M0 55.5 C1.75 40.97, 0.88 29.16, 0 18.5 M0 55.5 C0.57 43.5, 0.18 30.51, 0 18.5 M0 18.5 C-1.09 7.35, 7.58 0.62, 18.5 0 M0 18.5 C-1.7 5.25, 7.51 -1.47, 18.5 0" stroke="#1e1e1e" stroke-width="1" fill="none"></path></g><g transform="translate(33.89057023104823 846.3507404578233) rotate(0 12.79998779296875 12.5)"><text x="12.79998779296875" y="17.52" font-family="Virgil, Segoe UI Emoji" font-size="20px" fill="#1e1e1e" text-anchor="middle" style="white-space: pre;" direction="ltr" dominant-baseline="alphabetic">L3</text></g><g transform="translate(659.4206300455012 844.6840737911568) rotate(0 77.26992797851562 12.5)"><text x="77.26992797851562" y="17.52" font-family="Virgil, Segoe UI Emoji" font-size="20px" fill="#1e1e1e" text-anchor="middle" style="white-space: pre;" direction="ltr" dominant-baseline="alphabetic">2048 MiB each</text></g><g stroke-linecap="round" transform="translate(354.4048437383025 800.1840737911568) rotate(0 82.28571428571422 37)"><path d="M18.5 0 C56.54 2.64, 92.92 2.39, 146.07 0 M18.5 0 C45.01 0.16, 71.96 -0.25, 146.07 0 M146.07 0 C158.72 -0.56, 165.95 7.04, 164.57 18.5 M146.07 0 C157.35 -1.72, 166.23 4.47, 164.57 18.5 M164.57 18.5 C163.01 31.87, 165.83 41.53, 164.57 55.5 M164.57 18.5 C165.29 28.31, 165.02 39.04, 164.57 55.5 M164.57 55.5 C164.82 66.28, 157.95 74.87, 146.07 74 M164.57 55.5 C166.56 67.53, 160.54 72.4, 146.07 74 M146.07 74 C104.43 71.79, 58.49 74.14, 18.5 74 M146.07 74 C115.21 72.99, 86.53 74.32, 18.5 74 M18.5 74 C8.08 74.12, -1.06 69.28, 0 55.5 M18.5 74 C5.72 73.72, 1.63 66.25, 0 55.5 M0 55.5 C-0.94 43.02, 1.04 28.2, 0 18.5 M0 55.5 C-0.64 44.35, -0.08 33.66, 0 18.5 M0 18.5 C-0.84 4.98, 4.92 0.56, 18.5 0 M0 18.5 C-1.86 7.33, 7.75 -1.91, 18.5 0" stroke="#1e1e1e" stroke-width="1" fill="none"></path></g><g stroke-linecap="round" transform="translate(379.4048437383025 816.8507404578233) rotate(0 82.28571428571422 37)"><path d="M18.5 0 C50.17 0.46, 79.25 -3.23, 146.07 0 M18.5 0 C49.95 -0.24, 80.4 0.46, 146.07 0 M146.07 0 C159.78 0.87, 163.65 4.67, 164.57 18.5 M146.07 0 C160.06 -1.7, 164.74 7.04, 164.57 18.5 M164.57 18.5 C165.38 31.63, 163.97 46.15, 164.57 55.5 M164.57 18.5 C164.79 30.29, 164.83 42.52, 164.57 55.5 M164.57 55.5 C164.12 68.71, 160.13 73.74, 146.07 74 M164.57 55.5 C166.71 66.24, 159.35 72.37, 146.07 74 M146.07 74 C109.37 73.07, 72.46 71.27, 18.5 74 M146.07 74 C114.67 74.53, 83.66 73.61, 18.5 74 M18.5 74 C5.11 75.45, -0.39 67.59, 0 55.5 M18.5 74 C7.8 72.42, 2.09 66.69, 0 55.5 M0 55.5 C1.06 45.03, 0 31.68, 0 18.5 M0 55.5 C0.2 46.85, -0.2 38.42, 0 18.5 M0 18.5 C-1.25 6.73, 4.55 1.01, 18.5 0 M0 18.5 C1.58 4.26, 7.42 0.04, 18.5 0" stroke="#1e1e1e" stroke-width="1" fill="none"></path></g><g stroke-linecap="round" transform="translate(407.7381770716364 830.1840737911568) rotate(0 82.28571428571422 37)"><path d="M18.5 0 C67.3 -3.07, 118.66 -0.94, 146.07 0 M18.5 0 C49.5 0.98, 80.87 1.7, 146.07 0 M146.07 0 C157.49 -1.5, 166.01 4.69, 164.57 18.5 M146.07 0 C158.57 0.87, 165.65 4.21, 164.57 18.5 M164.57 18.5 C164.49 35.27, 165.48 48.82, 164.57 55.5 M164.57 18.5 C164.73 25.99, 164.38 35.47, 164.57 55.5 M164.57 55.5 C166.3 67.57, 160.26 72.61, 146.07 74 M164.57 55.5 C165.52 66.21, 158.02 76.15, 146.07 74 M146.07 74 C119.24 72.77, 94.01 72.32, 18.5 74 M146.07 74 C113.23 75.31, 77.94 75.98, 18.5 74 M18.5 74 C5.77 73.76, 1.42 66.46, 0 55.5 M18.5 74 C8.26 72.86, 0.61 66.55, 0 55.5 M0 55.5 C-0.37 41.08, -1.7 24.83, 0 18.5 M0 55.5 C-0.41 45.44, -0.62 36.85, 0 18.5 M0 18.5 C-1.62 7.17, 7.54 -1.66, 18.5 0 M0 18.5 C1.26 6.21, 5.4 -1.8, 18.5 0" stroke="#1e1e1e" stroke-width="1" fill="none"></path></g><g stroke-linecap="round" transform="translate(441.07151040496944 846.8507404578233) rotate(0 82.28571428571422 37)"><path d="M18.5 0 C66.43 1.41, 115.52 2.43, 146.07 0 M18.5 0 C44.86 0.79, 69.38 -0.39, 146.07 0 M146.07 0 C159.84 -1.48, 164.72 6.92, 164.57 18.5 M146.07 0 C159.49 -1.96, 166.87 7.46, 164.57 18.5 M164.57 18.5 C165.22 30.86, 162.99 41.95, 164.57 55.5 M164.57 18.5 C164.39 27.8, 165.48 36.1, 164.57 55.5 M164.57 55.5 C166.43 66.45, 159.23 72.59, 146.07 74 M164.57 55.5 C164.19 69.98, 156.11 73.37, 146.07 74 M146.07 74 C104.54 71.17, 64.37 73.63, 18.5 74 M146.07 74 C94.75 74.8, 44.3 73.96, 18.5 74 M18.5 74 C7.59 72.63, 1.82 66.84, 0 55.5 M18.5 74 C6.78 72.71, 2.27 68.81, 0 55.5 M0 55.5 C-1.5 40.25, -0.84 27.29, 0 18.5 M0 55.5 C-0.47 46.2, -0.65 36.84, 0 18.5 M0 18.5 C1.37 4.51, 7.26 0.03, 18.5 0 M0 18.5 C-0.77 4.37, 6.97 -1.84, 18.5 0" stroke="#1e1e1e" stroke-width="1" fill="none"></path></g><g stroke-linecap="round"><g transform="translate(515.034924833866 10.517407124489637) rotate(0 0 474.7916666666664)"><path d="M-0.57 -0.52 C-0.57 158, 1.1 792.32, 1.04 950.51 M1.33 1.83 C1.17 160.08, 0.62 790.94, 0.64 948.88" stroke="#1971c2" stroke-width="1" fill="none"></path></g><g transform="translate(515.034924833866 10.517407124489637) rotate(0 0 474.7916666666664)"><path d="M-0.13 947.77 L-5.29 937 L8.74 934.75 L2.21 948.32" stroke="none" stroke-width="0" fill="#1971c2" fill-rule="evenodd"></path><path d="M0.64 948.88 C-2.39 944.88, -3.04 937.13, -5.69 935.28 M0.64 948.88 C-0.34 946, -2.29 943.2, -5.69 935.28 M-5.69 935.28 C-2.8 935.37, -0.34 934.78, 6.98 935.29 M-5.69 935.28 C-2.28 934.76, 0.94 935.62, 6.98 935.29 M6.98 935.29 C4.18 939.84, 2.14 943.12, 0.64 948.88 M6.98 935.29 C4.65 937.74, 4.52 941.35, 0.64 948.88 M0.64 948.88 C0.64 948.88, 0.64 948.88, 0.64 948.88 M0.64 948.88 C0.64 948.88, 0.64 948.88, 0.64 948.88" stroke="#1971c2" stroke-width="1" fill="none"></path></g></g><mask></mask><g transform="translate(536.3402230487328 10.082427096401716) rotate(0 51.789939880371094 12.5)"><text x="51.789939880371094" y="17.52" font-family="Virgil, Segoe UI Emoji" font-size="20px" fill="#1971c2" text-anchor="middle" style="white-space: pre;" direction="ltr" dominant-baseline="alphabetic">Point read</text></g><g transform="translate(922.265688300701 604.6310233437708) rotate(0 52.979942321777344 12.5)"><text x="52.979942321777344" y="17.52" font-family="Virgil, Segoe UI Emoji" font-size="20px" fill="#1e1e1e" text-anchor="middle" style="white-space: pre;" direction="ltr" dominant-baseline="alphabetic">Compaction</text></g><g stroke-linecap="round"><g transform="translate(869.5313449081921 442.63102334377095) rotate(0 13.64285714285711 178.14285714285717)"><path d="M-0.42 0.36 C4.01 28.62, 26.12 110.5, 26.92 170.01 C27.72 229.51, 8.01 326.46, 4.37 357.4 M1.55 -0.49 C5.77 27.94, 25.43 112.27, 25.78 171.62 C26.13 230.97, 6.99 324.85, 3.65 355.64" stroke="#1e1e1e" stroke-width="1" fill="none"></path></g><g transform="translate(869.5313449081921 442.63102334377095) rotate(0 13.64285714285711 178.14285714285717)"><path d="M4.75 357.44 L0.73 341.55 L10.43 342.26 L4.66 354.26" stroke="none" stroke-width="0" fill="#1e1e1e" fill-rule="evenodd"></path><path d="M3.65 355.64 C2.67 350.49, 1.01 346.38, -0.6 341.25 M3.65 355.64 C1.36 349.39, 0.01 344.23, -0.6 341.25 M-0.6 341.25 C1.47 341.47, 5.38 342.22, 11.93 343.13 M-0.6 341.25 C3.79 341.72, 7.83 342.86, 11.93 343.13 M11.93 343.13 C9.94 345.2, 6.82 348.96, 3.65 355.64 M11.93 343.13 C9.24 347.77, 5.47 352.83, 3.65 355.64 M3.65 355.64 C3.65 355.64, 3.65 355.64, 3.65 355.64 M3.65 355.64 C3.65 355.64, 3.65 355.64, 3.65 355.64" stroke="#1e1e1e" stroke-width="1" fill="none"></path></g></g><mask></mask><g stroke-linecap="round"><g transform="translate(106.69055802401715 985.021429971898) rotate(0 375.82930072142443 0)"><path d="M-1.15 0.65 C124.21 0.53, 626.22 -0.01, 751.54 0.04 M0.44 -0.05 C125.69 -0.03, 625.06 1.73, 750.52 1.6" stroke="#1e1e1e" stroke-width="1" fill="none"></path></g><g transform="translate(106.69055802401715 985.021429971898) rotate(0 375.82930072142443 0)"><path d="M-2.78 2.59 L12.25 -7.2 L10.8 5.33 L-0.66 0.75" stroke="none" stroke-width="0" fill="#1e1e1e" fill-rule="evenodd"></path><path d="M-1.15 0.65 C2.96 -0.93, 5.55 -3.45, 12.43 -5.7 M-1.15 0.65 C4.32 -2.09, 9.11 -3.6, 12.43 -5.7 M12.43 -5.7 C13.63 -1.02, 12.77 4.1, 12.45 6.98 M12.43 -5.7 C12.54 -1.25, 13.02 2.65, 12.45 6.98 M12.45 6.98 C8.69 5.49, 4.05 2.78, -1.15 0.65 M12.45 6.98 C8.12 5.64, 5.11 2.98, -1.15 0.65 M-1.15 0.65 C-1.15 0.65, -1.15 0.65, -1.15 0.65 M-1.15 0.65 C-1.15 0.65, -1.15 0.65, -1.15 0.65" stroke="#1e1e1e" stroke-width="1" fill="none"></path></g><g transform="translate(106.69055802401715 985.021429971898) rotate(0 375.82930072142443 0)"><path d="M748.89 3.54 L736.73 6.43 L735.29 -6.4 L751.02 1.7" stroke="none" stroke-width="0" fill="#1e1e1e" fill-rule="evenodd"></path><path d="M750.52 1.6 C748.03 2.88, 743.93 3.47, 736.92 7.92 M750.52 1.6 C745.47 3.64, 739.83 6.98, 736.92 7.92 M736.92 7.92 C738.03 2.83, 737.18 -1.84, 736.94 -4.76 M736.92 7.92 C736.99 4.49, 737.47 0.5, 736.94 -4.76 M736.94 -4.76 C742.17 -1.79, 746.54 -0.3, 750.52 1.6 M736.94 -4.76 C739.93 -2.71, 744.27 -1.93, 750.52 1.6 M750.52 1.6 C750.52 1.6, 750.52 1.6, 750.52 1.6 M750.52 1.6 C750.52 1.6, 750.52 1.6, 750.52 1.6" stroke="#1e1e1e" stroke-width="1" fill="none"></path></g></g><mask></mask><g transform="translate(450.22492349623326 1019.3071442576122) rotate(0 47.409950256347656 12.5)"><text x="47.409950256347656" y="17.52" font-family="Virgil, Segoe UI Emoji" font-size="20px" fill="#1e1e1e" text-anchor="middle" style="white-space: pre;" direction="ltr" dominant-baseline="alphabetic">Key range</text></g></svg>