<svg width="583" height="100" viewBox="0 0 583 100" fill="none" xmlns="http://www.w3.org/2000/svg">
<g clip-path="url(#clip0_6_33)">
<path d="M20.9259 63.7082C25.632 74.7938 36.5837 80.4306 49.9792 78.5527C62.6156 76.7777 71.2915 68.0321 73.3636 56.3992C65.8344 58.195 56.9403 59.8413 47.5841 61.1562C37.9942 62.5065 28.7844 63.3769 20.9259 63.7082Z" fill="#FAFAFC"/>
<path d="M72.7061 42.2121C69.0604 28.6057 57.2093 21.4244 42.344 23.5163C28.2463 25.4949 19.0428 36.1287 18.4881 49.8047C7.01197 52.6289 -0.298108 55.6306 0.00933485 57.819C0.316778 60.0075 8.08491 60.8654 19.7812 60.4396C27.5172 60.155 36.9669 59.297 47.1229 57.8741C57.1335 56.4677 66.3298 54.7134 73.7884 52.8823C77.0996 52.0701 80.0536 51.2422 82.5952 50.4238V42.208C79.7783 42.0761 76.4484 42.0761 72.7071 42.208" fill="#FAFAFC"/>
<path d="M114.702 23.2597C108.44 23.2597 104.961 26.9376 100.888 38.5675L101.286 23.2597H97.9029L77.1298 29.0243V31.8089L82.5983 35.1887V42.207C88.554 42.4853 92.1924 43.3609 92.3991 44.8348C92.6193 46.4021 88.9196 48.3859 82.5983 50.4227V70.0794C82.5983 73.2597 81.006 73.6575 77.0311 73.9556V77.8319H108.84V73.9525C103.174 73.2566 100.888 72.8588 100.888 68.5858V42.3451C105.458 38.9653 111.026 38.7659 117.291 38.7659H119.679V24.9486C118.309 23.7549 116.524 23.1483 114.709 23.2597" fill="#FAFAFC"/>
<path d="M119.077 7.55417V4.5701L139.85 0H142.931V32.9016C144.645 29.9894 147.085 27.5707 150.011 25.881C152.938 24.1913 156.252 23.2883 159.631 23.2597C171.362 23.2597 179.711 31.4111 179.711 47.7139C179.711 68.0914 166.689 78.828 149.989 78.828C140.944 78.828 131.003 77.0384 124.541 71.9728V10.3378L119.077 7.55417ZM161.024 53.2832C161.024 40.1618 156.35 34.0992 148.799 34.0992C146.718 34.0589 144.673 34.6475 142.932 35.788V63.8214C142.932 70.1832 144.722 74.1582 149.99 74.1582C157.148 74.1582 161.024 65.018 161.024 53.2811" fill="#FAFAFC"/>
<path d="M206.553 70.0794C206.553 73.2608 208.143 73.6586 212.12 73.9567V77.8329H182.7V73.9525C186.677 73.6544 188.266 73.2566 188.266 70.0752V35.1898L182.801 31.81V29.0253L203.47 23.2608H206.552L206.553 70.0794ZM187.865 9.64188C187.865 4.67189 191.442 0.501678 197.607 0.501678C203.571 0.501678 207.347 4.67605 207.347 9.64188C207.347 14.6077 203.571 18.8859 197.607 18.8859C191.442 18.8859 187.865 14.6108 187.865 9.64188Z" fill="#FAFAFC"/>
<path d="M237.073 24.2537H248.706V29.6225H237.073V62.5273C237.073 67.2989 238.961 69.3824 242.739 69.3824C245.324 69.3151 247.824 68.447 249.895 66.8979L251.386 69.0854C247.609 75.2477 242.038 78.8269 234.09 78.8269C224.95 78.8269 218.583 74.2568 218.583 62.52V29.6225H212.917V26.3425C220.999 23.1312 228.023 17.7257 233.197 10.7356H237.073V24.2537Z" fill="#FAFAFC"/>
<path d="M276.236 70.0794C276.236 73.2608 277.827 73.6586 281.803 73.9567V77.8329H252.38V73.9525C256.354 73.6544 257.947 73.2566 257.947 70.0752V35.1898L252.478 31.81V29.0253L273.156 23.2608H276.236V70.0794ZM257.55 9.64188C257.55 4.67189 261.129 0.501678 267.29 0.501678C273.255 0.501678 277.032 4.67605 277.032 9.64188C277.032 14.6077 273.255 18.8859 267.29 18.8859C261.129 18.8859 257.55 14.6108 257.55 9.64188Z" fill="#FAFAFC"/>
<path d="M323.456 41.053C323.456 36.6792 321.965 34.094 316.796 34.094C313.814 34.1332 310.884 34.8808 308.247 36.2752V70.0731C308.247 73.2545 309.639 73.6523 313.616 73.9494V77.8267H284.385V73.9525C288.361 73.6555 289.952 73.2577 289.952 70.0762V35.1898L284.489 31.81V29.0253L305.262 23.2597H308.642L308.244 33.2007C312.02 28.4291 317.787 23.2597 326.732 23.2597C336.374 23.2597 341.84 28.6286 341.84 39.5667V70.0794C341.84 73.2608 343.432 73.6586 347.406 73.9556V77.8329H318.188V73.9525C322.165 73.6555 323.456 73.2577 323.456 70.0762V41.053Z" fill="#FAFAFC"/>
<path d="M361.828 57.4565C360.236 58.8473 358.945 60.4385 358.945 62.4244C358.923 62.8174 358.986 63.2104 359.129 63.5769C359.273 63.9434 359.493 64.2747 359.776 64.5482C360.059 64.8218 360.398 65.0312 360.769 65.1623C361.14 65.2934 361.535 65.343 361.927 65.3077H383.498C396.917 65.3077 402.583 71.0733 402.583 80.119C402.583 92.9433 390.257 100.001 372.264 100.001C356.56 100.001 346.816 95.7259 346.816 87.8726C346.816 82.9037 351.594 80.5168 355.963 79.8209C353.988 79.0287 352.301 77.6526 351.129 75.8764C349.956 74.1003 349.354 72.0086 349.402 69.881C349.402 63.4205 353.972 59.2441 359.143 56.4615C353.677 53.8773 349.7 49.3986 349.7 42.1467C349.7 30.2187 359.741 23.2608 373.458 23.2608C376.659 23.2274 379.845 23.6967 382.901 24.6515L400.594 24.2537V30.9146H396.128L390.063 30.7162C391.953 31.9177 393.51 33.5773 394.587 35.5409C395.665 37.5045 396.229 39.7085 396.227 41.9483C396.227 52.982 386.086 59.1454 372.767 59.1454C369.055 59.1836 365.361 58.6131 361.833 57.4565M358.055 82.0094C357.352 83.0998 357.037 84.395 357.161 85.6862C357.161 91.7489 363.422 95.3281 372.767 95.3281C381.713 95.3281 389.963 92.9392 389.963 86.4808C389.963 83.3004 387.976 82.0094 384.297 82.0094H358.055ZM379.318 41.7489C379.318 34.1947 377.331 27.4351 372.658 27.4351C368.192 27.4351 366.694 32.3064 366.694 40.5565C366.694 48.5085 368.883 55.2691 373.455 55.2691C377.921 55.2691 379.318 50.3968 379.318 41.7489Z" fill="#FAFAFC"/>
<path d="M408.548 10.3367L403.081 7.5552V4.5701L423.854 0H426.934V33.2007C430.711 28.4302 436.377 23.2608 445.423 23.2608C454.965 23.2608 460.432 28.7272 460.432 39.5625V70.0794C460.432 73.2608 462.025 73.6586 465.998 73.9556V77.8329H436.779V73.9525C440.756 73.6554 442.047 73.2577 442.047 70.0762V41.053C442.047 36.6792 440.554 34.094 435.387 34.094C432.435 34.1202 429.534 34.8691 426.938 36.2752V70.0731C426.938 73.2545 428.229 73.6523 432.206 73.9494V77.8267H402.982V73.9525C406.958 73.6554 408.548 73.2577 408.548 70.0762V10.3367Z" fill="#FAFAFC"/>
<path d="M514.317 66.8979C514.317 69.2869 514.616 71.3714 517.002 71.3714C518.155 71.3819 519.3 71.1798 520.379 70.7753L521.075 73.4591C519.37 75.2018 517.327 76.577 515.07 77.5001C512.814 78.4233 510.393 78.8748 507.955 78.8269C502.191 78.8269 498.014 75.7452 496.525 70.4772C494.903 72.9752 492.677 75.023 490.053 76.4305C487.428 77.8379 484.491 78.5594 481.513 78.5278C473.164 78.5278 467.299 73.7562 467.299 65.2091C467.299 56.5612 473.361 52.982 480.419 50.4965L496.227 44.9293V34.7951C496.227 30.225 494.932 27.1402 491.055 27.1402C487.178 27.1402 485.688 30.3216 485.688 34.9945C485.747 37.3388 486.047 39.6708 486.584 41.9535L475.549 43.445C474.084 42.9841 472.812 42.0518 471.931 40.7933C471.05 39.5348 470.61 38.0206 470.679 36.486C470.679 27.4403 480.027 23.266 492.05 23.266C505.968 23.266 514.317 27.6398 514.317 40.5617V66.8979ZM496.227 67.5938V49.2044L490.758 51.2911C487.28 52.5842 484.993 54.4725 484.993 60.1384C484.993 65.2091 486.881 68.9856 491.849 68.9856C493.408 68.9373 494.923 68.4553 496.223 67.5938" fill="#FAFAFC"/>
<path d="M545.629 70.0794C545.629 73.2608 547.219 73.6586 551.195 73.9567V77.8329H521.772V73.9525C525.747 73.6544 527.34 73.2566 527.34 70.0752V35.1898L521.871 31.81V29.0253L542.549 23.2608H545.629V70.0794ZM526.942 9.64188C526.942 4.67189 530.521 0.501678 536.682 0.501678C542.647 0.501678 546.425 4.67605 546.425 9.64188C546.425 14.6077 542.647 18.8859 536.682 18.8859C530.521 18.8859 526.942 14.6108 526.942 9.64188Z" fill="#FAFAFC"/>
<path d="M577.342 70.0794C577.342 73.2608 578.931 73.6586 582.908 73.9556V77.8329H553.384V73.9525C557.36 73.6554 558.952 73.2577 558.952 70.0762V10.3378L553.483 7.55417V4.5701L574.256 0H577.34L577.342 70.0794Z" fill="#FAFAFC"/>
</g>
<defs>
<clipPath id="clip0_6_33">
<rect width="582.908" height="100" fill="white"/>
</clipPath>
</defs>
</svg>
