<svg version="1.1" xmlns="http://www.w3.org/2000/svg" viewBox="0 0 938.0046858705041 850.8809523809522" width="938.0046858705041" height="850.8809523809522">
  <!-- svg-source:excalidraw -->
  
  <defs>
    <style class="style-fonts">
      @font-face {
        font-family: "Virgil";
        src: url("https://excalidraw.com/Virgil.woff2");
      }
      @font-face {
        font-family: "Cascadia";
        src: url("https://excalidraw.com/Cascadia.woff2");
      }
      @font-face {
        font-family: "Assistant";
        src: url("https://excalidraw.com/Assistant-Regular.woff2");
      }
    </style>
    
  </defs>
  <rect x="0" y="0" width="938.0046858705041" height="850.8809523809522" fill="#ffffff"></rect><g stroke-linecap="round" transform="translate(87.38679274301603 323.39682539682497) rotate(0 205.9007936507935 37)"><path d="M18.5 0 C110.91 -1.47, 200.84 -1.04, 393.3 0 M18.5 0 C134.92 -1.32, 250.98 -2.17, 393.3 0 M393.3 0 C404.94 -0.74, 411.44 4.36, 411.8 18.5 M393.3 0 C403.58 1.97, 409.9 5.72, 411.8 18.5 M411.8 18.5 C412.19 30.65, 412.89 44.08, 411.8 55.5 M411.8 18.5 C410.92 26.71, 412.58 33.37, 411.8 55.5 M411.8 55.5 C413.51 68.03, 405.21 72.71, 393.3 74 M411.8 55.5 C413.81 69.17, 405.7 75.65, 393.3 74 M393.3 74 C273.53 75.81, 156.24 74.52, 18.5 74 M393.3 74 C277.96 74.93, 161.99 73.96, 18.5 74 M18.5 74 C5.22 74.45, -0.2 66.31, 0 55.5 M18.5 74 C5.59 74.83, -0.09 66.4, 0 55.5 M0 55.5 C-0.25 45.82, 1.18 38.12, 0 18.5 M0 55.5 C0.99 40.88, -0.1 27.28, 0 18.5 M0 18.5 C-0.76 7.44, 5.81 1.12, 18.5 0 M0 18.5 C0.06 8.03, 5.7 -0.49, 18.5 0" stroke="#1e1e1e" stroke-width="1" fill="none"></path></g><g transform="translate(260.5576135544543 347.89682539682497) rotate(0 32.72997283935547 12.5)"><text x="32.72997283935547" y="17.52" font-family="Virgil, Segoe UI Emoji" font-size="20px" fill="#1e1e1e" text-anchor="middle" style="white-space: pre;" direction="ltr" dominant-baseline="alphabetic">64 MB</text></g><g stroke-linecap="round" transform="translate(163.4899673461914 142.571428571428) rotate(0 114.42857142857156 37)"><path d="M18.5 0 C85.31 0.71, 149.68 0.41, 210.36 0 M18.5 0 C82.54 0.98, 147.73 1.03, 210.36 0 M210.36 0 C222.54 1.1, 230.55 7.71, 228.86 18.5 M210.36 0 C221.51 -1.89, 230.7 4.62, 228.86 18.5 M228.86 18.5 C230.01 28.18, 229.86 38.64, 228.86 55.5 M228.86 18.5 C227.8 32.54, 228.17 46.53, 228.86 55.5 M228.86 55.5 C230.57 66.09, 220.92 75.3, 210.36 74 M228.86 55.5 C228.99 66.5, 220.97 75.54, 210.36 74 M210.36 74 C144.55 75.57, 78.58 77.07, 18.5 74 M210.36 74 C144.29 75.31, 77.6 75.27, 18.5 74 M18.5 74 C4.87 74.77, -1.15 67.44, 0 55.5 M18.5 74 C5.17 73.71, 1.55 68.5, 0 55.5 M0 55.5 C2.08 41.19, 1.44 24.63, 0 18.5 M0 55.5 C-0.79 41.42, 0.58 27.9, 0 18.5 M0 18.5 C0.24 8.14, 5.36 1.42, 18.5 0 M0 18.5 C-0.39 7.18, 7.99 0.25, 18.5 0" stroke="#1e1e1e" stroke-width="1" fill="none"></path></g><g stroke-linecap="round" transform="translate(375.41853877476206 154.14285714285688) rotate(0 41.42857142857156 37)"><path d="M18.5 0 C28.57 -0.45, 42.41 -0.04, 64.36 0 M18.5 0 C29.7 -0.07, 40.23 0.65, 64.36 0 M64.36 0 C78.38 1.54, 81.83 4.52, 82.86 18.5 M64.36 0 C78.53 -1.55, 82.2 5.43, 82.86 18.5 M82.86 18.5 C84.21 28.24, 84.71 37.47, 82.86 55.5 M82.86 18.5 C81.89 28.65, 83.35 38.26, 82.86 55.5 M82.86 55.5 C81.09 69.14, 76.8 72.84, 64.36 74 M82.86 55.5 C81.14 69.37, 77.63 76.02, 64.36 74 M64.36 74 C45.77 75.42, 29.98 74.1, 18.5 74 M64.36 74 C49.01 74.74, 32.5 74.63, 18.5 74 M18.5 74 C5.02 73.6, -0.87 67.58, 0 55.5 M18.5 74 C7.72 74.67, 2.21 66.3, 0 55.5 M0 55.5 C0.86 41.39, 0.92 29.63, 0 18.5 M0 55.5 C0.78 43.75, 0.47 34.48, 0 18.5 M0 18.5 C-0.81 7.58, 5.83 0.88, 18.5 0 M0 18.5 C1.82 6.42, 5.94 1.34, 18.5 0" stroke="#1e1e1e" stroke-width="1" fill="none"></path></g><g stroke-linecap="round" transform="translate(644.8471102033336 141.28571428571377) rotate(0 66.57142857142844 37)"><path d="M18.5 0 C47.11 0.16, 73.03 -0.61, 114.64 0 M18.5 0 C45.22 0.71, 72.93 0.93, 114.64 0 M114.64 0 C125.95 -1.64, 134.74 4.82, 133.14 18.5 M114.64 0 C126.32 -0.73, 132.26 7.63, 133.14 18.5 M133.14 18.5 C134.97 28.54, 132.93 37.43, 133.14 55.5 M133.14 18.5 C133.77 28.53, 132.03 40.96, 133.14 55.5 M133.14 55.5 C133.26 66.68, 125.48 75.34, 114.64 74 M133.14 55.5 C134.09 69.85, 128.93 73.56, 114.64 74 M114.64 74 C87.02 74.81, 58.33 75.57, 18.5 74 M114.64 74 C80 74.86, 46.08 74.28, 18.5 74 M18.5 74 C5.3 73.74, 1.35 68.41, 0 55.5 M18.5 74 C8.37 72.47, 0.89 69.94, 0 55.5 M0 55.5 C1.04 42.98, -0.27 30.17, 0 18.5 M0 55.5 C-0.04 47.8, -0.57 38.83, 0 18.5 M0 18.5 C-0.34 7.04, 7.75 0.22, 18.5 0 M0 18.5 C-0.23 7.51, 5 -0.7, 18.5 0" stroke="#1e1e1e" stroke-width="1" fill="none"></path></g><g stroke-linecap="round" transform="translate(490.2756816319052 161.14285714285688) rotate(0 29.5 37)"><path d="M14.75 0 C21.62 -0.83, 30.56 0.61, 44.25 0 M14.75 0 C23.96 0.61, 30.97 -0.98, 44.25 0 M44.25 0 C55.68 -1.34, 58.43 4.28, 59 14.75 M44.25 0 C53.2 1.46, 58.59 6.2, 59 14.75 M59 14.75 C58.94 26.27, 59.25 40.48, 59 59.25 M59 14.75 C58.5 28.02, 59.44 39.41, 59 59.25 M59 59.25 C57.5 70.42, 54.9 75.75, 44.25 74 M59 59.25 C60.95 68.64, 54.02 72.92, 44.25 74 M44.25 74 C34.08 74.89, 23.38 74.54, 14.75 74 M44.25 74 C33.36 73.92, 23.18 73.99, 14.75 74 M14.75 74 C6.27 74.58, 1.92 67.75, 0 59.25 M14.75 74 C5.81 76.11, 0.39 70.46, 0 59.25 M0 59.25 C-0.33 47.53, -1.58 40.42, 0 14.75 M0 59.25 C-0.46 49.94, -0.22 39.66, 0 14.75 M0 14.75 C1.59 5.13, 4.72 1.17, 14.75 0 M0 14.75 C-1.16 4.22, 3.32 -1.65, 14.75 0" stroke="#1e1e1e" stroke-width="1" fill="none"></path></g><g stroke-linecap="round" transform="translate(529.7756816319052 177.14285714285688) rotate(0 73.5 37)"><path d="M18.5 0 C50.62 1.06, 83.27 0.32, 128.5 0 M18.5 0 C57.04 -1.67, 97.4 -1.52, 128.5 0 M128.5 0 C140.26 -0.64, 146.24 7.44, 147 18.5 M128.5 0 C140.42 1.28, 147.06 8.03, 147 18.5 M147 18.5 C146.81 27.63, 146.59 40.92, 147 55.5 M147 18.5 C146.73 25.8, 145.92 34.92, 147 55.5 M147 55.5 C147.82 69.59, 142.53 73.61, 128.5 74 M147 55.5 C146.93 66.76, 142.49 75.07, 128.5 74 M128.5 74 C95.92 75, 62.2 73.18, 18.5 74 M128.5 74 C90.82 73.65, 54.69 74.07, 18.5 74 M18.5 74 C8.09 72.67, 0.78 69.67, 0 55.5 M18.5 74 C6.56 75.38, -1.81 69.28, 0 55.5 M0 55.5 C-1.29 46.73, -1.49 36.48, 0 18.5 M0 55.5 C-0.02 41.19, 0.94 26.11, 0 18.5 M0 18.5 C-0.2 7.33, 5.15 -0.6, 18.5 0 M0 18.5 C-1.59 4.52, 6.01 -1.82, 18.5 0" stroke="#1e1e1e" stroke-width="1" fill="none"></path></g><g transform="translate(22.119972229003906 173.57142857142844) rotate(0 12.8699951171875 12.5)"><text x="12.8699951171875" y="17.52" font-family="Virgil, Segoe UI Emoji" font-size="20px" fill="#1e1e1e" text-anchor="middle" style="white-space: pre;" direction="ltr" dominant-baseline="alphabetic">L0</text></g><g transform="translate(28.147113255091426 338.21428571428544) rotate(0 8.699996948242188 12.5)"><text x="8.699996948242188" y="17.52" font-family="Virgil, Segoe UI Emoji" font-size="20px" fill="#1e1e1e" text-anchor="middle" style="white-space: pre;" direction="ltr" dominant-baseline="alphabetic">L1</text></g><g transform="translate(24.16568865094814 432.49999999999966) rotate(0 13.109992980957031 12.5)"><text x="13.109992980957031" y="17.52" font-family="Virgil, Segoe UI Emoji" font-size="20px" fill="#1e1e1e" text-anchor="middle" style="white-space: pre;" direction="ltr" dominant-baseline="alphabetic">L2</text></g><g stroke-linecap="round"><g transform="translate(55.12422846044865 110.71428571428532) rotate(0 434.408591892038 0)"><path d="M0.96 -0.81 C145.81 -0.71, 723.91 -0.64, 868.47 -0.38" stroke="#1e1e1e" stroke-width="1.5" fill="none" stroke-dasharray="1.5 7"></path></g></g><mask></mask><g transform="translate(10 24.57142857142844) rotate(0 33.989967346191406 12.5)"><text x="33.989967346191406" y="17.52" font-family="Virgil, Segoe UI Emoji" font-size="20px" fill="#1e1e1e" text-anchor="middle" style="white-space: pre;" direction="ltr" dominant-baseline="alphabetic">Memory</text></g><g stroke-linecap="round" transform="translate(432.7042530604763 10) rotate(0 53.5 30)"><path d="M15 0 C37.17 -0.06, 57.91 0.35, 92 0 M15 0 C43.36 0.11, 73.07 0, 92 0 M92 0 C103.71 -1.74, 105.23 6.3, 107 15 M92 0 C102.13 -1.33, 105.28 6.54, 107 15 M107 15 C106.88 25.17, 106.33 36.9, 107 45 M107 15 C107.46 25.94, 107.28 36.3, 107 45 M107 45 C105.7 55.77, 100.85 59.6, 92 60 M107 45 C106 54.71, 103.55 60.67, 92 60 M92 60 C63.35 60.64, 32.23 58.73, 15 60 M92 60 C63.12 59.33, 36.54 59.23, 15 60 M15 60 C5.24 61.97, -0.81 56.42, 0 45 M15 60 C4.61 61.01, 1.82 55.25, 0 45 M0 45 C-0.78 34.91, -1.61 27.47, 0 15 M0 45 C0.32 39.23, 0.58 32.49, 0 15 M0 15 C1.58 5.66, 3.61 -1.75, 15 0 M0 15 C1.16 4.6, 5.32 -1.44, 15 0" stroke="#1e1e1e" stroke-width="1" fill="none"></path></g><g transform="translate(453.7642887660427 15) rotate(0 32.439964294433594 25)"><text x="32.439964294433594" y="17.52" font-family="Virgil, Segoe UI Emoji" font-size="20px" fill="#1e1e1e" text-anchor="middle" style="white-space: pre;" direction="ltr" dominant-baseline="alphabetic">Write </text><text x="32.439964294433594" y="42.519999999999996" font-family="Virgil, Segoe UI Emoji" font-size="20px" fill="#1e1e1e" text-anchor="middle" style="white-space: pre;" direction="ltr" dominant-baseline="alphabetic">Buffer</text></g><g stroke-linecap="round"><g transform="translate(74.65569795880947 791.595238095238) rotate(0 426.42857142857133 0)"><path d="M-0.9 0.8 C141.32 1.09, 710.89 1.23, 853.35 1.05 M0.83 0.18 C142.92 0.22, 710.52 -0.65, 852.66 -0.52" stroke="#1e1e1e" stroke-width="1" fill="none"></path></g><g transform="translate(74.65569795880947 791.595238095238) rotate(0 426.42857142857133 0)"><path d="M-2.31 1.58 L12.92 -3.83 L13.43 8.61 L0.69 1.46" stroke="none" stroke-width="0" fill="#1e1e1e" fill-rule="evenodd"></path><path d="M-0.9 0.8 C4.3 -0.42, 8.77 -1.69, 12.7 -5.53 M-0.9 0.8 C3.46 -0.56, 6.78 -2.39, 12.7 -5.53 M12.7 -5.53 C13.4 -1.99, 13.25 2.46, 12.69 7.15 M12.7 -5.53 C13.07 -1.79, 13.25 1.15, 12.69 7.15 M12.69 7.15 C8.93 3.84, 4.37 2.28, -0.9 0.8 M12.69 7.15 C9.04 4.61, 4.76 4.03, -0.9 0.8 M-0.9 0.8 C-0.9 0.8, -0.9 0.8, -0.9 0.8 M-0.9 0.8 C-0.9 0.8, -0.9 0.8, -0.9 0.8" stroke="#1e1e1e" stroke-width="1" fill="none"></path></g><g transform="translate(74.65569795880947 791.595238095238) rotate(0 426.42857142857133 0)"><path d="M851.25 0.26 L839.29 7.53 L839.8 -5.39 L854.24 0.14" stroke="none" stroke-width="0" fill="#1e1e1e" fill-rule="evenodd"></path><path d="M852.66 -0.52 C849.47 1.94, 845.63 4.54, 839.07 5.83 M852.66 -0.52 C849.38 1.55, 845.07 3.28, 839.07 5.83 M839.07 5.83 C839.63 0.65, 839.48 -3.62, 839.06 -6.85 M839.07 5.83 C839.55 2.46, 839.73 -1.7, 839.06 -6.85 M839.06 -6.85 C844.63 -5.91, 849.28 -3.18, 852.66 -0.52 M839.06 -6.85 C843.37 -5.44, 847.18 -2.26, 852.66 -0.52 M852.66 -0.52 C852.66 -0.52, 852.66 -0.52, 852.66 -0.52 M852.66 -0.52 C852.66 -0.52, 852.66 -0.52, 852.66 -0.52" stroke="#1e1e1e" stroke-width="1" fill="none"></path></g></g><mask></mask><g transform="translate(464.3886048453187 815.8809523809522) rotate(0 47.409950256347656 12.5)"><text x="47.409950256347656" y="17.52" font-family="Virgil, Segoe UI Emoji" font-size="20px" fill="#1e1e1e" text-anchor="middle" style="white-space: pre;" direction="ltr" dominant-baseline="alphabetic">Key range</text></g><g stroke-linecap="round" transform="translate(721.8104598635709 168.3095238095225) rotate(0 84.42857142857133 37)"><path d="M18.5 0 C63.08 -1.18, 107.49 0.32, 150.36 0 M18.5 0 C64.65 0, 110.18 -0.03, 150.36 0 M150.36 0 C161.39 0.77, 167.71 5.77, 168.86 18.5 M150.36 0 C161.69 -0.29, 170.41 6.83, 168.86 18.5 M168.86 18.5 C170.45 33.49, 169.81 46.23, 168.86 55.5 M168.86 18.5 C167.78 31.28, 169.14 44.61, 168.86 55.5 M168.86 55.5 C169.1 69.81, 161.88 75.42, 150.36 74 M168.86 55.5 C168.47 68.84, 164.51 74.25, 150.36 74 M150.36 74 C111.51 71.95, 72.45 73.2, 18.5 74 M150.36 74 C121.37 75.36, 92.53 75.24, 18.5 74 M18.5 74 C7.75 74.66, -1.39 66.08, 0 55.5 M18.5 74 C7.33 73.6, 0.32 66.39, 0 55.5 M0 55.5 C-1.11 42.34, 0.42 29.19, 0 18.5 M0 55.5 C0.17 45.05, -0.12 37.17, 0 18.5 M0 18.5 C-0.91 4.94, 7.71 -0.17, 18.5 0 M0 18.5 C1.73 7.02, 7.82 1.16, 18.5 0" stroke="#1e1e1e" stroke-width="1" fill="none"></path></g><g stroke-linecap="round" transform="translate(82.13971673874721 176.3616767216712) rotate(0 114.42857142857156 37)"><path d="M18.5 0 C87.98 -1.02, 154.15 -2.94, 210.36 0 M18.5 0 C93.13 -0.29, 167.59 -1.19, 210.36 0 M210.36 0 C223.07 -0.49, 228.92 6.3, 228.86 18.5 M210.36 0 C221.51 -0.55, 226.83 6.01, 228.86 18.5 M228.86 18.5 C228.04 26.74, 227.04 37.64, 228.86 55.5 M228.86 18.5 C228.2 30.32, 228.55 41.92, 228.86 55.5 M228.86 55.5 C229.43 69.76, 223.19 74.71, 210.36 74 M228.86 55.5 C230.97 67.35, 221.62 76.24, 210.36 74 M210.36 74 C158.51 76.01, 108.05 75.04, 18.5 74 M210.36 74 C170.33 75.74, 129.61 76.05, 18.5 74 M18.5 74 C5.57 75.8, -1.87 66, 0 55.5 M18.5 74 C4.61 75.44, -2.04 69.28, 0 55.5 M0 55.5 C1.11 42.9, 1.53 28.03, 0 18.5 M0 55.5 C0.78 46.66, -0.6 38.85, 0 18.5 M0 18.5 C-0.67 5.56, 6.9 -0.73, 18.5 0 M0 18.5 C0.34 7.33, 7.97 1.36, 18.5 0" stroke="#1e1e1e" stroke-width="1" fill="none"></path></g><g stroke-linecap="round" transform="translate(84.35797070700028 408.6632640232573) rotate(0 96.2480158730159 37)"><path d="M18.5 0 C52.11 -1.46, 88.71 -0.47, 174 0 M18.5 0 C61.02 0.86, 103.26 1.14, 174 0 M174 0 C186.62 -1.74, 191.91 5.34, 192.5 18.5 M174 0 C188.06 0.86, 194.02 5.91, 192.5 18.5 M192.5 18.5 C191.79 32.56, 191.61 47.87, 192.5 55.5 M192.5 18.5 C192.01 32.48, 193.39 45.07, 192.5 55.5 M192.5 55.5 C193.76 67.12, 187.74 75.15, 174 74 M192.5 55.5 C193.91 69.19, 185.61 72.74, 174 74 M174 74 C138.78 74.74, 103.35 75.76, 18.5 74 M174 74 C139.64 73.77, 105.77 74, 18.5 74 M18.5 74 C8.03 72.98, -0.91 69.76, 0 55.5 M18.5 74 C4.35 72.14, -0.25 68.03, 0 55.5 M0 55.5 C1.87 41.67, -0.07 28.03, 0 18.5 M0 55.5 C0.4 41.33, 0.25 26.44, 0 18.5 M0 18.5 C1.73 7.31, 6.08 1.35, 18.5 0 M0 18.5 C-2.14 5.5, 7.41 -1.13, 18.5 0" stroke="#1e1e1e" stroke-width="1" fill="none"></path></g><g transform="translate(147.8760137406607 433.1632640232573) rotate(0 32.72997283935547 12.5)"><text x="32.72997283935547" y="17.52" font-family="Virgil, Segoe UI Emoji" font-size="20px" fill="#1e1e1e" text-anchor="middle" style="white-space: pre;" direction="ltr" dominant-baseline="alphabetic">64 MB</text></g><g stroke-linecap="round" transform="translate(287.1913040403342 408.7188195788133) rotate(0 103.7480158730159 37)"><path d="M18.5 0 C80.18 0.2, 138.73 -0.71, 189 0 M18.5 0 C84.79 0.69, 151.75 1.55, 189 0 M189 0 C200.1 -0.59, 208.25 7.7, 207.5 18.5 M189 0 C201.36 0.48, 208.92 3.95, 207.5 18.5 M207.5 18.5 C205.98 26.45, 206.93 36.91, 207.5 55.5 M207.5 18.5 C206.39 28.24, 207.73 36.66, 207.5 55.5 M207.5 55.5 C208.57 68.9, 203.31 74.44, 189 74 M207.5 55.5 C207.37 68.38, 200.4 72.53, 189 74 M189 74 C133.25 74.81, 72.93 72.89, 18.5 74 M189 74 C154.8 74.26, 120.26 73.85, 18.5 74 M18.5 74 C5.77 73.33, 0.39 67.16, 0 55.5 M18.5 74 C6.41 75.51, 0.22 68.37, 0 55.5 M0 55.5 C-0.29 46.44, 0.15 37.01, 0 18.5 M0 55.5 C-1.22 41.35, -1.25 25.84, 0 18.5 M0 18.5 C0.47 4.74, 7.62 1.8, 18.5 0 M0 18.5 C-2.12 4.4, 5.46 1.64, 18.5 0" stroke="#1e1e1e" stroke-width="1" fill="none"></path></g><g transform="translate(358.20934707399465 433.2188195788133) rotate(0 32.72997283935547 12.5)"><text x="32.72997283935547" y="17.52" font-family="Virgil, Segoe UI Emoji" font-size="20px" fill="#1e1e1e" text-anchor="middle" style="white-space: pre;" direction="ltr" dominant-baseline="alphabetic">64 MB</text></g><g stroke-linecap="round" transform="translate(509.4135262625555 412.46881957881317) rotate(0 99.3730158730159 37)"><path d="M18.5 0 C60.34 0.93, 102.65 0.27, 180.25 0 M18.5 0 C63.41 2.52, 109.22 1.67, 180.25 0 M180.25 0 C192.92 -0.04, 198.64 4.59, 198.75 18.5 M180.25 0 C194.58 2.21, 198.35 3.9, 198.75 18.5 M198.75 18.5 C199.78 28.93, 196.6 37.45, 198.75 55.5 M198.75 18.5 C199.4 32.83, 199.59 47.39, 198.75 55.5 M198.75 55.5 C200.26 66.58, 193.77 75.3, 180.25 74 M198.75 55.5 C199.59 69.82, 192.48 72.57, 180.25 74 M180.25 74 C145.35 73.71, 108.61 73.89, 18.5 74 M180.25 74 C117.47 72.32, 56.36 73.64, 18.5 74 M18.5 74 C7.32 72.34, -1.19 67.98, 0 55.5 M18.5 74 C6.33 74.16, -1.18 69.13, 0 55.5 M0 55.5 C-1.58 45.49, 1.15 37.43, 0 18.5 M0 55.5 C1.24 44.06, -0.64 32.46, 0 18.5 M0 18.5 C1.54 5.26, 7.35 -0.94, 18.5 0 M0 18.5 C1.44 7.65, 5.82 -0.4, 18.5 0" stroke="#1e1e1e" stroke-width="1" fill="none"></path></g><g transform="translate(576.0565692962159 436.96881957881317) rotate(0 32.72997283935547 12.5)"><text x="32.72997283935547" y="17.52" font-family="Virgil, Segoe UI Emoji" font-size="20px" fill="#1e1e1e" text-anchor="middle" style="white-space: pre;" direction="ltr" dominant-baseline="alphabetic">64 MB</text></g><g stroke-linecap="round" transform="translate(723.4413040403338 415.1077084677021) rotate(0 94.9980158730159 37)"><path d="M18.5 0 C51.63 -2.29, 81.26 -0.48, 171.5 0 M18.5 0 C66.05 0.4, 113.12 0.55, 171.5 0 M171.5 0 C182.49 -0.32, 191.39 7.49, 190 18.5 M171.5 0 C184.29 -1.81, 189.64 8.35, 190 18.5 M190 18.5 C191.19 30.18, 190.83 42.72, 190 55.5 M190 18.5 C190.06 32.29, 189.32 46.08, 190 55.5 M190 55.5 C191.51 68.28, 183.17 74.11, 171.5 74 M190 55.5 C190.96 67.28, 182.82 74.94, 171.5 74 M171.5 74 C111.64 74.66, 56.57 72.86, 18.5 74 M171.5 74 C124.3 74.35, 77.38 73.25, 18.5 74 M18.5 74 C5.09 73.92, -0.22 65.86, 0 55.5 M18.5 74 C4.43 74.18, 0.23 67.55, 0 55.5 M0 55.5 C-0.98 46.77, -0.85 34.24, 0 18.5 M0 55.5 C0.06 42.24, 0.21 30.41, 0 18.5 M0 18.5 C-0.07 7.08, 8.09 -0.7, 18.5 0 M0 18.5 C1.21 6.93, 5.51 -0.19, 18.5 0" stroke="#e03131" stroke-width="1" fill="none"></path></g><g transform="translate(785.7093470739942 439.6077084677021) rotate(0 32.72997283935547 12.5)"><text x="32.72997283935547" y="17.52" font-family="Virgil, Segoe UI Emoji" font-size="20px" fill="#e03131" text-anchor="middle" style="white-space: pre;" direction="ltr" dominant-baseline="alphabetic">64 MB</text></g><g stroke-linecap="round" transform="translate(506.4968595958899 325.38548624547957) rotate(0 104.47222222222217 37)"><path d="M18.5 0 C54.66 -0.31, 92.02 -0.51, 190.44 0 M18.5 0 C87.59 -1.56, 155.12 -1.32, 190.44 0 M190.44 0 C204.2 0.48, 208.94 4.57, 208.94 18.5 M190.44 0 C201.75 1.55, 210.4 7.08, 208.94 18.5 M208.94 18.5 C207.12 31.81, 206.82 46.94, 208.94 55.5 M208.94 18.5 C209.38 30.49, 207.74 40.95, 208.94 55.5 M208.94 55.5 C207.54 68.23, 204.46 74.94, 190.44 74 M208.94 55.5 C209.08 68.96, 201.21 72.72, 190.44 74 M190.44 74 C151.51 76.33, 109.26 74.47, 18.5 74 M190.44 74 C132.8 75.56, 74.42 75.34, 18.5 74 M18.5 74 C6.19 75.48, 0.87 67.85, 0 55.5 M18.5 74 C7.19 75.42, -1.03 67.1, 0 55.5 M0 55.5 C0.85 43.45, 1.31 28.8, 0 18.5 M0 55.5 C-0.12 44.38, -1.18 34.02, 0 18.5 M0 18.5 C0.78 5.32, 7.25 0.54, 18.5 0 M0 18.5 C0.04 7.13, 7.38 1.2, 18.5 0" stroke="#1e1e1e" stroke-width="1" fill="none"></path></g><g transform="translate(578.2391089787566 349.88548624547957) rotate(0 32.72997283935547 12.5)"><text x="32.72997283935547" y="17.52" font-family="Virgil, Segoe UI Emoji" font-size="20px" fill="#1e1e1e" text-anchor="middle" style="white-space: pre;" direction="ltr" dominant-baseline="alphabetic">64 MB</text></g><g stroke-linecap="round" transform="translate(823.1426929292224 513.1632640232574) rotate(0 43.1230158730159 37)"><path d="M18.5 0 C29.62 -1.5, 42.34 1.3, 67.75 0 M18.5 0 C36.12 0.65, 52.15 -0.54, 67.75 0 M67.75 0 C78.98 1.36, 87.61 5.42, 86.25 18.5 M67.75 0 C81.13 -1.88, 84.9 6.42, 86.25 18.5 M86.25 18.5 C85.68 30.78, 85.63 42.75, 86.25 55.5 M86.25 18.5 C86.75 25.56, 85.62 33.73, 86.25 55.5 M86.25 55.5 C85.32 68.06, 80.03 72.87, 67.75 74 M86.25 55.5 C87.78 66.67, 81.41 72.57, 67.75 74 M67.75 74 C52.42 75.68, 37.13 74.41, 18.5 74 M67.75 74 C49.22 72.95, 29.97 73.14, 18.5 74 M18.5 74 C5.1 72.64, 0.26 66.88, 0 55.5 M18.5 74 C7.84 72.8, -2.2 67.04, 0 55.5 M0 55.5 C-1.32 40.18, -1.46 27.88, 0 18.5 M0 55.5 C-0.62 44.71, -0.77 33.49, 0 18.5 M0 18.5 C1.79 5.54, 4.97 1.87, 18.5 0 M0 18.5 C-0.72 6.64, 5.68 -1.44, 18.5 0" stroke="#1e1e1e" stroke-width="1" fill="none"></path></g><g transform="translate(833.5357359628829 537.6632640232574) rotate(0 32.72997283935547 12.5)"><text x="32.72997283935547" y="17.52" font-family="Virgil, Segoe UI Emoji" font-size="20px" fill="#1e1e1e" text-anchor="middle" style="white-space: pre;" direction="ltr" dominant-baseline="alphabetic">64 MB</text></g><g stroke-linecap="round" transform="translate(724.6704707070007 512.0521529121463) rotate(0 43.7480158730159 37)"><path d="M18.5 0 C32.12 -1.01, 42.67 0.16, 69 0 M18.5 0 C35.11 1.08, 53.49 0.03, 69 0 M69 0 C82.24 -1.64, 86.33 6.39, 87.5 18.5 M69 0 C82.09 -2.15, 88.18 5.91, 87.5 18.5 M87.5 18.5 C85.53 27.92, 88.38 42.14, 87.5 55.5 M87.5 18.5 C86.91 27.91, 87.35 36.54, 87.5 55.5 M87.5 55.5 C88.83 66.82, 82.49 72.76, 69 74 M87.5 55.5 C88.01 65.95, 83.25 74.62, 69 74 M69 74 C52.26 73.43, 32.04 74.39, 18.5 74 M69 74 C58.27 72.92, 48.74 73.12, 18.5 74 M18.5 74 C7.62 72.96, -1.91 67.14, 0 55.5 M18.5 74 C7.98 73.1, -0.43 66.15, 0 55.5 M0 55.5 C0.1 46.81, 0.48 36.89, 0 18.5 M0 55.5 C1.18 44.24, -0.31 34.54, 0 18.5 M0 18.5 C-0.63 6.58, 5.75 -1.25, 18.5 0 M0 18.5 C-2.08 7.3, 5.11 0.17, 18.5 0" stroke="#1e1e1e" stroke-width="1" fill="none"></path></g><g transform="translate(735.6885137406612 536.5521529121463) rotate(0 32.72997283935547 12.5)"><text x="32.72997283935547" y="17.52" font-family="Virgil, Segoe UI Emoji" font-size="20px" fill="#1e1e1e" text-anchor="middle" style="white-space: pre;" direction="ltr" dominant-baseline="alphabetic">64 MB</text></g><g stroke-linecap="round" transform="translate(92.35102626255639 618.524375134368) rotate(0 91.2480158730159 37)"><path d="M18.5 0 C58.86 -2.42, 96.04 -1.54, 164 0 M18.5 0 C72.53 -0.27, 125.07 0.65, 164 0 M164 0 C176.99 -1.87, 183.09 5.94, 182.5 18.5 M164 0 C176.28 -0.31, 182.05 3.96, 182.5 18.5 M182.5 18.5 C181.7 25.98, 182.92 33.84, 182.5 55.5 M182.5 18.5 C183.15 29.5, 183.07 40.9, 182.5 55.5 M182.5 55.5 C182.94 66.2, 178 74.54, 164 74 M182.5 55.5 C183.95 69.12, 176.32 75.85, 164 74 M164 74 C122.51 73.65, 83.36 73.22, 18.5 74 M164 74 C130.94 72.79, 95.47 72.96, 18.5 74 M18.5 74 C7.74 73.22, -0.37 66.37, 0 55.5 M18.5 74 C4.67 72.16, 0.47 67.61, 0 55.5 M0 55.5 C-0.12 42.85, -1.07 35.08, 0 18.5 M0 55.5 C-0.09 45.76, 0.01 34.99, 0 18.5 M0 18.5 C-1.81 7.15, 5.25 0.15, 18.5 0 M0 18.5 C-0.37 7.03, 7.78 -0.75, 18.5 0" stroke="#1e1e1e" stroke-width="1" fill="none"></path></g><g transform="translate(150.86906929621682 643.024375134368) rotate(0 32.72997283935547 12.5)"><text x="32.72997283935547" y="17.52" font-family="Virgil, Segoe UI Emoji" font-size="20px" fill="#1e1e1e" text-anchor="middle" style="white-space: pre;" direction="ltr" dominant-baseline="alphabetic">64 MB</text></g><g stroke-linecap="round" transform="translate(295.1843595958903 618.5799306899241) rotate(0 96.8730158730159 37)"><path d="M18.5 0 C51.44 2.22, 80.91 1.77, 175.25 0 M18.5 0 C53.04 -1.11, 87.21 -0.29, 175.25 0 M175.25 0 C187.54 -0.27, 193.35 4.25, 193.75 18.5 M175.25 0 C185.74 1.08, 195.58 5.05, 193.75 18.5 M193.75 18.5 C194.01 28.34, 192.67 39.61, 193.75 55.5 M193.75 18.5 C194.18 26.91, 194.8 37.22, 193.75 55.5 M193.75 55.5 C195.01 68.95, 187.57 75.61, 175.25 74 M193.75 55.5 C193.09 67.53, 188.03 71.74, 175.25 74 M175.25 74 C131.86 73.42, 90.23 74.62, 18.5 74 M175.25 74 C137.19 73.07, 97.37 72.73, 18.5 74 M18.5 74 C4.86 72.4, 0.41 67.64, 0 55.5 M18.5 74 C6.17 74.21, -1.42 67.74, 0 55.5 M0 55.5 C-0.43 46.06, 2.06 38.38, 0 18.5 M0 55.5 C-0.83 44.13, -0.38 31.84, 0 18.5 M0 18.5 C-0.32 6.91, 7.57 -0.65, 18.5 0 M0 18.5 C-2.21 5.13, 4.34 -1.9, 18.5 0" stroke="#1e1e1e" stroke-width="1" fill="none"></path></g><g transform="translate(359.32740262955076 643.0799306899241) rotate(0 32.72997283935547 12.5)"><text x="32.72997283935547" y="17.52" font-family="Virgil, Segoe UI Emoji" font-size="20px" fill="#1e1e1e" text-anchor="middle" style="white-space: pre;" direction="ltr" dominant-baseline="alphabetic">64 MB</text></g><g stroke-linecap="round" transform="translate(517.406581818112 616.0799306899241) rotate(0 89.9980158730159 37)"><path d="M18.5 0 C69.52 -1.82, 124.04 0.01, 161.5 0 M18.5 0 C48.04 0.03, 77.42 -0.8, 161.5 0 M161.5 0 C172.23 0.94, 181.59 5.2, 180 18.5 M161.5 0 C173.08 0.28, 178.93 6.42, 180 18.5 M180 18.5 C178.77 30.68, 178.54 40.98, 180 55.5 M180 18.5 C180.94 27.14, 180.3 35.45, 180 55.5 M180 55.5 C179.43 67.57, 174.22 72.04, 161.5 74 M180 55.5 C179.26 66, 172.6 72.44, 161.5 74 M161.5 74 C115.73 73.13, 71.36 76.62, 18.5 74 M161.5 74 C123.52 72.15, 87.05 72.86, 18.5 74 M18.5 74 C6.17 74.18, -1.24 67.75, 0 55.5 M18.5 74 C4.39 72.81, 2.06 67.11, 0 55.5 M0 55.5 C0.07 46.19, -1.6 35.9, 0 18.5 M0 55.5 C0.01 42.96, 0.87 29.34, 0 18.5 M0 18.5 C-1.92 5.27, 4.58 -1.66, 18.5 0 M0 18.5 C-1.85 7.48, 5.89 2.14, 18.5 0" stroke="#1e1e1e" stroke-width="1" fill="none"></path></g><g transform="translate(574.6746248517725 640.5799306899241) rotate(0 32.72997283935547 12.5)"><text x="32.72997283935547" y="17.52" font-family="Virgil, Segoe UI Emoji" font-size="20px" fill="#1e1e1e" text-anchor="middle" style="white-space: pre;" direction="ltr" dominant-baseline="alphabetic">64 MB</text></g><g stroke-linecap="round" transform="translate(725.1843595958903 616.2188195788128) rotate(0 89.3730158730159 37)"><path d="M18.5 0 C50.88 0.13, 86.76 -0.51, 160.25 0 M18.5 0 C58.33 1.83, 100.56 0.87, 160.25 0 M160.25 0 C171.92 0.25, 177.82 6.39, 178.75 18.5 M160.25 0 C172.53 -1.29, 180.28 5, 178.75 18.5 M178.75 18.5 C176.88 33.42, 179.06 46.26, 178.75 55.5 M178.75 18.5 C178.46 31.54, 178.94 43.86, 178.75 55.5 M178.75 55.5 C178.11 66.24, 171.51 72.64, 160.25 74 M178.75 55.5 C179.04 66.74, 174.25 72.8, 160.25 74 M160.25 74 C130.48 74.74, 100.82 73.81, 18.5 74 M160.25 74 C129.06 73.95, 97.26 73.82, 18.5 74 M18.5 74 C4.62 72.96, 1.79 67.21, 0 55.5 M18.5 74 C4.8 76.15, -0.72 68.31, 0 55.5 M0 55.5 C1.21 44.26, 0.38 34.54, 0 18.5 M0 55.5 C-1.22 42.57, -1.05 29.7, 0 18.5 M0 18.5 C-1.61 7.31, 5.93 1.86, 18.5 0 M0 18.5 C-1.82 5.83, 4.89 -0.78, 18.5 0" stroke="#1e1e1e" stroke-width="1" fill="none"></path></g><g transform="translate(781.8274026295508 640.7188195788128) rotate(0 32.72997283935547 12.5)"><text x="32.72997283935547" y="17.52" font-family="Virgil, Segoe UI Emoji" font-size="20px" fill="#1e1e1e" text-anchor="middle" style="white-space: pre;" direction="ltr" dominant-baseline="alphabetic">64 MB</text></g><g transform="translate(23.625443231491772 529.052152912146) rotate(0 12.79998779296875 12.5)"><text x="12.79998779296875" y="17.52" font-family="Virgil, Segoe UI Emoji" font-size="20px" fill="#1e1e1e" text-anchor="middle" style="white-space: pre;" direction="ltr" dominant-baseline="alphabetic">L3</text></g><g transform="translate(25.285439264207525 651.5521529121461) rotate(0 12.389991760253906 12.5)"><text x="12.389991760253906" y="17.52" font-family="Virgil, Segoe UI Emoji" font-size="20px" fill="#1e1e1e" text-anchor="middle" style="white-space: pre;" direction="ltr" dominant-baseline="alphabetic">L4</text></g><g stroke-linecap="round" transform="translate(621.2885262625555 511.3577084677015) rotate(0 43.1230158730159 37)"><path d="M18.5 0 C38.46 0.38, 56.33 0.35, 67.75 0 M18.5 0 C33.82 -0.17, 47.49 1.18, 67.75 0 M67.75 0 C78.38 1.12, 87.92 4.95, 86.25 18.5 M67.75 0 C79.53 2.14, 85.67 4.95, 86.25 18.5 M86.25 18.5 C86.67 31.58, 84.78 48.68, 86.25 55.5 M86.25 18.5 C85.56 32.7, 87.06 45.45, 86.25 55.5 M86.25 55.5 C87.54 68.66, 81.46 73.41, 67.75 74 M86.25 55.5 C86.59 68.4, 79.81 76.28, 67.75 74 M67.75 74 C52.92 73.02, 33.95 75.71, 18.5 74 M67.75 74 C55.68 72.81, 44.8 72.87, 18.5 74 M18.5 74 C6.84 73.96, 1.65 68.06, 0 55.5 M18.5 74 C7.22 74.89, -0.95 66.53, 0 55.5 M0 55.5 C-0.46 41.42, 1.08 27.57, 0 18.5 M0 55.5 C-0.41 41.56, -0.39 29.58, 0 18.5 M0 18.5 C-0.69 7.18, 7.12 -1.27, 18.5 0 M0 18.5 C-0.26 6.01, 4.28 1.29, 18.5 0" stroke="#1e1e1e" stroke-width="1" fill="none"></path></g><g transform="translate(631.6815692962159 535.8577084677015) rotate(0 32.72997283935547 12.5)"><text x="32.72997283935547" y="17.52" font-family="Virgil, Segoe UI Emoji" font-size="20px" fill="#1e1e1e" text-anchor="middle" style="white-space: pre;" direction="ltr" dominant-baseline="alphabetic">64 MB</text></g><g stroke-linecap="round" transform="translate(522.8163040403347 510.24659735659066) rotate(0 43.7480158730159 37)"><path d="M18.5 0 C34.51 -1.51, 48.72 1.39, 69 0 M18.5 0 C29.49 0.21, 43.03 -0.96, 69 0 M69 0 C80.85 1.86, 87 5.11, 87.5 18.5 M69 0 C83.22 0.33, 86.08 6.59, 87.5 18.5 M87.5 18.5 C88.48 29.12, 86.48 34.86, 87.5 55.5 M87.5 18.5 C88.34 32.85, 88.38 46.08, 87.5 55.5 M87.5 55.5 C87.8 68.33, 81.1 75.98, 69 74 M87.5 55.5 C88.25 69.69, 82.99 75.79, 69 74 M69 74 C55.76 73.79, 44.51 72.6, 18.5 74 M69 74 C59.07 73.52, 49.29 73.66, 18.5 74 M18.5 74 C7.09 74.78, -0.82 66.7, 0 55.5 M18.5 74 C7.4 73.78, -0.34 67.26, 0 55.5 M0 55.5 C1.04 44.61, -0.99 35.54, 0 18.5 M0 55.5 C-0.09 46.96, 0.73 36.76, 0 18.5 M0 18.5 C-0.23 6.03, 4.52 1.12, 18.5 0 M0 18.5 C-2.19 7.8, 8.02 -1.74, 18.5 0" stroke="#1e1e1e" stroke-width="1" fill="none"></path></g><g transform="translate(533.8343470739951 534.7465973565907) rotate(0 32.72997283935547 12.5)"><text x="32.72997283935547" y="17.52" font-family="Virgil, Segoe UI Emoji" font-size="20px" fill="#1e1e1e" text-anchor="middle" style="white-space: pre;" direction="ltr" dominant-baseline="alphabetic">64 MB</text></g><g stroke-linecap="round" transform="translate(397.5385262625555 507.6077084677015) rotate(0 43.1230158730159 37)"><path d="M18.5 0 C32.2 -0.02, 49.99 1.33, 67.75 0 M18.5 0 C29.4 0.31, 40.85 -0.12, 67.75 0 M67.75 0 C78.49 -0.1, 84.3 5, 86.25 18.5 M67.75 0 C79.2 -0.55, 84.42 6.76, 86.25 18.5 M86.25 18.5 C86.14 27.71, 85.78 36.39, 86.25 55.5 M86.25 18.5 C86.97 32.13, 85.76 44.8, 86.25 55.5 M86.25 55.5 C87.83 69.65, 80.1 74.39, 67.75 74 M86.25 55.5 C84.67 69.9, 79.41 72.14, 67.75 74 M67.75 74 C59.61 74.1, 48.24 73.6, 18.5 74 M67.75 74 C50.99 74.84, 34.22 73.54, 18.5 74 M18.5 74 C4.37 72.72, 1.03 68.86, 0 55.5 M18.5 74 C6.46 75.64, 0.42 67.99, 0 55.5 M0 55.5 C-0.18 44.43, 1 33.39, 0 18.5 M0 55.5 C-1.04 43.19, 0.71 32.45, 0 18.5 M0 18.5 C0.26 6.38, 6.35 1.83, 18.5 0 M0 18.5 C-1.55 5.8, 7.95 2.18, 18.5 0" stroke="#1e1e1e" stroke-width="1" fill="none"></path></g><g transform="translate(407.9315692962159 532.1077084677015) rotate(0 32.72997283935547 12.5)"><text x="32.72997283935547" y="17.52" font-family="Virgil, Segoe UI Emoji" font-size="20px" fill="#1e1e1e" text-anchor="middle" style="white-space: pre;" direction="ltr" dominant-baseline="alphabetic">64 MB</text></g><g stroke-linecap="round" transform="translate(299.06630404033467 506.49659735659066) rotate(0 43.7480158730159 37)"><path d="M18.5 0 C32.93 1.42, 48.4 -0.83, 69 0 M18.5 0 C31.98 0.25, 46.08 -0.28, 69 0 M69 0 C80.56 -0.48, 85.91 6.69, 87.5 18.5 M69 0 C80.08 -0.55, 86.77 6.14, 87.5 18.5 M87.5 18.5 C88.46 31.07, 87.67 42.11, 87.5 55.5 M87.5 18.5 C88.02 32.78, 87.24 45.44, 87.5 55.5 M87.5 55.5 C86.13 69.63, 80.74 72.38, 69 74 M87.5 55.5 C85.25 67.66, 79.37 76.1, 69 74 M69 74 C53.28 73.54, 35.68 73.69, 18.5 74 M69 74 C48.19 73.18, 29.69 74.33, 18.5 74 M18.5 74 C6.43 75.43, 0.37 67.97, 0 55.5 M18.5 74 C6.53 72.75, 2.28 67.4, 0 55.5 M0 55.5 C0.06 44.45, -0.73 29.38, 0 18.5 M0 55.5 C-0.21 47.56, -0.25 40.33, 0 18.5 M0 18.5 C-1.35 5.85, 7.72 1.9, 18.5 0 M0 18.5 C0.08 6.59, 7.45 -0.86, 18.5 0" stroke="#1e1e1e" stroke-width="1" fill="none"></path></g><g transform="translate(310.0843470739951 530.9965973565907) rotate(0 32.72997283935547 12.5)"><text x="32.72997283935547" y="17.52" font-family="Virgil, Segoe UI Emoji" font-size="20px" fill="#1e1e1e" text-anchor="middle" style="white-space: pre;" direction="ltr" dominant-baseline="alphabetic">64 MB</text></g><g stroke-linecap="round" transform="translate(187.53852626255548 508.8577084677015) rotate(0 43.1230158730159 37)"><path d="M18.5 0 C37.03 -0.32, 58.43 -0.14, 67.75 0 M18.5 0 C32.6 0.16, 48.4 -0.76, 67.75 0 M67.75 0 C80.08 -1.98, 86.96 6.22, 86.25 18.5 M67.75 0 C79.68 -1.93, 85.64 5.34, 86.25 18.5 M86.25 18.5 C86.01 27.11, 86.26 39.09, 86.25 55.5 M86.25 18.5 C86.18 29.17, 85.15 38.77, 86.25 55.5 M86.25 55.5 C87.73 67.42, 79.53 75.3, 67.75 74 M86.25 55.5 C84.14 68.27, 79.82 75.07, 67.75 74 M67.75 74 C55.52 73, 44.02 74.22, 18.5 74 M67.75 74 C50.71 73.83, 33.03 74.46, 18.5 74 M18.5 74 C7.92 72.22, -0.21 67.37, 0 55.5 M18.5 74 C6.01 72.07, -0.4 69.31, 0 55.5 M0 55.5 C0.97 44, 1.54 33.96, 0 18.5 M0 55.5 C1.05 42.65, 0.4 32.44, 0 18.5 M0 18.5 C1.4 5.35, 4.19 -1.73, 18.5 0 M0 18.5 C-0.71 4.11, 7.06 -0.85, 18.5 0" stroke="#1e1e1e" stroke-width="1" fill="none"></path></g><g transform="translate(197.9315692962159 533.3577084677015) rotate(0 32.72997283935547 12.5)"><text x="32.72997283935547" y="17.52" font-family="Virgil, Segoe UI Emoji" font-size="20px" fill="#1e1e1e" text-anchor="middle" style="white-space: pre;" direction="ltr" dominant-baseline="alphabetic">64 MB</text></g><g stroke-linecap="round" transform="translate(89.06630404033467 507.74659735659066) rotate(0 43.7480158730159 37)"><path d="M18.5 0 C32.31 0.81, 46.3 -1.32, 69 0 M18.5 0 C34.71 -0.63, 51.27 0.39, 69 0 M69 0 C80.99 -1.67, 86.97 5.44, 87.5 18.5 M69 0 C80.21 0.69, 89.76 5.77, 87.5 18.5 M87.5 18.5 C86.86 27.76, 88.56 38.24, 87.5 55.5 M87.5 18.5 C87.87 32.05, 86.85 46.66, 87.5 55.5 M87.5 55.5 C85.66 68.21, 81.1 74.93, 69 74 M87.5 55.5 C86.12 69.13, 82.24 73.54, 69 74 M69 74 C57.92 72.3, 46.43 74.7, 18.5 74 M69 74 C57.68 73.13, 44.51 73.79, 18.5 74 M18.5 74 C6.03 72.32, -0.35 69.12, 0 55.5 M18.5 74 C5.51 76.3, -1.54 69.37, 0 55.5 M0 55.5 C0.14 46.13, -1.87 40.44, 0 18.5 M0 55.5 C0.62 47.09, -1.07 38.63, 0 18.5 M0 18.5 C-0.62 4.38, 6.94 -0.74, 18.5 0 M0 18.5 C0.34 5.39, 7.76 0.52, 18.5 0" stroke="#1e1e1e" stroke-width="1" fill="none"></path></g><g transform="translate(100.0843470739951 532.2465973565907) rotate(0 32.72997283935547 12.5)"><text x="32.72997283935547" y="17.52" font-family="Virgil, Segoe UI Emoji" font-size="20px" fill="#1e1e1e" text-anchor="middle" style="white-space: pre;" direction="ltr" dominant-baseline="alphabetic">64 MB</text></g><g stroke-linecap="round" transform="translate(724.4532088022379 324.7307243407174) rotate(0 93.04365079365084 37)"><path d="M18.5 0 C48.87 0, 83.44 -3.09, 167.59 0 M18.5 0 C74.81 -1.45, 128.97 -0.46, 167.59 0 M167.59 0 C181.01 1.1, 187.08 7.05, 186.09 18.5 M167.59 0 C180.58 -0.84, 186.97 7.16, 186.09 18.5 M186.09 18.5 C185.09 33.48, 187.01 45.14, 186.09 55.5 M186.09 18.5 C186.49 28.43, 186.47 39.54, 186.09 55.5 M186.09 55.5 C187.31 66.55, 179.17 75.87, 167.59 74 M186.09 55.5 C185.7 68.67, 181.15 72.13, 167.59 74 M167.59 74 C129.31 74.43, 93.39 73.93, 18.5 74 M167.59 74 C114.1 74.09, 62.54 74.06, 18.5 74 M18.5 74 C6.84 72.61, -0.03 67.29, 0 55.5 M18.5 74 C7.5 72.87, -1.61 69.91, 0 55.5 M0 55.5 C-0.28 43.57, -1.59 32.6, 0 18.5 M0 55.5 C-1.07 48.82, -0.02 41.3, 0 18.5 M0 18.5 C-1.11 6.25, 5.12 1.52, 18.5 0 M0 18.5 C2.21 7.2, 8.41 1.25, 18.5 0" stroke="#e03131" stroke-width="1" fill="none"></path></g><g transform="translate(784.7668867565335 349.2307243407174) rotate(0 32.72997283935547 12.5)"><text x="32.72997283935547" y="17.52" font-family="Virgil, Segoe UI Emoji" font-size="20px" fill="#e03131" text-anchor="middle" style="white-space: pre;" direction="ltr" dominant-baseline="alphabetic">64 MB</text></g></svg>