<svg version="1.1" xmlns="http://www.w3.org/2000/svg" viewBox="0 0 1551.8932851155573 503.33333333333167" width="1551.8932851155573" height="503.33333333333167">
  <!-- svg-source:excalidraw -->
  
  <defs>
    <style class="style-fonts">
      @font-face {
        font-family: "Virgil";
        src: url("https://excalidraw.com/Virgil.woff2");
      }
      @font-face {
        font-family: "Cascadia";
        src: url("https://excalidraw.com/Cascadia.woff2");
      }
      @font-face {
        font-family: "Assistant";
        src: url("https://excalidraw.com/Assistant-Regular.woff2");
      }
    </style>
    
  </defs>
  <rect x="0" y="0" width="1551.8932851155573" height="503.33333333333167" fill="#ffffff"></rect><g stroke-linecap="round" transform="translate(10 65.33333333333303) rotate(0 48.5 37)"><path d="M18.5 0 C31.61 -0.24, 45.08 1.43, 78.5 0 M18.5 0 C34.86 0.93, 52.44 0.08, 78.5 0 M78.5 0 C92.79 1.62, 97.67 6.79, 97 18.5 M78.5 0 C91.78 -1.94, 95.25 5.52, 97 18.5 M97 18.5 C95.86 26.44, 95.57 38.18, 97 55.5 M97 18.5 C96.33 25.71, 97.19 34.88, 97 55.5 M97 55.5 C96.46 68.86, 90.57 72.25, 78.5 74 M97 55.5 C97.78 68.79, 91.1 75.18, 78.5 74 M78.5 74 C58.1 73.23, 33.4 72.47, 18.5 74 M78.5 74 C65.64 73.87, 51.31 74.75, 18.5 74 M18.5 74 C5.62 75.73, 0.87 66.59, 0 55.5 M18.5 74 C5.86 72.54, -1.8 67.69, 0 55.5 M0 55.5 C1.72 47.36, 1.8 39.2, 0 18.5 M0 55.5 C0.73 45.65, 0.66 35.46, 0 18.5 M0 18.5 C1.18 6.32, 5.45 -1.2, 18.5 0 M0 18.5 C-0.78 8.13, 6.97 1.75, 18.5 0" stroke="#1e1e1e" stroke-width="1" fill="none"></path></g><g transform="translate(25.77002716064453 89.83333333333303) rotate(0 32.72997283935547 12.5)"><text x="32.72997283935547" y="17.52" font-family="Virgil, Segoe UI Emoji" font-size="20px" fill="#1e1e1e" text-anchor="middle" style="white-space: pre;" direction="ltr" dominant-baseline="alphabetic">64 MB</text></g><g stroke-linecap="round" transform="translate(114.5 65.33333333333303) rotate(0 48.5 37)"><path d="M18.5 0 C36.87 -1.98, 54.89 -1.33, 78.5 0 M18.5 0 C40.89 0.98, 61.66 0.48, 78.5 0 M78.5 0 C91.66 -1.68, 95.48 5.6, 97 18.5 M78.5 0 C89.8 -0.53, 97.72 4.96, 97 18.5 M97 18.5 C95.03 28.07, 96.78 33.38, 97 55.5 M97 18.5 C96.72 27.49, 96.85 34.57, 97 55.5 M97 55.5 C97.67 68.66, 91.06 75.03, 78.5 74 M97 55.5 C98.65 69.25, 92.54 76.19, 78.5 74 M78.5 74 C62.58 74.65, 50.76 74.26, 18.5 74 M78.5 74 C62.71 75.14, 47.91 73.65, 18.5 74 M18.5 74 C5.9 72.73, -1.57 67.71, 0 55.5 M18.5 74 C4.02 73.83, 2.12 69.78, 0 55.5 M0 55.5 C-0.65 44.52, -2.1 36.3, 0 18.5 M0 55.5 C0.4 42.02, -0.55 27.79, 0 18.5 M0 18.5 C-0.68 7.88, 6.87 1.52, 18.5 0 M0 18.5 C1.49 8, 4.45 -0.01, 18.5 0" stroke="#1e1e1e" stroke-width="1" fill="none"></path></g><g transform="translate(130.27002716064453 89.83333333333303) rotate(0 32.72997283935547 12.5)"><text x="32.72997283935547" y="17.52" font-family="Virgil, Segoe UI Emoji" font-size="20px" fill="#1e1e1e" text-anchor="middle" style="white-space: pre;" direction="ltr" dominant-baseline="alphabetic">64 MB</text></g><g stroke-linecap="round" transform="translate(221.33333333333303 67.33333333333303) rotate(0 48.5 37)"><path d="M18.5 0 C33.42 1.19, 45.5 2.18, 78.5 0 M18.5 0 C41.78 -1.03, 63.47 -0.47, 78.5 0 M78.5 0 C89.93 -0.46, 97.62 5.11, 97 18.5 M78.5 0 C89.12 -1.55, 97.93 4.19, 97 18.5 M97 18.5 C95.58 31.81, 98.08 44.72, 97 55.5 M97 18.5 C97.29 31.91, 97.07 45.01, 97 55.5 M97 55.5 C98.43 69.07, 92.32 75.91, 78.5 74 M97 55.5 C95.6 67.27, 88.56 72.2, 78.5 74 M78.5 74 C55.96 73.04, 35.99 73.71, 18.5 74 M78.5 74 C55.19 72.99, 31.35 73.56, 18.5 74 M18.5 74 C4.3 73.85, 1.85 69.53, 0 55.5 M18.5 74 C5.59 76.04, -1.17 67.47, 0 55.5 M0 55.5 C1.65 46.91, 2.3 37.45, 0 18.5 M0 55.5 C-0.21 44.97, 0.48 33.5, 0 18.5 M0 18.5 C1.3 7.76, 4.67 -0.01, 18.5 0 M0 18.5 C0.37 5.49, 4.32 -1.04, 18.5 0" stroke="#1e1e1e" stroke-width="1" fill="none"></path></g><g transform="translate(237.10336049397756 91.83333333333303) rotate(0 32.72997283935547 12.5)"><text x="32.72997283935547" y="17.52" font-family="Virgil, Segoe UI Emoji" font-size="20px" fill="#1e1e1e" text-anchor="middle" style="white-space: pre;" direction="ltr" dominant-baseline="alphabetic">64 MB</text></g><g stroke-linecap="round" transform="translate(329.0000000000009 66.33333333333303) rotate(0 48.5 37)"><path d="M18.5 0 C35.41 -1.98, 52.73 -0.75, 78.5 0 M18.5 0 C33.88 0.65, 47.3 -0.48, 78.5 0 M78.5 0 C91.15 -0.75, 96.5 7.2, 97 18.5 M78.5 0 C91.05 -1.98, 97.12 6.95, 97 18.5 M97 18.5 C97.66 31.19, 95.24 42.33, 97 55.5 M97 18.5 C96.79 31.47, 96.87 43.35, 97 55.5 M97 55.5 C96.21 68.29, 91.01 74.02, 78.5 74 M97 55.5 C97.45 69.53, 89.43 75.65, 78.5 74 M78.5 74 C62.93 74.12, 45.88 75.24, 18.5 74 M78.5 74 C55.12 74.93, 31.34 74.88, 18.5 74 M18.5 74 C4.19 74.51, -1.03 67.68, 0 55.5 M18.5 74 C6.61 74.07, -1.32 66.93, 0 55.5 M0 55.5 C-1.72 44.78, 1.64 36.14, 0 18.5 M0 55.5 C-0.38 47, -0.43 38.39, 0 18.5 M0 18.5 C0.79 4.32, 6.49 0.18, 18.5 0 M0 18.5 C-0.18 7.1, 6.19 0.13, 18.5 0" stroke="#1e1e1e" stroke-width="1" fill="none"></path></g><g transform="translate(344.77002716064544 90.83333333333303) rotate(0 32.72997283935547 12.5)"><text x="32.72997283935547" y="17.52" font-family="Virgil, Segoe UI Emoji" font-size="20px" fill="#1e1e1e" text-anchor="middle" style="white-space: pre;" direction="ltr" dominant-baseline="alphabetic">64 MB</text></g><g stroke-linecap="round"><g transform="translate(12.169801829797962 103.44055843779734) rotate(0 46.83176575176776 0)"><path d="M0.46 1.01 C15.82 0.95, 77.13 0.96, 92.47 0.62 M-0.75 0.49 C14.92 -0.01, 78.64 -1.05, 94.55 -1.17" stroke="#1971c2" stroke-width="4" fill="none"></path></g><g transform="translate(12.169801829797962 103.44055843779734) rotate(0 46.83176575176776 0)"><path d="M95.58 -1.23 L82.52 5.25 L82.22 -8.44 L94.14 -2.75" stroke="none" stroke-width="0" fill="#1971c2" fill-rule="evenodd"></path><path d="M94.55 -1.17 C91.45 -0.49, 86.55 1.64, 81.04 5.34 M94.55 -1.17 C91.94 -0.28, 88.53 1.06, 81.04 5.34 M81.04 5.34 C82.2 0.4, 81.73 -3.01, 80.88 -7.34 M81.04 5.34 C80.54 1.9, 80.48 -1.1, 80.88 -7.34 M80.88 -7.34 C86.04 -6.61, 89.92 -3.82, 94.55 -1.17 M80.88 -7.34 C86.06 -5.11, 89.71 -2.34, 94.55 -1.17 M94.55 -1.17 C94.55 -1.17, 94.55 -1.17, 94.55 -1.17 M94.55 -1.17 C94.55 -1.17, 94.55 -1.17, 94.55 -1.17" stroke="#1971c2" stroke-width="4" fill="none"></path></g></g><mask></mask><g stroke-opacity="0.4" fill-opacity="0.4" stroke-linecap="round" transform="translate(14.49999999999909 155.33333333333348) rotate(0 48.5 37)"><path d="M18.5 0 C33.07 0.48, 50.23 0.74, 78.5 0 M78.5 0 C89.08 -1.18, 95.54 4.18, 97 18.5 M97 18.5 C98.1 26.57, 96.32 40.29, 97 55.5 M97 55.5 C97.83 65.94, 89.02 72.45, 78.5 74 M78.5 74 C64.96 74.09, 53.84 73.88, 18.5 74 M18.5 74 C7.58 74.28, -1.69 69.72, 0 55.5 M0 55.5 C-0.56 43.57, 0.24 34.07, 0 18.5 M0 18.5 C1.75 8, 7.14 0.74, 18.5 0" stroke="#1e1e1e" stroke-width="1.5" fill="none" stroke-dasharray="1.5 7"></path></g><g stroke-opacity="0.4" fill-opacity="0.4" transform="translate(30.27002716064362 179.83333333333348) rotate(0 32.72997283935547 12.5)"><text x="32.72997283935547" y="17.52" font-family="Virgil, Segoe UI Emoji" font-size="20px" fill="#1e1e1e" text-anchor="middle" style="white-space: pre;" direction="ltr" dominant-baseline="alphabetic">64 MB</text></g><g stroke-linecap="round" transform="translate(118.99999999999909 155.33333333333348) rotate(0 48.5 37)"><path d="M18.5 0 C35.59 -1.34, 54.72 -2.15, 78.5 0 M18.5 0 C35.22 -1.32, 50.43 0.58, 78.5 0 M78.5 0 C91.66 -1.89, 95.18 4.62, 97 18.5 M78.5 0 C88.85 0.28, 96.51 5.36, 97 18.5 M97 18.5 C98.6 30.28, 95.49 43.39, 97 55.5 M97 18.5 C97.03 29.79, 97.43 42.3, 97 55.5 M97 55.5 C98.75 69.67, 91.8 74.74, 78.5 74 M97 55.5 C97.77 69.92, 91.36 72.64, 78.5 74 M78.5 74 C62.73 73.65, 49.3 73.02, 18.5 74 M78.5 74 C66.53 74.66, 52.62 74.12, 18.5 74 M18.5 74 C7.44 73.72, -0.86 66.51, 0 55.5 M18.5 74 C6.2 74.89, -1.01 65.84, 0 55.5 M0 55.5 C0.68 44.5, -1.08 32.77, 0 18.5 M0 55.5 C-0.2 45.62, 1.12 35.12, 0 18.5 M0 18.5 C-1.93 8.06, 6.38 1.92, 18.5 0 M0 18.5 C1.74 4.38, 7.55 0.95, 18.5 0" stroke="#1e1e1e" stroke-width="1" fill="none"></path></g><g transform="translate(134.77002716064362 179.83333333333348) rotate(0 32.72997283935547 12.5)"><text x="32.72997283935547" y="17.52" font-family="Virgil, Segoe UI Emoji" font-size="20px" fill="#1e1e1e" text-anchor="middle" style="white-space: pre;" direction="ltr" dominant-baseline="alphabetic">64 MB</text></g><g stroke-linecap="round" transform="translate(225.83333333333212 157.33333333333348) rotate(0 48.5 37)"><path d="M18.5 0 C32.32 -0.27, 48.73 1.86, 78.5 0 M18.5 0 C31.35 -1.53, 42.47 -1.36, 78.5 0 M78.5 0 C89.11 0.25, 96.57 5.46, 97 18.5 M78.5 0 C91.08 1.15, 97.01 7.8, 97 18.5 M97 18.5 C96.9 31.24, 98.23 41.38, 97 55.5 M97 18.5 C97.95 29.74, 97.57 39.51, 97 55.5 M97 55.5 C97.67 69.65, 91.29 72.82, 78.5 74 M97 55.5 C95.79 68.74, 92.79 72.95, 78.5 74 M78.5 74 C61.37 75.37, 48.87 75.29, 18.5 74 M78.5 74 C59.34 73.72, 38.48 73.2, 18.5 74 M18.5 74 C6.19 74.77, -0.88 66.1, 0 55.5 M18.5 74 C6.1 72.14, 0.29 68.27, 0 55.5 M0 55.5 C-0.15 42.6, 1.29 32.25, 0 18.5 M0 55.5 C-1.25 43.63, -0.19 30.82, 0 18.5 M0 18.5 C1.51 4.62, 7.37 0.83, 18.5 0 M0 18.5 C-2.16 5.06, 4.65 -1.39, 18.5 0" stroke="#1e1e1e" stroke-width="1" fill="none"></path></g><g transform="translate(241.60336049397665 181.83333333333348) rotate(0 32.72997283935547 12.5)"><text x="32.72997283935547" y="17.52" font-family="Virgil, Segoe UI Emoji" font-size="20px" fill="#1e1e1e" text-anchor="middle" style="white-space: pre;" direction="ltr" dominant-baseline="alphabetic">64 MB</text></g><g stroke-linecap="round" transform="translate(333.5 156.33333333333348) rotate(0 48.5 37)"><path d="M18.5 0 C32.04 -0.89, 51.23 0.45, 78.5 0 M18.5 0 C29.97 0.59, 42.95 0.11, 78.5 0 M78.5 0 C91.05 1, 97 7.58, 97 18.5 M78.5 0 C91.15 -1.95, 99.17 6.42, 97 18.5 M97 18.5 C96.86 32.12, 98.86 46.6, 97 55.5 M97 18.5 C97.52 33.91, 97.41 46.91, 97 55.5 M97 55.5 C95.95 68.62, 92.53 73.09, 78.5 74 M97 55.5 C96.01 68.41, 89.12 72.02, 78.5 74 M78.5 74 C55.65 74.12, 31.14 75.8, 18.5 74 M78.5 74 C61.36 73.99, 43.76 72.74, 18.5 74 M18.5 74 C6.11 72.38, 0.25 68.22, 0 55.5 M18.5 74 C6.16 72.41, -0.85 67.37, 0 55.5 M0 55.5 C0.74 49.32, 0.44 38.06, 0 18.5 M0 55.5 C0.72 40.12, 0.56 26.71, 0 18.5 M0 18.5 C-1.88 5.21, 4.85 -1.21, 18.5 0 M0 18.5 C-1.39 4.52, 5.95 0.81, 18.5 0" stroke="#1e1e1e" stroke-width="1" fill="none"></path></g><g transform="translate(349.27002716064453 180.83333333333348) rotate(0 32.72997283935547 12.5)"><text x="32.72997283935547" y="17.52" font-family="Virgil, Segoe UI Emoji" font-size="20px" fill="#1e1e1e" text-anchor="middle" style="white-space: pre;" direction="ltr" dominant-baseline="alphabetic">64 MB</text></g><g stroke-linecap="round"><g transform="translate(120.00313516312963 193.4405584377978) rotate(0 46.83176575176776 0)"><path d="M0.5 -1.13 C15.98 -1.48, 77.22 -1.14, 92.57 -0.93 M-0.7 0.89 C15.16 1.17, 78.77 0.01, 94.71 0.12" stroke="#1971c2" stroke-width="4" fill="none"></path></g><g transform="translate(120.00313516312963 193.4405584377978) rotate(0 46.83176575176776 0)"><path d="M94.96 0.5 L81.16 5.17 L80.34 -6.53 L92.91 1.15" stroke="none" stroke-width="0" fill="#1971c2" fill-rule="evenodd"></path><path d="M94.71 0.12 C89.65 0.58, 86.19 2.41, 81.16 6.55 M94.71 0.12 C90.55 2.46, 86.24 4.62, 81.16 6.55 M81.16 6.55 C81.38 3.29, 82.2 -1.63, 81.08 -6.12 M81.16 6.55 C81.66 3.6, 81.4 -0.28, 81.08 -6.12 M81.08 -6.12 C84.8 -4.86, 90.82 -0.71, 94.71 0.12 M81.08 -6.12 C83.96 -5.21, 88.67 -2.53, 94.71 0.12 M94.71 0.12 C94.71 0.12, 94.71 0.12, 94.71 0.12 M94.71 0.12 C94.71 0.12, 94.71 0.12, 94.71 0.12" stroke="#1971c2" stroke-width="4" fill="none"></path></g></g><mask></mask><g stroke-opacity="0.4" fill-opacity="0.4" stroke-linecap="round" transform="translate(121.74999999999955 246.33333333333348) rotate(0 48.5 37)"><path d="M18.5 0 C31.72 1.43, 47.44 2.37, 78.5 0 M78.5 0 C91.56 -0.01, 96 8.14, 97 18.5 M97 18.5 C98.51 29.57, 98.98 45.05, 97 55.5 M97 55.5 C97.61 67.48, 89.71 73.01, 78.5 74 M78.5 74 C53.75 75.02, 32.38 73.02, 18.5 74 M18.5 74 C6.04 75.33, 0.47 66.07, 0 55.5 M0 55.5 C-1.85 48.21, 1.57 38.45, 0 18.5 M0 18.5 C0.13 6.25, 8.04 -1.22, 18.5 0" stroke="#1e1e1e" stroke-width="1.5" fill="none" stroke-dasharray="1.5 7"></path></g><g stroke-opacity="0.4" fill-opacity="0.4" transform="translate(137.52002716064408 270.8333333333335) rotate(0 32.72997283935547 12.5)"><text x="32.72997283935547" y="17.52" font-family="Virgil, Segoe UI Emoji" font-size="20px" fill="#1e1e1e" text-anchor="middle" style="white-space: pre;" direction="ltr" dominant-baseline="alphabetic">64 MB</text></g><g stroke-linecap="round" transform="translate(226.24999999999955 246.33333333333348) rotate(0 48.5 37)"><path d="M18.5 0 C40.11 -0.58, 59.25 1.4, 78.5 0 M18.5 0 C39.92 -0.62, 60.97 0.7, 78.5 0 M78.5 0 C91.44 -0.35, 95.88 5.18, 97 18.5 M78.5 0 C92.8 -0.86, 99.1 4.32, 97 18.5 M97 18.5 C96.9 31.8, 97.5 40.68, 97 55.5 M97 18.5 C95.85 26.96, 97.56 34.17, 97 55.5 M97 55.5 C97.13 67.92, 92.71 72.78, 78.5 74 M97 55.5 C95.23 69.31, 89.53 74.87, 78.5 74 M78.5 74 C59.93 74.71, 42.25 72.41, 18.5 74 M78.5 74 C62.06 73.32, 44.26 75.08, 18.5 74 M18.5 74 C5.02 72.54, -0.16 68.24, 0 55.5 M18.5 74 C8.03 73.77, -0.01 67.24, 0 55.5 M0 55.5 C0.16 44.73, 0.09 31.14, 0 18.5 M0 55.5 C0.78 45.4, 0.09 33.11, 0 18.5 M0 18.5 C-1.09 7.53, 4.39 1.08, 18.5 0 M0 18.5 C-2.14 5.78, 8.27 2.19, 18.5 0" stroke="#1e1e1e" stroke-width="1" fill="none"></path></g><g transform="translate(242.02002716064408 270.8333333333335) rotate(0 32.72997283935547 12.5)"><text x="32.72997283935547" y="17.52" font-family="Virgil, Segoe UI Emoji" font-size="20px" fill="#1e1e1e" text-anchor="middle" style="white-space: pre;" direction="ltr" dominant-baseline="alphabetic">64 MB</text></g><g stroke-linecap="round"><g transform="translate(227.25313516313008 284.4405584377978) rotate(0 46.83176575176776 0)"><path d="M1.18 0.56 C16.97 0.58, 79.15 -0.25, 94.69 -0.52 M0.35 -0.19 C16.06 0.04, 78.67 0.77, 94.28 0.75" stroke="#1971c2" stroke-width="4" fill="none"></path></g><g transform="translate(227.25313516313008 284.4405584377978) rotate(0 46.83176575176776 0)"><path d="M94.12 1.16 L82.26 6.8 L80.71 -6.19 L94.92 1.27" stroke="none" stroke-width="0" fill="#1971c2" fill-rule="evenodd"></path><path d="M94.28 0.75 C90.87 4.03, 85.44 5.52, 80.64 7 M94.28 0.75 C91.67 2, 88.14 3.08, 80.64 7 M80.64 7 C79.7 2.41, 80.85 -3.74, 80.72 -5.68 M80.64 7 C80.02 2.76, 80.35 -0.64, 80.72 -5.68 M80.72 -5.68 C82.77 -4.39, 86.24 -1.8, 94.28 0.75 M80.72 -5.68 C83.49 -3.94, 87.26 -2.92, 94.28 0.75 M94.28 0.75 C94.28 0.75, 94.28 0.75, 94.28 0.75 M94.28 0.75 C94.28 0.75, 94.28 0.75, 94.28 0.75" stroke="#1971c2" stroke-width="4" fill="none"></path></g></g><mask></mask><g stroke-opacity="0.4" fill-opacity="0.4" stroke-linecap="round" transform="translate(12.333333333333485 246.33333333333348) rotate(0 48.5 37)"><path d="M18.5 0 C39.86 1.27, 59.03 2.26, 78.5 0 M78.5 0 C92.52 -1.31, 96.22 7.52, 97 18.5 M97 18.5 C98.47 25.43, 97.83 35.9, 97 55.5 M97 55.5 C98.77 68.98, 91.89 75.08, 78.5 74 M78.5 74 C60.03 73.64, 46.17 73.75, 18.5 74 M18.5 74 C7.17 74.4, -0.83 67.2, 0 55.5 M0 55.5 C0.51 46.22, -0.29 39.33, 0 18.5 M0 18.5 C-0.44 5.81, 6.07 1.07, 18.5 0" stroke="#1e1e1e" stroke-width="1.5" fill="none" stroke-dasharray="1.5 7"></path></g><g stroke-opacity="0.4" fill-opacity="0.4" transform="translate(28.103360493978016 270.8333333333335) rotate(0 32.72997283935547 12.5)"><text x="32.72997283935547" y="17.52" font-family="Virgil, Segoe UI Emoji" font-size="20px" fill="#1e1e1e" text-anchor="middle" style="white-space: pre;" direction="ltr" dominant-baseline="alphabetic">64 MB</text></g><g stroke-opacity="0.4" fill-opacity="0.4" stroke-linecap="round" transform="translate(223.125 334.6666666666665) rotate(0 48.5 37)"><path d="M18.5 0 C29.73 -0.85, 43.67 1.92, 78.5 0 M78.5 0 C92.09 -0.41, 95.62 7.2, 97 18.5 M97 18.5 C96.41 34.27, 98.6 46.91, 97 55.5 M97 55.5 C97.26 67.43, 92.78 72.94, 78.5 74 M78.5 74 C59.36 74.79, 40.37 72.19, 18.5 74 M18.5 74 C5.87 73.97, 0.53 68.97, 0 55.5 M0 55.5 C-1 46.86, -2.12 35.73, 0 18.5 M0 18.5 C2 4.37, 5.4 0.19, 18.5 0" stroke="#1e1e1e" stroke-width="1.5" fill="none" stroke-dasharray="1.5 7"></path></g><g stroke-opacity="0.4" fill-opacity="0.4" transform="translate(238.89502716064453 359.1666666666665) rotate(0 32.72997283935547 12.5)"><text x="32.72997283935547" y="17.52" font-family="Virgil, Segoe UI Emoji" font-size="20px" fill="#1e1e1e" text-anchor="middle" style="white-space: pre;" direction="ltr" dominant-baseline="alphabetic">64 MB</text></g><g stroke-linecap="round" transform="translate(327.625 334.6666666666665) rotate(0 48.5 37)"><path d="M18.5 0 C35.45 -1.01, 48.5 0.43, 78.5 0 M18.5 0 C40.52 1.48, 64.04 0.89, 78.5 0 M78.5 0 C91.09 -0.41, 98.94 5.11, 97 18.5 M78.5 0 C91 -0.12, 97.17 5.36, 97 18.5 M97 18.5 C96.48 30.95, 97.3 44.58, 97 55.5 M97 18.5 C97 29.53, 96.44 39.32, 97 55.5 M97 55.5 C99 66.04, 90.07 74.19, 78.5 74 M97 55.5 C96.34 69.11, 89.6 74.92, 78.5 74 M78.5 74 C56.96 75.27, 35.21 73.07, 18.5 74 M78.5 74 C58.9 74.23, 37.59 74.08, 18.5 74 M18.5 74 C4.66 73.78, 0.21 68.7, 0 55.5 M18.5 74 C5.49 74.14, -0.01 66.62, 0 55.5 M0 55.5 C-1.35 42.9, -0.46 34.46, 0 18.5 M0 55.5 C-0.99 44.13, 0 34.16, 0 18.5 M0 18.5 C-1.79 7.87, 6.77 -1.6, 18.5 0 M0 18.5 C2.25 6.85, 6.3 -0.17, 18.5 0" stroke="#1e1e1e" stroke-width="1" fill="none"></path></g><g transform="translate(343.39502716064453 359.1666666666665) rotate(0 32.72997283935547 12.5)"><text x="32.72997283935547" y="17.52" font-family="Virgil, Segoe UI Emoji" font-size="20px" fill="#1e1e1e" text-anchor="middle" style="white-space: pre;" direction="ltr" dominant-baseline="alphabetic">64 MB</text></g><g stroke-linecap="round"><g transform="translate(328.6281351631296 372.7738917711308) rotate(0 46.83176575176776 0)"><path d="M0.62 0.89 C16.4 0.85, 79.01 -1.07, 94.43 -1.03 M-0.51 0.31 C15.2 0.46, 78.45 0.12, 93.89 -0.03" stroke="#1971c2" stroke-width="4" fill="none"></path></g><g transform="translate(328.6281351631296 372.7738917711308) rotate(0 46.83176575176776 0)"><path d="M94.1 0.84 L79.75 6.52 L80.25 -7.33 L93.86 0.89" stroke="none" stroke-width="0" fill="#1971c2" fill-rule="evenodd"></path><path d="M93.89 -0.03 C91.16 2.8, 84.98 3.02, 80.34 6.4 M93.89 -0.03 C88.65 2.42, 83.91 4.73, 80.34 6.4 M80.34 6.4 C79.87 2.98, 79.5 -2.56, 80.25 -6.27 M80.34 6.4 C80.67 2.64, 80.86 -0.81, 80.25 -6.27 M80.25 -6.27 C84.46 -2.99, 86.22 -3.39, 93.89 -0.03 M80.25 -6.27 C84.05 -4.12, 89.03 -2.65, 93.89 -0.03 M93.89 -0.03 C93.89 -0.03, 93.89 -0.03, 93.89 -0.03 M93.89 -0.03 C93.89 -0.03, 93.89 -0.03, 93.89 -0.03" stroke="#1971c2" stroke-width="4" fill="none"></path></g></g><mask></mask><g stroke-opacity="0.4" fill-opacity="0.4" stroke-linecap="round" transform="translate(120.37500000000045 336.3333333333335) rotate(0 48.5 37)"><path d="M18.5 0 C37.89 -1.21, 62.64 0.98, 78.5 0 M78.5 0 C91.58 0.26, 96.59 8.11, 97 18.5 M97 18.5 C97.18 26.94, 97.77 35.53, 97 55.5 M97 55.5 C95.15 67.54, 90.81 74.53, 78.5 74 M78.5 74 C57.17 73.87, 37.3 72.75, 18.5 74 M18.5 74 C6.87 76, -1.8 67.07, 0 55.5 M0 55.5 C-0.97 44.84, 1.03 32.15, 0 18.5 M0 18.5 C1.36 5.4, 7.02 -1.74, 18.5 0" stroke="#1e1e1e" stroke-width="1.5" fill="none" stroke-dasharray="1.5 7"></path></g><g stroke-opacity="0.4" fill-opacity="0.4" transform="translate(136.145027160645 360.8333333333335) rotate(0 32.72997283935547 12.5)"><text x="32.72997283935547" y="17.52" font-family="Virgil, Segoe UI Emoji" font-size="20px" fill="#1e1e1e" text-anchor="middle" style="white-space: pre;" direction="ltr" dominant-baseline="alphabetic">64 MB</text></g><g stroke-linecap="round" transform="translate(332.3333333333326 249.66666666666652) rotate(0 48.5 37)"><path d="M18.5 0 C35.19 -1.19, 48.88 0.02, 78.5 0 M18.5 0 C37.51 -0.14, 56.4 -0.33, 78.5 0 M78.5 0 C91.19 0.25, 95.17 7.54, 97 18.5 M78.5 0 C89.84 -1.96, 99.12 8.36, 97 18.5 M97 18.5 C97.28 32.14, 95.26 44.08, 97 55.5 M97 18.5 C96.44 32.43, 97.13 44.83, 97 55.5 M97 55.5 C98.33 67.87, 89.46 75.94, 78.5 74 M97 55.5 C97.41 70.02, 92.11 73.85, 78.5 74 M78.5 74 C63.16 73.58, 47.43 75.99, 18.5 74 M78.5 74 C59.45 73.96, 40.27 73.85, 18.5 74 M18.5 74 C5.67 72.08, -1.94 66.79, 0 55.5 M18.5 74 C4.74 72.54, -1.55 66.71, 0 55.5 M0 55.5 C-2.06 44.61, 0.05 33.05, 0 18.5 M0 55.5 C-0.99 42.61, 0.37 28.44, 0 18.5 M0 18.5 C0.03 4.77, 4.54 -1.77, 18.5 0 M0 18.5 C2.06 6.66, 4.13 -1.16, 18.5 0" stroke="#1e1e1e" stroke-width="1" fill="none"></path></g><g transform="translate(348.1033604939771 274.1666666666665) rotate(0 32.72997283935547 12.5)"><text x="32.72997283935547" y="17.52" font-family="Virgil, Segoe UI Emoji" font-size="20px" fill="#1e1e1e" text-anchor="middle" style="white-space: pre;" direction="ltr" dominant-baseline="alphabetic">64 MB</text></g><g stroke-opacity="0.4" fill-opacity="0.4" stroke-linecap="round" transform="translate(14.000000000000455 333) rotate(0 48.5 37)"><path d="M18.5 0 C36.96 0.4, 55.71 -1.04, 78.5 0 M78.5 0 C92.11 0.4, 98.15 7.6, 97 18.5 M97 18.5 C94.96 24.91, 97.75 34.62, 97 55.5 M97 55.5 C96.49 68.63, 91.88 75.28, 78.5 74 M78.5 74 C59.6 75.2, 44.69 75.14, 18.5 74 M18.5 74 C5.71 73.11, -1.05 67.01, 0 55.5 M0 55.5 C1.11 45.39, -0.55 39.24, 0 18.5 M0 18.5 C-0.74 4.2, 4.85 0.56, 18.5 0" stroke="#1e1e1e" stroke-width="1.5" fill="none" stroke-dasharray="1.5 7"></path></g><g stroke-opacity="0.4" fill-opacity="0.4" transform="translate(29.770027160644986 357.5) rotate(0 32.72997283935547 12.5)"><text x="32.72997283935547" y="17.52" font-family="Virgil, Segoe UI Emoji" font-size="20px" fill="#1e1e1e" text-anchor="middle" style="white-space: pre;" direction="ltr" dominant-baseline="alphabetic">64 MB</text></g><g stroke-linecap="round" transform="translate(490.5833333333321 70.83333333333258) rotate(0 48.5 37)"><path d="M18.5 0 C32.32 -1.75, 51.06 0.38, 78.5 0 M18.5 0 C32.48 0.79, 49.19 0.83, 78.5 0 M78.5 0 C91.75 0.13, 96.82 5.52, 97 18.5 M78.5 0 C92.49 -0.89, 97.65 5.13, 97 18.5 M97 18.5 C95.91 31.29, 96.83 47.21, 97 55.5 M97 18.5 C97.45 27.47, 96.41 36.31, 97 55.5 M97 55.5 C97.67 69.26, 92.69 72.31, 78.5 74 M97 55.5 C97.79 68.59, 89.74 72.65, 78.5 74 M78.5 74 C55.07 76.3, 31.9 72.77, 18.5 74 M78.5 74 C56.35 74.18, 34.89 73.93, 18.5 74 M18.5 74 C6.92 73.36, -1.35 68.69, 0 55.5 M18.5 74 C7.59 72.34, 2.19 68.28, 0 55.5 M0 55.5 C1.82 43.92, -1.65 33.01, 0 18.5 M0 55.5 C0.1 41.93, 0.58 30.7, 0 18.5 M0 18.5 C-1.87 4.98, 4.61 -0.07, 18.5 0 M0 18.5 C1.63 6.28, 4.32 1.57, 18.5 0" stroke="#1e1e1e" stroke-width="1" fill="none"></path></g><g transform="translate(506.35336049397665 95.33333333333258) rotate(0 32.72997283935547 12.5)"><text x="32.72997283935547" y="17.52" font-family="Virgil, Segoe UI Emoji" font-size="20px" fill="#1e1e1e" text-anchor="middle" style="white-space: pre;" direction="ltr" dominant-baseline="alphabetic">64 MB</text></g><g stroke-linecap="round" transform="translate(595.0833333333321 70.83333333333258) rotate(0 48.5 37)"><path d="M18.5 0 C31.72 0.26, 47.45 -2.24, 78.5 0 M18.5 0 C42.55 -0.52, 65.59 -0.91, 78.5 0 M78.5 0 C92.27 -0.77, 97.56 5.26, 97 18.5 M78.5 0 C92.53 -1.08, 99.19 5.11, 97 18.5 M97 18.5 C95.67 29.52, 97.91 37.07, 97 55.5 M97 18.5 C96.99 31.58, 97.58 42.38, 97 55.5 M97 55.5 C97.69 68.49, 89.88 72.83, 78.5 74 M97 55.5 C98.84 67.4, 92.9 73.28, 78.5 74 M78.5 74 C56.36 72, 32.97 71.96, 18.5 74 M78.5 74 C61.63 73.46, 43.32 74.2, 18.5 74 M18.5 74 C7.4 72.56, 1.91 68.22, 0 55.5 M18.5 74 C6.37 74.46, 1.87 70.01, 0 55.5 M0 55.5 C1.19 43.24, -1.08 33.52, 0 18.5 M0 55.5 C-1.05 46.78, -0.89 39.21, 0 18.5 M0 18.5 C1.42 6.26, 4.56 1.37, 18.5 0 M0 18.5 C0.2 5.74, 4.91 1.93, 18.5 0" stroke="#1e1e1e" stroke-width="1" fill="none"></path></g><g transform="translate(610.8533604939767 95.33333333333258) rotate(0 32.72997283935547 12.5)"><text x="32.72997283935547" y="17.52" font-family="Virgil, Segoe UI Emoji" font-size="20px" fill="#1e1e1e" text-anchor="middle" style="white-space: pre;" direction="ltr" dominant-baseline="alphabetic">64 MB</text></g><g stroke-linecap="round" transform="translate(701.9166666666652 72.83333333333258) rotate(0 48.5 37)"><path d="M18.5 0 C39.95 2.11, 59.62 1.51, 78.5 0 M18.5 0 C37.61 -0.19, 55.56 -0.26, 78.5 0 M78.5 0 C92.31 -0.94, 98.91 5.25, 97 18.5 M78.5 0 C89.64 0.01, 98.21 4.63, 97 18.5 M97 18.5 C97.85 31.16, 98.25 48.22, 97 55.5 M97 18.5 C97.69 32.57, 96.87 45.39, 97 55.5 M97 55.5 C98.6 67.46, 92.63 73.38, 78.5 74 M97 55.5 C99.02 66.7, 88.8 75.3, 78.5 74 M78.5 74 C64.64 71.9, 50.54 74.3, 18.5 74 M78.5 74 C63.03 73.54, 47.29 74.45, 18.5 74 M18.5 74 C6.34 74.4, 1.63 69.73, 0 55.5 M18.5 74 C5.99 72.19, 0.41 68.87, 0 55.5 M0 55.5 C-1.35 47.71, 1.74 36.79, 0 18.5 M0 55.5 C1 46.64, -0.51 38.36, 0 18.5 M0 18.5 C0.17 5.8, 5.08 1.68, 18.5 0 M0 18.5 C0.11 6.47, 6.68 -0.92, 18.5 0" stroke="#1e1e1e" stroke-width="1" fill="none"></path></g><g transform="translate(717.6866938273097 97.33333333333258) rotate(0 32.72997283935547 12.5)"><text x="32.72997283935547" y="17.52" font-family="Virgil, Segoe UI Emoji" font-size="20px" fill="#1e1e1e" text-anchor="middle" style="white-space: pre;" direction="ltr" dominant-baseline="alphabetic">64 MB</text></g><g stroke-linecap="round" transform="translate(809.583333333333 71.83333333333258) rotate(0 48.5 37)"><path d="M18.5 0 C41.19 -0.46, 62.97 1.16, 78.5 0 M18.5 0 C34.92 -0.2, 50.82 -0.19, 78.5 0 M78.5 0 C89.79 0.01, 98.05 4.83, 97 18.5 M78.5 0 C92.96 1.05, 97.25 6.95, 97 18.5 M97 18.5 C98.63 28.02, 95.51 34.52, 97 55.5 M97 18.5 C97.63 30.63, 97.72 42.83, 97 55.5 M97 55.5 C98.76 66.85, 89.06 75.13, 78.5 74 M97 55.5 C95.32 69, 89.1 73.71, 78.5 74 M78.5 74 C64.81 72.88, 53.25 75.46, 18.5 74 M78.5 74 C64.91 74.32, 51.97 75.06, 18.5 74 M18.5 74 C6.01 72.43, 0.35 68.74, 0 55.5 M18.5 74 C4.5 72.43, -0.4 65.98, 0 55.5 M0 55.5 C-1.46 41.68, -0.34 32.39, 0 18.5 M0 55.5 C0.38 44.03, -0.25 33.77, 0 18.5 M0 18.5 C0.09 6.43, 6.62 -0.8, 18.5 0 M0 18.5 C-0.11 6.56, 5.6 0.86, 18.5 0" stroke="#1e1e1e" stroke-width="1" fill="none"></path></g><g transform="translate(825.3533604939776 96.33333333333258) rotate(0 32.72997283935547 12.5)"><text x="32.72997283935547" y="17.52" font-family="Virgil, Segoe UI Emoji" font-size="20px" fill="#1e1e1e" text-anchor="middle" style="white-space: pre;" direction="ltr" dominant-baseline="alphabetic">64 MB</text></g><g stroke-linecap="round" transform="translate(494.4999999999982 156.99999999999955) rotate(0 48.5 37)"><path d="M18.5 0 C30.83 -1.85, 41.97 0.14, 78.5 0 M18.5 0 C36.36 -0.62, 53.88 0.31, 78.5 0 M78.5 0 C92.62 -1.1, 98.39 5.78, 97 18.5 M78.5 0 C89.34 1.87, 99.11 7.34, 97 18.5 M97 18.5 C96.42 32.02, 96.5 47.29, 97 55.5 M97 18.5 C96.91 27.73, 96.8 37.19, 97 55.5 M97 55.5 C95.75 69.71, 90.25 75.48, 78.5 74 M97 55.5 C98.82 68.24, 91.85 74.21, 78.5 74 M78.5 74 C62.38 73.55, 46.61 75.41, 18.5 74 M78.5 74 C61.1 75.29, 43.42 75.21, 18.5 74 M18.5 74 C4.29 72.13, 1.81 67.2, 0 55.5 M18.5 74 C8.14 76.29, -0.66 69.88, 0 55.5 M0 55.5 C-1.73 45.07, -1.9 32.8, 0 18.5 M0 55.5 C-0.66 41.7, -0.55 27.47, 0 18.5 M0 18.5 C0.46 6.88, 7.52 0.48, 18.5 0 M0 18.5 C1.04 6.18, 5.16 -0.23, 18.5 0" stroke="#1e1e1e" stroke-width="1" fill="none"></path></g><g transform="translate(510.2700271606427 181.49999999999955) rotate(0 32.72997283935547 12.5)"><text x="32.72997283935547" y="17.52" font-family="Virgil, Segoe UI Emoji" font-size="20px" fill="#1e1e1e" text-anchor="middle" style="white-space: pre;" direction="ltr" dominant-baseline="alphabetic">64 MB</text></g><g stroke-linecap="round" transform="translate(598.9999999999982 156.99999999999955) rotate(0 48.5 37)"><path d="M18.5 0 C30.65 1.53, 43.09 -0.35, 78.5 0 M18.5 0 C34.25 -0.79, 48.91 -0.43, 78.5 0 M78.5 0 C89.54 1.62, 98.84 7.18, 97 18.5 M78.5 0 C92.82 -1.89, 94.77 5.85, 97 18.5 M97 18.5 C95.88 26.7, 95.09 38.16, 97 55.5 M97 18.5 C96.4 31.02, 96.73 42.4, 97 55.5 M97 55.5 C98.58 68.19, 91.72 74.18, 78.5 74 M97 55.5 C95.95 68.72, 90.87 73.02, 78.5 74 M78.5 74 C61.76 73.68, 47.2 74.99, 18.5 74 M78.5 74 C55.36 73.43, 35 74.06, 18.5 74 M18.5 74 C7.88 75.99, -0.58 69.61, 0 55.5 M18.5 74 C6.15 74.44, 2.09 65.93, 0 55.5 M0 55.5 C1.74 43.62, 0.01 29.74, 0 18.5 M0 55.5 C0.41 45.2, 0.85 34.42, 0 18.5 M0 18.5 C0.91 6.18, 5.29 -0.2, 18.5 0 M0 18.5 C-1.44 6.02, 7.57 -1.34, 18.5 0" stroke="#1e1e1e" stroke-width="1" fill="none"></path></g><g transform="translate(614.7700271606427 181.49999999999955) rotate(0 32.72997283935547 12.5)"><text x="32.72997283935547" y="17.52" font-family="Virgil, Segoe UI Emoji" font-size="20px" fill="#1e1e1e" text-anchor="middle" style="white-space: pre;" direction="ltr" dominant-baseline="alphabetic">64 MB</text></g><g stroke-linecap="round" transform="translate(705.8333333333312 158.99999999999955) rotate(0 48.5 37)"><path d="M18.5 0 C40.06 -1.25, 64.51 1.89, 78.5 0 M18.5 0 C32.55 0.93, 48.82 0.62, 78.5 0 M78.5 0 C92.56 -1.64, 95.06 5.89, 97 18.5 M78.5 0 C89.93 -0.23, 97.22 4.92, 97 18.5 M97 18.5 C96.91 27.04, 97.64 34.07, 97 55.5 M97 18.5 C97.68 33.25, 97.33 47.73, 97 55.5 M97 55.5 C96.09 68.6, 90.86 73.15, 78.5 74 M97 55.5 C96.48 66.27, 92.45 73.88, 78.5 74 M78.5 74 C64.13 74.73, 48.2 72.3, 18.5 74 M78.5 74 C66.98 74.81, 53.45 74.7, 18.5 74 M18.5 74 C6.15 74.38, 1.82 66.17, 0 55.5 M18.5 74 C6.91 71.89, -0.63 69.44, 0 55.5 M0 55.5 C-0.18 42.68, -1.25 32.22, 0 18.5 M0 55.5 C0.2 43.08, -0.69 30.55, 0 18.5 M0 18.5 C-1.25 6.03, 7.39 -1.16, 18.5 0 M0 18.5 C0.7 4.98, 5.63 1.45, 18.5 0" stroke="#1e1e1e" stroke-width="1" fill="none"></path></g><g transform="translate(721.6033604939757 183.49999999999955) rotate(0 32.72997283935547 12.5)"><text x="32.72997283935547" y="17.52" font-family="Virgil, Segoe UI Emoji" font-size="20px" fill="#1e1e1e" text-anchor="middle" style="white-space: pre;" direction="ltr" dominant-baseline="alphabetic">64 MB</text></g><g stroke-opacity="0.4" fill-opacity="0.4" stroke-linecap="round" transform="translate(813.4999999999991 157.99999999999955) rotate(0 48.5 37)"><path d="M18.5 0 C31.33 0.86, 45.98 -1.83, 78.5 0 M78.5 0 C92.46 1.84, 98.02 7.9, 97 18.5 M97 18.5 C95.86 26.36, 96.83 33.53, 97 55.5 M97 55.5 C95.55 65.96, 91.19 74.26, 78.5 74 M78.5 74 C61.98 73.04, 43.18 75.21, 18.5 74 M18.5 74 C6.52 74.88, 0.18 66.92, 0 55.5 M0 55.5 C-0.46 41.62, 1.4 30.36, 0 18.5 M0 18.5 C-0.74 8.14, 6.73 1.4, 18.5 0" stroke="#1e1e1e" stroke-width="1.5" fill="none" stroke-dasharray="1.5 7"></path></g><g stroke-opacity="0.4" fill-opacity="0.4" transform="translate(829.2700271606436 182.49999999999955) rotate(0 32.72997283935547 12.5)"><text x="32.72997283935547" y="17.52" font-family="Virgil, Segoe UI Emoji" font-size="20px" fill="#1e1e1e" text-anchor="middle" style="white-space: pre;" direction="ltr" dominant-baseline="alphabetic">64 MB</text></g><g stroke-linecap="round" transform="translate(496.1666666666647 241.99999999999955) rotate(0 48.5 37)"><path d="M18.5 0 C37.13 2.24, 56.31 -0.16, 78.5 0 M18.5 0 C41.67 0.26, 65.97 0.25, 78.5 0 M78.5 0 C92.13 -0.04, 95.72 6.74, 97 18.5 M78.5 0 C92.46 -0.61, 98.86 5.75, 97 18.5 M97 18.5 C95.96 27.07, 96.53 37.78, 97 55.5 M97 18.5 C96.59 32.22, 96.6 48.31, 97 55.5 M97 55.5 C95.81 69.19, 91.48 73.07, 78.5 74 M97 55.5 C99.16 67.41, 90.84 74.24, 78.5 74 M78.5 74 C61.17 72.87, 45.1 73.9, 18.5 74 M78.5 74 C59.28 74.13, 41.84 74.62, 18.5 74 M18.5 74 C4.45 72.24, 1.6 67.92, 0 55.5 M18.5 74 C7.42 75.37, -2.2 66.99, 0 55.5 M0 55.5 C-0.11 47.92, 0.1 39.32, 0 18.5 M0 55.5 C1.15 46.38, 0.43 37.79, 0 18.5 M0 18.5 C0.98 5.51, 5.28 -1.75, 18.5 0 M0 18.5 C-1.05 7.77, 4.55 -0.53, 18.5 0" stroke="#1e1e1e" stroke-width="1" fill="none"></path></g><g transform="translate(511.9366938273092 266.49999999999955) rotate(0 32.72997283935547 12.5)"><text x="32.72997283935547" y="17.52" font-family="Virgil, Segoe UI Emoji" font-size="20px" fill="#1e1e1e" text-anchor="middle" style="white-space: pre;" direction="ltr" dominant-baseline="alphabetic">64 MB</text></g><g stroke-linecap="round" transform="translate(600.6666666666647 241.99999999999955) rotate(0 48.5 37)"><path d="M18.5 0 C43.96 -1, 66.96 -1.28, 78.5 0 M18.5 0 C41.35 -0.43, 62.26 -0.13, 78.5 0 M78.5 0 C92.24 -0.53, 98.62 5.81, 97 18.5 M78.5 0 C89.82 -1.41, 97.31 5.23, 97 18.5 M97 18.5 C98.82 28.47, 98.28 36.37, 97 55.5 M97 18.5 C96.22 27.23, 97.14 34.13, 97 55.5 M97 55.5 C98.88 67.47, 90.84 74.21, 78.5 74 M97 55.5 C96.71 67.77, 88.66 73.9, 78.5 74 M78.5 74 C62.44 75.57, 45.79 73.19, 18.5 74 M78.5 74 C58.71 73.5, 41.43 74.43, 18.5 74 M18.5 74 C7.25 75.19, -1.91 67.1, 0 55.5 M18.5 74 C4.82 73.27, 1.74 67.57, 0 55.5 M0 55.5 C-1.4 40.87, 1.31 30.21, 0 18.5 M0 55.5 C0.4 46.34, -0.53 36.97, 0 18.5 M0 18.5 C-0.91 7.56, 4.76 -0.46, 18.5 0 M0 18.5 C-0.05 3.93, 5.15 1.01, 18.5 0" stroke="#1e1e1e" stroke-width="1" fill="none"></path></g><g transform="translate(616.4366938273092 266.49999999999955) rotate(0 32.72997283935547 12.5)"><text x="32.72997283935547" y="17.52" font-family="Virgil, Segoe UI Emoji" font-size="20px" fill="#1e1e1e" text-anchor="middle" style="white-space: pre;" direction="ltr" dominant-baseline="alphabetic">64 MB</text></g><g stroke-opacity="0.4" fill-opacity="0.4" stroke-linecap="round" transform="translate(707.4999999999986 243.99999999999955) rotate(0 48.5 37)"><path d="M18.5 0 C34.38 -0.2, 48.83 1.73, 78.5 0 M78.5 0 C90.8 -1.28, 97.58 7.58, 97 18.5 M97 18.5 C96.42 27.39, 97.57 37.92, 97 55.5 M97 55.5 C96.1 67.59, 91.18 75.86, 78.5 74 M78.5 74 C57.28 72.71, 40.79 72.5, 18.5 74 M18.5 74 C7.53 74.65, -0.93 69.71, 0 55.5 M0 55.5 C-0.25 45.02, -1.89 34.57, 0 18.5 M0 18.5 C-0.56 7.26, 6.64 0.25, 18.5 0" stroke="#1e1e1e" stroke-width="1.5" fill="none" stroke-dasharray="1.5 7"></path></g><g stroke-opacity="0.4" fill-opacity="0.4" transform="translate(723.2700271606432 268.49999999999955) rotate(0 32.72997283935547 12.5)"><text x="32.72997283935547" y="17.52" font-family="Virgil, Segoe UI Emoji" font-size="20px" fill="#1e1e1e" text-anchor="middle" style="white-space: pre;" direction="ltr" dominant-baseline="alphabetic">64 MB</text></g><g stroke-opacity="0.4" fill-opacity="0.4" stroke-linecap="round" transform="translate(815.1666666666665 242.99999999999955) rotate(0 48.5 37)"><path d="M18.5 0 C34.56 -1.67, 51.27 1.02, 78.5 0 M78.5 0 C90.3 1.62, 96.64 5.28, 97 18.5 M97 18.5 C96.15 27.08, 97.4 38.02, 97 55.5 M97 55.5 C97.53 69.16, 89.82 72.35, 78.5 74 M78.5 74 C64.84 74.29, 47.52 75.52, 18.5 74 M18.5 74 C5.8 74, 0.21 67.58, 0 55.5 M0 55.5 C-0.21 45.6, 0.82 33.76, 0 18.5 M0 18.5 C1.43 6.08, 5.22 0.31, 18.5 0" stroke="#1e1e1e" stroke-width="1.5" fill="none" stroke-dasharray="1.5 7"></path></g><g stroke-opacity="0.4" fill-opacity="0.4" transform="translate(830.936693827311 267.49999999999955) rotate(0 32.72997283935547 12.5)"><text x="32.72997283935547" y="17.52" font-family="Virgil, Segoe UI Emoji" font-size="20px" fill="#1e1e1e" text-anchor="middle" style="white-space: pre;" direction="ltr" dominant-baseline="alphabetic">64 MB</text></g><g stroke-linecap="round" transform="translate(496.16666666666515 326.99999999999955) rotate(0 48.5 37)"><path d="M18.5 0 C37.94 1.1, 55.81 0.87, 78.5 0 M18.5 0 C34.92 0.29, 49.44 -0.87, 78.5 0 M78.5 0 C89.67 -1.42, 97.91 5.65, 97 18.5 M78.5 0 C89.72 -0.5, 98.36 8.06, 97 18.5 M97 18.5 C97.24 27.01, 99.09 35.03, 97 55.5 M97 18.5 C96.89 32.29, 97.26 44.33, 97 55.5 M97 55.5 C97.75 68.3, 92.65 74.52, 78.5 74 M97 55.5 C97.49 67.33, 92.6 73.49, 78.5 74 M78.5 74 C64.46 75.16, 53.23 73.51, 18.5 74 M78.5 74 C55.24 74.58, 30.59 73.55, 18.5 74 M18.5 74 C7.49 74.82, -0.84 66.64, 0 55.5 M18.5 74 C7.07 72.74, 0.6 68.69, 0 55.5 M0 55.5 C0.27 45.29, -0.11 31.03, 0 18.5 M0 55.5 C-0.32 42.44, -0.63 27.89, 0 18.5 M0 18.5 C0.8 4.46, 5.52 0.19, 18.5 0 M0 18.5 C-0.61 7.05, 5.38 2.25, 18.5 0" stroke="#1e1e1e" stroke-width="1" fill="none"></path></g><g transform="translate(511.9366938273097 351.49999999999955) rotate(0 32.72997283935547 12.5)"><text x="32.72997283935547" y="17.52" font-family="Virgil, Segoe UI Emoji" font-size="20px" fill="#1e1e1e" text-anchor="middle" style="white-space: pre;" direction="ltr" dominant-baseline="alphabetic">64 MB</text></g><g stroke-opacity="0.4" fill-opacity="0.4" stroke-linecap="round" transform="translate(600.6666666666652 326.99999999999955) rotate(0 48.5 37)"><path d="M18.5 0 C37.35 1.2, 57.35 0.82, 78.5 0 M78.5 0 C91.28 -1.99, 95.14 5, 97 18.5 M97 18.5 C96.2 26.54, 98.35 37.1, 97 55.5 M97 55.5 C95.48 69.53, 91.93 73.92, 78.5 74 M78.5 74 C60.93 73.27, 42.25 74.03, 18.5 74 M18.5 74 C7.53 74.78, -0.76 68.58, 0 55.5 M0 55.5 C0.09 43.1, 1.2 31.13, 0 18.5 M0 18.5 C-1.49 5.47, 5.28 -0.52, 18.5 0" stroke="#1e1e1e" stroke-width="1.5" fill="none" stroke-dasharray="1.5 7"></path></g><g stroke-opacity="0.4" fill-opacity="0.4" transform="translate(616.4366938273097 351.49999999999955) rotate(0 32.72997283935547 12.5)"><text x="32.72997283935547" y="17.52" font-family="Virgil, Segoe UI Emoji" font-size="20px" fill="#1e1e1e" text-anchor="middle" style="white-space: pre;" direction="ltr" dominant-baseline="alphabetic">64 MB</text></g><g stroke-opacity="0.4" fill-opacity="0.4" stroke-linecap="round" transform="translate(707.4999999999982 328.99999999999955) rotate(0 48.5 37)"><path d="M18.5 0 C40.79 -2.26, 60.32 -1.44, 78.5 0 M78.5 0 C89.42 0.91, 96.48 5.19, 97 18.5 M97 18.5 C95.7 30.49, 98.32 39, 97 55.5 M97 55.5 C97.22 69.61, 90.78 75.09, 78.5 74 M78.5 74 C64 74.8, 46 74.76, 18.5 74 M18.5 74 C6.64 75.81, 0.52 68.26, 0 55.5 M0 55.5 C-1.78 44.5, -1.17 34.39, 0 18.5 M0 18.5 C1.43 7.94, 5.94 1.88, 18.5 0" stroke="#1e1e1e" stroke-width="1.5" fill="none" stroke-dasharray="1.5 7"></path></g><g stroke-opacity="0.4" fill-opacity="0.4" transform="translate(723.2700271606427 353.49999999999955) rotate(0 32.72997283935547 12.5)"><text x="32.72997283935547" y="17.52" font-family="Virgil, Segoe UI Emoji" font-size="20px" fill="#1e1e1e" text-anchor="middle" style="white-space: pre;" direction="ltr" dominant-baseline="alphabetic">64 MB</text></g><g stroke-opacity="0.4" fill-opacity="0.4" stroke-linecap="round" transform="translate(815.1666666666661 327.99999999999955) rotate(0 48.5 37)"><path d="M18.5 0 C29.13 1.26, 42.07 -0.62, 78.5 0 M78.5 0 C90.39 1.18, 98.64 4.65, 97 18.5 M97 18.5 C97.42 34.53, 97.15 48.08, 97 55.5 M97 55.5 C96.29 68.89, 90.88 75.37, 78.5 74 M78.5 74 C58.62 76.04, 38.33 74.65, 18.5 74 M18.5 74 C5.73 75.53, -0.44 66.34, 0 55.5 M0 55.5 C1.59 47.47, -0.06 37.77, 0 18.5 M0 18.5 C0.67 6.74, 6.92 0.82, 18.5 0" stroke="#1e1e1e" stroke-width="1.5" fill="none" stroke-dasharray="1.5 7"></path></g><g stroke-opacity="0.4" fill-opacity="0.4" transform="translate(830.9366938273106 352.49999999999955) rotate(0 32.72997283935547 12.5)"><text x="32.72997283935547" y="17.52" font-family="Virgil, Segoe UI Emoji" font-size="20px" fill="#1e1e1e" text-anchor="middle" style="white-space: pre;" direction="ltr" dominant-baseline="alphabetic">64 MB</text></g><g stroke-linecap="round"><g transform="translate(905.8333333333326 108.21855149446446) rotate(0 -45.25983685955043 0)"><path d="M0.41 -0.32 C-14.9 -0.2, -75.75 -0.04, -90.86 0.21 M-0.84 -1.53 C-16.42 -1.76, -76.98 -1.96, -91.98 -1.81" stroke="#1971c2" stroke-width="4" fill="none"></path></g><g transform="translate(905.8333333333326 108.21855149446446) rotate(0 -45.25983685955043 0)"><path d="M-93.65 -2.7 L-80.14 -6.2 L-76.64 4.54 L-89.99 -1.24" stroke="none" stroke-width="0" fill="#1971c2" fill-rule="evenodd"></path><path d="M-91.98 -1.81 C-87.17 -4.71, -81.33 -6.37, -78.4 -8.18 M-91.98 -1.81 C-87.29 -5.04, -81.84 -6.48, -78.4 -8.18 M-78.4 -8.18 C-79.24 -3.4, -78.52 1.21, -78.37 4.5 M-78.4 -8.18 C-78.14 -4.66, -78.82 -1.77, -78.37 4.5 M-78.37 4.5 C-83.54 1.28, -86 0.01, -91.98 -1.81 M-78.37 4.5 C-82.95 2.54, -86.27 1, -91.98 -1.81 M-91.98 -1.81 C-91.98 -1.81, -91.98 -1.81, -91.98 -1.81 M-91.98 -1.81 C-91.98 -1.81, -91.98 -1.81, -91.98 -1.81" stroke="#1971c2" stroke-width="4" fill="none"></path></g></g><mask></mask><g stroke-linecap="round"><g transform="translate(798.2878118590588 190.82669985541634) rotate(0 -45.25983685955043 0)"><path d="M1.05 -1.17 C-14 -1.31, -74.29 -1.32, -89.41 -1.14 M0.15 0.83 C-15.04 0.82, -74.75 -0.26, -89.78 -0.21" stroke="#1971c2" stroke-width="4" fill="none"></path></g><g transform="translate(798.2878118590588 190.82669985541634) rotate(0 -45.25983685955043 0)"><path d="M-90.46 -1.92 L-76.44 -8.02 L-75.77 4.78 L-89.14 1.04" stroke="none" stroke-width="0" fill="#1971c2" fill-rule="evenodd"></path><path d="M-89.78 -0.21 C-86.1 -1.28, -80.95 -3.99, -76.13 -6.43 M-89.78 -0.21 C-86.56 -2.83, -81.34 -4.15, -76.13 -6.43 M-76.13 -6.43 C-75.81 -2.42, -76.35 -1.71, -76.24 6.25 M-76.13 -6.43 C-76.47 -4.08, -75.65 -0.91, -76.24 6.25 M-76.24 6.25 C-81.08 4.92, -85.11 1.35, -89.78 -0.21 M-76.24 6.25 C-80.45 4.77, -83.53 2.94, -89.78 -0.21 M-89.78 -0.21 C-89.78 -0.21, -89.78 -0.21, -89.78 -0.21 M-89.78 -0.21 C-89.78 -0.21, -89.78 -0.21, -89.78 -0.21" stroke="#1971c2" stroke-width="4" fill="none"></path></g></g><mask></mask><g stroke-linecap="round"><g transform="translate(693.2878118590597 275.82669985541634) rotate(0 -45.25983685955043 0)"><path d="M-1.14 0.55 C-16.41 0.61, -76.49 -0.28, -91.56 -0.41 M0.46 -0.21 C-14.46 0.1, -74.45 0.71, -89.39 0.92" stroke="#1971c2" stroke-width="4" fill="none"></path></g><g transform="translate(693.2878118590597 275.82669985541634) rotate(0 -45.25983685955043 0)"><path d="M-90.95 2.76 L-76.76 -6.03 L-77.1 5.5 L-88.57 -0.95" stroke="none" stroke-width="0" fill="#1971c2" fill-rule="evenodd"></path><path d="M-89.39 0.92 C-84.52 -2.25, -81.56 -4.23, -75.88 -5.58 M-89.39 0.92 C-86.05 -0.72, -81.18 -2.17, -75.88 -5.58 M-75.88 -5.58 C-76.62 -1.03, -75.97 3.89, -75.72 7.09 M-75.88 -5.58 C-75.53 -1.2, -76.28 4.3, -75.72 7.09 M-75.72 7.09 C-80.88 3.6, -84.65 1.92, -89.39 0.92 M-75.72 7.09 C-78.63 4.96, -82.25 3.49, -89.39 0.92 M-89.39 0.92 C-89.39 0.92, -89.39 0.92, -89.39 0.92 M-89.39 0.92 C-89.39 0.92, -89.39 0.92, -89.39 0.92" stroke="#1971c2" stroke-width="4" fill="none"></path></g></g><mask></mask><g stroke-linecap="round"><g transform="translate(588.2878118590588 364.1600331887498) rotate(0 -45.25983685955043 0)"><path d="M0.34 -0.15 C-14.79 -0.08, -75.43 1.13, -90.72 1.11 M-0.95 -1.27 C-16.25 -1.58, -77.1 -0.79, -91.77 -0.42" stroke="#1971c2" stroke-width="4" fill="none"></path></g><g transform="translate(588.2878118590588 364.1600331887498) rotate(0 -45.25983685955043 0)"><path d="M-90.22 -1.93 L-76.31 -6 L-77.88 6.63 L-90.98 0.42" stroke="none" stroke-width="0" fill="#1971c2" fill-rule="evenodd"></path><path d="M-91.77 -0.42 C-87.92 -2.7, -82.26 -5.53, -78.29 -7 M-91.77 -0.42 C-88.57 -2.71, -83.53 -4.3, -78.29 -7 M-78.29 -7 C-77.79 -4.66, -77.05 0.9, -78.07 5.68 M-78.29 -7 C-77.89 -3.04, -78.7 -0.73, -78.07 5.68 M-78.07 5.68 C-79.88 3.79, -84.47 3.51, -91.77 -0.42 M-78.07 5.68 C-81.36 4.73, -84.3 2.71, -91.77 -0.42 M-91.77 -0.42 C-91.77 -0.42, -91.77 -0.42, -91.77 -0.42 M-91.77 -0.42 C-91.77 -0.42, -91.77 -0.42, -91.77 -0.42" stroke="#1971c2" stroke-width="4" fill="none"></path></g></g><mask></mask><g stroke-linecap="round" transform="translate(990.5833333333298 79.1666666666647) rotate(0 48.5 37)"><path d="M18.5 0 C39.76 -1.23, 63.39 -1.43, 78.5 0 M18.5 0 C32.66 0.5, 47.22 -0.17, 78.5 0 M78.5 0 C89.55 -1.48, 98.79 6.34, 97 18.5 M78.5 0 C90.41 1.32, 96.25 6.95, 97 18.5 M97 18.5 C98.19 27.1, 97.92 39.1, 97 55.5 M97 18.5 C96.91 27.07, 97.83 35.47, 97 55.5 M97 55.5 C98.43 66.82, 89.43 73.73, 78.5 74 M97 55.5 C95.4 68.75, 89.79 72.07, 78.5 74 M78.5 74 C56.99 74.65, 36.93 72.69, 18.5 74 M78.5 74 C62.7 74.14, 47.57 73.04, 18.5 74 M18.5 74 C4.78 75.48, 1.25 68.02, 0 55.5 M18.5 74 C5.27 71.99, -0.87 66.86, 0 55.5 M0 55.5 C-1.24 44.05, 0.33 30.04, 0 18.5 M0 55.5 C-0.41 44.29, 1.14 33.95, 0 18.5 M0 18.5 C1.29 6.53, 6.48 -1.52, 18.5 0 M0 18.5 C2.06 8.32, 3.94 2.05, 18.5 0" stroke="#1e1e1e" stroke-width="1" fill="none"></path></g><g transform="translate(1006.3533604939744 103.6666666666647) rotate(0 32.72997283935547 12.5)"><text x="32.72997283935547" y="17.52" font-family="Virgil, Segoe UI Emoji" font-size="20px" fill="#1e1e1e" text-anchor="middle" style="white-space: pre;" direction="ltr" dominant-baseline="alphabetic">64 MB</text></g><g stroke-linecap="round" transform="translate(1095.0833333333298 79.1666666666647) rotate(0 48.5 37)"><path d="M18.5 0 C31.88 0.02, 48.4 0.74, 78.5 0 M18.5 0 C39.7 -0.72, 63.07 0.1, 78.5 0 M78.5 0 C90.46 1.15, 96.35 6.85, 97 18.5 M78.5 0 C90.1 1.09, 97.49 7.33, 97 18.5 M97 18.5 C95.89 27.94, 97.51 35.33, 97 55.5 M97 18.5 C97.97 28.23, 96.55 38.84, 97 55.5 M97 55.5 C95.6 68.63, 89.92 72.32, 78.5 74 M97 55.5 C97.76 66.31, 90.76 72.23, 78.5 74 M78.5 74 C57.68 74.79, 38.15 73.05, 18.5 74 M78.5 74 C58.34 74.23, 40.19 73.58, 18.5 74 M18.5 74 C5.39 72.25, -0.76 66.99, 0 55.5 M18.5 74 C6.95 76.22, -1.59 66.81, 0 55.5 M0 55.5 C-0.14 41, 1.58 28.46, 0 18.5 M0 55.5 C0.34 45.06, -0.15 33.5, 0 18.5 M0 18.5 C1.79 8.04, 4.23 1.78, 18.5 0 M0 18.5 C2.09 6.54, 5.18 -1.79, 18.5 0" stroke="#1e1e1e" stroke-width="1" fill="none"></path></g><g transform="translate(1110.8533604939744 103.6666666666647) rotate(0 32.72997283935547 12.5)"><text x="32.72997283935547" y="17.52" font-family="Virgil, Segoe UI Emoji" font-size="20px" fill="#1e1e1e" text-anchor="middle" style="white-space: pre;" direction="ltr" dominant-baseline="alphabetic">64 MB</text></g><g stroke-linecap="round" transform="translate(1201.9166666666638 81.1666666666647) rotate(0 48.5 37)"><path d="M18.5 0 C36.68 1.38, 52.25 -1.39, 78.5 0 M18.5 0 C31.88 0.52, 45.31 0.29, 78.5 0 M78.5 0 C90.2 0.95, 97.42 7.18, 97 18.5 M78.5 0 C89.31 0.85, 97.86 4.74, 97 18.5 M97 18.5 C96.6 32.42, 95.8 45.03, 97 55.5 M97 18.5 C96.04 28.13, 96.29 36.11, 97 55.5 M97 55.5 C97.66 66.51, 90.77 72.46, 78.5 74 M97 55.5 C97.76 65.96, 89.35 73.05, 78.5 74 M78.5 74 C57.46 74.04, 33.74 72.45, 18.5 74 M78.5 74 C55.66 73.18, 33.23 73.63, 18.5 74 M18.5 74 C6.85 75.93, -1.38 66.95, 0 55.5 M18.5 74 C7.22 74.78, -0.84 67.82, 0 55.5 M0 55.5 C-0.57 49.22, 0.9 40.92, 0 18.5 M0 55.5 C0.84 44.67, -1.03 32.86, 0 18.5 M0 18.5 C1.82 6.49, 5.31 -1.56, 18.5 0 M0 18.5 C0.69 8.25, 4.18 0.94, 18.5 0" stroke="#1e1e1e" stroke-width="1" fill="none"></path></g><g transform="translate(1217.6866938273083 105.6666666666647) rotate(0 32.72997283935547 12.5)"><text x="32.72997283935547" y="17.52" font-family="Virgil, Segoe UI Emoji" font-size="20px" fill="#1e1e1e" text-anchor="middle" style="white-space: pre;" direction="ltr" dominant-baseline="alphabetic">64 MB</text></g><g stroke-linecap="round" transform="translate(1309.5833333333317 80.1666666666647) rotate(0 48.5 37)"><path d="M18.5 0 C39.49 2.18, 63.6 0.01, 78.5 0 M18.5 0 C39.63 0.27, 61.61 0.3, 78.5 0 M78.5 0 C89.51 0.74, 97.75 4.92, 97 18.5 M78.5 0 C91.73 0.43, 96.45 5.63, 97 18.5 M97 18.5 C95.75 30.73, 96.5 44.38, 97 55.5 M97 18.5 C97.16 30.42, 96.8 42.89, 97 55.5 M97 55.5 C97.67 66.2, 89.55 73.17, 78.5 74 M97 55.5 C98.35 67.42, 90.19 74.56, 78.5 74 M78.5 74 C61.35 74.83, 41.42 72.81, 18.5 74 M78.5 74 C66.09 74.71, 52.3 73.3, 18.5 74 M18.5 74 C7.08 74.68, -0.73 67.82, 0 55.5 M18.5 74 C4.2 75.96, -1.67 67.53, 0 55.5 M0 55.5 C0.14 41.66, -1.75 28.97, 0 18.5 M0 55.5 C1.27 41.1, -0.07 25.6, 0 18.5 M0 18.5 C0.6 7.98, 4.44 0.82, 18.5 0 M0 18.5 C0.97 6.69, 4.61 0.33, 18.5 0" stroke="#1e1e1e" stroke-width="1" fill="none"></path></g><g transform="translate(1325.3533604939762 104.6666666666647) rotate(0 32.72997283935547 12.5)"><text x="32.72997283935547" y="17.52" font-family="Virgil, Segoe UI Emoji" font-size="20px" fill="#1e1e1e" text-anchor="middle" style="white-space: pre;" direction="ltr" dominant-baseline="alphabetic">64 MB</text></g><g stroke-linecap="round"><g transform="translate(992.7531351631283 117.273891771129) rotate(0 46.83176575176776 0)"><path d="M-0.22 0.69 C15.14 0.74, 77.69 0.43, 93.27 0.41 M-1.8 0.01 C13.28 -0.32, 76.44 -1.25, 92.12 -1.5" stroke="#1971c2" stroke-width="4" fill="none"></path></g><g transform="translate(992.7531351631283 117.273891771129) rotate(0 46.83176575176776 0)"><path d="M91.39 -1.51 L76.92 6.75 L76.98 -7.89 L93.78 -0.29" stroke="none" stroke-width="0" fill="#1971c2" fill-rule="evenodd"></path><path d="M92.12 -1.5 C87.73 0.54, 82.12 3.1, 78.63 5.05 M92.12 -1.5 C86.95 1.12, 83.04 2.65, 78.63 5.05 M78.63 5.05 C78.24 1.61, 77.67 -2.65, 78.43 -7.63 M78.63 5.05 C78.22 2.14, 78.33 -1.81, 78.43 -7.63 M78.43 -7.63 C81.79 -5.09, 86.28 -4.51, 92.12 -1.5 M78.43 -7.63 C81.8 -5.84, 85.63 -5.07, 92.12 -1.5 M92.12 -1.5 C92.12 -1.5, 92.12 -1.5, 92.12 -1.5 M92.12 -1.5 C92.12 -1.5, 92.12 -1.5, 92.12 -1.5" stroke="#1971c2" stroke-width="4" fill="none"></path></g></g><mask></mask><g stroke-opacity="0.4" fill-opacity="0.4" stroke-linecap="round" transform="translate(995.0833333333298 169.1666666666647) rotate(0 48.5 37)"><path d="M18.5 0 C36.07 -0.44, 53.22 0.62, 78.5 0 M78.5 0 C91.84 -1.32, 97.74 6.91, 97 18.5 M97 18.5 C96.67 26.83, 98.52 34.83, 97 55.5 M97 55.5 C98.43 66.82, 89.43 73.73, 78.5 74 M78.5 74 C63 74.38, 49.55 73.67, 18.5 74 M18.5 74 C4.63 74.67, -1.63 66.55, 0 55.5 M0 55.5 C-0.78 46.42, -0.01 34.66, 0 18.5 M0 18.5 C-1.38 7.65, 7.41 0.18, 18.5 0" stroke="#1e1e1e" stroke-width="1.5" fill="none" stroke-dasharray="1.5 7"></path></g><g stroke-opacity="0.4" fill-opacity="0.4" transform="translate(1010.8533604939744 193.6666666666647) rotate(0 32.72997283935547 12.5)"><text x="32.72997283935547" y="17.52" font-family="Virgil, Segoe UI Emoji" font-size="20px" fill="#1e1e1e" text-anchor="middle" style="white-space: pre;" direction="ltr" dominant-baseline="alphabetic">64 MB</text></g><g stroke-linecap="round" transform="translate(1099.5833333333298 169.1666666666647) rotate(0 48.5 37)"><path d="M18.5 0 C35.61 -1.45, 51.43 0.62, 78.5 0 M18.5 0 C32.53 -0.35, 47.73 -0.74, 78.5 0 M78.5 0 C92.26 -1.01, 95.6 5.9, 97 18.5 M78.5 0 C89.23 0.92, 95.95 4.23, 97 18.5 M97 18.5 C95.22 31.48, 95.13 41.84, 97 55.5 M97 18.5 C96.94 28.31, 97.32 36.79, 97 55.5 M97 55.5 C95.62 69.32, 92.08 74.18, 78.5 74 M97 55.5 C96.1 65.82, 89.96 73.03, 78.5 74 M78.5 74 C57.56 74.5, 39.08 72.86, 18.5 74 M78.5 74 C59.81 74.38, 43.39 75.12, 18.5 74 M18.5 74 C7.46 74.36, 0.32 66.31, 0 55.5 M18.5 74 C8.23 76.15, -2.23 69.88, 0 55.5 M0 55.5 C-1.62 41.64, 1.75 24.85, 0 18.5 M0 55.5 C-0.83 43.03, -0.79 30.47, 0 18.5 M0 18.5 C1.91 7.42, 8.05 1.79, 18.5 0 M0 18.5 C-2.07 5.22, 5.5 -1.29, 18.5 0" stroke="#1e1e1e" stroke-width="1" fill="none"></path></g><g transform="translate(1115.3533604939744 193.6666666666647) rotate(0 32.72997283935547 12.5)"><text x="32.72997283935547" y="17.52" font-family="Virgil, Segoe UI Emoji" font-size="20px" fill="#1e1e1e" text-anchor="middle" style="white-space: pre;" direction="ltr" dominant-baseline="alphabetic">64 MB</text></g><g stroke-linecap="round" transform="translate(1206.416666666662 171.1666666666647) rotate(0 48.5 37)"><path d="M18.5 0 C31.29 0.56, 46.94 -0.7, 78.5 0 M18.5 0 C35.81 -0.13, 50.99 0.25, 78.5 0 M78.5 0 C89.44 0.8, 96.09 4.48, 97 18.5 M78.5 0 C91.59 -1.52, 96.93 4.4, 97 18.5 M97 18.5 C95.87 32.01, 96.34 42.6, 97 55.5 M97 18.5 C96.35 31.25, 97.66 42.6, 97 55.5 M97 55.5 C96.22 66.09, 90.08 73.16, 78.5 74 M97 55.5 C97.79 70.05, 89.25 72.98, 78.5 74 M78.5 74 C57.74 72.07, 38.71 72.33, 18.5 74 M78.5 74 C61.93 74.54, 44.22 73.6, 18.5 74 M18.5 74 C7.96 75.87, -1.94 69.61, 0 55.5 M18.5 74 C8.26 74.38, -0.99 66.04, 0 55.5 M0 55.5 C0.48 44.14, 0.12 29.73, 0 18.5 M0 55.5 C1.19 44.5, 1.18 33.15, 0 18.5 M0 18.5 C-1.8 5.35, 5.59 -1.12, 18.5 0 M0 18.5 C0.13 4.48, 6.09 2.18, 18.5 0" stroke="#1e1e1e" stroke-width="1" fill="none"></path></g><g transform="translate(1222.1866938273065 195.6666666666647) rotate(0 32.72997283935547 12.5)"><text x="32.72997283935547" y="17.52" font-family="Virgil, Segoe UI Emoji" font-size="20px" fill="#1e1e1e" text-anchor="middle" style="white-space: pre;" direction="ltr" dominant-baseline="alphabetic">64 MB</text></g><g stroke-linecap="round" transform="translate(1314.0833333333298 170.1666666666647) rotate(0 48.5 37)"><path d="M18.5 0 C38.38 1.51, 57.93 1.57, 78.5 0 M18.5 0 C32.76 0.48, 47.97 -0.76, 78.5 0 M78.5 0 C91.49 -1.32, 96.94 4.63, 97 18.5 M78.5 0 C91.6 -1.88, 95.52 5.22, 97 18.5 M97 18.5 C97.42 31.99, 95.24 43.67, 97 55.5 M97 18.5 C96.84 31.47, 96.85 45.76, 97 55.5 M97 55.5 C97.68 69.76, 89.45 73.11, 78.5 74 M97 55.5 C98.05 68.62, 89.99 73.99, 78.5 74 M78.5 74 C65.37 75.22, 53.97 74.86, 18.5 74 M78.5 74 C60.32 74.48, 39.37 74.43, 18.5 74 M18.5 74 C7.98 74.33, -0.86 66.28, 0 55.5 M18.5 74 C6.86 76.09, -1.99 68.77, 0 55.5 M0 55.5 C0.2 41.56, 0.3 32.09, 0 18.5 M0 55.5 C-1.25 41.67, -0.64 28.09, 0 18.5 M0 18.5 C0.11 4.7, 6.1 1.9, 18.5 0 M0 18.5 C0.8 4.8, 7.83 -1.02, 18.5 0" stroke="#1e1e1e" stroke-width="1" fill="none"></path></g><g transform="translate(1329.8533604939744 194.6666666666647) rotate(0 32.72997283935547 12.5)"><text x="32.72997283935547" y="17.52" font-family="Virgil, Segoe UI Emoji" font-size="20px" fill="#1e1e1e" text-anchor="middle" style="white-space: pre;" direction="ltr" dominant-baseline="alphabetic">64 MB</text></g><g stroke-linecap="round"><g transform="translate(1100.5864684964595 207.273891771129) rotate(0 46.83176575176776 0)"><path d="M0.86 -0.61 C16.19 -0.51, 77.49 -0.34, 92.82 -0.16 M-0.15 1.69 C15.49 2.04, 79.19 1.84, 95.09 1.29" stroke="#1971c2" stroke-width="4" fill="none"></path></g><g transform="translate(1100.5864684964595 207.273891771129) rotate(0 46.83176575176776 0)"><path d="M94.24 -0.26 L82.2 9.67 L79.67 -4.01 L95.94 1.75" stroke="none" stroke-width="0" fill="#1971c2" fill-rule="evenodd"></path><path d="M95.09 1.29 C89.32 2.76, 84.91 5.18, 81.6 7.85 M95.09 1.29 C90.72 2.91, 85.87 5.06, 81.6 7.85 M81.6 7.85 C81.11 4.37, 81.34 -0.96, 81.4 -4.83 M81.6 7.85 C81.08 4.21, 81.85 -0.32, 81.4 -4.83 M81.4 -4.83 C84.29 -2.66, 89.94 -2.61, 95.09 1.29 M81.4 -4.83 C84.65 -3.31, 87.79 -1.1, 95.09 1.29 M95.09 1.29 C95.09 1.29, 95.09 1.29, 95.09 1.29 M95.09 1.29 C95.09 1.29, 95.09 1.29, 95.09 1.29" stroke="#1971c2" stroke-width="4" fill="none"></path></g></g><mask></mask><g stroke-opacity="0.4" fill-opacity="0.4" stroke-linecap="round" transform="translate(1102.3333333333298 260.1666666666647) rotate(0 48.5 37)"><path d="M18.5 0 C40.53 -0.97, 63.89 -0.49, 78.5 0 M78.5 0 C89.15 0.66, 95.68 6.11, 97 18.5 M97 18.5 C95.84 25.93, 98.3 34.65, 97 55.5 M97 55.5 C96.44 68.32, 91.04 72.3, 78.5 74 M78.5 74 C64.83 73.59, 49.05 73.62, 18.5 74 M18.5 74 C5.32 74.68, 1.93 66.45, 0 55.5 M0 55.5 C-0.9 46.03, -1.88 38.28, 0 18.5 M0 18.5 C-1.45 5.91, 7.82 1.21, 18.5 0" stroke="#1e1e1e" stroke-width="1.5" fill="none" stroke-dasharray="1.5 7"></path></g><g stroke-opacity="0.4" fill-opacity="0.4" transform="translate(1118.1033604939744 284.6666666666647) rotate(0 32.72997283935547 12.5)"><text x="32.72997283935547" y="17.52" font-family="Virgil, Segoe UI Emoji" font-size="20px" fill="#1e1e1e" text-anchor="middle" style="white-space: pre;" direction="ltr" dominant-baseline="alphabetic">64 MB</text></g><g stroke-opacity="0.4" fill-opacity="0.4" stroke-linecap="round" transform="translate(992.9166666666638 260.1666666666647) rotate(0 48.5 37)"><path d="M18.5 0 C34.69 -1.49, 53.31 0.98, 78.5 0 M78.5 0 C90.48 -0.56, 97.49 6.38, 97 18.5 M97 18.5 C97.99 26.64, 95.96 32.67, 97 55.5 M97 55.5 C96.24 66.99, 91.52 75.93, 78.5 74 M78.5 74 C65.32 73.55, 50.76 72.57, 18.5 74 M18.5 74 C7.87 72.55, -0.26 69.49, 0 55.5 M0 55.5 C0.08 40.63, 1.55 30.68, 0 18.5 M0 18.5 C-1.94 7.95, 7.98 0.33, 18.5 0" stroke="#1e1e1e" stroke-width="1.5" fill="none" stroke-dasharray="1.5 7"></path></g><g stroke-opacity="0.4" fill-opacity="0.4" transform="translate(1008.6866938273083 284.6666666666647) rotate(0 32.72997283935547 12.5)"><text x="32.72997283935547" y="17.52" font-family="Virgil, Segoe UI Emoji" font-size="20px" fill="#1e1e1e" text-anchor="middle" style="white-space: pre;" direction="ltr" dominant-baseline="alphabetic">64 MB</text></g><g stroke-linecap="round"><g transform="translate(1404.9544785257244 115.82669985541588) rotate(0 -45.25983685955043 0)"><path d="M0.37 0.02 C-14.59 -0.01, -75.55 0.2, -90.81 0.16 M-0.9 -1.02 C-15.95 -0.86, -76.68 1.44, -91.91 1.78" stroke="#1971c2" stroke-width="4" fill="none"></path></g><g transform="translate(1404.9544785257244 115.82669985541588) rotate(0 -45.25983685955043 0)"><path d="M-91.87 3.21 L-80.49 -6.09 L-76.66 9.58 L-93.42 0.3" stroke="none" stroke-width="0" fill="#1971c2" fill-rule="evenodd"></path><path d="M-91.91 1.78 C-89.07 -0.06, -86.04 -1.96, -78.52 -4.97 M-91.91 1.78 C-88.24 -0.01, -83.77 -1.27, -78.52 -4.97 M-78.52 -4.97 C-77.34 -1.51, -77.75 1.65, -78.13 7.7 M-78.52 -4.97 C-78.74 -1.92, -78.61 2.43, -78.13 7.7 M-78.13 7.7 C-81.97 6.75, -86.96 3.46, -91.91 1.78 M-78.13 7.7 C-83.06 5.56, -88.93 2.67, -91.91 1.78 M-91.91 1.78 C-91.91 1.78, -91.91 1.78, -91.91 1.78 M-91.91 1.78 C-91.91 1.78, -91.91 1.78, -91.91 1.78" stroke="#1971c2" stroke-width="4" fill="none"></path></g></g><mask></mask><g stroke-opacity="0.4" fill-opacity="0.4" stroke-linecap="round" transform="translate(1317.0416666666647 261.3333333333326) rotate(0 48.5 37)"><path d="M18.5 0 C33.08 1.54, 47.95 0.16, 78.5 0 M78.5 0 C90.6 1.34, 96.58 6.96, 97 18.5 M97 18.5 C97.31 33.42, 97.2 43.19, 97 55.5 M97 55.5 C95.02 69.35, 92.8 75.35, 78.5 74 M78.5 74 C63.13 76.06, 49.46 73.46, 18.5 74 M18.5 74 C5.09 75.73, -0.38 67.33, 0 55.5 M0 55.5 C-0.62 42.96, 1.41 31.41, 0 18.5 M0 18.5 C-1.77 4.31, 6.42 0.98, 18.5 0" stroke="#1e1e1e" stroke-width="1.5" fill="none" stroke-dasharray="1.5 7"></path></g><g stroke-opacity="0.4" fill-opacity="0.4" transform="translate(1332.8116938273092 285.8333333333326) rotate(0 32.72997283935547 12.5)"><text x="32.72997283935547" y="17.52" font-family="Virgil, Segoe UI Emoji" font-size="20px" fill="#1e1e1e" text-anchor="middle" style="white-space: pre;" direction="ltr" dominant-baseline="alphabetic">64 MB</text></g><g stroke-linecap="round" transform="translate(1207.6249999999986 261.3333333333326) rotate(0 48.5 37)"><path d="M18.5 0 C40.84 1.29, 63.24 0.75, 78.5 0 M18.5 0 C40.31 1.23, 61.86 -0.55, 78.5 0 M78.5 0 C88.85 1.52, 98.97 7.52, 97 18.5 M78.5 0 C89.77 -1.64, 99.14 5.98, 97 18.5 M97 18.5 C96.18 34.12, 96.87 45.77, 97 55.5 M97 18.5 C96.86 28.93, 97.88 39.85, 97 55.5 M97 55.5 C95.23 65.97, 91.09 74.98, 78.5 74 M97 55.5 C97.56 68.04, 89.79 74.2, 78.5 74 M78.5 74 C65.43 72.38, 51.18 72.78, 18.5 74 M78.5 74 C59.4 74.01, 42.33 73.69, 18.5 74 M18.5 74 C5.69 74.73, -0.5 67.09, 0 55.5 M18.5 74 C5.61 74.92, 2.23 70.12, 0 55.5 M0 55.5 C-1.56 42.26, -0.02 27.13, 0 18.5 M0 55.5 C0.54 46.42, 1.29 34.94, 0 18.5 M0 18.5 C-1.08 7.24, 6.55 0.46, 18.5 0 M0 18.5 C-1.47 8.45, 5.06 -1.22, 18.5 0" stroke="#1e1e1e" stroke-width="1" fill="none"></path></g><g transform="translate(1223.3950271606432 285.8333333333326) rotate(0 32.72997283935547 12.5)"><text x="32.72997283935547" y="17.52" font-family="Virgil, Segoe UI Emoji" font-size="20px" fill="#1e1e1e" text-anchor="middle" style="white-space: pre;" direction="ltr" dominant-baseline="alphabetic">64 MB</text></g><g stroke-linecap="round"><g transform="translate(1404.9403654562507 206.28414004440037) rotate(0 -45.25983685955043 0)"><path d="M0.19 0.52 C-15.18 0.67, -76.25 0.86, -91.23 0.83 M-1.17 -0.25 C-16.24 -0.43, -74.09 -1.2, -88.9 -0.86" stroke="#1971c2" stroke-width="4" fill="none"></path></g><g transform="translate(1404.9403654562507 206.28414004440037) rotate(0 -45.25983685955043 0)"><path d="M-87.87 -2.14 L-75.73 -6.5 L-75.59 5.31 L-90.39 -2.48" stroke="none" stroke-width="0" fill="#1971c2" fill-rule="evenodd"></path><path d="M-88.9 -0.86 C-83.02 -4.23, -77.41 -4.74, -75.32 -7.23 M-88.9 -0.86 C-84.19 -2.99, -80.69 -5.28, -75.32 -7.23 M-75.32 -7.23 C-75.58 -2.64, -74.9 2.82, -75.29 5.45 M-75.32 -7.23 C-75.87 -2.83, -75.75 2.17, -75.29 5.45 M-75.29 5.45 C-80 3.03, -83.5 0.32, -88.9 -0.86 M-75.29 5.45 C-78.79 3.87, -81.98 3.37, -88.9 -0.86 M-88.9 -0.86 C-88.9 -0.86, -88.9 -0.86, -88.9 -0.86 M-88.9 -0.86 C-88.9 -0.86, -88.9 -0.86, -88.9 -0.86" stroke="#1971c2" stroke-width="4" fill="none"></path></g></g><mask></mask><g stroke-linecap="round"><g transform="translate(1210.0285696249207 297.70392994218173) rotate(0 46.83176575176776 0)"><path d="M0.41 -0.52 C16.17 -0.67, 78.01 -1, 93.44 -0.88 M-0.83 1.82 C14.84 1.8, 76.93 0.24, 92.38 0.2" stroke="#1971c2" stroke-width="4" fill="none"></path></g><g transform="translate(1210.0285696249207 297.70392994218173) rotate(0 46.83176575176776 0)"><path d="M-0.8 -2.31 L12.34 -7.31 L13.47 3.93 L-0.06 -2.14" stroke="none" stroke-width="0" fill="#1971c2" fill-rule="evenodd"></path><path d="M0.41 -0.52 C2.62 -2.2, 5.04 -4.11, 13.98 -6.93 M0.41 -0.52 C4.09 -1.84, 9 -3.87, 13.98 -6.93 M13.98 -6.93 C14.38 -2.67, 13.85 1.03, 14.04 5.75 M13.98 -6.93 C13.56 -4.5, 13.82 -0.89, 14.04 5.75 M14.04 5.75 C7.38 2.37, 3.31 0.8, 0.41 -0.52 M14.04 5.75 C11.11 4.24, 7.5 2.01, 0.41 -0.52 M0.41 -0.52 C0.41 -0.52, 0.41 -0.52, 0.41 -0.52 M0.41 -0.52 C0.41 -0.52, 0.41 -0.52, 0.41 -0.52" stroke="#1971c2" stroke-width="4" fill="none"></path></g><g transform="translate(1210.0285696249207 297.70392994218173) rotate(0 46.83176575176776 0)"><path d="M91.17 -1.58 L77.24 6.37 L78.12 -7.75 L91.91 -1.42" stroke="none" stroke-width="0" fill="#1971c2" fill-rule="evenodd"></path><path d="M92.38 0.2 C88.88 1.35, 85.59 2.17, 78.88 6.74 M92.38 0.2 C87.44 2.84, 83.8 4.91, 78.88 6.74 M78.88 6.74 C79.36 2.1, 78.74 -3.11, 78.69 -5.93 M78.88 6.74 C78.49 3.62, 78.69 1.68, 78.69 -5.93 M78.69 -5.93 C82.66 -4.47, 89.32 -1.18, 92.38 0.2 M78.69 -5.93 C82.82 -4.37, 86.28 -3.4, 92.38 0.2 M92.38 0.2 C92.38 0.2, 92.38 0.2, 92.38 0.2 M92.38 0.2 C92.38 0.2, 92.38 0.2, 92.38 0.2" stroke="#1971c2" stroke-width="4" fill="none"></path></g></g><mask></mask><g stroke-opacity="0.4" fill-opacity="0.4" stroke-linecap="round" transform="translate(710.1666666666633 415.1666666666647) rotate(0 48.5 37)"><path d="M18.5 0 C30.69 1.11, 45.99 -1.64, 78.5 0 M78.5 0 C90.87 0.48, 95.7 5.75, 97 18.5 M97 18.5 C95.17 31.25, 95.09 46.55, 97 55.5 M97 55.5 C96.99 69.16, 91.5 73.43, 78.5 74 M78.5 74 C57.66 72.96, 39.86 74.29, 18.5 74 M18.5 74 C8.01 72.82, 0.99 65.85, 0 55.5 M0 55.5 C-1 40, 1.58 26.74, 0 18.5 M0 18.5 C-1.84 4.7, 4.72 0.95, 18.5 0" stroke="#1e1e1e" stroke-width="1.5" fill="none" stroke-dasharray="1.5 7"></path></g><g stroke-opacity="0.4" fill-opacity="0.4" transform="translate(725.9366938273079 439.6666666666647) rotate(0 32.72997283935547 12.5)"><text x="32.72997283935547" y="17.52" font-family="Virgil, Segoe UI Emoji" font-size="20px" fill="#1e1e1e" text-anchor="middle" style="white-space: pre;" direction="ltr" dominant-baseline="alphabetic">64 MB</text></g><g stroke-opacity="0.4" fill-opacity="0.4" stroke-linecap="round" transform="translate(817.8333333333312 414.1666666666647) rotate(0 48.5 37)"><path d="M18.5 0 C39.84 0.98, 59.82 0.08, 78.5 0 M78.5 0 C92.53 0.15, 95.04 4.31, 97 18.5 M97 18.5 C96.63 28.17, 97.31 34.61, 97 55.5 M97 55.5 C97.54 66.89, 91.7 72.79, 78.5 74 M78.5 74 C66.24 72.83, 51.29 72.03, 18.5 74 M18.5 74 C7.97 74.72, -0.85 66.97, 0 55.5 M0 55.5 C-2.15 44.9, -1.76 38.17, 0 18.5 M0 18.5 C-1.65 7.08, 7.65 0.74, 18.5 0" stroke="#1e1e1e" stroke-width="1.5" fill="none" stroke-dasharray="1.5 7"></path></g><g stroke-opacity="0.4" fill-opacity="0.4" transform="translate(833.6033604939757 438.6666666666647) rotate(0 32.72997283935547 12.5)"><text x="32.72997283935547" y="17.52" font-family="Virgil, Segoe UI Emoji" font-size="20px" fill="#1e1e1e" text-anchor="middle" style="white-space: pre;" direction="ltr" dominant-baseline="alphabetic">64 MB</text></g><g stroke-opacity="0.4" fill-opacity="0.4" stroke-linecap="round" transform="translate(491.8333333333294 416.83333333333167) rotate(0 48.5 37)"><path d="M18.5 0 C34.25 1.38, 46.21 1.56, 78.5 0 M78.5 0 C91.06 -1.15, 95.95 6.52, 97 18.5 M97 18.5 C96.11 31.51, 98.5 47.28, 97 55.5 M97 55.5 C96.95 68.3, 91.88 73.7, 78.5 74 M78.5 74 C63.03 73.2, 46.78 74.31, 18.5 74 M18.5 74 C7.16 75.33, 0.42 67.11, 0 55.5 M0 55.5 C0.85 48.46, -0.19 41.16, 0 18.5 M0 18.5 C0.61 5.82, 7.75 -1.54, 18.5 0" stroke="#1e1e1e" stroke-width="1.5" fill="none" stroke-dasharray="1.5 7"></path></g><g stroke-opacity="0.4" fill-opacity="0.4" transform="translate(507.6033604939739 441.33333333333167) rotate(0 32.72997283935547 12.5)"><text x="32.72997283935547" y="17.52" font-family="Virgil, Segoe UI Emoji" font-size="20px" fill="#1e1e1e" text-anchor="middle" style="white-space: pre;" direction="ltr" dominant-baseline="alphabetic">64 MB</text></g><g stroke-opacity="0.4" fill-opacity="0.4" stroke-linecap="round" transform="translate(599.4999999999973 415.83333333333167) rotate(0 48.5 37)"><path d="M18.5 0 C40.99 -1.63, 61.97 -0.13, 78.5 0 M78.5 0 C92.38 -1.78, 98.84 5.61, 97 18.5 M97 18.5 C97.29 28.32, 98.39 36.89, 97 55.5 M97 55.5 C96 69.82, 89.08 73.53, 78.5 74 M78.5 74 C62.3 75.58, 44.53 73.53, 18.5 74 M18.5 74 C4.37 75.01, -1.95 68.86, 0 55.5 M0 55.5 C0.61 42.68, 1.58 29.02, 0 18.5 M0 18.5 C1.56 7.61, 7.23 -1.22, 18.5 0" stroke="#1e1e1e" stroke-width="1.5" fill="none" stroke-dasharray="1.5 7"></path></g><g stroke-opacity="0.4" fill-opacity="0.4" transform="translate(615.2700271606418 440.33333333333167) rotate(0 32.72997283935547 12.5)"><text x="32.72997283935547" y="17.52" font-family="Virgil, Segoe UI Emoji" font-size="20px" fill="#1e1e1e" text-anchor="middle" style="white-space: pre;" direction="ltr" dominant-baseline="alphabetic">64 MB</text></g><g stroke-opacity="0.4" fill-opacity="0.4" stroke-linecap="round" transform="translate(225.99999999999682 417.6666666666656) rotate(0 48.5 37)"><path d="M18.5 0 C40.53 -0.99, 61.48 -1.46, 78.5 0 M78.5 0 C91.15 -0.03, 98.99 7.05, 97 18.5 M97 18.5 C95.26 34.1, 97.88 48.02, 97 55.5 M97 55.5 C95.86 67.96, 92.18 73.52, 78.5 74 M78.5 74 C56.82 71.99, 40.87 73.04, 18.5 74 M18.5 74 C7.72 72.14, 1.3 68.69, 0 55.5 M0 55.5 C-1.34 46.48, 0.04 36.98, 0 18.5 M0 18.5 C-1.97 4.57, 6.13 -0.25, 18.5 0" stroke="#1e1e1e" stroke-width="1.5" fill="none" stroke-dasharray="1.5 7"></path></g><g stroke-opacity="0.4" fill-opacity="0.4" transform="translate(241.77002716064135 442.1666666666656) rotate(0 32.72997283935547 12.5)"><text x="32.72997283935547" y="17.52" font-family="Virgil, Segoe UI Emoji" font-size="20px" fill="#1e1e1e" text-anchor="middle" style="white-space: pre;" direction="ltr" dominant-baseline="alphabetic">64 MB</text></g><g stroke-opacity="0.4" fill-opacity="0.4" stroke-linecap="round" transform="translate(333.6666666666647 416.6666666666656) rotate(0 48.5 37)"><path d="M18.5 0 C32.71 0.52, 48.26 1.44, 78.5 0 M78.5 0 C92.39 -1.05, 98.84 4.62, 97 18.5 M97 18.5 C96.06 32.75, 98.54 46.26, 97 55.5 M97 55.5 C97.58 69.48, 89.04 72.05, 78.5 74 M78.5 74 C66.46 72.01, 52.61 74.73, 18.5 74 M18.5 74 C4.64 75.27, -0.2 66.73, 0 55.5 M0 55.5 C-2.02 44.18, -0.09 35.8, 0 18.5 M0 18.5 C0.06 6.6, 5.78 1.75, 18.5 0" stroke="#1e1e1e" stroke-width="1.5" fill="none" stroke-dasharray="1.5 7"></path></g><g stroke-opacity="0.4" fill-opacity="0.4" transform="translate(349.4366938273092 441.1666666666656) rotate(0 32.72997283935547 12.5)"><text x="32.72997283935547" y="17.52" font-family="Virgil, Segoe UI Emoji" font-size="20px" fill="#1e1e1e" text-anchor="middle" style="white-space: pre;" direction="ltr" dominant-baseline="alphabetic">64 MB</text></g><g stroke-opacity="0.4" fill-opacity="0.4" stroke-linecap="round" transform="translate(12.666666666662877 419.33333333333167) rotate(0 48.5 37)"><path d="M18.5 0 C37.96 -1.32, 56.16 -1.81, 78.5 0 M78.5 0 C92.47 1.08, 98.57 5.03, 97 18.5 M97 18.5 C97.82 31.49, 95.45 39.24, 97 55.5 M97 55.5 C95.53 69.65, 90.41 75.56, 78.5 74 M78.5 74 C64.56 75.53, 53.47 73.15, 18.5 74 M18.5 74 C5.42 74.27, -1.97 65.87, 0 55.5 M0 55.5 C0.07 47.79, -0.38 40.97, 0 18.5 M0 18.5 C-1.76 8.06, 5.15 -0.14, 18.5 0" stroke="#1e1e1e" stroke-width="1.5" fill="none" stroke-dasharray="1.5 7"></path></g><g stroke-opacity="0.4" fill-opacity="0.4" transform="translate(28.43669382730741 443.83333333333167) rotate(0 32.72997283935547 12.5)"><text x="32.72997283935547" y="17.52" font-family="Virgil, Segoe UI Emoji" font-size="20px" fill="#1e1e1e" text-anchor="middle" style="white-space: pre;" direction="ltr" dominant-baseline="alphabetic">64 MB</text></g><g stroke-opacity="0.4" fill-opacity="0.4" stroke-linecap="round" transform="translate(115.33333333333076 418.33333333333167) rotate(0 48.5 37)"><path d="M18.5 0 C34.97 1.54, 49.75 -0.67, 78.5 0 M78.5 0 C90.96 1.34, 96.52 6.74, 97 18.5 M97 18.5 C95.2 34.47, 96.24 48.36, 97 55.5 M97 55.5 C95.14 69.14, 91.69 72.47, 78.5 74 M78.5 74 C55.94 73.94, 32.9 71.7, 18.5 74 M18.5 74 C4.57 73.96, -0.25 67.89, 0 55.5 M0 55.5 C-1.68 45.5, -0.95 31.56, 0 18.5 M0 18.5 C-0.68 7.55, 6.45 -1.08, 18.5 0" stroke="#1e1e1e" stroke-width="1.5" fill="none" stroke-dasharray="1.5 7"></path></g><g stroke-opacity="0.4" fill-opacity="0.4" transform="translate(131.1033604939753 442.83333333333167) rotate(0 32.72997283935547 12.5)"><text x="32.72997283935547" y="17.52" font-family="Virgil, Segoe UI Emoji" font-size="20px" fill="#1e1e1e" text-anchor="middle" style="white-space: pre;" direction="ltr" dominant-baseline="alphabetic">64 MB</text></g><g stroke-opacity="0.4" fill-opacity="0.4" stroke-linecap="round" transform="translate(1209.3333333333308 344.33333333333303) rotate(0 48.5 37)"><path d="M18.5 0 C39.05 -0.92, 62.93 2.03, 78.5 0 M78.5 0 C92.69 1.62, 96.74 7.18, 97 18.5 M97 18.5 C99.09 29.05, 96.03 39.45, 97 55.5 M97 55.5 C95.13 66.63, 88.91 72.48, 78.5 74 M78.5 74 C59.75 72.66, 40.67 74.32, 18.5 74 M18.5 74 C7.06 72.03, -1.79 66.2, 0 55.5 M0 55.5 C-1.14 48.89, 0.29 38.94, 0 18.5 M0 18.5 C-0.76 5.16, 7.37 -0.82, 18.5 0" stroke="#1e1e1e" stroke-width="1.5" fill="none" stroke-dasharray="1.5 7"></path></g><g stroke-opacity="0.4" fill-opacity="0.4" transform="translate(1225.1033604939753 368.83333333333303) rotate(0 32.72997283935547 12.5)"><text x="32.72997283935547" y="17.52" font-family="Virgil, Segoe UI Emoji" font-size="20px" fill="#1e1e1e" text-anchor="middle" style="white-space: pre;" direction="ltr" dominant-baseline="alphabetic">64 MB</text></g><g stroke-opacity="0.4" fill-opacity="0.4" stroke-linecap="round" transform="translate(1316.9999999999986 343.33333333333303) rotate(0 48.5 37)"><path d="M18.5 0 C33.8 1.19, 45.12 0.58, 78.5 0 M78.5 0 C90.39 1.86, 98.16 7.92, 97 18.5 M97 18.5 C94.89 28.88, 94.84 40.14, 97 55.5 M97 55.5 C97.11 65.86, 89.31 73.6, 78.5 74 M78.5 74 C64.04 72.27, 46 72.6, 18.5 74 M18.5 74 C4.74 75.22, -0.95 66.92, 0 55.5 M0 55.5 C-0.85 39.96, 1.11 25.62, 0 18.5 M0 18.5 C1.62 5.45, 6.22 0.55, 18.5 0" stroke="#1e1e1e" stroke-width="1.5" fill="none" stroke-dasharray="1.5 7"></path></g><g stroke-opacity="0.4" fill-opacity="0.4" transform="translate(1332.7700271606432 367.83333333333303) rotate(0 32.72997283935547 12.5)"><text x="32.72997283935547" y="17.52" font-family="Virgil, Segoe UI Emoji" font-size="20px" fill="#1e1e1e" text-anchor="middle" style="white-space: pre;" direction="ltr" dominant-baseline="alphabetic">64 MB</text></g><g stroke-opacity="0.4" fill-opacity="0.4" stroke-linecap="round" transform="translate(990.9999999999959 346.0000000000009) rotate(0 48.5 37)"><path d="M18.5 0 C40.92 1.55, 65.39 1.45, 78.5 0 M78.5 0 C91.09 -1.31, 97.38 4.3, 97 18.5 M97 18.5 C96.76 25.39, 95.12 35.83, 97 55.5 M97 55.5 C96.12 66.69, 91.61 74.9, 78.5 74 M78.5 74 C64.97 74.73, 53.34 72.59, 18.5 74 M18.5 74 C8.02 74.51, 0.36 67.07, 0 55.5 M0 55.5 C1.4 45.54, -0.17 37.57, 0 18.5 M0 18.5 C1.48 5.21, 5.48 -0.43, 18.5 0" stroke="#1e1e1e" stroke-width="1.5" fill="none" stroke-dasharray="1.5 7"></path></g><g stroke-opacity="0.4" fill-opacity="0.4" transform="translate(1006.7700271606404 370.5000000000009) rotate(0 32.72997283935547 12.5)"><text x="32.72997283935547" y="17.52" font-family="Virgil, Segoe UI Emoji" font-size="20px" fill="#1e1e1e" text-anchor="middle" style="white-space: pre;" direction="ltr" dominant-baseline="alphabetic">64 MB</text></g><g stroke-opacity="0.4" fill-opacity="0.4" stroke-linecap="round" transform="translate(1098.6666666666638 345.0000000000009) rotate(0 48.5 37)"><path d="M18.5 0 C42.33 -1.84, 66.02 -2.39, 78.5 0 M78.5 0 C89.63 -1.92, 95.48 6.28, 97 18.5 M97 18.5 C95.84 24.8, 97.5 34.29, 97 55.5 M97 55.5 C95.03 66.04, 89.2 72.57, 78.5 74 M78.5 74 C58.68 74.24, 35.52 72.97, 18.5 74 M18.5 74 C5.16 75.2, -0.82 69.45, 0 55.5 M0 55.5 C1.46 44.77, -0.7 35.51, 0 18.5 M0 18.5 C0.52 5.79, 6.83 -0.66, 18.5 0" stroke="#1e1e1e" stroke-width="1.5" fill="none" stroke-dasharray="1.5 7"></path></g><g stroke-opacity="0.4" fill-opacity="0.4" transform="translate(1114.4366938273083 369.5000000000009) rotate(0 32.72997283935547 12.5)"><text x="32.72997283935547" y="17.52" font-family="Virgil, Segoe UI Emoji" font-size="20px" fill="#1e1e1e" text-anchor="middle" style="white-space: pre;" direction="ltr" dominant-baseline="alphabetic">64 MB</text></g><g transform="translate(126.8400955200159 10) rotate(0 85.65990447998047 12.5)"><text x="85.65990447998047" y="17.52" font-family="Virgil, Segoe UI Emoji" font-size="20px" fill="#1e1e1e" text-anchor="middle" style="white-space: pre;" direction="ltr" dominant-baseline="alphabetic">Forward iteration</text></g><g transform="translate(613.6867701212527 19.166666666666515) rotate(0 85.47989654541016 12.5)"><text x="85.47989654541016" y="17.52" font-family="Virgil, Segoe UI Emoji" font-size="20px" fill="#1e1e1e" text-anchor="middle" style="white-space: pre;" direction="ltr" dominant-baseline="alphabetic">Reverse iteration</text></g><g transform="translate(1083.5367914835574 30.833333333333485) rotate(0 110.62987518310547 12.5)"><text x="110.62987518310547" y="17.52" font-family="Virgil, Segoe UI Emoji" font-size="20px" fill="#1e1e1e" text-anchor="middle" style="white-space: pre;" direction="ltr" dominant-baseline="alphabetic">Double-ended iteration</text></g><g stroke-linecap="round"><g transform="translate(1474.4999999999968 32.00000000000091) rotate(0 0 230)"><path d="M0.35 -0.44 C0.56 76.55, 0.36 384.28, 0.26 460.98 M-0.92 -1.71 C-0.76 75.04, -0.51 382.27, -0.55 459.37" stroke="#1e1e1e" stroke-width="1" fill="none"></path></g><g transform="translate(1474.4999999999968 32.00000000000091) rotate(0 0 230)"><path d="M-0.88 459.86 L-4.96 444.31 L5.18 445.34 L0.16 460.87" stroke="none" stroke-width="0" fill="#1e1e1e" fill-rule="evenodd"></path><path d="M-0.55 459.37 C-2.37 456.75, -1.99 453.14, -6.89 445.78 M-0.55 459.37 C-1.88 454.98, -3.65 452.34, -6.89 445.78 M-6.89 445.78 C-3.44 446.07, -0.89 446.42, 5.79 445.77 M-6.89 445.78 C-2.2 445.69, 1.95 446.1, 5.79 445.77 M5.79 445.77 C1.78 449.94, 0.28 455.35, -0.55 459.37 M5.79 445.77 C3.3 450.83, 1.1 455.4, -0.55 459.37 M-0.55 459.37 C-0.55 459.37, -0.55 459.37, -0.55 459.37 M-0.55 459.37 C-0.55 459.37, -0.55 459.37, -0.55 459.37" stroke="#1e1e1e" stroke-width="1" fill="none"></path></g></g><mask></mask><g transform="translate(1497.8333333333308 238.66666666666697) rotate(0 22.02997589111328 12.5)"><text x="0" y="17.52" font-family="Virgil, Segoe UI Emoji" font-size="20px" fill="#1e1e1e" text-anchor="start" style="white-space: pre;" direction="ltr" dominant-baseline="alphabetic">Time</text></g></svg>