<svg version="1.1" xmlns="http://www.w3.org/2000/svg" viewBox="0 0 933.5977445775379 579.6309523809522" width="933.5977445775379" height="579.6309523809522">
  <!-- svg-source:excalidraw -->
  
  <defs>
    <style class="style-fonts">
      @font-face {
        font-family: "Virgil";
        src: url("https://excalidraw.com/Virgil.woff2");
      }
      @font-face {
        font-family: "Cascadia";
        src: url("https://excalidraw.com/Cascadia.woff2");
      }
      @font-face {
        font-family: "Assistant";
        src: url("https://excalidraw.com/Assistant-Regular.woff2");
      }
    </style>
    
  </defs>
  <rect x="0" y="0" width="933.5977445775379" height="579.6309523809522" fill="#ffffff"></rect><g stroke-linecap="round" transform="translate(86.27568163190517 322.2857142857139) rotate(0 204.92857142857133 37)"><path d="M18.5 0 C110.44 -1.47, 199.89 -1.03, 391.36 0 M18.5 0 C134.32 -1.32, 249.78 -2.17, 391.36 0 M391.36 0 C402.99 -0.74, 409.5 4.36, 409.86 18.5 M391.36 0 C401.63 1.97, 407.95 5.72, 409.86 18.5 M409.86 18.5 C410.25 30.65, 410.94 44.08, 409.86 55.5 M409.86 18.5 C408.98 26.71, 410.64 33.37, 409.86 55.5 M409.86 55.5 C411.57 68.03, 403.27 72.71, 391.36 74 M409.86 55.5 C411.87 69.17, 403.75 75.65, 391.36 74 M391.36 74 C272.2 75.81, 155.53 74.51, 18.5 74 M391.36 74 C276.62 74.93, 161.25 73.96, 18.5 74 M18.5 74 C5.22 74.45, -0.2 66.31, 0 55.5 M18.5 74 C5.59 74.83, -0.09 66.4, 0 55.5 M0 55.5 C-0.25 45.82, 1.18 38.12, 0 18.5 M0 55.5 C0.99 40.88, -0.1 27.28, 0 18.5 M0 18.5 C-0.76 7.44, 5.81 1.12, 18.5 0 M0 18.5 C0.06 8.03, 5.7 -0.49, 18.5 0" stroke="#1e1e1e" stroke-width="1" fill="none"></path></g><g transform="translate(258.4742802211208 346.7857142857139) rotate(0 32.72997283935547 12.5)"><text x="32.72997283935547" y="17.52" font-family="Virgil, Segoe UI Emoji" font-size="20px" fill="#1e1e1e" text-anchor="middle" style="white-space: pre;" direction="ltr" dominant-baseline="alphabetic">64 MB</text></g><g stroke-linecap="round" transform="translate(502.20425306047673 322.2857142857139) rotate(0 97.89285725722107 37)"><path d="M18.5 0 C69.56 -0.53, 121.9 0.03, 177.29 0 M18.5 0 C81.01 0.33, 144.05 -0.21, 177.29 0 M177.29 0 C187.83 1.71, 194.13 5.77, 195.79 18.5 M177.29 0 C190.89 2, 193.74 6.25, 195.79 18.5 M195.79 18.5 C194.16 28.15, 195.13 35.08, 195.79 55.5 M195.79 18.5 C196.9 31.08, 195.83 42.81, 195.79 55.5 M195.79 55.5 C197.53 68.99, 189.67 75.43, 177.29 74 M195.79 55.5 C196.19 65.74, 191.33 72.67, 177.29 74 M177.29 74 C128.3 70.93, 79.33 73.97, 18.5 74 M177.29 74 C116.03 73.01, 55.62 72.02, 18.5 74 M18.5 74 C5.67 74.72, -0.08 66.59, 0 55.5 M18.5 74 C5.19 73.51, 0.69 67.45, 0 55.5 M0 55.5 C1.34 43.65, -1.85 35.44, 0 18.5 M0 55.5 C-0.28 47.52, -0.07 38.83, 0 18.5 M0 18.5 C0.06 7.79, 5.76 -0.42, 18.5 0 M0 18.5 C-2.25 6.04, 4.76 -0.38, 18.5 0" stroke="#1e1e1e" stroke-width="1" fill="none"></path></g><g transform="translate(567.3671374783426 346.7857142857139) rotate(0 32.72997283935547 12.5)"><text x="32.72997283935547" y="17.52" font-family="Virgil, Segoe UI Emoji" font-size="20px" fill="#1e1e1e" text-anchor="middle" style="white-space: pre;" direction="ltr" dominant-baseline="alphabetic">64 MB</text></g><g stroke-linecap="round" transform="translate(88.16853877476296 409.5714285714281) rotate(0 22.07142857142867 37)"><path d="M11.04 0 C21.02 0.35, 26.32 1.48, 33.11 0 M11.04 0 C15.41 -0.1, 20.96 -0.01, 33.11 0 M33.11 0 C41.97 1.66, 45.06 2.15, 44.14 11.04 M33.11 0 C39.38 0.52, 43.91 1.92, 44.14 11.04 M44.14 11.04 C43.08 24.48, 43.9 40.2, 44.14 62.96 M44.14 11.04 C44.95 26.53, 43.59 39.66, 44.14 62.96 M44.14 62.96 C45.74 68.98, 39.89 73.36, 33.11 74 M44.14 62.96 C43.26 71.79, 40.06 75.28, 33.11 74 M33.11 74 C26 72, 19.63 72.74, 11.04 74 M33.11 74 C25.96 74.46, 20.65 73.23, 11.04 74 M11.04 74 C2.18 75.34, 0.82 72.08, 0 62.96 M11.04 74 C5.63 73.56, -0.07 69.24, 0 62.96 M0 62.96 C0.56 44.53, 0.83 24.86, 0 11.04 M0 62.96 C-0.24 44.61, -0.1 26.52, 0 11.04 M0 11.04 C1.35 4.26, 5.6 -1.33, 11.04 0 M0 11.04 C0.89 5.79, 4.07 1.38, 11.04 0" stroke="#1e1e1e" stroke-width="1" fill="none"></path></g><g transform="translate(95.30997467041061 421.5714285714281) rotate(0 14.92999267578125 25)"><text x="14.92999267578125" y="17.52" font-family="Virgil, Segoe UI Emoji" font-size="20px" fill="#1e1e1e" text-anchor="middle" style="white-space: pre;" direction="ltr" dominant-baseline="alphabetic">64</text><text x="14.92999267578125" y="42.519999999999996" font-family="Virgil, Segoe UI Emoji" font-size="20px" fill="#1e1e1e" text-anchor="middle" style="white-space: pre;" direction="ltr" dominant-baseline="alphabetic">MB</text></g><g stroke-linecap="round" transform="translate(163.4899673461914 142.571428571428) rotate(0 114.42857142857156 37)"><path d="M18.5 0 C85.31 0.71, 149.68 0.41, 210.36 0 M18.5 0 C82.54 0.98, 147.73 1.03, 210.36 0 M210.36 0 C222.54 1.1, 230.55 7.71, 228.86 18.5 M210.36 0 C221.51 -1.89, 230.7 4.62, 228.86 18.5 M228.86 18.5 C230.01 28.18, 229.86 38.64, 228.86 55.5 M228.86 18.5 C227.8 32.54, 228.17 46.53, 228.86 55.5 M228.86 55.5 C230.57 66.09, 220.92 75.3, 210.36 74 M228.86 55.5 C228.99 66.5, 220.97 75.54, 210.36 74 M210.36 74 C144.55 75.57, 78.58 77.07, 18.5 74 M210.36 74 C144.29 75.31, 77.6 75.27, 18.5 74 M18.5 74 C4.87 74.77, -1.15 67.44, 0 55.5 M18.5 74 C5.17 73.71, 1.55 68.5, 0 55.5 M0 55.5 C2.08 41.19, 1.44 24.63, 0 18.5 M0 55.5 C-0.79 41.42, 0.58 27.9, 0 18.5 M0 18.5 C0.24 8.14, 5.36 1.42, 18.5 0 M0 18.5 C-0.39 7.18, 7.99 0.25, 18.5 0" stroke="#1e1e1e" stroke-width="1" fill="none"></path></g><g stroke-linecap="round" transform="translate(375.41853877476206 154.14285714285688) rotate(0 41.42857142857156 37)"><path d="M18.5 0 C28.57 -0.45, 42.41 -0.04, 64.36 0 M18.5 0 C29.7 -0.07, 40.23 0.65, 64.36 0 M64.36 0 C78.38 1.54, 81.83 4.52, 82.86 18.5 M64.36 0 C78.53 -1.55, 82.2 5.43, 82.86 18.5 M82.86 18.5 C84.21 28.24, 84.71 37.47, 82.86 55.5 M82.86 18.5 C81.89 28.65, 83.35 38.26, 82.86 55.5 M82.86 55.5 C81.09 69.14, 76.8 72.84, 64.36 74 M82.86 55.5 C81.14 69.37, 77.63 76.02, 64.36 74 M64.36 74 C45.77 75.42, 29.98 74.1, 18.5 74 M64.36 74 C49.01 74.74, 32.5 74.63, 18.5 74 M18.5 74 C5.02 73.6, -0.87 67.58, 0 55.5 M18.5 74 C7.72 74.67, 2.21 66.3, 0 55.5 M0 55.5 C0.86 41.39, 0.92 29.63, 0 18.5 M0 55.5 C0.78 43.75, 0.47 34.48, 0 18.5 M0 18.5 C-0.81 7.58, 5.83 0.88, 18.5 0 M0 18.5 C1.82 6.42, 5.94 1.34, 18.5 0" stroke="#1e1e1e" stroke-width="1" fill="none"></path></g><g stroke-linecap="round" transform="translate(644.8471102033336 141.28571428571377) rotate(0 66.57142857142844 37)"><path d="M18.5 0 C47.11 0.16, 73.03 -0.61, 114.64 0 M18.5 0 C45.22 0.71, 72.93 0.93, 114.64 0 M114.64 0 C125.95 -1.64, 134.74 4.82, 133.14 18.5 M114.64 0 C126.32 -0.73, 132.26 7.63, 133.14 18.5 M133.14 18.5 C134.97 28.54, 132.93 37.43, 133.14 55.5 M133.14 18.5 C133.77 28.53, 132.03 40.96, 133.14 55.5 M133.14 55.5 C133.26 66.68, 125.48 75.34, 114.64 74 M133.14 55.5 C134.09 69.85, 128.93 73.56, 114.64 74 M114.64 74 C87.02 74.81, 58.33 75.57, 18.5 74 M114.64 74 C80 74.86, 46.08 74.28, 18.5 74 M18.5 74 C5.3 73.74, 1.35 68.41, 0 55.5 M18.5 74 C8.37 72.47, 0.89 69.94, 0 55.5 M0 55.5 C1.04 42.98, -0.27 30.17, 0 18.5 M0 55.5 C-0.04 47.8, -0.57 38.83, 0 18.5 M0 18.5 C-0.34 7.04, 7.75 0.22, 18.5 0 M0 18.5 C-0.23 7.51, 5 -0.7, 18.5 0" stroke="#1e1e1e" stroke-width="1" fill="none"></path></g><g stroke-linecap="round" transform="translate(490.2756816319052 161.14285714285688) rotate(0 29.5 37)"><path d="M14.75 0 C21.62 -0.83, 30.56 0.61, 44.25 0 M14.75 0 C23.96 0.61, 30.97 -0.98, 44.25 0 M44.25 0 C55.68 -1.34, 58.43 4.28, 59 14.75 M44.25 0 C53.2 1.46, 58.59 6.2, 59 14.75 M59 14.75 C58.94 26.27, 59.25 40.48, 59 59.25 M59 14.75 C58.5 28.02, 59.44 39.41, 59 59.25 M59 59.25 C57.5 70.42, 54.9 75.75, 44.25 74 M59 59.25 C60.95 68.64, 54.02 72.92, 44.25 74 M44.25 74 C34.08 74.89, 23.38 74.54, 14.75 74 M44.25 74 C33.36 73.92, 23.18 73.99, 14.75 74 M14.75 74 C6.27 74.58, 1.92 67.75, 0 59.25 M14.75 74 C5.81 76.11, 0.39 70.46, 0 59.25 M0 59.25 C-0.33 47.53, -1.58 40.42, 0 14.75 M0 59.25 C-0.46 49.94, -0.22 39.66, 0 14.75 M0 14.75 C1.59 5.13, 4.72 1.17, 14.75 0 M0 14.75 C-1.16 4.22, 3.32 -1.65, 14.75 0" stroke="#1e1e1e" stroke-width="1" fill="none"></path></g><g stroke-linecap="round" transform="translate(529.7756816319052 177.14285714285688) rotate(0 73.5 37)"><path d="M18.5 0 C50.62 1.06, 83.27 0.32, 128.5 0 M18.5 0 C57.04 -1.67, 97.4 -1.52, 128.5 0 M128.5 0 C140.26 -0.64, 146.24 7.44, 147 18.5 M128.5 0 C140.42 1.28, 147.06 8.03, 147 18.5 M147 18.5 C146.81 27.63, 146.59 40.92, 147 55.5 M147 18.5 C146.73 25.8, 145.92 34.92, 147 55.5 M147 55.5 C147.82 69.59, 142.53 73.61, 128.5 74 M147 55.5 C146.93 66.76, 142.49 75.07, 128.5 74 M128.5 74 C95.92 75, 62.2 73.18, 18.5 74 M128.5 74 C90.82 73.65, 54.69 74.07, 18.5 74 M18.5 74 C8.09 72.67, 0.78 69.67, 0 55.5 M18.5 74 C6.56 75.38, -1.81 69.28, 0 55.5 M0 55.5 C-1.29 46.73, -1.49 36.48, 0 18.5 M0 55.5 C-0.02 41.19, 0.94 26.11, 0 18.5 M0 18.5 C-0.2 7.33, 5.15 -0.6, 18.5 0 M0 18.5 C-1.59 4.52, 6.01 -1.82, 18.5 0" stroke="#1e1e1e" stroke-width="1" fill="none"></path></g><g transform="translate(22.119972229003906 173.57142857142844) rotate(0 12.8699951171875 12.5)"><text x="12.8699951171875" y="17.52" font-family="Virgil, Segoe UI Emoji" font-size="20px" fill="#1e1e1e" text-anchor="middle" style="white-space: pre;" direction="ltr" dominant-baseline="alphabetic">L0</text></g><g transform="translate(28.147113255091426 338.21428571428544) rotate(0 8.699996948242188 12.5)"><text x="8.699996948242188" y="17.52" font-family="Virgil, Segoe UI Emoji" font-size="20px" fill="#1e1e1e" text-anchor="middle" style="white-space: pre;" direction="ltr" dominant-baseline="alphabetic">L1</text></g><g transform="translate(24.16568865094814 432.49999999999966) rotate(0 13.109992980957031 12.5)"><text x="13.109992980957031" y="17.52" font-family="Virgil, Segoe UI Emoji" font-size="20px" fill="#1e1e1e" text-anchor="middle" style="white-space: pre;" direction="ltr" dominant-baseline="alphabetic">L2</text></g><g stroke-linecap="round"><g transform="translate(55.12422846044865 110.71428571428532) rotate(0 434.408591892038 0)"><path d="M0.96 -0.81 C145.81 -0.71, 723.91 -0.64, 868.47 -0.38" stroke="#1e1e1e" stroke-width="1.5" fill="none" stroke-dasharray="1.5 7"></path></g></g><mask></mask><g transform="translate(10 24.57142857142844) rotate(0 33.989967346191406 12.5)"><text x="33.989967346191406" y="17.52" font-family="Virgil, Segoe UI Emoji" font-size="20px" fill="#1e1e1e" text-anchor="middle" style="white-space: pre;" direction="ltr" dominant-baseline="alphabetic">Memory</text></g><g stroke-linecap="round" transform="translate(432.7042530604763 10) rotate(0 53.5 30)"><path d="M15 0 C37.17 -0.06, 57.91 0.35, 92 0 M15 0 C43.36 0.11, 73.07 0, 92 0 M92 0 C103.71 -1.74, 105.23 6.3, 107 15 M92 0 C102.13 -1.33, 105.28 6.54, 107 15 M107 15 C106.88 25.17, 106.33 36.9, 107 45 M107 15 C107.46 25.94, 107.28 36.3, 107 45 M107 45 C105.7 55.77, 100.85 59.6, 92 60 M107 45 C106 54.71, 103.55 60.67, 92 60 M92 60 C63.35 60.64, 32.23 58.73, 15 60 M92 60 C63.12 59.33, 36.54 59.23, 15 60 M15 60 C5.24 61.97, -0.81 56.42, 0 45 M15 60 C4.61 61.01, 1.82 55.25, 0 45 M0 45 C-0.78 34.91, -1.61 27.47, 0 15 M0 45 C0.32 39.23, 0.58 32.49, 0 15 M0 15 C1.58 5.66, 3.61 -1.75, 15 0 M0 15 C1.16 4.6, 5.32 -1.44, 15 0" stroke="#1e1e1e" stroke-width="1" fill="none"></path></g><g transform="translate(453.7642887660427 15) rotate(0 32.439964294433594 25)"><text x="32.439964294433594" y="17.52" font-family="Virgil, Segoe UI Emoji" font-size="20px" fill="#1e1e1e" text-anchor="middle" style="white-space: pre;" direction="ltr" dominant-baseline="alphabetic">Write </text><text x="32.439964294433594" y="42.519999999999996" font-family="Virgil, Segoe UI Emoji" font-size="20px" fill="#1e1e1e" text-anchor="middle" style="white-space: pre;" direction="ltr" dominant-baseline="alphabetic">Buffer</text></g><g stroke-linecap="round"><g transform="translate(59.65569795880947 520.345238095238) rotate(0 426.42857142857133 0)"><path d="M-0.9 0.8 C141.32 1.09, 710.89 1.23, 853.35 1.05 M0.83 0.18 C142.92 0.22, 710.52 -0.65, 852.66 -0.52" stroke="#1e1e1e" stroke-width="1" fill="none"></path></g><g transform="translate(59.65569795880947 520.345238095238) rotate(0 426.42857142857133 0)"><path d="M-2.31 1.58 L12.92 -3.83 L13.43 8.61 L0.69 1.46" stroke="none" stroke-width="0" fill="#1e1e1e" fill-rule="evenodd"></path><path d="M-0.9 0.8 C4.3 -0.42, 8.77 -1.69, 12.7 -5.53 M-0.9 0.8 C3.46 -0.56, 6.78 -2.39, 12.7 -5.53 M12.7 -5.53 C13.4 -1.99, 13.25 2.46, 12.69 7.15 M12.7 -5.53 C13.07 -1.79, 13.25 1.15, 12.69 7.15 M12.69 7.15 C8.93 3.84, 4.37 2.28, -0.9 0.8 M12.69 7.15 C9.04 4.61, 4.76 4.03, -0.9 0.8 M-0.9 0.8 C-0.9 0.8, -0.9 0.8, -0.9 0.8 M-0.9 0.8 C-0.9 0.8, -0.9 0.8, -0.9 0.8" stroke="#1e1e1e" stroke-width="1" fill="none"></path></g><g transform="translate(59.65569795880947 520.345238095238) rotate(0 426.42857142857133 0)"><path d="M851.25 0.26 L839.29 7.53 L839.8 -5.39 L854.24 0.14" stroke="none" stroke-width="0" fill="#1e1e1e" fill-rule="evenodd"></path><path d="M852.66 -0.52 C849.47 1.94, 845.63 4.54, 839.07 5.83 M852.66 -0.52 C849.38 1.55, 845.07 3.28, 839.07 5.83 M839.07 5.83 C839.63 0.65, 839.48 -3.62, 839.06 -6.85 M839.07 5.83 C839.55 2.46, 839.73 -1.7, 839.06 -6.85 M839.06 -6.85 C844.63 -5.91, 849.28 -3.18, 852.66 -0.52 M839.06 -6.85 C843.37 -5.44, 847.18 -2.26, 852.66 -0.52 M852.66 -0.52 C852.66 -0.52, 852.66 -0.52, 852.66 -0.52 M852.66 -0.52 C852.66 -0.52, 852.66 -0.52, 852.66 -0.52" stroke="#1e1e1e" stroke-width="1" fill="none"></path></g></g><mask></mask><g transform="translate(449.3886048453187 544.6309523809522) rotate(0 47.409950256347656 12.5)"><text x="47.409950256347656" y="17.52" font-family="Virgil, Segoe UI Emoji" font-size="20px" fill="#1e1e1e" text-anchor="middle" style="white-space: pre;" direction="ltr" dominant-baseline="alphabetic">Key range</text></g><g stroke-linecap="round" transform="translate(721.8104598635709 168.3095238095225) rotate(0 84.42857142857133 37)"><path d="M18.5 0 C63.08 -1.18, 107.49 0.32, 150.36 0 M18.5 0 C64.65 0, 110.18 -0.03, 150.36 0 M150.36 0 C161.39 0.77, 167.71 5.77, 168.86 18.5 M150.36 0 C161.69 -0.29, 170.41 6.83, 168.86 18.5 M168.86 18.5 C170.45 33.49, 169.81 46.23, 168.86 55.5 M168.86 18.5 C167.78 31.28, 169.14 44.61, 168.86 55.5 M168.86 55.5 C169.1 69.81, 161.88 75.42, 150.36 74 M168.86 55.5 C168.47 68.84, 164.51 74.25, 150.36 74 M150.36 74 C111.51 71.95, 72.45 73.2, 18.5 74 M150.36 74 C121.37 75.36, 92.53 75.24, 18.5 74 M18.5 74 C7.75 74.66, -1.39 66.08, 0 55.5 M18.5 74 C7.33 73.6, 0.32 66.39, 0 55.5 M0 55.5 C-1.11 42.34, 0.42 29.19, 0 18.5 M0 55.5 C0.17 45.05, -0.12 37.17, 0 18.5 M0 18.5 C-0.91 4.94, 7.71 -0.17, 18.5 0 M0 18.5 C1.73 7.02, 7.82 1.16, 18.5 0" stroke="#1e1e1e" stroke-width="1" fill="none"></path></g><g stroke-linecap="round" transform="translate(709.3897166243823 323.50453386452796) rotate(0 99.32142868579285 37)"><path d="M18.5 0 C60.97 -0.02, 106.38 0.13, 180.14 0 M18.5 0 C82.48 0.66, 147.14 0.4, 180.14 0 M180.14 0 C192.03 -1, 200.57 6.02, 198.64 18.5 M180.14 0 C193.27 -1.79, 197.42 5.69, 198.64 18.5 M198.64 18.5 C199.78 26.8, 200.16 35.98, 198.64 55.5 M198.64 18.5 C198.13 29.87, 197.72 43.46, 198.64 55.5 M198.64 55.5 C199.36 67.07, 194.13 74.79, 180.14 74 M198.64 55.5 C197.03 67.9, 190.58 75.22, 180.14 74 M180.14 74 C138.74 72.96, 93.54 73.4, 18.5 74 M180.14 74 C134.53 73.07, 87.35 72.94, 18.5 74 M18.5 74 C4.71 72.03, 0.23 68.34, 0 55.5 M18.5 74 C4.26 74.96, 1.14 69.73, 0 55.5 M0 55.5 C-0.16 45.15, -1.36 39.57, 0 18.5 M0 55.5 C0.44 44.64, -0.05 32.17, 0 18.5 M0 18.5 C0.2 7.14, 7.99 1.25, 18.5 0 M0 18.5 C0.37 5.54, 6.92 -1.97, 18.5 0" stroke="#e03131" stroke-width="1" fill="none"></path></g><g transform="translate(775.9811724708197 348.00453386452796) rotate(0 32.72997283935547 12.5)"><text x="32.72997283935547" y="17.52" font-family="Virgil, Segoe UI Emoji" font-size="20px" fill="#e03131" text-anchor="middle" style="white-space: pre;" direction="ltr" dominant-baseline="alphabetic">64 MB</text></g><g stroke-linecap="round" transform="translate(137.35400245303254 407.79024815024195) rotate(0 22.07142857142867 37)"><path d="M11.04 0 C21.34 -1.72, 27.89 1.28, 33.11 0 M11.04 0 C18.12 0.41, 25.14 -0.59, 33.11 0 M33.11 0 C40.23 0.01, 43.59 5.11, 44.14 11.04 M33.11 0 C41.66 1.78, 43.61 3.38, 44.14 11.04 M44.14 11.04 C46.02 24.48, 43.68 37.62, 44.14 62.96 M44.14 11.04 C42.89 22.88, 44.12 34.73, 44.14 62.96 M44.14 62.96 C43.19 71.05, 40.83 73.9, 33.11 74 M44.14 62.96 C45.58 72.45, 38.89 76.26, 33.11 74 M33.11 74 C24.53 74.13, 17.04 73.23, 11.04 74 M33.11 74 C24.06 73.16, 16.17 73.53, 11.04 74 M11.04 74 C2.45 73.16, 0.82 70.41, 0 62.96 M11.04 74 C2.53 72.83, -0.34 71.04, 0 62.96 M0 62.96 C-1.59 52.39, 0.32 42.6, 0 11.04 M0 62.96 C-0.06 45.95, -0.82 30.14, 0 11.04 M0 11.04 C-0.2 1.74, 3.1 -0.28, 11.04 0 M0 11.04 C-0.24 2.99, 1.78 -1.42, 11.04 0" stroke="#1e1e1e" stroke-width="1" fill="none"></path></g><g transform="translate(144.49543834868018 419.79024815024195) rotate(0 14.92999267578125 25)"><text x="14.92999267578125" y="17.52" font-family="Virgil, Segoe UI Emoji" font-size="20px" fill="#1e1e1e" text-anchor="middle" style="white-space: pre;" direction="ltr" dominant-baseline="alphabetic">64</text><text x="14.92999267578125" y="42.519999999999996" font-family="Virgil, Segoe UI Emoji" font-size="20px" fill="#1e1e1e" text-anchor="middle" style="white-space: pre;" direction="ltr" dominant-baseline="alphabetic">MB</text></g><g stroke-linecap="round" transform="translate(188.7825738816041 409.21881957881374) rotate(0 22.07142857142867 37)"><path d="M11.04 0 C18.43 -1.52, 23.77 -0.83, 33.11 0 M11.04 0 C17.3 -0.04, 23.53 -0.76, 33.11 0 M33.11 0 C39.23 0.09, 42.79 3.3, 44.14 11.04 M33.11 0 C42.73 1.43, 42.64 4.84, 44.14 11.04 M44.14 11.04 C44.12 26.59, 45.03 47.5, 44.14 62.96 M44.14 11.04 C43.96 29.39, 44.47 48.11, 44.14 62.96 M44.14 62.96 C45.45 70.89, 41.74 73.19, 33.11 74 M44.14 62.96 C45.65 68.42, 38.84 73.34, 33.11 74 M33.11 74 C25.35 73.83, 16.63 73.83, 11.04 74 M33.11 74 C27.45 73.91, 19.79 73.69, 11.04 74 M11.04 74 C4.04 72.99, 0.95 69.65, 0 62.96 M11.04 74 C4.87 75.52, -1.72 71.81, 0 62.96 M0 62.96 C-1.25 46.34, -1.27 30.94, 0 11.04 M0 62.96 C-0.36 47.95, -0.47 31.19, 0 11.04 M0 11.04 C-1.46 2.16, 4.15 0.8, 11.04 0 M0 11.04 C2.28 3.44, 4.9 -2, 11.04 0" stroke="#1e1e1e" stroke-width="1" fill="none"></path></g><g transform="translate(195.92400977725174 421.21881957881374) rotate(0 14.92999267578125 25)"><text x="14.92999267578125" y="17.52" font-family="Virgil, Segoe UI Emoji" font-size="20px" fill="#1e1e1e" text-anchor="middle" style="white-space: pre;" direction="ltr" dominant-baseline="alphabetic">64</text><text x="14.92999267578125" y="42.519999999999996" font-family="Virgil, Segoe UI Emoji" font-size="20px" fill="#1e1e1e" text-anchor="middle" style="white-space: pre;" direction="ltr" dominant-baseline="alphabetic">MB</text></g><g stroke-linecap="round" transform="translate(238.78257388160364 407.7902481502423) rotate(0 22.07142857142867 37)"><path d="M11.04 0 C15.42 1.15, 22.6 -1.4, 33.11 0 M11.04 0 C17.94 -0.75, 26.49 -0.68, 33.11 0 M33.11 0 C40.87 -1.6, 45.83 1.86, 44.14 11.04 M33.11 0 C40.3 -1.67, 42.4 4.22, 44.14 11.04 M44.14 11.04 C45.72 26.96, 45.28 45.23, 44.14 62.96 M44.14 11.04 C43.68 25.32, 45.04 40.09, 44.14 62.96 M44.14 62.96 C43.35 71.08, 38.99 75.05, 33.11 74 M44.14 62.96 C45.1 68.35, 42.38 74.46, 33.11 74 M33.11 74 C25.98 72.53, 18.66 75.2, 11.04 74 M33.11 74 C28.28 73.04, 23.54 73.52, 11.04 74 M11.04 74 C2.83 73.45, -0.16 69.26, 0 62.96 M11.04 74 C5.06 75.32, 0.35 70.73, 0 62.96 M0 62.96 C0.51 43.14, 1.66 25.19, 0 11.04 M0 62.96 C0.23 45.75, -0.62 28.61, 0 11.04 M0 11.04 C-0.54 3.57, 3.81 -0.34, 11.04 0 M0 11.04 C2.2 4.97, 2.51 -1.89, 11.04 0" stroke="#1e1e1e" stroke-width="1" fill="none"></path></g><g transform="translate(245.92400977725129 419.7902481502423) rotate(0 14.92999267578125 25)"><text x="14.92999267578125" y="17.52" font-family="Virgil, Segoe UI Emoji" font-size="20px" fill="#1e1e1e" text-anchor="middle" style="white-space: pre;" direction="ltr" dominant-baseline="alphabetic">64</text><text x="14.92999267578125" y="42.519999999999996" font-family="Virgil, Segoe UI Emoji" font-size="20px" fill="#1e1e1e" text-anchor="middle" style="white-space: pre;" direction="ltr" dominant-baseline="alphabetic">MB</text></g><g stroke-linecap="round" transform="translate(296.33269918532733 407.2522669322635) rotate(0 22.07142857142867 37)"><path d="M11.04 0 C18.93 0.13, 26.19 1.6, 33.11 0 M11.04 0 C16.6 -0.06, 22.55 -0.46, 33.11 0 M33.11 0 C39.21 0.07, 42.25 1.75, 44.14 11.04 M33.11 0 C38.89 -0.98, 44.68 2.54, 44.14 11.04 M44.14 11.04 C43.88 24.69, 42.54 43.13, 44.14 62.96 M44.14 11.04 C43.94 29.67, 43.7 48.33, 44.14 62.96 M44.14 62.96 C44.89 70.31, 38.81 73.68, 33.11 74 M44.14 62.96 C45.82 72.34, 38.4 72.35, 33.11 74 M33.11 74 C26.18 73.05, 18.06 72.36, 11.04 74 M33.11 74 C29.39 73.79, 24.24 74.98, 11.04 74 M11.04 74 C3.3 73.91, -1.77 70.85, 0 62.96 M11.04 74 C5.71 75.5, -0.24 71.2, 0 62.96 M0 62.96 C0.95 44.22, 1.2 29.33, 0 11.04 M0 62.96 C-0.38 43.04, -0.3 22.48, 0 11.04 M0 11.04 C0.39 3.86, 5.39 -0.13, 11.04 0 M0 11.04 C0.32 2.69, 1.97 -2.02, 11.04 0" stroke="#1e1e1e" stroke-width="1" fill="none"></path></g><g transform="translate(303.474135080975 419.2522669322635) rotate(0 14.92999267578125 25)"><text x="14.92999267578125" y="17.52" font-family="Virgil, Segoe UI Emoji" font-size="20px" fill="#1e1e1e" text-anchor="middle" style="white-space: pre;" direction="ltr" dominant-baseline="alphabetic">64</text><text x="14.92999267578125" y="42.519999999999996" font-family="Virgil, Segoe UI Emoji" font-size="20px" fill="#1e1e1e" text-anchor="middle" style="white-space: pre;" direction="ltr" dominant-baseline="alphabetic">MB</text></g><g stroke-linecap="round" transform="translate(345.51816286359644 411.18537222536327) rotate(0 22.07142857142867 37)"><path d="M11.04 0 C16.52 1.78, 23.37 0.31, 33.11 0 M11.04 0 C16.66 0.16, 22.6 -0.84, 33.11 0 M33.11 0 C39.1 -0.86, 44.61 2.69, 44.14 11.04 M33.11 0 C40.44 -1.16, 42.6 3.68, 44.14 11.04 M44.14 11.04 C45.12 19.85, 43.97 33.18, 44.14 62.96 M44.14 11.04 C44.55 24.65, 43.35 38.11, 44.14 62.96 M44.14 62.96 C45.6 72.07, 38.67 72.56, 33.11 74 M44.14 62.96 C45.59 71.13, 39.01 75.24, 33.11 74 M33.11 74 C25.47 74.67, 22.31 75.42, 11.04 74 M33.11 74 C26.93 74.16, 20.24 74.46, 11.04 74 M11.04 74 C5.44 75.31, -0.21 71.09, 0 62.96 M11.04 74 C4.48 72.11, 0.79 70.92, 0 62.96 M0 62.96 C1.54 52.25, -0.96 38.78, 0 11.04 M0 62.96 C0.17 46.62, 0.83 30.03, 0 11.04 M0 11.04 C0.28 2.82, 2.19 -1.76, 11.04 0 M0 11.04 C2.29 2.57, 1.82 1.23, 11.04 0" stroke="#1e1e1e" stroke-width="1" fill="none"></path></g><g transform="translate(352.6595987592441 423.18537222536327) rotate(0 14.92999267578125 25)"><text x="14.92999267578125" y="17.52" font-family="Virgil, Segoe UI Emoji" font-size="20px" fill="#1e1e1e" text-anchor="middle" style="white-space: pre;" direction="ltr" dominant-baseline="alphabetic">64</text><text x="14.92999267578125" y="42.519999999999996" font-family="Virgil, Segoe UI Emoji" font-size="20px" fill="#1e1e1e" text-anchor="middle" style="white-space: pre;" direction="ltr" dominant-baseline="alphabetic">MB</text></g><g stroke-linecap="round" transform="translate(396.946734292168 412.61394365393505) rotate(0 22.07142857142867 37)"><path d="M11.04 0 C19.47 1.65, 27.43 -1.31, 33.11 0 M11.04 0 C17.05 -0.22, 24.66 -0.28, 33.11 0 M33.11 0 C40.44 -1.01, 42.81 3.68, 44.14 11.04 M33.11 0 C38.33 -1.54, 45.37 5.2, 44.14 11.04 M44.14 11.04 C43.43 21.68, 42.71 32.82, 44.14 62.96 M44.14 11.04 C44.44 27.46, 42.82 41.42, 44.14 62.96 M44.14 62.96 C45.4 71.02, 39.2 75.07, 33.11 74 M44.14 62.96 C43.21 71.43, 38.73 71.8, 33.11 74 M33.11 74 C25 74.47, 19.85 73.79, 11.04 74 M33.11 74 C27.47 74.71, 19.96 74.44, 11.04 74 M11.04 74 C4.38 72.36, 0.68 70.84, 0 62.96 M11.04 74 C2.12 74.89, 1.32 72.32, 0 62.96 M0 62.96 C0.53 43.97, -0.41 25.15, 0 11.04 M0 62.96 C-0.3 46.49, -1.19 29.99, 0 11.04 M0 11.04 C1.99 2.71, 2.06 1.07, 11.04 0 M0 11.04 C-1.83 3.27, 2.22 2.16, 11.04 0" stroke="#1e1e1e" stroke-width="1" fill="none"></path></g><g transform="translate(404.08817018781565 424.61394365393505) rotate(0 14.92999267578125 25)"><text x="14.92999267578125" y="17.52" font-family="Virgil, Segoe UI Emoji" font-size="20px" fill="#1e1e1e" text-anchor="middle" style="white-space: pre;" direction="ltr" dominant-baseline="alphabetic">64</text><text x="14.92999267578125" y="42.519999999999996" font-family="Virgil, Segoe UI Emoji" font-size="20px" fill="#1e1e1e" text-anchor="middle" style="white-space: pre;" direction="ltr" dominant-baseline="alphabetic">MB</text></g><g stroke-linecap="round" transform="translate(446.946734292168 411.1853722253637) rotate(0 22.07142857142867 37)"><path d="M11.04 0 C19.6 -1.76, 26.12 -1.23, 33.11 0 M11.04 0 C16.7 -0.4, 21.72 0.11, 33.11 0 M33.11 0 C38.61 -1.34, 45.21 5, 44.14 11.04 M33.11 0 C38.22 0.2, 44.85 2.81, 44.14 11.04 M44.14 11.04 C43.75 25.3, 43.44 44.32, 44.14 62.96 M44.14 11.04 C44.3 31.51, 43.04 51.83, 44.14 62.96 M44.14 62.96 C43.33 71.29, 38.96 72.08, 33.11 74 M44.14 62.96 C45.1 71.07, 42.28 73.34, 33.11 74 M33.11 74 C26.07 72.18, 19.73 75.72, 11.04 74 M33.11 74 C25.39 73.26, 17.33 74.35, 11.04 74 M11.04 74 C2.33 74.77, 1.15 72.06, 0 62.96 M11.04 74 C5.24 73.12, -0.05 70.7, 0 62.96 M0 62.96 C0.34 48.82, 0.03 31.53, 0 11.04 M0 62.96 C1.38 49.13, -0.42 36.8, 0 11.04 M0 11.04 C-1.59 3.33, 2.41 1.88, 11.04 0 M0 11.04 C-1.2 4.53, 4.25 -0.97, 11.04 0" stroke="#1e1e1e" stroke-width="1" fill="none"></path></g><g transform="translate(454.08817018781565 423.1853722253637) rotate(0 14.92999267578125 25)"><text x="14.92999267578125" y="17.52" font-family="Virgil, Segoe UI Emoji" font-size="20px" fill="#1e1e1e" text-anchor="middle" style="white-space: pre;" direction="ltr" dominant-baseline="alphabetic">64</text><text x="14.92999267578125" y="42.519999999999996" font-family="Virgil, Segoe UI Emoji" font-size="20px" fill="#1e1e1e" text-anchor="middle" style="white-space: pre;" direction="ltr" dominant-baseline="alphabetic">MB</text></g><g stroke-linecap="round" transform="translate(505.1077618371869 408.41184775184615) rotate(0 22.07142857142867 37)"><path d="M11.04 0 C17.81 -0.87, 26.39 -1.36, 33.11 0 M11.04 0 C17.13 -0.37, 22.41 0.77, 33.11 0 M33.11 0 C38.78 -0.56, 44.12 2.61, 44.14 11.04 M33.11 0 C41.17 2.24, 42.39 3.12, 44.14 11.04 M44.14 11.04 C42.99 29.01, 44.74 49.63, 44.14 62.96 M44.14 11.04 C44.1 26.81, 44 45.34, 44.14 62.96 M44.14 62.96 C43.83 72.29, 38.79 72.99, 33.11 74 M44.14 62.96 C43.02 72.45, 41.25 72.63, 33.11 74 M33.11 74 C28.37 75.27, 23.57 73.48, 11.04 74 M33.11 74 C28.41 74.53, 22.66 74.94, 11.04 74 M11.04 74 C5.51 73.75, -0.64 69.72, 0 62.96 M11.04 74 C2.71 74.02, 0.43 70.94, 0 62.96 M0 62.96 C-0.65 48.34, 1.86 36.29, 0 11.04 M0 62.96 C-0.8 44.57, -0.3 27.63, 0 11.04 M0 11.04 C0.21 3.25, 4.69 1.13, 11.04 0 M0 11.04 C-1.58 5.32, 5.96 1.75, 11.04 0" stroke="#1e1e1e" stroke-width="1" fill="none"></path></g><g transform="translate(512.2491977328345 420.41184775184615) rotate(0 14.92999267578125 25)"><text x="14.92999267578125" y="17.52" font-family="Virgil, Segoe UI Emoji" font-size="20px" fill="#1e1e1e" text-anchor="middle" style="white-space: pre;" direction="ltr" dominant-baseline="alphabetic">64</text><text x="14.92999267578125" y="42.519999999999996" font-family="Virgil, Segoe UI Emoji" font-size="20px" fill="#1e1e1e" text-anchor="middle" style="white-space: pre;" direction="ltr" dominant-baseline="alphabetic">MB</text></g><g stroke-linecap="round" transform="translate(554.2932255154569 406.6306673306599) rotate(0 22.07142857142867 37)"><path d="M11.04 0 C15.38 1.94, 21.77 1.54, 33.11 0 M11.04 0 C15.95 -0.45, 22.54 -0.7, 33.11 0 M33.11 0 C41.08 1.95, 42.62 3.2, 44.14 11.04 M33.11 0 C42.24 -1.57, 43.71 2.76, 44.14 11.04 M44.14 11.04 C44.82 20.71, 46.26 34.53, 44.14 62.96 M44.14 11.04 C44.14 22.87, 43.46 32.23, 44.14 62.96 M44.14 62.96 C43.17 72.17, 41.15 72.81, 33.11 74 M44.14 62.96 C42.59 68.48, 39.04 74.46, 33.11 74 M33.11 74 C23.33 73.06, 17.22 74.26, 11.04 74 M33.11 74 C26.35 74.07, 17.45 73.9, 11.04 74 M11.04 74 C2.84 74.01, 0.37 70.86, 0 62.96 M11.04 74 C2.82 72.27, 1.42 69.12, 0 62.96 M0 62.96 C0.58 49.28, -1.63 34.98, 0 11.04 M0 62.96 C0.35 48.77, 0.75 35.56, 0 11.04 M0 11.04 C-1.37 5.11, 5.66 1.52, 11.04 0 M0 11.04 C-0.21 5.25, 2.22 -1.41, 11.04 0" stroke="#1e1e1e" stroke-width="1" fill="none"></path></g><g transform="translate(561.4346614111046 418.6306673306599) rotate(0 14.92999267578125 25)"><text x="14.92999267578125" y="17.52" font-family="Virgil, Segoe UI Emoji" font-size="20px" fill="#1e1e1e" text-anchor="middle" style="white-space: pre;" direction="ltr" dominant-baseline="alphabetic">64</text><text x="14.92999267578125" y="42.519999999999996" font-family="Virgil, Segoe UI Emoji" font-size="20px" fill="#1e1e1e" text-anchor="middle" style="white-space: pre;" direction="ltr" dominant-baseline="alphabetic">MB</text></g><g stroke-linecap="round" transform="translate(605.7217969440285 408.0592387592317) rotate(0 22.07142857142867 37)"><path d="M11.04 0 C18.83 0.94, 29.69 -1.83, 33.11 0 M11.04 0 C17.35 1.09, 22.28 -0.12, 33.11 0 M33.11 0 C42.01 -1.36, 43.77 2.88, 44.14 11.04 M33.11 0 C38.59 1.1, 43.46 4.17, 44.14 11.04 M44.14 11.04 C42.8 22.84, 46.49 33.16, 44.14 62.96 M44.14 11.04 C43.22 32.66, 44.05 51.83, 44.14 62.96 M44.14 62.96 C42.79 68.72, 39.22 74.4, 33.11 74 M44.14 62.96 C45.76 71.15, 40.03 72.15, 33.11 74 M33.11 74 C28.43 72.53, 23.64 75.86, 11.04 74 M33.11 74 C26.34 73.94, 20.61 74.2, 11.04 74 M11.04 74 C2.93 72.49, 1.23 69.28, 0 62.96 M11.04 74 C2.54 75.69, 0.68 71.43, 0 62.96 M0 62.96 C-0.29 48.18, 2 35.49, 0 11.04 M0 62.96 C-0.95 49.2, 0.73 34.77, 0 11.04 M0 11.04 C-0.18 5.04, 2.41 -1.23, 11.04 0 M0 11.04 C-0.83 1.76, 5.96 -1.89, 11.04 0" stroke="#1e1e1e" stroke-width="1" fill="none"></path></g><g transform="translate(612.8632328396761 420.0592387592317) rotate(0 14.92999267578125 25)"><text x="14.92999267578125" y="17.52" font-family="Virgil, Segoe UI Emoji" font-size="20px" fill="#1e1e1e" text-anchor="middle" style="white-space: pre;" direction="ltr" dominant-baseline="alphabetic">64</text><text x="14.92999267578125" y="42.519999999999996" font-family="Virgil, Segoe UI Emoji" font-size="20px" fill="#1e1e1e" text-anchor="middle" style="white-space: pre;" direction="ltr" dominant-baseline="alphabetic">MB</text></g><g stroke-linecap="round" transform="translate(655.7217969440276 406.6306673306601) rotate(0 22.07142857142867 37)"><path d="M11.04 0 C18.3 0.16, 25.61 0.8, 33.11 0 M11.04 0 C20.58 -0.63, 28.38 -0.35, 33.11 0 M33.11 0 C38.84 0.95, 43.55 4.1, 44.14 11.04 M33.11 0 C38.53 2.14, 45.04 1.58, 44.14 11.04 M44.14 11.04 C46.6 26.46, 43.62 44.24, 44.14 62.96 M44.14 11.04 C43.65 30.63, 43.7 52.02, 44.14 62.96 M44.14 62.96 C45.55 71.05, 40.08 72.39, 33.11 74 M44.14 62.96 C43.11 70.85, 40.82 75.09, 33.11 74 M33.11 74 C27.89 73.56, 22.57 73.36, 11.04 74 M33.11 74 C26.1 73.31, 20.45 73.54, 11.04 74 M11.04 74 C2.69 75.47, 0.59 71.29, 0 62.96 M11.04 74 C2.91 72.56, -2.24 69.61, 0 62.96 M0 62.96 C-0.86 50.84, 0.7 35.33, 0 11.04 M0 62.96 C-0.61 44.36, -1.15 23.78, 0 11.04 M0 11.04 C-0.73 2.01, 5.66 -1.64, 11.04 0 M0 11.04 C-0.62 3.47, 1.88 1.47, 11.04 0" stroke="#1e1e1e" stroke-width="1" fill="none"></path></g><g transform="translate(662.8632328396752 418.6306673306601) rotate(0 14.92999267578125 25)"><text x="14.92999267578125" y="17.52" font-family="Virgil, Segoe UI Emoji" font-size="20px" fill="#1e1e1e" text-anchor="middle" style="white-space: pre;" direction="ltr" dominant-baseline="alphabetic">64</text><text x="14.92999267578125" y="42.519999999999996" font-family="Virgil, Segoe UI Emoji" font-size="20px" fill="#1e1e1e" text-anchor="middle" style="white-space: pre;" direction="ltr" dominant-baseline="alphabetic">MB</text></g><g stroke-linecap="round" transform="translate(713.2719222477513 411.80697182696736) rotate(0 22.07142857142867 37)"><path d="M11.04 0 C19.57 -1.59, 23.74 1.48, 33.11 0 M11.04 0 C15.34 0.57, 20.97 0.3, 33.11 0 M33.11 0 C38.78 1.86, 44.93 1.86, 44.14 11.04 M33.11 0 C41.13 2.15, 43.79 5.95, 44.14 11.04 M44.14 11.04 C45.74 22.95, 42.69 32.15, 44.14 62.96 M44.14 11.04 C44.52 22.83, 43.63 33.09, 44.14 62.96 M44.14 62.96 C43.24 70.78, 40.77 74.95, 33.11 74 M44.14 62.96 C42.42 72.37, 42.56 73.71, 33.11 74 M33.11 74 C27.21 74.28, 21.82 73.16, 11.04 74 M33.11 74 C27.66 74.62, 23.49 74.37, 11.04 74 M11.04 74 C3.01 72.75, -1.95 69.71, 0 62.96 M11.04 74 C2.6 75.93, 0.25 69.83, 0 62.96 M0 62.96 C1.13 46.74, 1.22 26.37, 0 11.04 M0 62.96 C-0.03 43.01, 1.32 23.91, 0 11.04 M0 11.04 C-0.54 3.5, 2.11 1.28, 11.04 0 M0 11.04 C-0.22 3.5, 4.54 -2.22, 11.04 0" stroke="#e03131" stroke-width="1" fill="none"></path></g><g transform="translate(720.4133581433989 423.80697182696736) rotate(0 14.92999267578125 25)"><text x="14.92999267578125" y="17.52" font-family="Virgil, Segoe UI Emoji" font-size="20px" fill="#e03131" text-anchor="middle" style="white-space: pre;" direction="ltr" dominant-baseline="alphabetic">64</text><text x="14.92999267578125" y="42.519999999999996" font-family="Virgil, Segoe UI Emoji" font-size="20px" fill="#e03131" text-anchor="middle" style="white-space: pre;" direction="ltr" dominant-baseline="alphabetic">MB</text></g><g stroke-linecap="round" transform="translate(762.4573859260213 410.0257914057813) rotate(0 22.07142857142867 37)"><path d="M11.04 0 C14.61 -0.55, 20.12 -1.8, 33.11 0 M11.04 0 C17.87 0.89, 26.78 -0.96, 33.11 0 M33.11 0 C41.05 1.87, 43.83 5.65, 44.14 11.04 M33.11 0 C38.54 -1.16, 43.02 5.81, 44.14 11.04 M44.14 11.04 C42.23 27.15, 44.23 47.15, 44.14 62.96 M44.14 11.04 C43.59 28.72, 44.2 46.43, 44.14 62.96 M44.14 62.96 C42.64 72.11, 42.29 73.75, 33.11 74 M44.14 62.96 C43.4 69.63, 39.5 74.02, 33.11 74 M33.11 74 C24.57 75.15, 18 72.93, 11.04 74 M33.11 74 C24.53 73.48, 15.65 73.8, 11.04 74 M11.04 74 C2.74 75.68, 0.21 69.9, 0 62.96 M11.04 74 C4.84 75.3, -1.58 71.96, 0 62.96 M0 62.96 C0.97 40.97, -1.62 20.78, 0 11.04 M0 62.96 C-0.78 51.63, -1.3 41.11, 0 11.04 M0 11.04 C-0.19 3.52, 4.43 -1.93, 11.04 0 M0 11.04 C-1.48 4.77, 5.47 -1.39, 11.04 0" stroke="#e03131" stroke-width="1" fill="none"></path></g><g transform="translate(769.5988218216689 422.0257914057813) rotate(0 14.92999267578125 25)"><text x="14.92999267578125" y="17.52" font-family="Virgil, Segoe UI Emoji" font-size="20px" fill="#e03131" text-anchor="middle" style="white-space: pre;" direction="ltr" dominant-baseline="alphabetic">64</text><text x="14.92999267578125" y="42.519999999999996" font-family="Virgil, Segoe UI Emoji" font-size="20px" fill="#e03131" text-anchor="middle" style="white-space: pre;" direction="ltr" dominant-baseline="alphabetic">MB</text></g><g stroke-linecap="round" transform="translate(813.8859573545919 411.4543628343529) rotate(0 22.07142857142867 37)"><path d="M11.04 0 C18.2 -0.42, 23.87 -1.5, 33.11 0 M11.04 0 C20.01 1.14, 28.24 1.19, 33.11 0 M33.11 0 C38.79 -1.01, 43.17 5.53, 44.14 11.04 M33.11 0 C41.25 -1.37, 42.59 1.84, 44.14 11.04 M44.14 11.04 C44.97 23.01, 42.64 34.84, 44.14 62.96 M44.14 11.04 C43.47 28.71, 45.14 44.46, 44.14 62.96 M44.14 62.96 C43.5 69.72, 39.62 74.01, 33.11 74 M44.14 62.96 C44.57 70.94, 39.6 72.27, 33.11 74 M33.11 74 C26.59 74.48, 18.11 73.22, 11.04 74 M33.11 74 C27.4 74.77, 22.74 73.72, 11.04 74 M11.04 74 C4.69 75.13, -1.37 71.75, 0 62.96 M11.04 74 C5.96 75.75, -0.21 71.89, 0 62.96 M0 62.96 C-1.35 52.66, -1.32 37.85, 0 11.04 M0 62.96 C0.31 47.77, 0.78 31.78, 0 11.04 M0 11.04 C-1.28 4.62, 5.24 -1.21, 11.04 0 M0 11.04 C-0.52 3.92, 3.07 -1.12, 11.04 0" stroke="#e03131" stroke-width="1" fill="none"></path></g><g transform="translate(821.0273932502396 423.4543628343529) rotate(0 14.92999267578125 25)"><text x="14.92999267578125" y="17.52" font-family="Virgil, Segoe UI Emoji" font-size="20px" fill="#e03131" text-anchor="middle" style="white-space: pre;" direction="ltr" dominant-baseline="alphabetic">64</text><text x="14.92999267578125" y="42.519999999999996" font-family="Virgil, Segoe UI Emoji" font-size="20px" fill="#e03131" text-anchor="middle" style="white-space: pre;" direction="ltr" dominant-baseline="alphabetic">MB</text></g><g stroke-linecap="round" transform="translate(863.8859573545919 410.0257914057818) rotate(0 22.07142857142867 37)"><path d="M11.04 0 C18.87 0.97, 21.14 0.77, 33.11 0 M11.04 0 C18.88 -0.72, 27.91 0.71, 33.11 0 M33.11 0 C41.15 -1.19, 42.79 2.08, 44.14 11.04 M33.11 0 C39.04 0.46, 45.76 4.51, 44.14 11.04 M44.14 11.04 C44.19 25.93, 44.67 38.71, 44.14 62.96 M44.14 11.04 C44.29 30.95, 44.2 51.47, 44.14 62.96 M44.14 62.96 C44.52 70.86, 39.72 72.49, 33.11 74 M44.14 62.96 C45.56 69.12, 39.33 75.69, 33.11 74 M33.11 74 C24.58 71.98, 17.95 72.98, 11.04 74 M33.11 74 C25.14 74.52, 15.48 74.67, 11.04 74 M11.04 74 C5.66 75.52, -0.18 71.68, 0 62.96 M11.04 74 C2.22 72.59, -0.83 68.4, 0 62.96 M0 62.96 C0.25 40.67, 1.71 21.32, 0 11.04 M0 62.96 C-0.84 48.27, 0.58 32.02, 0 11.04 M0 11.04 C-0.45 3.88, 3.15 -0.97, 11.04 0 M0 11.04 C0.74 2.8, 4.88 2.2, 11.04 0" stroke="#e03131" stroke-width="1" fill="none"></path></g><g transform="translate(871.0273932502396 422.0257914057818) rotate(0 14.92999267578125 25)"><text x="14.92999267578125" y="17.52" font-family="Virgil, Segoe UI Emoji" font-size="20px" fill="#e03131" text-anchor="middle" style="white-space: pre;" direction="ltr" dominant-baseline="alphabetic">64</text><text x="14.92999267578125" y="42.519999999999996" font-family="Virgil, Segoe UI Emoji" font-size="20px" fill="#e03131" text-anchor="middle" style="white-space: pre;" direction="ltr" dominant-baseline="alphabetic">MB</text></g><g stroke-linecap="round" transform="translate(82.13971673874721 176.3616767216712) rotate(0 114.42857142857156 37)"><path d="M18.5 0 C87.98 -1.02, 154.15 -2.94, 210.36 0 M18.5 0 C93.13 -0.29, 167.59 -1.19, 210.36 0 M210.36 0 C223.07 -0.49, 228.92 6.3, 228.86 18.5 M210.36 0 C221.51 -0.55, 226.83 6.01, 228.86 18.5 M228.86 18.5 C228.04 26.74, 227.04 37.64, 228.86 55.5 M228.86 18.5 C228.2 30.32, 228.55 41.92, 228.86 55.5 M228.86 55.5 C229.43 69.76, 223.19 74.71, 210.36 74 M228.86 55.5 C230.97 67.35, 221.62 76.24, 210.36 74 M210.36 74 C158.51 76.01, 108.05 75.04, 18.5 74 M210.36 74 C170.33 75.74, 129.61 76.05, 18.5 74 M18.5 74 C5.57 75.8, -1.87 66, 0 55.5 M18.5 74 C4.61 75.44, -2.04 69.28, 0 55.5 M0 55.5 C1.11 42.9, 1.53 28.03, 0 18.5 M0 55.5 C0.78 46.66, -0.6 38.85, 0 18.5 M0 18.5 C-0.67 5.56, 6.9 -0.73, 18.5 0 M0 18.5 C0.34 7.33, 7.97 1.36, 18.5 0" stroke="#1e1e1e" stroke-width="1" fill="none"></path></g></svg>