<svg version="1.1" xmlns="http://www.w3.org/2000/svg" viewBox="0 0 1152.2556239536834 927.6190476190477" width="1152.2556239536834" height="927.6190476190477">
  <!-- svg-source:excalidraw -->
  
  <defs>
    <style class="style-fonts">
      @font-face {
        font-family: "Virgil";
        src: url("https://excalidraw.com/Virgil.woff2");
      }
      @font-face {
        font-family: "Cascadia";
        src: url("https://excalidraw.com/Cascadia.woff2");
      }
      @font-face {
        font-family: "Assistant";
        src: url("https://excalidraw.com/Assistant-Regular.woff2");
      }
    </style>
    
  </defs>
  <rect x="0" y="0" width="1152.2556239536834" height="927.6190476190477" fill="#ffffff"></rect><g stroke-linecap="round" transform="translate(86.27568163190608 515.988095238095) rotate(0 204.92857142857133 37)"><path d="M18.5 0 C162.7 -1.37, 306.7 -0.74, 391.36 0 M18.5 0 C95.51 -1.41, 172.54 -2.11, 391.36 0 M391.36 0 C404.66 0.69, 411.76 5.5, 409.86 18.5 M391.36 0 C403.02 -0.53, 408.8 4.78, 409.86 18.5 M409.86 18.5 C409.13 29.53, 408.35 42.39, 409.86 55.5 M409.86 18.5 C408.76 27.02, 410.33 34.7, 409.86 55.5 M409.86 55.5 C408.32 68.25, 404.37 72.55, 391.36 74 M409.86 55.5 C409.11 67.95, 403.47 75.87, 391.36 74 M391.36 74 C267.44 73.14, 140.62 73.73, 18.5 74 M391.36 74 C265.77 72.25, 141.45 71.96, 18.5 74 M18.5 74 C7.38 75.43, -0.99 68.97, 0 55.5 M18.5 74 C4.04 73.27, -0.41 66.51, 0 55.5 M0 55.5 C0.64 43.21, -2.11 36.24, 0 18.5 M0 55.5 C0.28 45.14, 0.03 36.67, 0 18.5 M0 18.5 C-0.66 4.31, 6.77 1.97, 18.5 0 M0 18.5 C-1.83 6.66, 5.46 -0.64, 18.5 0" stroke="#1e1e1e" stroke-width="1" fill="none"></path></g><g transform="translate(258.47428022112194 540.488095238095) rotate(0 32.72997283935547 12.5)"><text x="32.72997283935547" y="17.52" font-family="Virgil, Segoe UI Emoji" font-size="20px" fill="#1e1e1e" text-anchor="middle" style="white-space: pre;" direction="ltr" dominant-baseline="alphabetic">64 MB</text></g><g stroke-linecap="round" transform="translate(503.63282448904874 515.988095238095) rotate(0 214.21428571428555 37)"><path d="M18.5 0 C121.15 -0.05, 226.98 -0.64, 409.93 0 M18.5 0 C172.76 0.68, 327 0.28, 409.93 0 M409.93 0 C421.68 -0.46, 427.51 4.96, 428.43 18.5 M409.93 0 C422.23 1.82, 426.28 4.99, 428.43 18.5 M428.43 18.5 C426.24 28.69, 427.08 38.79, 428.43 55.5 M428.43 18.5 C427.89 33, 429 46.36, 428.43 55.5 M428.43 55.5 C427.78 67.93, 422.07 75.63, 409.93 74 M428.43 55.5 C429.23 67.72, 421.61 75.67, 409.93 74 M409.93 74 C299.74 75.08, 187.78 73.92, 18.5 74 M409.93 74 C286.34 73.71, 161.76 73.62, 18.5 74 M18.5 74 C4.32 73.36, -0.36 66.68, 0 55.5 M18.5 74 C5.76 75.95, 1.04 68.93, 0 55.5 M0 55.5 C-0.58 46.23, -0.77 40.07, 0 18.5 M0 55.5 C-0.23 46.94, 0.4 41.22, 0 18.5 M0 18.5 C-1.59 6.6, 5.55 -0.55, 18.5 0 M0 18.5 C1.32 7.92, 8.1 -0.79, 18.5 0" stroke="#1e1e1e" stroke-width="1" fill="none"></path></g><g transform="translate(685.1171373639786 540.488095238095) rotate(0 32.72997283935547 12.5)"><text x="32.72997283935547" y="17.52" font-family="Virgil, Segoe UI Emoji" font-size="20px" fill="#1e1e1e" text-anchor="middle" style="white-space: pre;" direction="ltr" dominant-baseline="alphabetic">64 MB</text></g><g stroke-linecap="round" transform="translate(80.66853877476296 600.988095238095) rotate(0 99.21428571428578 37)"><path d="M18.5 0 C73.35 -0.5, 124.04 1.34, 179.93 0 M18.5 0 C72.18 0.31, 125.98 -0.06, 179.93 0 M179.93 0 C192.23 1.58, 196.56 5.15, 198.43 18.5 M179.93 0 C192.25 -2.07, 200.5 4.03, 198.43 18.5 M198.43 18.5 C199.97 29.23, 200 35.88, 198.43 55.5 M198.43 18.5 C198.23 30.42, 198.46 43.05, 198.43 55.5 M198.43 55.5 C199.12 67.73, 191.7 75.45, 179.93 74 M198.43 55.5 C198.03 65.69, 192.96 74.82, 179.93 74 M179.93 74 C126.49 74.37, 71.77 74.14, 18.5 74 M179.93 74 C119.01 74.6, 59.75 74.34, 18.5 74 M18.5 74 C5.82 75.69, 0.9 68.79, 0 55.5 M18.5 74 C4.06 71.93, 1.89 66.79, 0 55.5 M0 55.5 C-1.67 46.78, 0.21 38.43, 0 18.5 M0 55.5 C-0.91 48.06, -0.42 39.91, 0 18.5 M0 18.5 C1.15 7.69, 7.85 -0.69, 18.5 0 M0 18.5 C-1.36 5.2, 5.76 -1.53, 18.5 0" stroke="#1e1e1e" stroke-width="1" fill="none"></path></g><g transform="translate(147.15285164969328 625.488095238095) rotate(0 32.72997283935547 12.5)"><text x="32.72997283935547" y="17.52" font-family="Virgil, Segoe UI Emoji" font-size="20px" fill="#1e1e1e" text-anchor="middle" style="white-space: pre;" direction="ltr" dominant-baseline="alphabetic">64 MB</text></g><g stroke-linecap="round" transform="translate(290.8828244890492 600.988095238095) rotate(0 103.49999999999989 37)"><path d="M18.5 0 C62.77 1.08, 105 -1.41, 188.5 0 M18.5 0 C65.55 1.82, 111.7 0.52, 188.5 0 M188.5 0 C200.82 -1.8, 208.81 4.31, 207 18.5 M188.5 0 C199.81 -1.17, 204.86 8.15, 207 18.5 M207 18.5 C207.74 32.63, 205.88 44.76, 207 55.5 M207 18.5 C207.31 29.73, 206.68 41.79, 207 55.5 M207 55.5 C206.65 65.97, 201.44 74.71, 188.5 74 M207 55.5 C207.76 65.96, 199.3 74.38, 188.5 74 M188.5 74 C126.62 74.05, 63.01 73.19, 18.5 74 M188.5 74 C142.73 73.87, 97.76 73.5, 18.5 74 M18.5 74 C4.33 72.2, 1.64 66.92, 0 55.5 M18.5 74 C4.37 72.74, -0.02 65.68, 0 55.5 M0 55.5 C-1.86 45.96, 1.97 33.62, 0 18.5 M0 55.5 C0.69 44.36, 0.96 31.36, 0 18.5 M0 18.5 C-1.18 5.33, 5.82 -1.33, 18.5 0 M0 18.5 C-0.04 4.2, 8.12 -1.34, 18.5 0" stroke="#1e1e1e" stroke-width="1" fill="none"></path></g><g transform="translate(361.65285164969373 625.488095238095) rotate(0 32.72997283935547 12.5)"><text x="32.72997283935547" y="17.52" font-family="Virgil, Segoe UI Emoji" font-size="20px" fill="#1e1e1e" text-anchor="middle" style="white-space: pre;" direction="ltr" dominant-baseline="alphabetic">64 MB</text></g><g stroke-linecap="round" transform="translate(511.38282448904874 602.988095238095) rotate(0 97.78571428571445 37)"><path d="M18.5 0 C80.69 -0.46, 142.6 0.43, 177.07 0 M18.5 0 C78.6 -0.09, 139.62 -0.12, 177.07 0 M177.07 0 C188.52 -1.02, 193.71 7.89, 195.57 18.5 M177.07 0 C190.87 2.02, 193.8 6.64, 195.57 18.5 M195.57 18.5 C195.4 30.66, 196.93 43.89, 195.57 55.5 M195.57 18.5 C195.29 28.48, 195.77 40.68, 195.57 55.5 M195.57 55.5 C196.23 66.21, 188.07 74.33, 177.07 74 M195.57 55.5 C197.24 67.12, 190.8 75.65, 177.07 74 M177.07 74 C136.68 72.18, 96.41 72.18, 18.5 74 M177.07 74 C115.16 73.86, 55.91 74.3, 18.5 74 M18.5 74 C4.6 72.9, -0.02 65.96, 0 55.5 M18.5 74 C5.57 74.01, -0.76 65.69, 0 55.5 M0 55.5 C0.07 42.66, -0.92 32.21, 0 18.5 M0 55.5 C-0.9 41.16, -0.49 26.99, 0 18.5 M0 18.5 C-0.04 4.45, 7.87 -1.16, 18.5 0 M0 18.5 C0.44 7.42, 4.5 -0.75, 18.5 0" stroke="#1e1e1e" stroke-width="1" fill="none"></path></g><g transform="translate(576.4385659354077 627.488095238095) rotate(0 32.72997283935558 12.5)"><text x="32.72997283935547" y="17.52" font-family="Virgil, Segoe UI Emoji" font-size="20px" fill="#1e1e1e" text-anchor="middle" style="white-space: pre;" direction="ltr" dominant-baseline="alphabetic">64 MB</text></g><g stroke-linecap="round" transform="translate(725.8828244890492 602.988095238095) rotate(0 101.35714285714289 37)"><path d="M18.5 0 C62.16 -1.85, 101.64 0.01, 184.21 0 M18.5 0 C52.83 1.03, 87.12 2.4, 184.21 0 M184.21 0 C197.82 1.76, 201.17 6.58, 202.71 18.5 M184.21 0 C197.32 -1.66, 201.97 6.28, 202.71 18.5 M202.71 18.5 C202.91 28.68, 204.46 39.63, 202.71 55.5 M202.71 18.5 C203.16 25.34, 202.16 33.98, 202.71 55.5 M202.71 55.5 C204.16 67.21, 197.76 75.43, 184.21 74 M202.71 55.5 C201.58 69.14, 194.42 73.27, 184.21 74 M184.21 74 C139.14 74.61, 91.64 71.87, 18.5 74 M184.21 74 C148.6 72.7, 114.54 72.31, 18.5 74 M18.5 74 C5.65 74.01, -0.66 65.97, 0 55.5 M18.5 74 C6.86 76.27, -1.83 68.33, 0 55.5 M0 55.5 C1.63 47.22, -0.58 34.39, 0 18.5 M0 55.5 C0.05 45.1, 0.92 35.83, 0 18.5 M0 18.5 C0.38 7.26, 4.72 -0.66, 18.5 0 M0 18.5 C1.36 7.27, 7.52 -0.06, 18.5 0" stroke="#1e1e1e" stroke-width="1" fill="none"></path></g><g transform="translate(794.5099945068368 627.488095238095) rotate(0 32.72997283935547 12.5)"><text x="32.72997283935547" y="17.52" font-family="Virgil, Segoe UI Emoji" font-size="20px" fill="#1e1e1e" text-anchor="middle" style="white-space: pre;" direction="ltr" dominant-baseline="alphabetic">64 MB</text></g><g stroke-linecap="round" transform="translate(80.88282448904874 684.988095238095) rotate(0 48.5 37)"><path d="M18.5 0 C29.08 1.81, 41.41 -0.88, 78.5 0 M18.5 0 C34.09 0.36, 47.63 -0.31, 78.5 0 M78.5 0 C91.51 -1.45, 96.35 6.27, 97 18.5 M78.5 0 C90.61 1.87, 97.8 6.05, 97 18.5 M97 18.5 C95.41 29.16, 97.98 39.27, 97 55.5 M97 18.5 C97.48 26.28, 97.36 35.4, 97 55.5 M97 55.5 C96.01 68.97, 88.99 73.36, 78.5 74 M97 55.5 C96.59 66.51, 90.43 75.95, 78.5 74 M78.5 74 C55.99 75.09, 36.17 71.89, 18.5 74 M78.5 74 C63.53 73.44, 48.76 72.51, 18.5 74 M18.5 74 C6.77 75.97, -1.59 68.27, 0 55.5 M18.5 74 C5.46 73.36, 1.32 69.59, 0 55.5 M0 55.5 C-0.71 40.93, -1.2 27.03, 0 18.5 M0 55.5 C-0.12 48.11, -1.04 39.31, 0 18.5 M0 18.5 C1.19 7.13, 7.35 -0.05, 18.5 0 M0 18.5 C-1.44 6.76, 4.86 -1.58, 18.5 0" stroke="#1e1e1e" stroke-width="1" fill="none"></path></g><g transform="translate(96.65285164969328 709.488095238095) rotate(0 32.72997283935547 12.5)"><text x="32.72997283935547" y="17.52" font-family="Virgil, Segoe UI Emoji" font-size="20px" fill="#1e1e1e" text-anchor="middle" style="white-space: pre;" direction="ltr" dominant-baseline="alphabetic">64 MB</text></g><g stroke-linecap="round" transform="translate(185.38282448904874 684.988095238095) rotate(0 48.5 37)"><path d="M18.5 0 C40.9 -1.59, 67.06 1.54, 78.5 0 M18.5 0 C42.11 -0.85, 64.71 -0.07, 78.5 0 M78.5 0 C90.64 1.63, 97.69 6.06, 97 18.5 M78.5 0 C90.18 1.67, 96.6 4.03, 97 18.5 M97 18.5 C95.51 29.4, 97.46 44.41, 97 55.5 M97 18.5 C96.73 29.01, 96.3 38.08, 97 55.5 M97 55.5 C96.64 66.68, 90.48 75.69, 78.5 74 M97 55.5 C98.04 68.93, 88.72 71.93, 78.5 74 M78.5 74 C54.48 73.51, 30.78 73.01, 18.5 74 M78.5 74 C60.77 74.43, 41.63 73.66, 18.5 74 M18.5 74 C5.55 73.45, 1.15 69.36, 0 55.5 M18.5 74 C8.1 73.21, -1.36 66.87, 0 55.5 M0 55.5 C-1.47 46.75, -0.92 34.99, 0 18.5 M0 55.5 C0.86 42.86, 0.86 29.24, 0 18.5 M0 18.5 C-1.25 6.68, 5.03 -1.38, 18.5 0 M0 18.5 C-1.47 7.98, 7.49 1.8, 18.5 0" stroke="#1e1e1e" stroke-width="1" fill="none"></path></g><g transform="translate(201.15285164969328 709.488095238095) rotate(0 32.72997283935547 12.5)"><text x="32.72997283935547" y="17.52" font-family="Virgil, Segoe UI Emoji" font-size="20px" fill="#1e1e1e" text-anchor="middle" style="white-space: pre;" direction="ltr" dominant-baseline="alphabetic">64 MB</text></g><g stroke-linecap="round" transform="translate(295.88282448904874 686.988095238095) rotate(0 48.5 37)"><path d="M18.5 0 C32.69 -1.92, 43.77 0.29, 78.5 0 M18.5 0 C32.06 0.78, 46.16 -0.08, 78.5 0 M78.5 0 C90.27 1.45, 96.65 4.31, 97 18.5 M78.5 0 C91.54 0.82, 97.76 4.3, 97 18.5 M97 18.5 C96.44 28.35, 98.5 34.78, 97 55.5 M97 18.5 C96.48 31.12, 96.48 45.74, 97 55.5 M97 55.5 C97.9 68.79, 89 72.2, 78.5 74 M97 55.5 C98.89 66.79, 89.04 72.74, 78.5 74 M78.5 74 C60.56 73.19, 40.74 74.45, 18.5 74 M78.5 74 C54.27 73.85, 31.24 74.89, 18.5 74 M18.5 74 C7.85 73.31, -1.18 66.99, 0 55.5 M18.5 74 C5.76 72.47, -0.04 65.86, 0 55.5 M0 55.5 C1.31 39.8, -0.44 28.19, 0 18.5 M0 55.5 C-0.85 42.88, -0.79 29.06, 0 18.5 M0 18.5 C-1.28 7.75, 7.32 1.56, 18.5 0 M0 18.5 C-2.23 5.26, 6.02 1.35, 18.5 0" stroke="#1e1e1e" stroke-width="1" fill="none"></path></g><g transform="translate(311.6528516496933 711.488095238095) rotate(0 32.72997283935547 12.5)"><text x="32.72997283935547" y="17.52" font-family="Virgil, Segoe UI Emoji" font-size="20px" fill="#1e1e1e" text-anchor="middle" style="white-space: pre;" direction="ltr" dominant-baseline="alphabetic">64 MB</text></g><g stroke-linecap="round" transform="translate(400.38282448904874 686.988095238095) rotate(0 48.5 37)"><path d="M18.5 0 C30.43 -0.85, 45.36 -0.4, 78.5 0 M18.5 0 C41.09 0.76, 64.08 -0.9, 78.5 0 M78.5 0 C91.44 0.71, 97.66 4.54, 97 18.5 M78.5 0 C89.3 0.38, 98.67 5.45, 97 18.5 M97 18.5 C98.4 30, 96.63 44.84, 97 55.5 M97 18.5 C97.39 27.95, 96.02 35.54, 97 55.5 M97 55.5 C98.64 66.92, 89.27 72.9, 78.5 74 M97 55.5 C96.98 65.68, 90.24 74.01, 78.5 74 M78.5 74 C64.45 72.59, 46.88 73.57, 18.5 74 M78.5 74 C63 74.11, 45.23 74.04, 18.5 74 M18.5 74 C5.82 72.67, -0.04 66.12, 0 55.5 M18.5 74 C8.12 72.66, 0.44 69.09, 0 55.5 M0 55.5 C1.08 48.26, 0.07 37.41, 0 18.5 M0 55.5 C-0.43 44.24, 0.79 32.18, 0 18.5 M0 18.5 C-1.94 5.38, 6.04 1.17, 18.5 0 M0 18.5 C-1.18 5.8, 5.18 -2.2, 18.5 0" stroke="#1e1e1e" stroke-width="1" fill="none"></path></g><g transform="translate(416.1528516496933 711.488095238095) rotate(0 32.72997283935547 12.5)"><text x="32.72997283935547" y="17.52" font-family="Virgil, Segoe UI Emoji" font-size="20px" fill="#1e1e1e" text-anchor="middle" style="white-space: pre;" direction="ltr" dominant-baseline="alphabetic">64 MB</text></g><g stroke-linecap="round" transform="translate(513.8828244890487 688.988095238095) rotate(0 48.5 37)"><path d="M18.5 0 C36.18 0.75, 50.5 -0.51, 78.5 0 M18.5 0 C41.15 0.92, 63.52 -0.25, 78.5 0 M78.5 0 C89.5 0.33, 98.45 5.54, 97 18.5 M78.5 0 C92.23 1.65, 95.87 7.47, 97 18.5 M97 18.5 C95.73 25.83, 98.58 34.77, 97 55.5 M97 18.5 C97.48 30.91, 95.88 43.68, 97 55.5 M97 55.5 C96.98 65.96, 90.32 74.01, 78.5 74 M97 55.5 C96.24 65.69, 91.53 76.27, 78.5 74 M78.5 74 C64.73 74.96, 53.59 75.5, 18.5 74 M78.5 74 C62.38 73.08, 46.6 72.89, 18.5 74 M18.5 74 C7.87 72.84, 0.38 68.92, 0 55.5 M18.5 74 C4.5 73.25, 1.36 68.94, 0 55.5 M0 55.5 C0.52 41.08, -1.37 27.65, 0 18.5 M0 55.5 C-1.18 41.08, -0.28 28.04, 0 18.5 M0 18.5 C-1.02 5.85, 5.31 -1.91, 18.5 0 M0 18.5 C-1.18 4.41, 7.72 -0.97, 18.5 0" stroke="#1e1e1e" stroke-width="1" fill="none"></path></g><g transform="translate(529.6528516496933 713.488095238095) rotate(0 32.72997283935547 12.5)"><text x="32.72997283935547" y="17.52" font-family="Virgil, Segoe UI Emoji" font-size="20px" fill="#1e1e1e" text-anchor="middle" style="white-space: pre;" direction="ltr" dominant-baseline="alphabetic">64 MB</text></g><g stroke-linecap="round" transform="translate(618.3828244890492 688.988095238095) rotate(0 48.5 37)"><path d="M18.5 0 C40.03 -0.18, 56.8 0.78, 78.5 0 M18.5 0 C37.98 0.65, 59.51 0.18, 78.5 0 M78.5 0 C92.05 1.43, 96.01 7.3, 97 18.5 M78.5 0 C88.71 -0.73, 96.59 4.84, 97 18.5 M97 18.5 C98.27 27.12, 95.52 41.04, 97 55.5 M97 18.5 C96.7 26.98, 96.45 37.34, 97 55.5 M97 55.5 C96.34 65.97, 91.44 75.97, 78.5 74 M97 55.5 C95.17 68.33, 90.13 73.36, 78.5 74 M78.5 74 C56.37 73.33, 34.77 74.15, 18.5 74 M78.5 74 C65.34 72.9, 50.67 74.03, 18.5 74 M18.5 74 C4.72 73.34, 1.19 68.79, 0 55.5 M18.5 74 C7.52 73.94, -1.44 68.42, 0 55.5 M0 55.5 C1.83 47.65, 1.82 35.56, 0 18.5 M0 55.5 C-0.49 45.7, -0.41 35.26, 0 18.5 M0 18.5 C-1.02 4.64, 7.52 -0.85, 18.5 0 M0 18.5 C0.97 4.2, 7.52 -0.65, 18.5 0" stroke="#1e1e1e" stroke-width="1" fill="none"></path></g><g transform="translate(634.1528516496937 713.488095238095) rotate(0 32.72997283935547 12.5)"><text x="32.72997283935547" y="17.52" font-family="Virgil, Segoe UI Emoji" font-size="20px" fill="#1e1e1e" text-anchor="middle" style="white-space: pre;" direction="ltr" dominant-baseline="alphabetic">64 MB</text></g><g stroke-linecap="round" transform="translate(728.8828244890492 690.988095238095) rotate(0 48.5 37)"><path d="M18.5 0 C36.17 0.48, 50.78 -1.52, 78.5 0 M18.5 0 C38.11 0.9, 56 0.75, 78.5 0 M78.5 0 C88.99 -0.64, 96.64 5.02, 97 18.5 M78.5 0 C90.43 1.95, 98.04 7.26, 97 18.5 M97 18.5 C95.76 24.64, 95.57 33.89, 97 55.5 M97 18.5 C96.58 25.2, 97.21 34.75, 97 55.5 M97 55.5 C95.41 68.27, 90.22 73.45, 78.5 74 M97 55.5 C98.32 69.59, 92.77 73.21, 78.5 74 M78.5 74 C62.71 73.86, 47.86 75.6, 18.5 74 M78.5 74 C63.27 74, 50.08 74.81, 18.5 74 M18.5 74 C7.35 73.95, -1.25 68.35, 0 55.5 M18.5 74 C4.86 72.42, -1.47 69.65, 0 55.5 M0 55.5 C-1.08 42.14, 0.89 28.01, 0 18.5 M0 55.5 C-0.35 44.23, 0.83 34.07, 0 18.5 M0 18.5 C0.85 4.46, 7.35 -0.56, 18.5 0 M0 18.5 C-1.55 5.1, 5.68 0.25, 18.5 0" stroke="#1e1e1e" stroke-width="1" fill="none"></path></g><g transform="translate(744.6528516496937 715.488095238095) rotate(0 32.72997283935547 12.5)"><text x="32.72997283935547" y="17.52" font-family="Virgil, Segoe UI Emoji" font-size="20px" fill="#1e1e1e" text-anchor="middle" style="white-space: pre;" direction="ltr" dominant-baseline="alphabetic">64 MB</text></g><g stroke-linecap="round" transform="translate(833.3828244890492 690.988095238095) rotate(0 48.5 37)"><path d="M18.5 0 C38.82 1.85, 57.85 1.62, 78.5 0 M18.5 0 C39.88 -0.66, 62.92 -0.92, 78.5 0 M78.5 0 C90.48 1.69, 97.9 7.12, 97 18.5 M78.5 0 C88.72 -2.07, 98.89 5.12, 97 18.5 M97 18.5 C94.92 26.19, 96.81 34.26, 97 55.5 M97 18.5 C96.31 26.37, 96.8 33.54, 97 55.5 M97 55.5 C98.15 69.36, 92.52 73.31, 78.5 74 M97 55.5 C95.64 66.87, 90.43 72.47, 78.5 74 M78.5 74 C59.45 74.89, 43.82 73.06, 18.5 74 M78.5 74 C63.06 74.26, 45.81 74.54, 18.5 74 M18.5 74 C5.03 72.62, -1.28 69.41, 0 55.5 M18.5 74 C7.49 75.8, -2.23 66.93, 0 55.5 M0 55.5 C-0.54 43.78, -2.13 32.74, 0 18.5 M0 55.5 C0.17 46.38, 0.34 38.68, 0 18.5 M0 18.5 C-1.35 5.24, 5.75 0.22, 18.5 0 M0 18.5 C-0.3 6.12, 8.22 -1.13, 18.5 0" stroke="#1e1e1e" stroke-width="1" fill="none"></path></g><g transform="translate(849.1528516496937 715.488095238095) rotate(0 32.72997283935547 12.5)"><text x="32.72997283935547" y="17.52" font-family="Virgil, Segoe UI Emoji" font-size="20px" fill="#1e1e1e" text-anchor="middle" style="white-space: pre;" direction="ltr" dominant-baseline="alphabetic">64 MB</text></g><g stroke-linecap="round" transform="translate(163.4899673461914 336.2738095238092) rotate(0 150.85714285714312 37)"><path d="M18.5 0 C118.22 -2.06, 216.56 -2.74, 283.21 0 M18.5 0 C89.36 1.88, 160.86 1.58, 283.21 0 M283.21 0 C293.71 -1.8, 303.36 5.26, 301.71 18.5 M283.21 0 C293.75 -1.26, 301.7 4.01, 301.71 18.5 M301.71 18.5 C299.85 29.25, 303.69 37.19, 301.71 55.5 M301.71 18.5 C302.17 31.16, 302.44 41.96, 301.71 55.5 M301.71 55.5 C300.54 66.99, 295.2 72.67, 283.21 74 M301.71 55.5 C301.67 65.86, 297.5 72.66, 283.21 74 M283.21 74 C198.19 73.42, 114.97 73.41, 18.5 74 M283.21 74 C204.03 73.99, 125.24 75.16, 18.5 74 M18.5 74 C7.32 75.56, -1.94 67.04, 0 55.5 M18.5 74 C6.02 75.35, -1.18 67.46, 0 55.5 M0 55.5 C-1.18 47.34, -0.49 37.32, 0 18.5 M0 55.5 C-0.89 47.09, -0.43 39.73, 0 18.5 M0 18.5 C-0.26 6.13, 7.96 -0.99, 18.5 0 M0 18.5 C-1.46 7.67, 5.4 -0.53, 18.5 0" stroke="#1e1e1e" stroke-width="1" fill="none"></path></g><g stroke-linecap="round" transform="translate(285.41853877476296 359.2738095238092) rotate(0 86.42857142857144 37)"><path d="M18.5 0 C68.65 -1.18, 115.9 0.31, 154.36 0 M18.5 0 C51.89 -0.67, 83.46 -2.05, 154.36 0 M154.36 0 C168.33 -0.91, 171.29 5.07, 172.86 18.5 M154.36 0 C166.67 -2.16, 172.26 6.18, 172.86 18.5 M172.86 18.5 C174.49 26.79, 172.94 37.65, 172.86 55.5 M172.86 18.5 C173.91 28.23, 172.48 38.23, 172.86 55.5 M172.86 55.5 C172.51 66.5, 166.65 72.29, 154.36 74 M172.86 55.5 C174.81 66.49, 167.13 75.25, 154.36 74 M154.36 74 C124.42 75.99, 92.5 73.55, 18.5 74 M154.36 74 C109.48 73.86, 66.45 73.85, 18.5 74 M18.5 74 C4.23 73.21, -0.13 69.01, 0 55.5 M18.5 74 C4.99 73.63, -0.99 65.63, 0 55.5 M0 55.5 C-0.56 47.14, -1.42 38.26, 0 18.5 M0 55.5 C0.04 45.56, 0.12 35.37, 0 18.5 M0 18.5 C1.79 5.18, 4.9 1.31, 18.5 0 M0 18.5 C-0.77 5.64, 5.65 -1.48, 18.5 0" stroke="#1e1e1e" stroke-width="1" fill="none"></path></g><g stroke-linecap="round" transform="translate(644.8471102033345 334.98809523809496) rotate(0 66.57142857142844 37)"><path d="M18.5 0 C41.97 0.53, 65.56 0.54, 114.64 0 M18.5 0 C54.56 -1.36, 93.28 -0.91, 114.64 0 M114.64 0 C125.41 -1.1, 133.13 4.29, 133.14 18.5 M114.64 0 C126.38 0.01, 132.39 4.03, 133.14 18.5 M133.14 18.5 C133.94 30.11, 132.95 44.09, 133.14 55.5 M133.14 18.5 C132.87 32, 133.28 45.68, 133.14 55.5 M133.14 55.5 C133.1 66.12, 128.68 72.84, 114.64 74 M133.14 55.5 C133.59 69.09, 125.31 73.25, 114.64 74 M114.64 74 C80.04 73.31, 46.06 73.43, 18.5 74 M114.64 74 C92.99 75.54, 69.21 74.36, 18.5 74 M18.5 74 C6.04 75.17, -1.02 67.51, 0 55.5 M18.5 74 C5.18 71.8, -1.18 66.07, 0 55.5 M0 55.5 C-1.55 43.08, -0.41 26.95, 0 18.5 M0 55.5 C-0.05 46.09, 0.97 36.23, 0 18.5 M0 18.5 C-1.27 7.48, 5.5 -0.46, 18.5 0 M0 18.5 C-0.52 4.68, 6.17 1.99, 18.5 0" stroke="#1e1e1e" stroke-width="1" fill="none"></path></g><g stroke-linecap="round" transform="translate(328.8471102033336 376.2738095238092) rotate(0 114.50000000000023 37)"><path d="M18.5 0 C57.21 -0.01, 99.91 1.25, 210.5 0 M18.5 0 C86.08 1.27, 151.23 1.18, 210.5 0 M210.5 0 C222.82 -1.87, 228.48 6.18, 229 18.5 M210.5 0 C222.08 -2.14, 229.7 8.44, 229 18.5 M229 18.5 C228.53 27.8, 230.61 36.49, 229 55.5 M229 18.5 C228.61 27.67, 228.76 37.31, 229 55.5 M229 55.5 C230.7 66.67, 223.22 75.09, 210.5 74 M229 55.5 C227.33 67.08, 224.2 75.11, 210.5 74 M210.5 74 C142.08 71.66, 71.25 71.52, 18.5 74 M210.5 74 C136.77 75.11, 64.91 76.09, 18.5 74 M18.5 74 C5.14 73.68, -0.86 65.92, 0 55.5 M18.5 74 C4.99 72.24, 1.56 66.86, 0 55.5 M0 55.5 C-0.25 41.48, -0.61 29.75, 0 18.5 M0 55.5 C0.94 43.5, -0.59 33.14, 0 18.5 M0 18.5 C-0.67 5.7, 5.71 -1.29, 18.5 0 M0 18.5 C0 8.16, 7.75 1.11, 18.5 0" stroke="#1e1e1e" stroke-width="1" fill="none"></path></g><g stroke-linecap="round" transform="translate(418.3471102033345 390.8452380952381) rotate(0 127.78571428571445 37)"><path d="M18.5 0 C81.65 1.12, 142.7 -1.26, 237.07 0 M18.5 0 C63.76 0.39, 110.38 0.05, 237.07 0 M237.07 0 C248.89 0.01, 254.91 4.31, 255.57 18.5 M237.07 0 C250.1 2.27, 253.74 6.66, 255.57 18.5 M255.57 18.5 C256.99 30.15, 254.78 37.25, 255.57 55.5 M255.57 18.5 C255.49 27.19, 256.36 37, 255.57 55.5 M255.57 55.5 C255.96 68.92, 247.95 73.34, 237.07 74 M255.57 55.5 C256.94 68.94, 250.76 73.94, 237.07 74 M237.07 74 C184 71.81, 134.7 73.92, 18.5 74 M237.07 74 C154.37 73.76, 71.33 73.11, 18.5 74 M18.5 74 C5.31 72.09, -1.02 66.3, 0 55.5 M18.5 74 C7.72 73.03, 0.97 65.87, 0 55.5 M0 55.5 C-0.82 41.8, 0.33 28.67, 0 18.5 M0 55.5 C-0.96 45.13, -0.67 33.22, 0 18.5 M0 18.5 C-0.45 4.88, 6.17 1.73, 18.5 0 M0 18.5 C1.58 7.27, 8.33 -0.27, 18.5 0" stroke="#1e1e1e" stroke-width="1" fill="none"></path></g><g transform="translate(22.119972229003906 367.27380952380963) rotate(0 12.8699951171875 12.5)"><text x="12.8699951171875" y="17.52" font-family="Virgil, Segoe UI Emoji" font-size="20px" fill="#1e1e1e" text-anchor="middle" style="white-space: pre;" direction="ltr" dominant-baseline="alphabetic">L0</text></g><g transform="translate(28.147113255092336 531.9166666666665) rotate(0 8.699996948242188 12.5)"><text x="8.699996948242188" y="17.52" font-family="Virgil, Segoe UI Emoji" font-size="20px" fill="#1e1e1e" text-anchor="middle" style="white-space: pre;" direction="ltr" dominant-baseline="alphabetic">L1</text></g><g transform="translate(23.737117222377492 620.9166666666665) rotate(0 13.109992980957031 12.5)"><text x="13.109992980957031" y="17.52" font-family="Virgil, Segoe UI Emoji" font-size="20px" fill="#1e1e1e" text-anchor="middle" style="white-space: pre;" direction="ltr" dominant-baseline="alphabetic">L2</text></g><g transform="translate(23.047122410365773 711.9166666666665) rotate(0 12.79998779296875 12.5)"><text x="12.79998779296875" y="17.52" font-family="Virgil, Segoe UI Emoji" font-size="20px" fill="#1e1e1e" text-anchor="middle" style="white-space: pre;" direction="ltr" dominant-baseline="alphabetic">L3</text></g><g stroke-linecap="round"><g transform="translate(55.1242284604491 304.4166666666665) rotate(0 434.40859189203775 0)"><path d="M-0.01 -1.12 C144.9 -1.01, 723.77 0.01, 868.51 0.01" stroke="#1e1e1e" stroke-width="1.5" fill="none" stroke-dasharray="1.5 7"></path></g></g><mask></mask><g transform="translate(10 218.27380952380963) rotate(0 33.989967346191406 12.5)"><text x="33.989967346191406" y="17.52" font-family="Virgil, Segoe UI Emoji" font-size="20px" fill="#1e1e1e" text-anchor="middle" style="white-space: pre;" direction="ltr" dominant-baseline="alphabetic">Memory</text></g><g stroke-linecap="round" transform="translate(421.2756816319061 80.84523809523807) rotate(0 53.5 30)"><path d="M15 0 C34.25 0.86, 59.2 -1.34, 92 0 M15 0 C40.34 0.98, 65.37 -0.13, 92 0 M92 0 C100.82 -0.84, 106.65 3.67, 107 15 M92 0 C101.96 -1.97, 108.96 3.66, 107 15 M107 15 C106.51 25.76, 108.12 35.33, 107 45 M107 15 C106.24 23.24, 106.17 33.64, 107 45 M107 45 C108.15 56.56, 100.06 59.21, 92 60 M107 45 C106.85 56.35, 100.82 59.63, 92 60 M92 60 C70.67 60.96, 51.55 60.45, 15 60 M92 60 C74.8 59.32, 58.73 59.89, 15 60 M15 60 C4.74 59.96, 1.79 54.01, 0 45 M15 60 C3.54 61.51, -0.77 54.47, 0 45 M0 45 C1.93 38.05, 1.16 30.24, 0 15 M0 45 C-0.43 36.36, 0.51 28.37, 0 15 M0 15 C1.01 4.06, 5.05 1.11, 15 0 M0 15 C-0.19 7, 6.67 1.33, 15 0" stroke="#1e1e1e" stroke-width="1" fill="none"></path></g><g transform="translate(442.3357173374725 85.84523809523807) rotate(0 32.439964294433594 25)"><text x="32.439964294433594" y="17.52" font-family="Virgil, Segoe UI Emoji" font-size="20px" fill="#1e1e1e" text-anchor="middle" style="white-space: pre;" direction="ltr" dominant-baseline="alphabetic">Write </text><text x="32.439964294433594" y="42.519999999999996" font-family="Virgil, Segoe UI Emoji" font-size="20px" fill="#1e1e1e" text-anchor="middle" style="white-space: pre;" direction="ltr" dominant-baseline="alphabetic">Buffer</text></g><g stroke-linecap="round"><g transform="translate(422.09093297260915 148.5119047619046) rotate(0 -34.38392609711764 104.45238095238096)"><path d="M-0.96 0.26 C-12.54 34.82, -57.95 173.65, -69.14 208.57 M0.74 -0.65 C-11.06 34.6, -58.74 175.17, -70.28 209.94" stroke="#1e1e1e" stroke-width="1" fill="none"></path></g><g transform="translate(422.09093297260915 148.5119047619046) rotate(0 -34.38392609711764 104.45238095238096)"><path d="M-68.49 208.95 L-73.22 196.34 L-60.61 198.61 L-70.73 208.65" stroke="none" stroke-width="0" fill="#1e1e1e" fill-rule="evenodd"></path><path d="M-70.28 209.94 C-70.66 204.54, -71.95 200.94, -71.96 195.03 M-70.28 209.94 C-71.48 204.01, -71.8 198.21, -71.96 195.03 M-71.96 195.03 C-69.15 196.38, -64.14 196.42, -59.94 199.07 M-71.96 195.03 C-68.35 196.04, -65.91 197.29, -59.94 199.07 M-59.94 199.07 C-61.34 202.51, -63.87 202.84, -70.28 209.94 M-59.94 199.07 C-63.02 201.84, -65.66 204.08, -70.28 209.94 M-70.28 209.94 C-70.28 209.94, -70.28 209.94, -70.28 209.94 M-70.28 209.94 C-70.28 209.94, -70.28 209.94, -70.28 209.94" stroke="#1e1e1e" stroke-width="1" fill="none"></path></g></g><mask></mask><g stroke-linecap="round"><g transform="translate(491.75914738035954 148.8949573091495) rotate(0 45.01733749029859 117.97514039304406)"><path d="M-0.37 -0.33 C14.91 39.1, 75.49 197.55, 90.72 236.87 M1.64 -1.55 C16.9 37.53, 75.27 195.53, 90.14 235.22" stroke="#1e1e1e" stroke-width="1" fill="none"></path></g><g transform="translate(491.75914738035954 148.8949573091495) rotate(0 45.01733749029859 117.97514039304406)"><path d="M88.87 236.53 L78.79 224.23 L90.89 218.98 L90.14 236.96" stroke="none" stroke-width="0" fill="#1e1e1e" fill-rule="evenodd"></path><path d="M90.14 235.22 C87.35 233.73, 86.55 231.81, 79.46 224.69 M90.14 235.22 C87.23 231.88, 84.51 228.94, 79.46 224.69 M79.46 224.69 C84.75 222.05, 88.22 222.02, 91.34 220.27 M79.46 224.69 C83.17 223.32, 87.34 221.18, 91.34 220.27 M91.34 220.27 C92.35 222.36, 90.3 227.25, 90.14 235.22 M91.34 220.27 C90.51 224.92, 90.02 230.42, 90.14 235.22 M90.14 235.22 C90.14 235.22, 90.14 235.22, 90.14 235.22 M90.14 235.22 C90.14 235.22, 90.14 235.22, 90.14 235.22" stroke="#1e1e1e" stroke-width="1" fill="none"></path></g></g><mask></mask><g transform="translate(341.99856349400125 240.41666666666652) rotate(0 24.41997528076172 12.5)"><text x="24.41997528076172" y="17.52" font-family="Virgil, Segoe UI Emoji" font-size="20px" fill="#1e1e1e" text-anchor="middle" style="white-space: pre;" direction="ltr" dominant-baseline="alphabetic">Flush</text></g><g transform="translate(1036.2957393101287 556.1309523809523) rotate(0 52.979942321777344 12.5)"><text x="52.979942321777344" y="17.52" font-family="Virgil, Segoe UI Emoji" font-size="20px" fill="#1e1e1e" text-anchor="middle" style="white-space: pre;" direction="ltr" dominant-baseline="alphabetic">Compaction</text></g><g stroke-linecap="round"><g transform="translate(983.5613959176198 394.1309523809523) rotate(0 13.64285714285711 178.1428571428571)"><path d="M-0.71 -0.5 C3.64 27.74, 26.25 109.77, 27.07 169.06 C27.9 228.35, 7.89 324.17, 4.26 355.26 M1.12 -1.82 C5.2 26.6, 25.62 110.54, 26.02 170.18 C26.41 229.82, 6.81 325.01, 3.49 356.04" stroke="#1e1e1e" stroke-width="1" fill="none"></path></g><g transform="translate(983.5613959176198 394.1309523809523) rotate(0 13.64285714285711 178.1428571428571)"><path d="M3.49 357.77 L0.62 342.61 L13.66 343.3 L4.17 356.12" stroke="none" stroke-width="0" fill="#1e1e1e" fill-rule="evenodd"></path><path d="M3.49 356.04 C1.27 350.22, -0.72 344.93, -0.76 341.65 M3.49 356.04 C2.6 353.34, 1 349.6, -0.76 341.65 M-0.76 341.65 C3.72 341.46, 8.58 342.21, 11.78 343.54 M-0.76 341.65 C2.49 342.48, 4.41 342.17, 11.78 343.54 M11.78 343.54 C9.17 346.52, 5.55 350.07, 3.49 356.04 M11.78 343.54 C10.33 345.66, 8.6 348.88, 3.49 356.04 M3.49 356.04 C3.49 356.04, 3.49 356.04, 3.49 356.04 M3.49 356.04 C3.49 356.04, 3.49 356.04, 3.49 356.04" stroke="#1e1e1e" stroke-width="1" fill="none"></path></g></g><mask></mask><g transform="translate(453.44957279023674 10) rotate(0 55.72993469238281 12.5)"><text x="55.72993469238281" y="17.52" font-family="Virgil, Segoe UI Emoji" font-size="20px" fill="#1971c2" text-anchor="middle" style="white-space: pre;" direction="ltr" dominant-baseline="alphabetic">Range read</text></g><g stroke-linecap="round"><g transform="translate(89.65569795880947 868.3333333333335) rotate(0 426.42857142857133 0)"><path d="M1.02 -0.7 C143.21 -0.42, 711.26 0.6, 853.09 0.65 M0.1 1.55 C142.15 1.57, 709.87 -0.99, 852.26 -1.12" stroke="#1e1e1e" stroke-width="1" fill="none"></path></g><g transform="translate(89.65569795880947 868.3333333333335) rotate(0 426.42857142857133 0)"><path d="M1.71 -0.61 L13.97 -7.01 L15.84 6.98 L2.03 -1.64" stroke="none" stroke-width="0" fill="#1e1e1e" fill-rule="evenodd"></path><path d="M1.02 -0.7 C4.26 -2.41, 10 -5.67, 14.63 -7.01 M1.02 -0.7 C5.06 -2.47, 7.78 -3.95, 14.63 -7.01 M14.63 -7.01 C15.53 -3.2, 15.52 -2.08, 14.6 5.66 M14.63 -7.01 C14.29 -3.81, 14.33 -1.01, 14.6 5.66 M14.6 5.66 C10.64 4.81, 6.61 3.47, 1.02 -0.7 M14.6 5.66 C10.8 3.95, 7.17 2.13, 1.02 -0.7 M1.02 -0.7 C1.02 -0.7, 1.02 -0.7, 1.02 -0.7 M1.02 -0.7 C1.02 -0.7, 1.02 -0.7, 1.02 -0.7" stroke="#1e1e1e" stroke-width="1" fill="none"></path></g><g transform="translate(89.65569795880947 868.3333333333335) rotate(0 426.42857142857133 0)"><path d="M852.95 -1.04 L838.02 5.26 L839.88 -6.11 L853.28 -2.06" stroke="none" stroke-width="0" fill="#1e1e1e" fill-rule="evenodd"></path><path d="M852.26 -1.12 C847.29 1.18, 844.93 1.71, 838.68 5.25 M852.26 -1.12 C849.11 0.63, 844.57 2.54, 838.68 5.25 M838.68 5.25 C839.76 2.9, 839.74 -2.14, 838.65 -7.42 M838.68 5.25 C838.36 1.85, 838.4 -1.96, 838.65 -7.42 M838.65 -7.42 C841.35 -5.31, 844.1 -3.5, 852.26 -1.12 M838.65 -7.42 C842.15 -5.57, 845.91 -3.95, 852.26 -1.12 M852.26 -1.12 C852.26 -1.12, 852.26 -1.12, 852.26 -1.12 M852.26 -1.12 C852.26 -1.12, 852.26 -1.12, 852.26 -1.12" stroke="#1e1e1e" stroke-width="1" fill="none"></path></g></g><mask></mask><g transform="translate(479.3886048453196 892.6190476190477) rotate(0 47.409950256347656 12.5)"><text x="47.409950256347656" y="17.52" font-family="Virgil, Segoe UI Emoji" font-size="20px" fill="#1e1e1e" text-anchor="middle" style="white-space: pre;" direction="ltr" dominant-baseline="alphabetic">Key range</text></g><g stroke-linecap="round" transform="translate(721.8104598635709 362.0119047619037) rotate(0 84.42857142857133 37)"><path d="M18.5 0 C59.94 2.14, 103.65 2.14, 150.36 0 M18.5 0 C57.15 -1.03, 96.3 0.45, 150.36 0 M150.36 0 C163.84 1.56, 166.92 5.38, 168.86 18.5 M150.36 0 C162.55 1.35, 167.68 5.8, 168.86 18.5 M168.86 18.5 C166.97 29.37, 167.66 38.37, 168.86 55.5 M168.86 18.5 C168.4 25.98, 168.86 34.5, 168.86 55.5 M168.86 55.5 C168.59 67.79, 164.48 73.01, 150.36 74 M168.86 55.5 C167.4 69.34, 161.92 73.47, 150.36 74 M150.36 74 C115.51 75.37, 78.16 75.88, 18.5 74 M150.36 74 C112.02 74.06, 74.97 74.71, 18.5 74 M18.5 74 C7.18 73.06, 0.05 68.95, 0 55.5 M18.5 74 C5.98 76, 1.67 69.16, 0 55.5 M0 55.5 C-1.5 44.26, -1.48 38.68, 0 18.5 M0 55.5 C0.04 46.57, -0.3 38.23, 0 18.5 M0 18.5 C-1.9 6.1, 5.33 1.47, 18.5 0 M0 18.5 C0.03 7.31, 6.19 -0.78, 18.5 0" stroke="#1e1e1e" stroke-width="1" fill="none"></path></g><g stroke-opacity="0.2" fill-opacity="0.2" stroke-linecap="round" transform="translate(362.0801929292227 41.85770846770265) rotate(0 148.57142857142856 379.28571428571433)"><path d="M32 0 C118.83 -2.83, 206.9 1, 265.14 0 C288.3 -0.65, 297.13 7.31, 297.14 32 C298.43 229.46, 297.37 425.78, 297.14 726.57 C294.27 745.04, 287.02 756.68, 265.14 758.57 C184.24 758.06, 103.52 760.14, 32 758.57 C10.15 761.67, 1.89 749.66, 0 726.57 C1.28 573.62, 2.43 421.24, 0 32 C-2.97 7.58, 8.81 -0.84, 32 0" stroke="none" stroke-width="0" fill="#a5d8ff"></path><path d="M32 0 C97.3 -0.25, 164.04 0.1, 265.14 0 M265.14 0 C285.23 -0.61, 296.58 9.34, 297.14 32 M297.14 32 C297.56 199.94, 297.69 367.25, 297.14 726.57 M297.14 726.57 C295.92 746.8, 288.47 760.35, 265.14 758.57 M265.14 758.57 C202.62 760.07, 141.87 759.08, 32 758.57 M32 758.57 C10.68 757.25, -0.27 745.93, 0 726.57 M0 726.57 C-0.5 485.3, -0.4 242.82, 0 32 M0 32 C0.28 10.13, 10.73 -1.11, 32 0" stroke="#1971c2" stroke-width="1.5" fill="none" stroke-dasharray="1.5 7"></path></g><g stroke-linecap="round"><g transform="translate(362.08019292922336 720.4291370391311) rotate(0 146.42857142857133 0)"><path d="M-0.12 0.31 C48.71 0.26, 243.65 -0.48, 292.4 -0.73 M-1.64 -0.57 C47.04 -0.44, 242.37 0.41, 291.21 0.42" stroke="#1971c2" stroke-width="4" fill="none"></path></g><g transform="translate(362.08019292922336 720.4291370391311) rotate(0 146.42857142857133 0)"><path d="M289.61 -1.35 L279.35 8.46 L276.5 -4.76 L290.91 1.77" stroke="none" stroke-width="0" fill="#1971c2" fill-rule="evenodd"></path><path d="M291.21 0.42 C288.11 1.44, 283.34 3.04, 277.6 6.73 M291.21 0.42 C288.4 1.96, 285.09 2.76, 277.6 6.73 M277.6 6.73 C277.38 2.36, 276.44 -3.26, 277.63 -5.95 M277.6 6.73 C278.08 3.97, 277.78 0.26, 277.63 -5.95 M277.63 -5.95 C282.92 -4.51, 288.08 -1.52, 291.21 0.42 M277.63 -5.95 C281.27 -3.81, 285.36 -2.81, 291.21 0.42 M291.21 0.42 C291.21 0.42, 291.21 0.42, 291.21 0.42 M291.21 0.42 C291.21 0.42, 291.21 0.42, 291.21 0.42" stroke="#1971c2" stroke-width="4" fill="none"></path></g></g><mask></mask><g stroke-linecap="round"><g transform="translate(363.5087643577947 637.5719941819884) rotate(0 144.28571428571433 0)"><path d="M0.3 0.82 C48.1 0.88, 239.69 0.02, 287.64 -0.21 M-1 0.21 C47.09 0.5, 241.88 1.17, 289.87 1.21" stroke="#1971c2" stroke-width="4" fill="none"></path></g><g transform="translate(363.5087643577947 637.5719941819884) rotate(0 144.28571428571433 0)"><path d="M290.92 0.73 L276.23 8.3 L277.34 -6.66 L290.54 -0.71" stroke="none" stroke-width="0" fill="#1971c2" fill-rule="evenodd"></path><path d="M289.87 1.21 C285.81 2.43, 279.45 5.22, 276.26 7.52 M289.87 1.21 C286.94 2.16, 282.58 4.3, 276.26 7.52 M276.26 7.52 C275.41 4.7, 277.12 -0.72, 276.29 -5.16 M276.26 7.52 C275.69 4.64, 276.32 2.92, 276.29 -5.16 M276.29 -5.16 C280.54 -2.2, 286.01 -2.13, 289.87 1.21 M276.29 -5.16 C281.1 -2.94, 284.91 -0.62, 289.87 1.21 M289.87 1.21 C289.87 1.21, 289.87 1.21, 289.87 1.21 M289.87 1.21 C289.87 1.21, 289.87 1.21, 289.87 1.21" stroke="#1971c2" stroke-width="4" fill="none"></path></g></g><mask></mask><g stroke-linecap="round"><g transform="translate(362.08019292922336 550.4291370391311) rotate(0 145.71428571428578 0)"><path d="M0.04 -0.17 C48.77 -0.14, 243.5 -0.4, 292.06 -0.29 M-1.4 -1.31 C47.25 -1.06, 242.77 1.15, 291.45 1.09" stroke="#1971c2" stroke-width="4" fill="none"></path></g><g transform="translate(362.08019292922336 550.4291370391311) rotate(0 145.71428571428578 0)"><path d="M290.12 0.34 L276.74 7.47 L278.04 -7.14 L290.44 2.47" stroke="none" stroke-width="0" fill="#1971c2" fill-rule="evenodd"></path><path d="M291.45 1.09 C287.48 3.6, 283.6 4.5, 277.81 7.35 M291.45 1.09 C287.11 2.39, 281.78 4.8, 277.81 7.35 M277.81 7.35 C276.87 4.29, 278.99 -0.02, 277.89 -5.33 M277.81 7.35 C277.37 3, 277.69 -0.22, 277.89 -5.33 M277.89 -5.33 C281.38 -4.13, 286.11 -1.03, 291.45 1.09 M277.89 -5.33 C282.2 -3.26, 285.83 -1.47, 291.45 1.09 M291.45 1.09 C291.45 1.09, 291.45 1.09, 291.45 1.09 M291.45 1.09 C291.45 1.09, 291.45 1.09, 291.45 1.09" stroke="#1971c2" stroke-width="4" fill="none"></path></g></g><mask></mask><g stroke-linecap="round"><g transform="translate(419.22305007208024 426.14342275341687) rotate(0 126.42857142857156 0)"><path d="M-0.34 0.15 C41.53 0.07, 210.02 0.46, 252.05 0.5 M1.68 -0.82 C43.86 -1.35, 212.26 -1.21, 254.34 -1.37" stroke="#1971c2" stroke-width="4" fill="none"></path></g><g transform="translate(419.22305007208024 426.14342275341687) rotate(0 126.42857142857156 0)"><path d="M254.94 -1.64 L239.17 4.4 L242.55 -7.53 L253.44 -2.39" stroke="none" stroke-width="0" fill="#1971c2" fill-rule="evenodd"></path><path d="M254.34 -1.37 C249.55 -0.06, 244.95 2, 240.75 4.99 M254.34 -1.37 C249.39 0.74, 245.34 2.12, 240.75 4.99 M240.75 4.99 C239.51 2.03, 240.19 -2.2, 240.74 -7.69 M240.75 4.99 C240.63 0.42, 240.69 -3.34, 240.74 -7.69 M240.74 -7.69 C244.84 -4.52, 250.42 -2.05, 254.34 -1.37 M240.74 -7.69 C243.39 -6.93, 246.24 -5.34, 254.34 -1.37 M254.34 -1.37 C254.34 -1.37, 254.34 -1.37, 254.34 -1.37 M254.34 -1.37 C254.34 -1.37, 254.34 -1.37, 254.34 -1.37" stroke="#1971c2" stroke-width="4" fill="none"></path></g></g><mask></mask><g stroke-linecap="round"><g transform="translate(363.5087643577947 411.85770846770265) rotate(0 95 0)"><path d="M0.64 -0.44 C32.3 -0.65, 159.28 -0.83, 190.64 -0.9 M-0.49 -1.72 C31.01 -1.83, 158.1 -0.13, 190.03 0.16" stroke="#1971c2" stroke-width="4" fill="none"></path></g><g transform="translate(363.5087643577947 411.85770846770265) rotate(0 95 0)"><path d="M189.77 1.71 L175.43 4.89 L175.2 -5.98 L188.64 1.21" stroke="none" stroke-width="0" fill="#1971c2" fill-rule="evenodd"></path><path d="M190.03 0.16 C184.6 3.26, 179.14 3.21, 176.37 6.35 M190.03 0.16 C186.31 1.35, 184.44 3.05, 176.37 6.35 M176.37 6.35 C175.8 3.97, 175.74 1.13, 176.51 -6.33 M176.37 6.35 C176.19 2.34, 176.7 -2.36, 176.51 -6.33 M176.51 -6.33 C180.42 -5.12, 185.05 -2.24, 190.03 0.16 M176.51 -6.33 C179.16 -4.22, 182.54 -3.91, 190.03 0.16 M190.03 0.16 C190.03 0.16, 190.03 0.16, 190.03 0.16 M190.03 0.16 C190.03 0.16, 190.03 0.16, 190.03 0.16" stroke="#1971c2" stroke-width="4" fill="none"></path></g></g><mask></mask><g stroke-linecap="round"><g transform="translate(366.3659072149376 386.14342275341687) rotate(0 47.85714285714289 0)"><path d="M0.3 -0.64 C16.58 -0.63, 81.04 -0.91, 96.91 -0.95 M-1 1.63 C15.29 1.85, 80.65 0.36, 96.59 0.09" stroke="#1971c2" stroke-width="4" fill="none"></path></g><g transform="translate(366.3659072149376 386.14342275341687) rotate(0 47.85714285714289 0)"><path d="M97.5 1.04 L81.7 7.18 L82.8 -6.58 L97.12 1.32" stroke="none" stroke-width="0" fill="#1971c2" fill-rule="evenodd"></path><path d="M96.59 0.09 C92.52 3.19, 88.92 3.01, 83.12 6.69 M96.59 0.09 C93.23 0.91, 89.82 2.67, 83.12 6.69 M83.12 6.69 C84.19 3.57, 81.99 -1, 82.87 -5.98 M83.12 6.69 C83.47 4.03, 82.8 0.67, 82.87 -5.98 M82.87 -5.98 C87.1 -2.45, 90.95 -2.66, 96.59 0.09 M82.87 -5.98 C87.03 -4.8, 90.24 -3.61, 96.59 0.09 M96.59 0.09 C96.59 0.09, 96.59 0.09, 96.59 0.09 M96.59 0.09 C96.59 0.09, 96.59 0.09, 96.59 0.09" stroke="#1971c2" stroke-width="4" fill="none"></path></g></g><mask></mask><g stroke-linecap="round"><g transform="translate(362.08019292922336 354.7148513248453) rotate(0 48.57142857142844 0)"><path d="M0.05 1.12 C16.47 0.93, 81.82 -0.7, 98.16 -1.04 M-1.39 0.66 C15 0.57, 81.21 0.07, 97.75 -0.05" stroke="#1971c2" stroke-width="4" fill="none"></path></g><g transform="translate(362.08019292922336 354.7148513248453) rotate(0 48.57142857142844 0)"><path d="M99.1 1.43 L84.39 6.47 L82.97 -7.19 L97.34 -0.42" stroke="none" stroke-width="0" fill="#1971c2" fill-rule="evenodd"></path><path d="M97.75 -0.05 C95.5 2.97, 89.13 4.64, 84.2 6.39 M97.75 -0.05 C95.14 1.69, 91.24 2.95, 84.2 6.39 M84.2 6.39 C84.99 3.83, 83.6 -0.56, 84.11 -6.29 M84.2 6.39 C83.79 1.26, 84.67 -2.94, 84.11 -6.29 M84.11 -6.29 C87.61 -3.39, 91.8 -2.95, 97.75 -0.05 M84.11 -6.29 C87.57 -3.86, 92.94 -2.89, 97.75 -0.05 M97.75 -0.05 C97.75 -0.05, 97.75 -0.05, 97.75 -0.05 M97.75 -0.05 C97.75 -0.05, 97.75 -0.05, 97.75 -0.05" stroke="#1971c2" stroke-width="4" fill="none"></path></g></g><mask></mask><g stroke-linecap="round"><g transform="translate(644.830192929227 370.45514524164264) rotate(0 10.833333333333258 0)"><path d="M0.28 -0.44 C3.92 -0.44, 18.32 -0.51, 21.85 -0.48 M-0.23 0.53 C3.35 0.62, 17.97 0.02, 21.51 -0.02" stroke="#1971c2" stroke-width="4" fill="none"></path></g><g transform="translate(644.830192929227 370.45514524164264) rotate(0 10.833333333333258 0)"><path d="M21.53 -0.18 L11.41 4.32 L11.61 -4.59 L22.28 -0.01" stroke="none" stroke-width="0" fill="#1971c2" fill-rule="evenodd"></path><path d="M21.51 -0.02 C18.12 1.66, 15.13 2.74, 11.83 4.83 M21.51 -0.02 C19.08 1.1, 16.67 2.74, 11.83 4.83 M11.83 4.83 C12.19 1.54, 11.92 -0.76, 11.57 -4.32 M11.83 4.83 C11.6 1.96, 11.6 -0.27, 11.57 -4.32 M11.57 -4.32 C15.44 -2.52, 19.17 -1.7, 21.51 -0.02 M11.57 -4.32 C13.86 -3.47, 15.77 -2.62, 21.51 -0.02 M21.51 -0.02 C21.51 -0.02, 21.51 -0.02, 21.51 -0.02 M21.51 -0.02 C21.51 -0.02, 21.51 -0.02, 21.51 -0.02" stroke="#1971c2" stroke-width="4" fill="none"></path></g></g><mask></mask></svg>