<svg version="1.1" xmlns="http://www.w3.org/2000/svg" viewBox="0 0 877.073367317075 1048.5928585433264" width="877.073367317075" height="1048.5928585433264">
  <!-- svg-source:excalidraw -->
  
  <defs>
    <style class="style-fonts">
      @font-face {
        font-family: "Virgil";
        src: url("https://excalidraw.com/Virgil.woff2");
      }
      @font-face {
        font-family: "Cascadia";
        src: url("https://excalidraw.com/Cascadia.woff2");
      }
      @font-face {
        font-family: "Assistant";
        src: url("https://excalidraw.com/Assistant-Regular.woff2");
      }
    </style>
    
  </defs>
  <rect x="0" y="0" width="877.073367317075" height="1048.5928585433264" fill="#ffffff"></rect><g stroke-linecap="round" transform="translate(173.76633314758215 313.53526426734663) rotate(0 45.85714285714289 37)"><path d="M18.5 0 C31.76 1.38, 41.62 -0.77, 73.21 0 M18.5 0 C37.6 -0.94, 55.49 0.33, 73.21 0 M73.21 0 C84.79 0.96, 90.18 6.14, 91.71 18.5 M73.21 0 C86.17 -0.3, 91.62 5.66, 91.71 18.5 M91.71 18.5 C92.88 30.75, 92.5 42.83, 91.71 55.5 M91.71 18.5 C91.75 28.64, 91.2 39.65, 91.71 55.5 M91.71 55.5 C89.89 69.73, 85.18 72.25, 73.21 74 M91.71 55.5 C91.89 66.45, 87.71 75.85, 73.21 74 M73.21 74 C58.61 74.72, 46.4 71.87, 18.5 74 M73.21 74 C61.59 74.28, 49.01 73.67, 18.5 74 M18.5 74 C4.98 74.55, -1.85 66.89, 0 55.5 M18.5 74 C4.06 74.72, 0.08 68.66, 0 55.5 M0 55.5 C1.37 44.88, -1.08 36.99, 0 18.5 M0 55.5 C0.46 43.18, 0.09 32.67, 0 18.5 M0 18.5 C-1.1 5.25, 6.9 -1.46, 18.5 0 M0 18.5 C-0.71 6.43, 4.42 -0.45, 18.5 0" stroke="#1e1e1e" stroke-width="1" fill="none"></path></g><g stroke-linecap="round" transform="translate(214.26633314758215 325.1066928387752) rotate(0 41.428571428571445 37)"><path d="M18.5 0 C29.49 -1.32, 41.76 -0.79, 64.36 0 M18.5 0 C35.68 0.99, 52.89 0.71, 64.36 0 M64.36 0 C75.16 -0.03, 83.39 5.9, 82.86 18.5 M64.36 0 C76.6 -0.51, 83.56 6.76, 82.86 18.5 M82.86 18.5 C83.75 26.81, 82.54 35.47, 82.86 55.5 M82.86 18.5 C82.34 33.83, 81.95 48.42, 82.86 55.5 M82.86 55.5 C82.49 66.08, 76.84 72.79, 64.36 74 M82.86 55.5 C85.02 69.68, 75.14 72.16, 64.36 74 M64.36 74 C53.08 72.6, 42.84 72.32, 18.5 74 M64.36 74 C50.76 73.96, 38.17 74.46, 18.5 74 M18.5 74 C4.32 73.06, -1.83 68.46, 0 55.5 M18.5 74 C6.25 74.83, -1.31 68.16, 0 55.5 M0 55.5 C-1.29 40.7, -0.07 25.92, 0 18.5 M0 55.5 C-0.2 43.88, -0.65 31.61, 0 18.5 M0 18.5 C0.73 4.71, 5.55 0.23, 18.5 0 M0 18.5 C-1.74 5.71, 8.01 1.72, 18.5 0" stroke="#1e1e1e" stroke-width="1" fill="none"></path></g><g stroke-linecap="round" transform="translate(329.1234760047248 332.1066928387752) rotate(0 29.5 37)"><path d="M14.75 0 C23.6 1.09, 28.26 -0.34, 44.25 0 M14.75 0 C25.07 -0.15, 37.19 -0.27, 44.25 0 M44.25 0 C54 -0.44, 59.62 5.43, 59 14.75 M44.25 0 C52.44 1.23, 59.01 5.71, 59 14.75 M59 14.75 C60.72 27.82, 58.86 39.77, 59 59.25 M59 14.75 C58.41 31, 58.67 48.4, 59 59.25 M59 59.25 C60.88 70.69, 52.73 72.4, 44.25 74 M59 59.25 C57.06 66.92, 55.44 72.42, 44.25 74 M44.25 74 C37.44 73.87, 32.27 72.1, 14.75 74 M44.25 74 C35.12 73.61, 26.92 74.4, 14.75 74 M14.75 74 C4.99 74.72, -1.14 69.37, 0 59.25 M14.75 74 C6.9 75.63, -1.87 67.91, 0 59.25 M0 59.25 C0.29 47.59, -1.77 34.66, 0 14.75 M0 59.25 C0.61 44.76, -0.07 31.85, 0 14.75 M0 14.75 C-1.51 4.52, 6.52 1.5, 14.75 0 M0 14.75 C-1.61 4.64, 4.93 1.01, 14.75 0" stroke="#1e1e1e" stroke-width="1" fill="none"></path></g><g stroke-linecap="round" transform="translate(368.6234760047248 348.1066928387752) rotate(0 31.357142857143003 37)"><path d="M15.68 0 C23.22 -0.57, 34.31 -0.92, 47.04 0 M15.68 0 C26.86 -0.13, 37.46 -0.22, 47.04 0 M47.04 0 C58.1 0.52, 61.28 6.3, 62.71 15.68 M47.04 0 C57.5 0.79, 62.55 4.64, 62.71 15.68 M62.71 15.68 C63.08 27.57, 64.8 39.74, 62.71 58.32 M62.71 15.68 C62.71 31.92, 63.58 50.16, 62.71 58.32 M62.71 58.32 C61.36 67.17, 55.8 72.12, 47.04 74 M62.71 58.32 C64.07 67.19, 55.57 72.02, 47.04 74 M47.04 74 C41.48 72.42, 33.9 72.84, 15.68 74 M47.04 74 C35.84 74.17, 26.52 74.21, 15.68 74 M15.68 74 C4.09 74.29, 1.72 70.19, 0 58.32 M15.68 74 C3.36 72.82, -0.6 69, 0 58.32 M0 58.32 C-1.79 47.48, 0.11 35.93, 0 15.68 M0 58.32 C-0.47 47.59, -0.91 36.43, 0 15.68 M0 15.68 C1.61 6.73, 3.83 -0.24, 15.68 0 M0 15.68 C0.02 6.24, 4.57 -0.47, 15.68 0" stroke="#1e1e1e" stroke-width="1" fill="none"></path></g><g transform="translate(52.39633803039487 344.53526426734675) rotate(0 12.8699951171875 12.5)"><text x="12.8699951171875" y="17.52" font-family="Virgil, Segoe UI Emoji" font-size="20px" fill="#1e1e1e" text-anchor="middle" style="white-space: pre;" direction="ltr" dominant-baseline="alphabetic">L0</text></g><g stroke-linecap="round"><g transform="translate(10.455019063502505 281.67812141020363) rotate(0 376.16709377692075 0)"><path d="M-0.46 0.57 C124.82 0.42, 625.89 0.11, 751.41 -0.02" stroke="#1e1e1e" stroke-width="1.5" fill="none" stroke-dasharray="1.5 7"></path></g></g><mask></mask><g transform="translate(17.419222944248077 201.2495499816324) rotate(0 33.989967346191406 12.5)"><text x="33.989967346191406" y="17.52" font-family="Virgil, Segoe UI Emoji" font-size="20px" fill="#1e1e1e" text-anchor="middle" style="white-space: pre;" direction="ltr" dominant-baseline="alphabetic">Memory</text></g><g stroke-linecap="round" transform="translate(260.1234760047248 58.10669283877519) rotate(0 53.5 30)"><path d="M15 0 C31.93 -0.29, 48.94 0.41, 92 0 M15 0 C40.1 -0.07, 65.12 -0.67, 92 0 M92 0 C102.07 1.83, 107.04 4.98, 107 15 M92 0 C100.79 1.95, 104.9 7.18, 107 15 M107 15 C105.53 25.33, 108.35 30.54, 107 45 M107 15 C107.34 20.9, 105.91 27.33, 107 45 M107 45 C105.05 54.58, 102.15 60.79, 92 60 M107 45 C105.15 54.5, 100.64 60.64, 92 60 M92 60 C76.66 59.36, 60.78 58.16, 15 60 M92 60 C66.98 60.04, 43.32 60.64, 15 60 M15 60 C3.99 60.33, 0.54 53.28, 0 45 M15 60 C4.78 60.21, -1.26 53.95, 0 45 M0 45 C0.45 33.39, -0.18 26.41, 0 15 M0 45 C0.22 34.19, -0.08 22.3, 0 15 M0 15 C-0.14 3.53, 5.13 -0.15, 15 0 M0 15 C1.4 5.94, 5.77 1.72, 15 0" stroke="#1e1e1e" stroke-width="1" fill="none"></path></g><g transform="translate(281.1835117102912 63.10669283877519) rotate(0 32.439964294433594 25)"><text x="32.439964294433594" y="17.52" font-family="Virgil, Segoe UI Emoji" font-size="20px" fill="#1e1e1e" text-anchor="middle" style="white-space: pre;" direction="ltr" dominant-baseline="alphabetic">Write </text><text x="32.439964294433594" y="42.519999999999996" font-family="Virgil, Segoe UI Emoji" font-size="20px" fill="#1e1e1e" text-anchor="middle" style="white-space: pre;" direction="ltr" dominant-baseline="alphabetic">Buffer</text></g><g stroke-linecap="round"><g transform="translate(291.315285016443 125.7733595054417) rotate(0 -35.83000850670726 90.88095238095235)"><path d="M0.37 0.31 C-11.71 30.76, -60.52 152.09, -72.52 182.4 M-0.9 -0.57 C-12.59 29.55, -58.34 150.52, -70.26 180.62" stroke="#1e1e1e" stroke-width="1" fill="none"></path></g><g transform="translate(291.315285016443 125.7733595054417) rotate(0 -35.83000850670726 90.88095238095235)"><path d="M-69.72 178.9 L-71.47 165.84 L-60.55 169.31 L-69.53 179.16" stroke="none" stroke-width="0" fill="#1e1e1e" fill-rule="evenodd"></path><path d="M-70.26 180.62 C-70.14 175.12, -70.03 171.78, -71.28 165.65 M-70.26 180.62 C-70.56 176.3, -70.92 170.6, -71.28 165.65 M-71.28 165.65 C-67.11 166.66, -66.49 168.12, -59.45 170.22 M-71.28 165.65 C-68.83 166.14, -66.1 167.15, -59.45 170.22 M-59.45 170.22 C-64.69 172.4, -67.59 177.71, -70.26 180.62 M-59.45 170.22 C-63.65 173.94, -67.57 176.91, -70.26 180.62 M-70.26 180.62 C-70.26 180.62, -70.26 180.62, -70.26 180.62 M-70.26 180.62 C-70.26 180.62, -70.26 180.62, -70.26 180.62" stroke="#1e1e1e" stroke-width="1" fill="none"></path></g></g><mask></mask><g stroke-linecap="round"><g transform="translate(329.31795136014716 126.15641205268685) rotate(0 36.1577397235302 107.97514039304411)"><path d="M-0.86 0.64 C11.13 36.65, 60.14 180.53, 72.32 216.36 M0.89 -0.07 C12.69 35.55, 59.62 178.32, 71.38 214.46" stroke="#1e1e1e" stroke-width="1" fill="none"></path></g><g transform="translate(329.31795136014716 126.15641205268685) rotate(0 36.1577397235302 107.97514039304411)"><path d="M71.19 214.64 L60.03 202.6 L73.91 198.11 L70.76 214.69" stroke="none" stroke-width="0" fill="#1e1e1e" fill-rule="evenodd"></path><path d="M71.38 214.46 C68.76 210.77, 65.08 207.04, 61.12 203.51 M71.38 214.46 C68.58 211.54, 65.35 209.18, 61.12 203.51 M61.12 203.51 C62.49 202.81, 65.36 203.08, 73.17 199.57 M61.12 203.51 C65.2 201.51, 70.69 200.17, 73.17 199.57 M73.17 199.57 C72.34 202.89, 72.86 204.79, 71.38 214.46 M73.17 199.57 C71.89 203.36, 71.4 208.1, 71.38 214.46 M71.38 214.46 C71.38 214.46, 71.38 214.46, 71.38 214.46 M71.38 214.46 C71.38 214.46, 71.38 214.46, 71.38 214.46" stroke="#1e1e1e" stroke-width="1" fill="none"></path></g></g><mask></mask><g transform="translate(180.84635786682043 217.67812141020363) rotate(0 24.41997528076172 12.5)"><text x="24.41997528076172" y="17.52" font-family="Virgil, Segoe UI Emoji" font-size="20px" fill="#1e1e1e" text-anchor="middle" style="white-space: pre;" direction="ltr" dominant-baseline="alphabetic">Flush</text></g><g transform="translate(56.60026021049919 493.01740712448986) rotate(0 8.699996948242188 12.5)"><text x="8.699996948242188" y="17.52" font-family="Virgil, Segoe UI Emoji" font-size="20px" fill="#1e1e1e" text-anchor="middle" style="white-space: pre;" direction="ltr" dominant-baseline="alphabetic">L1</text></g><g stroke-linecap="round" transform="translate(173.252638111122 460.1840737911566) rotate(0 82.28571428571422 37)"><path d="M18.5 0 C66.09 -0.32, 117.59 -1.78, 146.07 0 M18.5 0 C60.98 0.24, 101.78 -0.94, 146.07 0 M146.07 0 C157.71 0.38, 165.75 5.83, 164.57 18.5 M146.07 0 C156.96 -0.09, 162.79 4.14, 164.57 18.5 M164.57 18.5 C164 30.88, 165.68 44.77, 164.57 55.5 M164.57 18.5 C164.42 32.64, 163.72 47.93, 164.57 55.5 M164.57 55.5 C164.82 66.88, 157.69 74.76, 146.07 74 M164.57 55.5 C166.36 66.48, 156.9 73.5, 146.07 74 M146.07 74 C117.05 74.07, 88.57 74.11, 18.5 74 M146.07 74 C107.68 73.22, 70.53 73.74, 18.5 74 M18.5 74 C7.81 73.69, 0.59 69.12, 0 55.5 M18.5 74 C6.43 75.77, 0.84 66.27, 0 55.5 M0 55.5 C0.95 41.4, -1.88 32.69, 0 18.5 M0 55.5 C0.64 45.26, 0.8 36.79, 0 18.5 M0 18.5 C-1.06 6.18, 5.2 -0.55, 18.5 0 M0 18.5 C0.31 5.72, 4.75 1.39, 18.5 0" stroke="#1e1e1e" stroke-width="1" fill="none"></path></g><g stroke-linecap="round" transform="translate(198.252638111122 476.85074045782324) rotate(0 82.28571428571422 37)"><path d="M18.5 0 C66.27 0.53, 111.45 1.38, 146.07 0 M18.5 0 C64.83 -1.75, 111.11 -0.4, 146.07 0 M146.07 0 C156.57 0.56, 163.17 5.77, 164.57 18.5 M146.07 0 C157.87 -0.07, 166.82 6.29, 164.57 18.5 M164.57 18.5 C165.86 27.59, 165.57 37.5, 164.57 55.5 M164.57 18.5 C164.65 27.04, 165.38 37.58, 164.57 55.5 M164.57 55.5 C163.15 69.2, 156.9 72.22, 146.07 74 M164.57 55.5 C165.81 69.68, 157.19 75.15, 146.07 74 M146.07 74 C100.76 73.98, 58.6 74.7, 18.5 74 M146.07 74 C109.23 71.97, 73.21 73.69, 18.5 74 M18.5 74 C4.56 73.77, 0.67 67.92, 0 55.5 M18.5 74 C7.14 75.53, 2.05 67, 0 55.5 M0 55.5 C0.27 48.79, -1.66 38.22, 0 18.5 M0 55.5 C1.06 44.77, 0.38 35.23, 0 18.5 M0 18.5 C-0.05 8.02, 5.51 1.5, 18.5 0 M0 18.5 C2.04 4.72, 4.98 -1.12, 18.5 0" stroke="#1e1e1e" stroke-width="1" fill="none"></path></g><g stroke-linecap="round" transform="translate(226.5859714444557 490.1840737911565) rotate(0 82.28571428571422 37)"><path d="M18.5 0 C55.6 1.87, 94.98 0.86, 146.07 0 M18.5 0 C52.74 0.51, 87.4 0.15, 146.07 0 M146.07 0 C156.74 1.38, 165.23 4.75, 164.57 18.5 M146.07 0 C159.98 -1.74, 162.52 7.4, 164.57 18.5 M164.57 18.5 C165.35 31.86, 164.29 45.81, 164.57 55.5 M164.57 18.5 C164.7 29.78, 163.9 40.34, 164.57 55.5 M164.57 55.5 C162.94 67.49, 160.2 72.39, 146.07 74 M164.57 55.5 C164.31 68.6, 158.5 74.97, 146.07 74 M146.07 74 C97.8 74.79, 54.28 74.04, 18.5 74 M146.07 74 C97.73 72.82, 50.26 74.32, 18.5 74 M18.5 74 C5.8 74.23, 1.64 67.78, 0 55.5 M18.5 74 C8.29 73.25, 1.73 69.87, 0 55.5 M0 55.5 C-1.11 48.22, 0.53 39.28, 0 18.5 M0 55.5 C0.12 47.75, -0.32 38.73, 0 18.5 M0 18.5 C0.64 5.48, 5.18 0.06, 18.5 0 M0 18.5 C-0.1 7.07, 7.74 0.55, 18.5 0" stroke="#1e1e1e" stroke-width="1" fill="none"></path></g><g stroke-linecap="round" transform="translate(259.91930477778897 506.8507404578231) rotate(0 82.28571428571422 37)"><path d="M18.5 0 C49.35 -0.71, 80.78 -0.58, 146.07 0 M18.5 0 C66.45 -0.75, 113.68 -0.62, 146.07 0 M146.07 0 C158.06 1.8, 162.96 5.94, 164.57 18.5 M146.07 0 C159.18 0.1, 165.54 7.69, 164.57 18.5 M164.57 18.5 C165.69 34.57, 164.94 48.83, 164.57 55.5 M164.57 18.5 C163.73 27.54, 165.23 35.24, 164.57 55.5 M164.57 55.5 C164.8 69.47, 158.35 75.85, 146.07 74 M164.57 55.5 C163.82 69.56, 160.44 72.55, 146.07 74 M146.07 74 C115.86 73.51, 83.97 71.73, 18.5 74 M146.07 74 C107.76 73.89, 68.17 74.5, 18.5 74 M18.5 74 C5.48 73.02, 0.06 67.75, 0 55.5 M18.5 74 C7.07 75.58, 0.55 68.37, 0 55.5 M0 55.5 C1.51 48.24, -1.8 41.13, 0 18.5 M0 55.5 C0.61 47.25, -0.03 38.33, 0 18.5 M0 18.5 C-0.2 4.95, 6.02 0.66, 18.5 0 M0 18.5 C1.42 7.71, 7.51 0.29, 18.5 0" stroke="#1e1e1e" stroke-width="1" fill="none"></path></g><g transform="translate(60.5235975111176 671.3507404578232) rotate(0 13.109992980957031 12.5)"><text x="13.109992980957031" y="17.52" font-family="Virgil, Segoe UI Emoji" font-size="20px" fill="#1e1e1e" text-anchor="middle" style="white-space: pre;" direction="ltr" dominant-baseline="alphabetic">L2</text></g><g transform="translate(488.51841678892595 522.1840737911566) rotate(0 62.0199356079101 12.5)"><text x="62.019935607910156" y="17.52" font-family="Virgil, Segoe UI Emoji" font-size="20px" fill="#1e1e1e" text-anchor="middle" style="white-space: pre;" direction="ltr" dominant-baseline="alphabetic">64 MiB each</text></g><g transform="translate(491.97508437112015 681.3507404578232) rotate(0 65.22993469238281 12.5)"><text x="65.22993469238281" y="17.52" font-family="Virgil, Segoe UI Emoji" font-size="20px" fill="#1e1e1e" text-anchor="middle" style="white-space: pre;" direction="ltr" dominant-baseline="alphabetic">512 MiB each</text></g><g stroke-linecap="round" transform="translate(179.9193047777885 626.8507404578235) rotate(0 82.28571428571422 37)"><path d="M18.5 0 C69.27 -0.79, 121.11 -0.66, 146.07 0 M18.5 0 C68.73 0.02, 117.43 1.68, 146.07 0 M146.07 0 C160.02 -0.98, 163.57 4.5, 164.57 18.5 M146.07 0 C158.73 0.1, 166.66 7.79, 164.57 18.5 M164.57 18.5 C163.99 30.99, 166.17 45.33, 164.57 55.5 M164.57 18.5 C164.27 32.59, 163.78 45.29, 164.57 55.5 M164.57 55.5 C162.59 69.5, 157.56 73.94, 146.07 74 M164.57 55.5 C165.21 66.17, 156.24 73.42, 146.07 74 M146.07 74 C113.93 72.71, 79.9 75.6, 18.5 74 M146.07 74 C115.09 74.32, 84.03 73.69, 18.5 74 M18.5 74 C5.63 74.47, -1.43 66.02, 0 55.5 M18.5 74 C4.2 75.05, 1.7 65.71, 0 55.5 M0 55.5 C1.34 43.52, 0.08 33.24, 0 18.5 M0 55.5 C-0.68 47.83, 0.28 39.85, 0 18.5 M0 18.5 C0.06 5.5, 7.32 0.05, 18.5 0 M0 18.5 C0.45 4.01, 4.91 1.36, 18.5 0" stroke="#1e1e1e" stroke-width="1" fill="none"></path></g><g stroke-linecap="round" transform="translate(204.9193047777885 643.51740712449) rotate(0 82.28571428571422 37)"><path d="M18.5 0 C68.46 0.23, 118.05 1.05, 146.07 0 M18.5 0 C47.07 1.91, 77.86 0.64, 146.07 0 M146.07 0 C157.4 -1.67, 164.85 6.26, 164.57 18.5 M146.07 0 C160.49 1.62, 165.87 5.64, 164.57 18.5 M164.57 18.5 C166.16 28.73, 165.97 38.79, 164.57 55.5 M164.57 18.5 C163.49 30.48, 163.42 45.17, 164.57 55.5 M164.57 55.5 C163.73 67.77, 158.96 72.55, 146.07 74 M164.57 55.5 C162.4 67.25, 157.3 74.88, 146.07 74 M146.07 74 C104.56 74.55, 65.7 74.14, 18.5 74 M146.07 74 C104.22 73.14, 60.9 74.11, 18.5 74 M18.5 74 C4.73 72.18, -1.71 68.74, 0 55.5 M18.5 74 C7.87 71.87, 0.46 67.01, 0 55.5 M0 55.5 C-0.28 47.47, -1.93 38.12, 0 18.5 M0 55.5 C0.71 41.99, 0.18 27.64, 0 18.5 M0 18.5 C1.16 6.21, 6.56 -1.88, 18.5 0 M0 18.5 C-1.26 7.53, 7.79 0.71, 18.5 0" stroke="#1e1e1e" stroke-width="1" fill="none"></path></g><g stroke-linecap="round" transform="translate(233.25263811112245 656.8507404578235) rotate(0 82.28571428571422 37)"><path d="M18.5 0 C60.32 0.97, 97.1 0.57, 146.07 0 M18.5 0 C46.32 -1.48, 72.02 -1.83, 146.07 0 M146.07 0 C158.68 0.09, 166.39 7.58, 164.57 18.5 M146.07 0 C159.7 -0.52, 163.76 5.6, 164.57 18.5 M164.57 18.5 C166.38 29.02, 165.87 37.23, 164.57 55.5 M164.57 18.5 C163.24 31.28, 163.81 42.37, 164.57 55.5 M164.57 55.5 C165.13 66.38, 156.52 73.49, 146.07 74 M164.57 55.5 C163.47 68.71, 158.65 74.01, 146.07 74 M146.07 74 C115.84 75.98, 88.44 75.6, 18.5 74 M146.07 74 C108.81 73.31, 71.36 72.16, 18.5 74 M18.5 74 C4.46 74.91, 1.48 65.98, 0 55.5 M18.5 74 C6.63 73.18, -1.02 69.22, 0 55.5 M0 55.5 C-1.69 46.2, 1.45 33.04, 0 18.5 M0 55.5 C-0.18 43.02, 0.37 31.23, 0 18.5 M0 18.5 C0.39 4.29, 5.08 1.18, 18.5 0 M0 18.5 C1.62 6.88, 4.47 -0.92, 18.5 0" stroke="#1e1e1e" stroke-width="1" fill="none"></path></g><g stroke-linecap="round" transform="translate(266.5859714444555 673.51740712449) rotate(0 82.28571428571422 37)"><path d="M18.5 0 C57.94 0.04, 98.43 -2.18, 146.07 0 M18.5 0 C66.22 -0.21, 115.09 0.67, 146.07 0 M146.07 0 C160.22 1.41, 165.7 5.71, 164.57 18.5 M146.07 0 C157.59 -0.57, 163.76 8.1, 164.57 18.5 M164.57 18.5 C165.83 29.56, 165.31 40.51, 164.57 55.5 M164.57 18.5 C163.78 26.09, 164.48 33.01, 164.57 55.5 M164.57 55.5 C162.69 67.33, 157.45 74.76, 146.07 74 M164.57 55.5 C164.82 67.84, 156.76 71.85, 146.07 74 M146.07 74 C99.13 75.34, 50.69 75.87, 18.5 74 M146.07 74 C116.37 73.39, 87.24 74.76, 18.5 74 M18.5 74 C7.65 72.15, 0.4 67.12, 0 55.5 M18.5 74 C5.15 75.38, -0.16 67.77, 0 55.5 M0 55.5 C1.75 40.97, 0.88 29.16, 0 18.5 M0 55.5 C0.57 43.5, 0.18 30.51, 0 18.5 M0 18.5 C-1.09 7.35, 7.58 0.62, 18.5 0 M0 18.5 C-1.7 5.25, 7.51 -1.47, 18.5 0" stroke="#1e1e1e" stroke-width="1" fill="none"></path></g><g transform="translate(64.16693603243925 846.3507404578233) rotate(0 12.79998779296875 12.5)"><text x="12.79998779296875" y="17.52" font-family="Virgil, Segoe UI Emoji" font-size="20px" fill="#1e1e1e" text-anchor="middle" style="white-space: pre;" direction="ltr" dominant-baseline="alphabetic">L3</text></g><g transform="translate(498.2684244183206 844.6840737911568) rotate(0 77.26992797851562 12.5)"><text x="77.26992797851562" y="17.52" font-family="Virgil, Segoe UI Emoji" font-size="20px" fill="#1e1e1e" text-anchor="middle" style="white-space: pre;" direction="ltr" dominant-baseline="alphabetic">2048 MiB each</text></g><g stroke-linecap="round" transform="translate(193.25263811112188 800.1840737911568) rotate(0 82.28571428571422 37)"><path d="M18.5 0 C56.54 2.64, 92.92 2.39, 146.07 0 M18.5 0 C45.01 0.16, 71.96 -0.25, 146.07 0 M146.07 0 C158.72 -0.56, 165.95 7.04, 164.57 18.5 M146.07 0 C157.35 -1.72, 166.23 4.47, 164.57 18.5 M164.57 18.5 C163.01 31.87, 165.83 41.53, 164.57 55.5 M164.57 18.5 C165.29 28.31, 165.02 39.04, 164.57 55.5 M164.57 55.5 C164.82 66.28, 157.95 74.87, 146.07 74 M164.57 55.5 C166.56 67.53, 160.54 72.4, 146.07 74 M146.07 74 C104.43 71.79, 58.49 74.14, 18.5 74 M146.07 74 C115.21 72.99, 86.53 74.32, 18.5 74 M18.5 74 C8.08 74.12, -1.06 69.28, 0 55.5 M18.5 74 C5.72 73.72, 1.63 66.25, 0 55.5 M0 55.5 C-0.94 43.02, 1.04 28.2, 0 18.5 M0 55.5 C-0.64 44.35, -0.08 33.66, 0 18.5 M0 18.5 C-0.84 4.98, 4.92 0.56, 18.5 0 M0 18.5 C-1.86 7.33, 7.75 -1.91, 18.5 0" stroke="#1e1e1e" stroke-width="1" fill="none"></path></g><g stroke-linecap="round" transform="translate(218.25263811112188 816.8507404578233) rotate(0 82.28571428571422 37)"><path d="M18.5 0 C50.17 0.46, 79.25 -3.23, 146.07 0 M18.5 0 C49.95 -0.24, 80.4 0.46, 146.07 0 M146.07 0 C159.78 0.87, 163.65 4.67, 164.57 18.5 M146.07 0 C160.06 -1.7, 164.74 7.04, 164.57 18.5 M164.57 18.5 C165.38 31.63, 163.97 46.15, 164.57 55.5 M164.57 18.5 C164.79 30.29, 164.83 42.52, 164.57 55.5 M164.57 55.5 C164.12 68.71, 160.13 73.74, 146.07 74 M164.57 55.5 C166.71 66.24, 159.35 72.37, 146.07 74 M146.07 74 C109.37 73.07, 72.46 71.27, 18.5 74 M146.07 74 C114.67 74.53, 83.66 73.61, 18.5 74 M18.5 74 C5.11 75.45, -0.39 67.59, 0 55.5 M18.5 74 C7.8 72.42, 2.09 66.69, 0 55.5 M0 55.5 C1.06 45.03, 0 31.68, 0 18.5 M0 55.5 C0.2 46.85, -0.2 38.42, 0 18.5 M0 18.5 C-1.25 6.73, 4.55 1.01, 18.5 0 M0 18.5 C1.58 4.26, 7.42 0.04, 18.5 0" stroke="#1e1e1e" stroke-width="1" fill="none"></path></g><g stroke-linecap="round" transform="translate(246.58597144445582 830.1840737911568) rotate(0 82.28571428571422 37)"><path d="M18.5 0 C67.3 -3.07, 118.66 -0.94, 146.07 0 M18.5 0 C49.5 0.98, 80.87 1.7, 146.07 0 M146.07 0 C157.49 -1.5, 166.01 4.69, 164.57 18.5 M146.07 0 C158.57 0.87, 165.65 4.21, 164.57 18.5 M164.57 18.5 C164.49 35.27, 165.48 48.82, 164.57 55.5 M164.57 18.5 C164.73 25.99, 164.38 35.47, 164.57 55.5 M164.57 55.5 C166.3 67.57, 160.26 72.61, 146.07 74 M164.57 55.5 C165.52 66.21, 158.02 76.15, 146.07 74 M146.07 74 C119.24 72.77, 94.01 72.32, 18.5 74 M146.07 74 C113.23 75.31, 77.94 75.98, 18.5 74 M18.5 74 C5.77 73.76, 1.42 66.46, 0 55.5 M18.5 74 C8.26 72.86, 0.61 66.55, 0 55.5 M0 55.5 C-0.37 41.08, -1.7 24.83, 0 18.5 M0 55.5 C-0.41 45.44, -0.62 36.85, 0 18.5 M0 18.5 C-1.62 7.17, 7.54 -1.66, 18.5 0 M0 18.5 C1.26 6.21, 5.4 -1.8, 18.5 0" stroke="#1e1e1e" stroke-width="1" fill="none"></path></g><g stroke-linecap="round" transform="translate(279.91930477778885 846.8507404578233) rotate(0 82.28571428571422 37)"><path d="M18.5 0 C66.43 1.41, 115.52 2.43, 146.07 0 M18.5 0 C44.86 0.79, 69.38 -0.39, 146.07 0 M146.07 0 C159.84 -1.48, 164.72 6.92, 164.57 18.5 M146.07 0 C159.49 -1.96, 166.87 7.46, 164.57 18.5 M164.57 18.5 C165.22 30.86, 162.99 41.95, 164.57 55.5 M164.57 18.5 C164.39 27.8, 165.48 36.1, 164.57 55.5 M164.57 55.5 C166.43 66.45, 159.23 72.59, 146.07 74 M164.57 55.5 C164.19 69.98, 156.11 73.37, 146.07 74 M146.07 74 C104.54 71.17, 64.37 73.63, 18.5 74 M146.07 74 C94.75 74.8, 44.3 73.96, 18.5 74 M18.5 74 C7.59 72.63, 1.82 66.84, 0 55.5 M18.5 74 C6.78 72.71, 2.27 68.81, 0 55.5 M0 55.5 C-1.5 40.25, -0.84 27.29, 0 18.5 M0 55.5 C-0.47 46.2, -0.65 36.84, 0 18.5 M0 18.5 C1.37 4.51, 7.26 0.03, 18.5 0 M0 18.5 C-0.77 4.37, 6.97 -1.84, 18.5 0" stroke="#1e1e1e" stroke-width="1" fill="none"></path></g><g stroke-linecap="round"><g transform="translate(353.88271920668535 10.517407124489637) rotate(0 0 474.7916666666664)"><path d="M-0.57 -0.52 C-0.57 158, 1.1 792.32, 1.04 950.51 M1.33 1.83 C1.17 160.08, 0.62 790.94, 0.64 948.88" stroke="#1971c2" stroke-width="1" fill="none"></path></g><g transform="translate(353.88271920668535 10.517407124489637) rotate(0 0 474.7916666666664)"><path d="M-0.13 947.77 L-5.29 937 L8.74 934.75 L2.21 948.32" stroke="none" stroke-width="0" fill="#1971c2" fill-rule="evenodd"></path><path d="M0.64 948.88 C-2.39 944.88, -3.04 937.13, -5.69 935.28 M0.64 948.88 C-0.34 946, -2.29 943.2, -5.69 935.28 M-5.69 935.28 C-2.8 935.37, -0.34 934.78, 6.98 935.29 M-5.69 935.28 C-2.28 934.76, 0.94 935.62, 6.98 935.29 M6.98 935.29 C4.18 939.84, 2.14 943.12, 0.64 948.88 M6.98 935.29 C4.65 937.74, 4.52 941.35, 0.64 948.88 M0.64 948.88 C0.64 948.88, 0.64 948.88, 0.64 948.88 M0.64 948.88 C0.64 948.88, 0.64 948.88, 0.64 948.88" stroke="#1971c2" stroke-width="1" fill="none"></path></g></g><mask></mask><g transform="translate(375.1880174215522 10.082427096401716) rotate(0 51.789939880371094 12.5)"><text x="51.789939880371094" y="17.52" font-family="Virgil, Segoe UI Emoji" font-size="20px" fill="#1971c2" text-anchor="middle" style="white-space: pre;" direction="ltr" dominant-baseline="alphabetic">Point read</text></g><g transform="translate(761.1134826735204 604.6310233437708) rotate(0 52.979942321777344 12.5)"><text x="52.979942321777344" y="17.52" font-family="Virgil, Segoe UI Emoji" font-size="20px" fill="#1e1e1e" text-anchor="middle" style="white-space: pre;" direction="ltr" dominant-baseline="alphabetic">Compaction</text></g><g stroke-linecap="round"><g transform="translate(708.3791392810115 442.63102334377095) rotate(0 13.64285714285711 178.14285714285717)"><path d="M-0.42 0.36 C4.01 28.62, 26.12 110.5, 26.92 170.01 C27.72 229.51, 8.01 326.46, 4.37 357.4 M1.55 -0.49 C5.77 27.94, 25.43 112.27, 25.78 171.62 C26.13 230.97, 6.99 324.85, 3.65 355.64" stroke="#1e1e1e" stroke-width="1" fill="none"></path></g><g transform="translate(708.3791392810115 442.63102334377095) rotate(0 13.64285714285711 178.14285714285717)"><path d="M4.75 357.44 L0.73 341.55 L10.43 342.26 L4.66 354.26" stroke="none" stroke-width="0" fill="#1e1e1e" fill-rule="evenodd"></path><path d="M3.65 355.64 C2.67 350.49, 1.01 346.38, -0.6 341.25 M3.65 355.64 C1.36 349.39, 0.01 344.23, -0.6 341.25 M-0.6 341.25 C1.47 341.47, 5.38 342.22, 11.93 343.13 M-0.6 341.25 C3.79 341.72, 7.83 342.86, 11.93 343.13 M11.93 343.13 C9.94 345.2, 6.82 348.96, 3.65 355.64 M11.93 343.13 C9.24 347.77, 5.47 352.83, 3.65 355.64 M3.65 355.64 C3.65 355.64, 3.65 355.64, 3.65 355.64 M3.65 355.64 C3.65 355.64, 3.65 355.64, 3.65 355.64" stroke="#1e1e1e" stroke-width="1" fill="none"></path></g></g><mask></mask><g stroke-linecap="round"><g transform="translate(183.3121619206455 985.021429971898) rotate(0 126.42857142857133 0)"><path d="M-1.15 0.65 C41.08 0.53, 210.55 -0.01, 252.74 0.04 M0.44 -0.05 C42.56 -0.03, 209.4 1.73, 251.72 1.6" stroke="#1e1e1e" stroke-width="1" fill="none"></path></g><g transform="translate(183.3121619206455 985.021429971898) rotate(0 126.42857142857133 0)"><path d="M-2.78 2.59 L12.24 -7.22 L10.81 5.31 L-0.66 0.75" stroke="none" stroke-width="0" fill="#1e1e1e" fill-rule="evenodd"></path><path d="M-1.15 0.65 C2.96 -0.94, 5.54 -3.46, 12.42 -5.73 M-1.15 0.65 C4.32 -2.1, 9.1 -3.62, 12.42 -5.73 M12.42 -5.73 C13.62 -1.04, 12.77 4.07, 12.46 6.95 M12.42 -5.73 C12.54 -1.27, 13.02 2.63, 12.46 6.95 M12.46 6.95 C8.7 5.48, 4.05 2.77, -1.15 0.65 M12.46 6.95 C8.13 5.62, 5.12 2.97, -1.15 0.65 M-1.15 0.65 C-1.15 0.65, -1.15 0.65, -1.15 0.65 M-1.15 0.65 C-1.15 0.65, -1.15 0.65, -1.15 0.65" stroke="#1e1e1e" stroke-width="1" fill="none"></path></g><g transform="translate(183.3121619206455 985.021429971898) rotate(0 126.42857142857133 0)"><path d="M250.09 3.54 L237.91 6.39 L236.51 -6.44 L252.22 1.7" stroke="none" stroke-width="0" fill="#1e1e1e" fill-rule="evenodd"></path><path d="M251.72 1.6 C249.22 2.87, 245.12 3.45, 238.1 7.88 M251.72 1.6 C246.66 3.62, 241.02 6.95, 238.1 7.88 M238.1 7.88 C239.23 2.78, 238.39 -1.89, 238.16 -4.8 M238.1 7.88 C238.18 4.45, 238.67 0.46, 238.16 -4.8 M238.16 -4.8 C243.38 -1.82, 247.74 -0.32, 251.72 1.6 M238.16 -4.8 C241.14 -2.74, 245.48 -1.95, 251.72 1.6 M251.72 1.6 C251.72 1.6, 251.72 1.6, 251.72 1.6 M251.72 1.6 C251.72 1.6, 251.72 1.6, 251.72 1.6" stroke="#1e1e1e" stroke-width="1" fill="none"></path></g></g><mask></mask><g transform="translate(263.3584321547669 1013.5928585433264) rotate(0 47.409950256347656 12.5)"><text x="47.409950256347656" y="17.52" font-family="Virgil, Segoe UI Emoji" font-size="20px" fill="#1e1e1e" text-anchor="middle" style="white-space: pre;" direction="ltr" dominant-baseline="alphabetic">Key range</text></g></svg>