<svg version="1.1" xmlns="http://www.w3.org/2000/svg" viewBox="0 0 957.1343047670134 712.7285792329523" width="957.1343047670134" height="712.7285792329523">
  <!-- svg-source:excalidraw -->
  
  <defs>
    <style class="style-fonts">
      @font-face {
        font-family: "Virgil";
        src: url("https://excalidraw.com/Virgil.woff2");
      }
      @font-face {
        font-family: "Cascadia";
        src: url("https://excalidraw.com/Cascadia.woff2");
      }
      @font-face {
        font-family: "Assistant";
        src: url("https://excalidraw.com/Assistant-Regular.woff2");
      }
    </style>
    
  </defs>
  <rect x="0" y="0" width="957.1343047670134" height="712.7285792329523" fill="#ffffff"></rect><g stroke-opacity="0.3" fill-opacity="0.3" stroke-linecap="round" transform="translate(407.0681098407448 201.8464504341739) rotate(0 106.96980031464005 200.03957007992)"><path d="M32 0 C86.16 2.25, 137.5 -1.05, 181.94 0 C206.05 0.57, 216.66 7.18, 213.94 32 C211.05 124.11, 208.6 215.55, 213.94 368.08 C211.68 392.59, 203.06 396.74, 181.94 400.08 C142.65 400.56, 97.43 400.64, 32 400.08 C10.84 400.77, -3.55 389.73, 0 368.08 C0.85 275.64, -1.98 179.78, 0 32 C2.09 10.77, 8.24 2.95, 32 0" stroke="none" stroke-width="0" fill="#ffec99"></path><path d="M32 0 C73.62 -2.78, 113.28 -0.91, 181.94 0 M32 0 C76.36 -0.9, 119.78 -0.31, 181.94 0 M181.94 0 C203.37 1.24, 212 10.58, 213.94 32 M181.94 0 C204.64 2.09, 212.35 11.77, 213.94 32 M213.94 32 C213.53 120.07, 214.39 208.6, 213.94 368.08 M213.94 32 C211.96 105.54, 212.05 179.04, 213.94 368.08 M213.94 368.08 C212.25 389.19, 201.44 400.93, 181.94 400.08 M213.94 368.08 C216.13 390.36, 203.17 400.59, 181.94 400.08 M181.94 400.08 C148.48 398.87, 117.7 400.75, 32 400.08 M181.94 400.08 C145.84 400.36, 108.84 399.8, 32 400.08 M32 400.08 C11.43 400.08, 1.1 388.44, 0 368.08 M32 400.08 C12.7 398.78, -1.83 388.29, 0 368.08 M0 368.08 C0.52 294.5, 0.86 220.32, 0 32 M0 368.08 C1.84 246.47, 0.88 123.41, 0 32 M0 32 C0 11.43, 9.28 -1.95, 32 0 M0 32 C-0.24 11.04, 11.12 2.08, 32 0" stroke="#f08c00" stroke-width="1" fill="none"></path></g><g stroke-opacity="0.3" fill-opacity="0.3" stroke-linecap="round" transform="translate(80.71956650794448 200.63775212553378) rotate(0 162.5699225120801 200.03957007992)"><path d="M32 0 C131.11 2.72, 237.48 0.7, 293.14 0 C314.37 -3.04, 327.73 9.68, 325.14 32 C327.67 147.26, 329.59 261.83, 325.14 368.08 C327.08 388.66, 317.69 396.64, 293.14 400.08 C191.92 398.08, 93.04 400.31, 32 400.08 C13.72 402.16, 3.29 390.17, 0 368.08 C0.63 266.31, -1.99 163.27, 0 32 C2.99 8.16, 7.61 3.57, 32 0" stroke="none" stroke-width="0" fill="#b2f2bb"></path><path d="M32 0 C136.42 -0.83, 238.84 -1.64, 293.14 0 M32 0 C114.52 1.68, 196.99 1.1, 293.14 0 M293.14 0 C314.5 -0.78, 325.42 11.47, 325.14 32 M293.14 0 C313.82 1.88, 324.13 9.75, 325.14 32 M325.14 32 C324.17 146.38, 323.67 257.51, 325.14 368.08 M325.14 32 C326.67 124.44, 326.73 217.63, 325.14 368.08 M325.14 368.08 C326.46 389.49, 312.52 400.81, 293.14 400.08 M325.14 368.08 C327.31 388.03, 314.16 398.38, 293.14 400.08 M293.14 400.08 C239.35 398.37, 185.15 399.68, 32 400.08 M293.14 400.08 C219.7 400.34, 146.63 399.98, 32 400.08 M32 400.08 C12.38 399.6, 1.99 387.71, 0 368.08 M32 400.08 C9.91 398.82, 2.18 389.8, 0 368.08 M0 368.08 C-2.83 240.25, -2.59 113.32, 0 32 M0 368.08 C-0.42 286.86, 0.16 205.21, 0 32 M0 32 C-0.76 9.55, 12.05 -0.4, 32 0 M0 32 C0.36 11.59, 12.29 0.28, 32 0" stroke="#2f9e44" stroke-width="1" fill="none"></path></g><g stroke-opacity="0.3" fill-opacity="0.3" stroke-linecap="round" transform="translate(623.4251070873053 201.24210127985384) rotate(0 159.54817674048007 200.03957007992)"><path d="M32 0 C118.44 -3.6, 210.47 -2.33, 287.1 0 C307.27 3.04, 316.1 7.12, 319.1 32 C317.88 115.49, 316.63 200.02, 319.1 368.08 C317.74 388.28, 308.17 401.77, 287.1 400.08 C206.17 401.88, 124.52 401.55, 32 400.08 C8.14 400.85, 2.96 392.56, 0 368.08 C-2.41 273.55, -2.78 180.82, 0 32 C-3.56 7.43, 12.34 3.34, 32 0" stroke="none" stroke-width="0" fill="#eebefa"></path><path d="M32 0 C122.11 -0.39, 213.51 -2.15, 287.1 0 M32 0 C128.6 0.31, 225.57 -0.21, 287.1 0 M287.1 0 C308.17 -0.53, 319.97 10.68, 319.1 32 M287.1 0 C308.49 -0.07, 320.83 12.81, 319.1 32 M319.1 32 C319.96 163.15, 318.1 291.79, 319.1 368.08 M319.1 32 C319.94 157.75, 320.34 283.91, 319.1 368.08 M319.1 368.08 C317.94 388.23, 309.41 400.07, 287.1 400.08 M319.1 368.08 C320.9 389.14, 307.97 402.37, 287.1 400.08 M287.1 400.08 C232 401.39, 175.53 400.37, 32 400.08 M287.1 400.08 C205.24 401.02, 121.65 400.7, 32 400.08 M32 400.08 C12.16 400.06, 0.44 391.28, 0 368.08 M32 400.08 C11.24 399.27, -0.67 391.03, 0 368.08 M0 368.08 C-1.93 279.84, -1.64 193.13, 0 32 M0 368.08 C0.03 292.74, 0.27 217.87, 0 32 M0 32 C1.3 10.67, 12.27 1.91, 32 0 M0 32 C-0.07 8.46, 11.59 -1.29, 32 0" stroke="#9c36b5" stroke-width="1" fill="none"></path></g><g stroke-linecap="round" transform="translate(90.64837900401994 517.2404839948571) rotate(0 48.5 37)"><path d="M18.5 0 C36.66 1.14, 58.03 0.45, 78.5 0 M18.5 0 C38.43 0.24, 60.41 0.68, 78.5 0 M78.5 0 C92.1 1.2, 96.03 4.65, 97 18.5 M78.5 0 C90.04 -0.83, 95.95 7.87, 97 18.5 M97 18.5 C97.13 30.07, 96.33 41.21, 97 55.5 M97 18.5 C96.05 30.86, 96.61 46.06, 97 55.5 M97 55.5 C98.21 68.82, 89.3 73.28, 78.5 74 M97 55.5 C95.74 67.9, 88.83 72.22, 78.5 74 M78.5 74 C58.26 73.62, 38.19 75.09, 18.5 74 M78.5 74 C66.8 72.92, 53.48 73.11, 18.5 74 M18.5 74 C8.04 75.06, 1.17 69.53, 0 55.5 M18.5 74 C4.53 75.75, 0.64 68.89, 0 55.5 M0 55.5 C-1.29 39.64, 0.63 27.33, 0 18.5 M0 55.5 C-0.08 41.42, 0.35 29.26, 0 18.5 M0 18.5 C-0.9 6.36, 5.92 -0.27, 18.5 0 M0 18.5 C-0.38 7.23, 6.27 1.61, 18.5 0" stroke="#1e1e1e" stroke-width="1" fill="none"></path></g><g transform="translate(106.41840616466447 541.7404839948571) rotate(0 32.72997283935547 12.5)"><text x="32.72997283935547" y="17.52" font-family="Virgil, Segoe UI Emoji" font-size="20px" fill="#1e1e1e" text-anchor="middle" style="white-space: pre;" direction="ltr" dominant-baseline="alphabetic">64 MB</text></g><g stroke-linecap="round" transform="translate(195.14837900401994 517.2404839948571) rotate(0 48.5 37)"><path d="M18.5 0 C40.33 0.83, 60.31 -1.51, 78.5 0 M18.5 0 C38.41 0.21, 56.57 -1.15, 78.5 0 M78.5 0 C90.14 -0.72, 96.09 7.65, 97 18.5 M78.5 0 C90.4 -1.48, 95.16 6.59, 97 18.5 M97 18.5 C98.13 30.61, 98.83 43.52, 97 55.5 M97 18.5 C97.54 26.5, 96.17 33.16, 97 55.5 M97 55.5 C95.9 67.89, 89.09 72.45, 78.5 74 M97 55.5 C97.61 69.37, 93.08 73.25, 78.5 74 M78.5 74 C61.44 73.5, 47.04 74.98, 18.5 74 M78.5 74 C65.67 74.23, 51.55 74.54, 18.5 74 M18.5 74 C4.74 75.52, 0.56 68.75, 0 55.5 M18.5 74 C8.32 74.02, 1.73 66.35, 0 55.5 M0 55.5 C1.03 46.8, -0.71 37.95, 0 18.5 M0 55.5 C-0.58 47.66, -0.25 39.49, 0 18.5 M0 18.5 C-0.33 7.09, 6.26 1.4, 18.5 0 M0 18.5 C-1.73 4.5, 6.9 1.72, 18.5 0" stroke="#1e1e1e" stroke-width="1" fill="none"></path></g><g transform="translate(210.91840616466447 541.7404839948571) rotate(0 32.72997283935547 12.5)"><text x="32.72997283935547" y="17.52" font-family="Virgil, Segoe UI Emoji" font-size="20px" fill="#1e1e1e" text-anchor="middle" style="white-space: pre;" direction="ltr" dominant-baseline="alphabetic">64 MB</text></g><g stroke-linecap="round" transform="translate(305.64837900401994 519.2404839948571) rotate(0 48.5 37)"><path d="M18.5 0 C39.67 1.71, 61.31 1.7, 78.5 0 M18.5 0 C39.77 0.1, 61.27 1.2, 78.5 0 M78.5 0 C90.46 -1.29, 95.4 6.53, 97 18.5 M78.5 0 C92.17 -0.5, 99.18 7.55, 97 18.5 M97 18.5 C95.41 27.13, 99.15 37.68, 97 55.5 M97 18.5 C96.17 31.46, 95.85 43.59, 97 55.5 M97 55.5 C97.53 69.17, 92.79 73.35, 78.5 74 M97 55.5 C95.89 66.53, 91.41 71.74, 78.5 74 M78.5 74 C61.04 72.67, 45.39 76.12, 18.5 74 M78.5 74 C56.6 75.27, 36.41 74.97, 18.5 74 M18.5 74 C8.04 74.02, 1.5 66.55, 0 55.5 M18.5 74 C4.67 74.72, 1.09 69.16, 0 55.5 M0 55.5 C-1.6 45.11, 0.53 32.4, 0 18.5 M0 55.5 C-0.12 44.5, 0.09 33.28, 0 18.5 M0 18.5 C-1.5 4.71, 6.81 1.49, 18.5 0 M0 18.5 C0.59 5.15, 6.57 0.07, 18.5 0" stroke="#1e1e1e" stroke-width="1" fill="none"></path></g><g transform="translate(321.4184061646645 543.7404839948571) rotate(0 32.72997283935547 12.5)"><text x="32.72997283935547" y="17.52" font-family="Virgil, Segoe UI Emoji" font-size="20px" fill="#1e1e1e" text-anchor="middle" style="white-space: pre;" direction="ltr" dominant-baseline="alphabetic">64 MB</text></g><g stroke-linecap="round" transform="translate(410.14837900401994 519.2404839948571) rotate(0 48.5 37)"><path d="M18.5 0 C41.56 -1.35, 60.69 -1.07, 78.5 0 M18.5 0 C34.15 -1.09, 49.38 -0.26, 78.5 0 M78.5 0 C92 -0.43, 98.9 7.37, 97 18.5 M78.5 0 C89.52 2.19, 95.3 3.93, 97 18.5 M97 18.5 C98.32 27.41, 96.62 38.29, 97 55.5 M97 18.5 C96.94 30.38, 97.66 40.6, 97 55.5 M97 55.5 C96.03 66.7, 91.33 72.04, 78.5 74 M97 55.5 C96.25 66.38, 91.78 72.38, 78.5 74 M78.5 74 C66.31 75.74, 53.69 73.13, 18.5 74 M78.5 74 C56.88 74.28, 34.15 73.63, 18.5 74 M18.5 74 C4.87 74.63, 0.95 68.98, 0 55.5 M18.5 74 C6.16 73.32, -0.19 65.87, 0 55.5 M0 55.5 C0.12 42.85, -0.34 30.36, 0 18.5 M0 55.5 C-0.77 41.96, 0.3 30.62, 0 18.5 M0 18.5 C0.51 5.29, 6.52 0.06, 18.5 0 M0 18.5 C-1.55 6.98, 4.05 1.36, 18.5 0" stroke="#1e1e1e" stroke-width="1" fill="none"></path></g><g transform="translate(425.9184061646645 543.7404839948571) rotate(0 32.72997283935547 12.5)"><text x="32.72997283935547" y="17.52" font-family="Virgil, Segoe UI Emoji" font-size="20px" fill="#1e1e1e" text-anchor="middle" style="white-space: pre;" direction="ltr" dominant-baseline="alphabetic">64 MB</text></g><g stroke-linecap="round" transform="translate(523.64837900402 521.2404839948571) rotate(0 48.5 37)"><path d="M18.5 0 C32.87 -0.7, 50.17 -0.17, 78.5 0 M18.5 0 C33.22 -0.33, 47.74 0.49, 78.5 0 M78.5 0 C89.69 1.91, 95.52 4.23, 97 18.5 M78.5 0 C90.43 2.06, 98.39 7.31, 97 18.5 M97 18.5 C96.93 25.02, 95.32 35.56, 97 55.5 M97 18.5 C96.88 31.5, 97.61 44.65, 97 55.5 M97 55.5 C96.35 66.57, 91.66 72.59, 78.5 74 M97 55.5 C95.18 66.67, 92.98 75.22, 78.5 74 M78.5 74 C58.49 74.13, 36.37 75.44, 18.5 74 M78.5 74 C59.79 73.93, 42.86 74.19, 18.5 74 M18.5 74 C6.17 73.41, -0.16 66.12, 0 55.5 M18.5 74 C6.98 74.49, -1.04 68.06, 0 55.5 M0 55.5 C0.97 44.94, 1.45 32.7, 0 18.5 M0 55.5 C0.14 46.65, 0.06 38.71, 0 18.5 M0 18.5 C-1.35 6.87, 4.32 1.18, 18.5 0 M0 18.5 C2.14 7.75, 7.31 1.05, 18.5 0" stroke="#1e1e1e" stroke-width="1" fill="none"></path></g><g transform="translate(539.4184061646645 545.7404839948571) rotate(0 32.72997283935547 12.5)"><text x="32.72997283935547" y="17.52" font-family="Virgil, Segoe UI Emoji" font-size="20px" fill="#1e1e1e" text-anchor="middle" style="white-space: pre;" direction="ltr" dominant-baseline="alphabetic">64 MB</text></g><g stroke-linecap="round" transform="translate(628.1483790040202 521.2404839948571) rotate(0 48.500000000000014 37)"><path d="M18.5 0 C32.49 -1.49, 49.41 1.27, 78.5 0 M18.5 0 C34.64 0.59, 51.18 -1.33, 78.5 0 M78.5 0 C90.48 1.79, 98.21 7.16, 97 18.5 M78.5 0 C89.07 -0.82, 95.74 6.24, 97 18.5 M97 18.5 C98.05 28.33, 96.06 33.29, 97 55.5 M97 18.5 C96.77 26.88, 97.51 35.81, 97 55.5 M97 55.5 C95.42 66.82, 92.7 75.06, 78.5 74 M97 55.5 C98.35 69.78, 89.19 75.75, 78.5 74 M78.5 74 C58.85 76.06, 37.87 73.26, 18.5 74 M78.5 74 C58.61 74.05, 38.65 73.49, 18.5 74 M18.5 74 C6.87 74.42, -0.9 68.03, 0 55.5 M18.5 74 C5.89 73.69, -0.38 68.9, 0 55.5 M0 55.5 C-1.71 44.88, 1.23 33.48, 0 18.5 M0 55.5 C-0.74 46.38, -0.99 37.15, 0 18.5 M0 18.5 C1.86 7.54, 7.16 0.91, 18.5 0 M0 18.5 C-1.08 5.22, 5.94 -0.8, 18.5 0" stroke="#1e1e1e" stroke-width="1" fill="none"></path></g><g transform="translate(643.9184061646647 545.7404839948571) rotate(0 32.72997283935547 12.5)"><text x="32.72997283935547" y="17.52" font-family="Virgil, Segoe UI Emoji" font-size="20px" fill="#1e1e1e" text-anchor="middle" style="white-space: pre;" direction="ltr" dominant-baseline="alphabetic">64 MB</text></g><g stroke-linecap="round" transform="translate(738.6483790040202 523.2404839948571) rotate(0 48.500000000000014 37)"><path d="M18.5 0 C31.27 1.55, 46.11 -1.49, 78.5 0 M18.5 0 C42.05 1.48, 66.55 1.08, 78.5 0 M78.5 0 C89.3 -0.72, 95.9 6.23, 97 18.5 M78.5 0 C88.83 -1.78, 97.61 7.7, 97 18.5 M97 18.5 C95.75 33.72, 94.92 47.29, 97 55.5 M97 18.5 C96.36 26.75, 98.09 36.55, 97 55.5 M97 55.5 C98.17 69.53, 89.41 75.52, 78.5 74 M97 55.5 C97.64 68.89, 92.98 74.02, 78.5 74 M78.5 74 C56.62 74.56, 34.63 73.61, 18.5 74 M78.5 74 C62.62 73.7, 45.59 73.58, 18.5 74 M18.5 74 C5.92 73.73, -0.33 68.76, 0 55.5 M18.5 74 C6.27 75.61, -1.73 66.16, 0 55.5 M0 55.5 C-1.16 43.56, -0.21 29.58, 0 18.5 M0 55.5 C1.27 43.78, 0.84 31.14, 0 18.5 M0 18.5 C-0.94 5.34, 5.97 -0.69, 18.5 0 M0 18.5 C-0.91 6.38, 7.91 0.51, 18.5 0" stroke="#1e1e1e" stroke-width="1" fill="none"></path></g><g transform="translate(754.4184061646647 547.7404839948571) rotate(0 32.72997283935547 12.5)"><text x="32.72997283935547" y="17.52" font-family="Virgil, Segoe UI Emoji" font-size="20px" fill="#1e1e1e" text-anchor="middle" style="white-space: pre;" direction="ltr" dominant-baseline="alphabetic">64 MB</text></g><g stroke-linecap="round" transform="translate(843.1483790040202 523.2404839948571) rotate(0 48.500000000000014 37)"><path d="M18.5 0 C44.11 -1.13, 63.96 -0.01, 78.5 0 M18.5 0 C41.11 -0.65, 64.7 -0.27, 78.5 0 M78.5 0 C89.09 -1.55, 97.53 7.5, 97 18.5 M78.5 0 C93.08 -0.75, 95.89 4.87, 97 18.5 M97 18.5 C95.37 31.35, 95.23 40.97, 97 55.5 M97 18.5 C97.93 28.57, 96.63 37.71, 97 55.5 M97 55.5 C97.56 68.75, 92.7 74.02, 78.5 74 M97 55.5 C98.73 66.35, 89.34 74.72, 78.5 74 M78.5 74 C57.06 73.84, 35.09 74.7, 18.5 74 M78.5 74 C59.11 73.93, 39.79 74.52, 18.5 74 M18.5 74 C6.26 75.4, -1.5 66.38, 0 55.5 M18.5 74 C6.9 75.72, 0.59 66.82, 0 55.5 M0 55.5 C0.7 41.91, 1.17 33.85, 0 18.5 M0 55.5 C-0.65 41.45, -0.28 27.87, 0 18.5 M0 18.5 C-0.8 6.35, 7.68 0.44, 18.5 0 M0 18.5 C-0.89 4.39, 7.4 0.42, 18.5 0" stroke="#1e1e1e" stroke-width="1" fill="none"></path></g><g transform="translate(858.9184061646647 547.7404839948571) rotate(0 32.72997283935547 12.5)"><text x="32.72997283935547" y="17.52" font-family="Virgil, Segoe UI Emoji" font-size="20px" fill="#1e1e1e" text-anchor="middle" style="white-space: pre;" direction="ltr" dominant-baseline="alphabetic">64 MB</text></g><g transform="translate(36.706955315404 313.2761982805712) rotate(0 12.8699951171875 12.5)"><text x="12.8699951171875" y="17.52" font-family="Virgil, Segoe UI Emoji" font-size="20px" fill="#1e1e1e" text-anchor="middle" style="white-space: pre;" direction="ltr" dominant-baseline="alphabetic">L0</text></g><g transform="translate(36.912667770063535 544.1690554234286) rotate(0 8.699996948242188 12.5)"><text x="8.699996948242188" y="17.52" font-family="Virgil, Segoe UI Emoji" font-size="20px" fill="#1e1e1e" text-anchor="middle" style="white-space: pre;" direction="ltr" dominant-baseline="alphabetic">L1</text></g><g stroke-linecap="round"><g transform="translate(68.41990985548898 155.0060385098286) rotate(0 434.40859189203786 0)"><path d="M-0.39 -0.76 C144.45 -0.7, 724.6 -0.87, 869.31 -0.85" stroke="#1e1e1e" stroke-width="1.5" fill="none" stroke-dasharray="1.5 7"></path></g></g><mask></mask><g transform="translate(10 77.32406952745146) rotate(0 33.989967346191406 12.5)"><text x="33.989967346191406" y="17.52" font-family="Virgil, Segoe UI Emoji" font-size="20px" fill="#1e1e1e" text-anchor="middle" style="white-space: pre;" direction="ltr" dominant-baseline="alphabetic">Memory</text></g><g stroke-linecap="round" transform="translate(428.5278714837458 10) rotate(0 53.5 30)"><path d="M15 0 C40.27 2.48, 68.62 1.78, 92 0 M15 0 C44.9 -0.13, 75.18 -0.57, 92 0 M92 0 C103.5 -1.29, 105.7 5.63, 107 15 M92 0 C103.09 1.32, 107 4.32, 107 15 M107 15 C107.17 22.85, 106.94 32.26, 107 45 M107 15 C107 24.3, 106.2 31.47, 107 45 M107 45 C107.64 56.49, 102.51 59.12, 92 60 M107 45 C107.4 55.07, 100.45 60.81, 92 60 M92 60 C77.37 61.71, 60.9 59.78, 15 60 M92 60 C71.67 59.83, 52.89 59.95, 15 60 M15 60 C4.22 58.46, 1.07 55.37, 0 45 M15 60 C5.07 60.06, 1.63 54.03, 0 45 M0 45 C1 37.95, 1.63 31.27, 0 15 M0 45 C0.13 34.32, -0.99 22.84, 0 15 M0 15 C1.35 5.13, 6.24 -1.86, 15 0 M0 15 C1.92 2.87, 3.43 -1.13, 15 0" stroke="#1e1e1e" stroke-width="1" fill="none"></path></g><g transform="translate(449.5879071893122 15) rotate(0 32.439964294433594 25)"><text x="32.439964294433594" y="17.52" font-family="Virgil, Segoe UI Emoji" font-size="20px" fill="#1e1e1e" text-anchor="middle" style="white-space: pre;" direction="ltr" dominant-baseline="alphabetic">Write </text><text x="32.439964294433594" y="42.519999999999996" font-family="Virgil, Segoe UI Emoji" font-size="20px" fill="#1e1e1e" text-anchor="middle" style="white-space: pre;" direction="ltr" dominant-baseline="alphabetic">Buffer</text></g><g stroke-linecap="round"><g transform="translate(490.02860637653043 78.04971921391189) rotate(0 -0.7628173013754349 49.40733492751258)"><path d="M-0.86 0.91 C-1.17 17.3, -1.27 83.04, -1.19 99.36 M0.9 0.34 C0.39 16.9, -1.72 80.89, -1.96 97.53" stroke="#1e1e1e" stroke-width="1" fill="none"></path></g><g transform="translate(490.02860637653043 78.04971921391189) rotate(0 -0.7628173013754349 49.40733492751258)"><path d="M-1.91 97.58 L-6.55 82.93 L3.35 83.14 L-0.49 98.39" stroke="none" stroke-width="0" fill="#1e1e1e" fill-rule="evenodd"></path><path d="M-1.96 97.53 C-3.09 92.97, -5.7 89.02, -7.96 83.78 M-1.96 97.53 C-4.36 93.59, -5.32 89.65, -7.96 83.78 M-7.96 83.78 C-5.24 84.33, -0.09 83.41, 4.71 84.1 M-7.96 83.78 C-4.14 84.19, -0.08 84.44, 4.71 84.1 M4.71 84.1 C4.23 87.52, 0.95 90.42, -1.96 97.53 M4.71 84.1 C1.91 88.64, 1.27 92.78, -1.96 97.53 M-1.96 97.53 C-1.96 97.53, -1.96 97.53, -1.96 97.53 M-1.96 97.53 C-1.96 97.53, -1.96 97.53, -1.96 97.53" stroke="#1e1e1e" stroke-width="1" fill="none"></path></g></g><mask></mask><g transform="translate(413.09068288186404 99.24584584841182) rotate(0 24.41997528076172 12.5)"><text x="24.41997528076172" y="17.52" font-family="Virgil, Segoe UI Emoji" font-size="20px" fill="#1e1e1e" text-anchor="middle" style="white-space: pre;" direction="ltr" dominant-baseline="alphabetic">Flush</text></g><g stroke-linecap="round"><g transform="translate(93.70696675949534 650.585722090095) rotate(0 426.42857142857133 0)"><path d="M-0.78 0.38 C141.31 0.62, 711.15 0.81, 853.43 0.69 M1.01 -0.47 C142.91 -0.5, 710.93 -1.28, 852.78 -1.07" stroke="#1e1e1e" stroke-width="1" fill="none"></path></g><g transform="translate(93.70696675949534 650.585722090095) rotate(0 426.42857142857133 0)"><path d="M-0.87 1.86 L13.01 -4.41 L13.62 8.16 L-0.27 1.66" stroke="none" stroke-width="0" fill="#1e1e1e" fill-rule="evenodd"></path><path d="M-0.78 0.38 C4.83 -1.2, 10.33 -4.29, 12.82 -5.95 M-0.78 0.38 C3.17 -1.06, 6.24 -2.86, 12.82 -5.95 M12.82 -5.95 C13.39 -2.25, 13.69 0.39, 12.81 6.72 M12.82 -5.95 C13.02 -3.35, 12.97 -0.17, 12.81 6.72 M12.81 6.72 C10.51 6.51, 7.49 4.39, -0.78 0.38 M12.81 6.72 C8.07 4.22, 3.15 2.35, -0.78 0.38 M-0.78 0.38 C-0.78 0.38, -0.78 0.38, -0.78 0.38 M-0.78 0.38 C-0.78 0.38, -0.78 0.38, -0.78 0.38" stroke="#1e1e1e" stroke-width="1" fill="none"></path></g><g transform="translate(93.70696675949534 650.585722090095) rotate(0 426.42857142857133 0)"><path d="M852.69 0.41 L839.38 6.82 L839.99 -5.97 L853.29 0.21" stroke="none" stroke-width="0" fill="#1e1e1e" fill-rule="evenodd"></path><path d="M852.78 -1.07 C848.11 1.93, 843.4 3.6, 839.18 5.27 M852.78 -1.07 C849.36 0.69, 845.08 2.32, 839.18 5.27 M839.18 5.27 C839.79 1.68, 840.09 -2.98, 839.18 -7.41 M839.18 5.27 C839.31 2.11, 839.26 -0.47, 839.18 -7.41 M839.18 -7.41 C843.26 -4.42, 846.56 -3.59, 852.78 -1.07 M839.18 -7.41 C843.78 -5.42, 848.25 -2.9, 852.78 -1.07 M852.78 -1.07 C852.78 -1.07, 852.78 -1.07, 852.78 -1.07 M852.78 -1.07 C852.78 -1.07, 852.78 -1.07, 852.78 -1.07" stroke="#1e1e1e" stroke-width="1" fill="none"></path></g></g><mask></mask><g transform="translate(464.86844507457647 677.7285792329523) rotate(0 47.409950256347656 12.5)"><text x="47.409950256347656" y="17.52" font-family="Virgil, Segoe UI Emoji" font-size="20px" fill="#1e1e1e" text-anchor="middle" style="white-space: pre;" direction="ltr" dominant-baseline="alphabetic">Key range</text></g><g stroke-linecap="round"><g transform="translate(190.17908077752782 635.234531613905) rotate(0 5.684341886080802e-14 -212.50000000000006)"><path d="M-0.36 -0.02 C-0.04 -70.78, 0.97 -353.47, 1.05 -424.15" stroke="#1971c2" stroke-width="1.5" fill="none" stroke-dasharray="1.5 7"></path></g></g><mask></mask><g stroke-linecap="round"><g transform="translate(299.831633715989 639.1924240794965) rotate(0 0 -209.4789462327958)"><path d="M-0.83 -0.39 C-0.69 -70.34, -0.16 -349.87, 0 -419.61" stroke="#1971c2" stroke-width="1.5" fill="none" stroke-dasharray="1.5 7"></path></g></g><mask></mask><g stroke-linecap="round"><g transform="translate(406.081633715989 642.9424240794965) rotate(0 0 -218.8539462327958)"><path d="M-0.68 -0.26 C-0.41 -73.53, 0.6 -365.54, 0.73 -438.43" stroke="#1971c2" stroke-width="1.5" fill="none" stroke-dasharray="1.5 7"></path></g></g><mask></mask><g stroke-linecap="round"><g transform="translate(514.8316337159891 639.1924240794965) rotate(0 0 -214.4789462327958)"><path d="M0.78 -0.32 C1.02 -71.9, 0.97 -358.15, 0.98 -429.5" stroke="#1971c2" stroke-width="1.5" fill="none" stroke-dasharray="1.5 7"></path></g></g><mask></mask><g stroke-linecap="round"><g transform="translate(624.8316337159893 641.6924240794965) rotate(0 -2.842170943040401e-14 -214.4789462327958)"><path d="M-0.78 0.1 C-0.98 -71.53, -0.26 -358.64, -0.06 -429.98" stroke="#1971c2" stroke-width="1.5" fill="none" stroke-dasharray="1.5 7"></path></g></g><mask></mask><g stroke-linecap="round"><g transform="translate(732.3316337159893 641.6924240794965) rotate(0 1.4210854715202004e-14 -217.60394623279592)"><path d="M-0.99 -0.85 C-0.78 -73.59, -0.26 -363.29, 0.1 -435.7" stroke="#1971c2" stroke-width="1.5" fill="none" stroke-dasharray="1.5 7"></path></g></g><mask></mask><g stroke-linecap="round"><g transform="translate(839.8316337159891 649.1924240794965) rotate(0 1.4210854715202004e-14 -221.35394623279592)"><path d="M-1.08 0.24 C-1.12 -73.47, 0.72 -369.13, 0.77 -443.1" stroke="#1971c2" stroke-width="1.5" fill="none" stroke-dasharray="1.5 7"></path></g></g><mask></mask><g stroke-opacity="0.4" fill-opacity="0.4" stroke-linecap="round" transform="translate(101.42908077752782 220.2345316139049) rotate(0 219.83479323456004 29.375000000000114)"><path d="M14.69 0 C149.93 -2.28, 283.18 -2.49, 424.98 0 M424.98 0 C433.26 -1.7, 441.21 3.05, 439.67 14.69 M439.67 14.69 C440.86 26.49, 440.62 34.55, 439.67 44.06 M439.67 44.06 C438.69 52.85, 433.45 60.35, 424.98 58.75 M424.98 58.75 C322.13 58.25, 218.35 58.45, 14.69 58.75 M14.69 58.75 C6.47 59.64, 1.99 51.92, 0 44.06 M0 44.06 C1.47 35.43, -1.96 30.47, 0 14.69 M0 14.69 C-0.18 3.56, 5.26 1.14, 14.69 0" stroke="#1e1e1e" stroke-width="1.5" fill="none" stroke-dasharray="1.5 7"></path></g><g stroke-opacity="0.4" fill-opacity="0.4" stroke-linecap="round" transform="translate(163.92908077752782 295.85953161390444) rotate(0 300.62500000000006 29.375000000000114)"><path d="M14.69 0 C218.71 1.76, 422.47 1.18, 586.56 0 M586.56 0 C595.51 -1.46, 602.52 6.82, 601.25 14.69 M601.25 14.69 C601.51 21.64, 602.44 31.61, 601.25 44.06 M601.25 44.06 C599.62 53.91, 597.15 58.18, 586.56 58.75 M586.56 58.75 C460 60.16, 331.31 60.29, 14.69 58.75 M14.69 58.75 C4.42 59.78, 0.74 55.6, 0 44.06 M0 44.06 C-0.72 37.88, -0.47 30.64, 0 14.69 M0 14.69 C-1.84 3.81, 3.88 -1.1, 14.69 0" stroke="#1e1e1e" stroke-width="1.5" fill="none" stroke-dasharray="1.5 7"></path></g><g stroke-opacity="0.4" fill-opacity="0.4" stroke-linecap="round" transform="translate(369.55408077752793 365.8595316139049) rotate(0 284.375 29.375000000000114)"><path d="M14.69 0 C206.89 1.52, 397.54 0.62, 554.06 0 M554.06 0 C564.13 -0.63, 570.14 6.37, 568.75 14.69 M568.75 14.69 C569.54 20.51, 567.29 28.37, 568.75 44.06 M568.75 44.06 C567.73 54.9, 563.53 57.49, 554.06 58.75 M554.06 58.75 C445.24 57.91, 336.34 58.38, 14.69 58.75 M14.69 58.75 C2.91 57.83, -0.2 55.62, 0 44.06 M0 44.06 C0.76 35.65, 0.25 24.7, 0 14.69 M0 14.69 C-1.23 6.15, 3.76 -0.15, 14.69 0" stroke="#1e1e1e" stroke-width="1.5" fill="none" stroke-dasharray="1.5 7"></path></g><g stroke-linecap="round" transform="translate(102.67908077752782 226.4845316139049) rotate(0 41.25 23.75)"><path d="M11.87 0 C32.34 0.99, 54.56 -0.59, 70.63 0 M11.87 0 C28.36 0.88, 45.02 1.27, 70.63 0 M70.63 0 C77.73 -1.09, 81.02 3.8, 82.5 11.87 M70.63 0 C77.9 -0.9, 84.6 4.29, 82.5 11.87 M82.5 11.87 C84.03 21.4, 84.11 28.16, 82.5 35.62 M82.5 11.87 C82.69 17.44, 82.87 23.74, 82.5 35.62 M82.5 35.62 C83.57 44.69, 76.66 48.05, 70.63 47.5 M82.5 35.62 C84.46 43.33, 79.65 48.57, 70.63 47.5 M70.63 47.5 C52.64 48.4, 29.84 48.7, 11.87 47.5 M70.63 47.5 C52.33 48.74, 33.07 48.17, 11.87 47.5 M11.87 47.5 C4.77 45.59, -1.12 42.31, 0 35.62 M11.87 47.5 C1.89 46.32, 1.33 42.91, 0 35.62 M0 35.62 C1.27 26.19, 1.49 17.16, 0 11.87 M0 35.62 C0.56 29.45, -0.38 22.88, 0 11.87 M0 11.87 C-0.83 4.31, 4.79 1.86, 11.87 0 M0 11.87 C0.24 4.89, 5.03 0.8, 11.87 0" stroke="#2f9e44" stroke-width="1" fill="none"></path></g><g stroke-linecap="round" transform="translate(200.17908077752782 223.9845316139049) rotate(0 45.625 23.75)"><path d="M11.87 0 C31.3 0.72, 49.13 0.77, 79.37 0 M11.87 0 C34.06 -0.58, 56.13 -0.05, 79.37 0 M79.37 0 C85.58 1.66, 92.3 3.92, 91.25 11.87 M79.37 0 C86.27 1.59, 93.09 3.84, 91.25 11.87 M91.25 11.87 C92.91 19.86, 93.18 31.17, 91.25 35.62 M91.25 11.87 C91.78 21.45, 91.88 29.94, 91.25 35.62 M91.25 35.62 C89.51 44.78, 85.6 48.07, 79.37 47.5 M91.25 35.62 C91.66 42.02, 85.9 47.84, 79.37 47.5 M79.37 47.5 C58.29 48.36, 42.02 47.17, 11.87 47.5 M79.37 47.5 C53.7 48.16, 27.73 48.16, 11.87 47.5 M11.87 47.5 C3.58 46.88, -0.49 42.84, 0 35.62 M11.87 47.5 C6.1 47.38, -1.94 44.31, 0 35.62 M0 35.62 C1.82 29.04, -1.4 21.8, 0 11.87 M0 35.62 C0.3 28.38, 0.23 21.45, 0 11.87 M0 11.87 C-1.13 2.9, 4.38 -0.27, 11.87 0 M0 11.87 C-1.55 5.55, 2.16 -2.16, 11.87 0" stroke="#2f9e44" stroke-width="1" fill="none"></path></g><g stroke-linecap="round" transform="translate(304.5540807775278 225.2345316139049) rotate(0 45.625 23.75)"><path d="M11.87 0 C34.81 -0.93, 58.01 -1.01, 79.37 0 M11.87 0 C38.74 0.69, 65.62 -0.04, 79.37 0 M79.37 0 C89.28 0.83, 90.01 4.96, 91.25 11.87 M79.37 0 C87.5 1.93, 90.09 5.11, 91.25 11.87 M91.25 11.87 C90.22 18.16, 91.77 26.29, 91.25 35.62 M91.25 11.87 C90.48 17.61, 91.64 23.41, 91.25 35.62 M91.25 35.62 C90.36 43.77, 88.38 45.58, 79.37 47.5 M91.25 35.62 C93.12 41.42, 87.55 47.31, 79.37 47.5 M79.37 47.5 C57.34 46.1, 35.31 48.84, 11.87 47.5 M79.37 47.5 C53.06 48.68, 29.62 47.99, 11.87 47.5 M11.87 47.5 C4.48 45.98, 0.01 45.12, 0 35.62 M11.87 47.5 C1.91 45.62, 1.61 45.23, 0 35.62 M0 35.62 C-0.02 27.38, -0.67 22.68, 0 11.87 M0 35.62 C0.98 27.71, -0.15 19.49, 0 11.87 M0 11.87 C1.32 3.05, 3.33 -1.74, 11.87 0 M0 11.87 C-1.65 4.34, 3.83 -0.95, 11.87 0" stroke="#2f9e44" stroke-width="1" fill="none"></path></g><g stroke-linecap="round" transform="translate(412.0540807775278 226.4845316139049) rotate(0 45.625 23.75)"><path d="M11.87 0 C26.51 -1.7, 38.72 0.34, 79.37 0 M11.87 0 C29.52 -0.72, 46.27 -1.59, 79.37 0 M79.37 0 C88.84 1.77, 91.43 4.48, 91.25 11.87 M79.37 0 C85.54 0.01, 93.07 1.91, 91.25 11.87 M91.25 11.87 C91.47 16.32, 92.31 22.14, 91.25 35.62 M91.25 11.87 C91.63 17.66, 91.34 24.56, 91.25 35.62 M91.25 35.62 C91.9 43.2, 87.97 48.82, 79.37 47.5 M91.25 35.62 C90.2 42.82, 85.29 45.85, 79.37 47.5 M79.37 47.5 C58.6 47.65, 34.8 48.7, 11.87 47.5 M79.37 47.5 C64.34 46.58, 50.8 47.06, 11.87 47.5 M11.87 47.5 C2.45 48.25, -1.5 44.4, 0 35.62 M11.87 47.5 C5.5 46.67, -1.55 42.97, 0 35.62 M0 35.62 C0.44 24.34, 1.54 17.58, 0 11.87 M0 35.62 C-0.8 28.16, 0.88 19.6, 0 11.87 M0 11.87 C-0.38 3.82, 5.37 -1.26, 11.87 0 M0 11.87 C0.29 4.05, 5.14 -2.13, 11.87 0" stroke="#f08c00" stroke-width="1" fill="none"></path></g><g stroke-linecap="round" transform="translate(302.0540807775278 301.4845316139049) rotate(0 45.625 23.75)"><path d="M11.87 0 C25.37 -0.32, 39.19 -0.69, 79.37 0 M11.87 0 C37.39 -0.24, 62.59 1.18, 79.37 0 M79.37 0 C86.57 -1.34, 90.76 5.78, 91.25 11.87 M79.37 0 C88.76 2.28, 91.93 1.67, 91.25 11.87 M91.25 11.87 C91.28 20.45, 89.72 31.98, 91.25 35.62 M91.25 11.87 C91.36 21.77, 90.79 30.39, 91.25 35.62 M91.25 35.62 C91.33 44.57, 85.44 47.87, 79.37 47.5 M91.25 35.62 C90.59 42.01, 85.75 47.54, 79.37 47.5 M79.37 47.5 C62.37 46.47, 46.97 45.94, 11.87 47.5 M79.37 47.5 C65.07 48.06, 50.05 46.89, 11.87 47.5 M11.87 47.5 C2.35 46.91, -0.15 44.79, 0 35.62 M11.87 47.5 C4.45 49.5, 1.88 41.56, 0 35.62 M0 35.62 C-0.23 26.7, -1.77 17.75, 0 11.87 M0 35.62 C0.6 28.95, 0.75 21.37, 0 11.87 M0 11.87 C-0.96 3.53, 2.16 1.47, 11.87 0 M0 11.87 C-1.56 3.37, 4.67 0.3, 11.87 0" stroke="#2f9e44" stroke-width="1" fill="none"></path></g><g stroke-linecap="round" transform="translate(194.55408077752782 301.4845316139049) rotate(0 45.625 23.75)"><path d="M11.87 0 C31.45 -0.82, 51.87 0.1, 79.37 0 M11.87 0 C27.91 -0.47, 44.12 -1.13, 79.37 0 M79.37 0 C85.89 -1.61, 90.66 3.8, 91.25 11.87 M79.37 0 C88.72 0.5, 93.25 5.84, 91.25 11.87 M91.25 11.87 C92.5 16.73, 91.01 20.27, 91.25 35.62 M91.25 11.87 C91.48 18.5, 91.4 24.84, 91.25 35.62 M91.25 35.62 C90.16 42.58, 86.86 45.7, 79.37 47.5 M91.25 35.62 C92.94 41.98, 86.7 48.22, 79.37 47.5 M79.37 47.5 C57.63 46.24, 39.02 48.57, 11.87 47.5 M79.37 47.5 C54.29 48.18, 28.46 46.42, 11.87 47.5 M11.87 47.5 C3.4 46.65, -0.97 42.6, 0 35.62 M11.87 47.5 C6.04 48.27, -0.08 42.37, 0 35.62 M0 35.62 C-1.24 26.85, -0.39 18, 0 11.87 M0 35.62 C-0.69 28.03, -0.61 21.17, 0 11.87 M0 11.87 C-1.76 4.01, 3.02 0.52, 11.87 0 M0 11.87 C-1.38 5.52, 2.62 0.35, 11.87 0" stroke="#2f9e44" stroke-width="1" fill="none"></path></g><g stroke-linecap="round" transform="translate(413.3040807775278 302.7345316139049) rotate(0 45.625 23.75)"><path d="M11.87 0 C27.74 -0.34, 44.03 -0.6, 79.37 0 M11.87 0 C36.85 -0.43, 61.56 0.27, 79.37 0 M79.37 0 C86.05 -1.04, 92.04 4.73, 91.25 11.87 M79.37 0 C85.31 1.32, 90.22 3.19, 91.25 11.87 M91.25 11.87 C90.48 18.4, 92.06 24.24, 91.25 35.62 M91.25 11.87 C91.29 18.57, 91.25 24.79, 91.25 35.62 M91.25 35.62 C92.63 45.2, 89.03 46.81, 79.37 47.5 M91.25 35.62 C89.55 44.63, 88.27 48.14, 79.37 47.5 M79.37 47.5 C52.63 48.7, 26.95 47.55, 11.87 47.5 M79.37 47.5 C60.9 46.74, 42.72 47.85, 11.87 47.5 M11.87 47.5 C4.68 45.69, -1.26 42.03, 0 35.62 M11.87 47.5 C3.81 45.71, -1.7 42.14, 0 35.62 M0 35.62 C0.8 27.15, 1.27 18.58, 0 11.87 M0 35.62 C0.01 27.96, -0.52 21.68, 0 11.87 M0 11.87 C1.57 3.11, 3.75 1.66, 11.87 0 M0 11.87 C1.86 5.95, 2.41 -1.31, 11.87 0" stroke="#f08c00" stroke-width="1" fill="none"></path></g><g stroke-linecap="round" transform="translate(524.5540807775279 302.7345316139049) rotate(0 45.625 23.75)"><path d="M11.87 0 C27.69 0.92, 42.5 1.27, 79.37 0 M11.87 0 C30.66 0.46, 50.71 0.34, 79.37 0 M79.37 0 C85.4 -0.96, 90.22 5.53, 91.25 11.87 M79.37 0 C86.32 -0.23, 93.16 5.82, 91.25 11.87 M91.25 11.87 C89.39 21.84, 90.78 29.74, 91.25 35.62 M91.25 11.87 C91.41 21.93, 91.18 30.4, 91.25 35.62 M91.25 35.62 C90.08 44.37, 85.42 47.93, 79.37 47.5 M91.25 35.62 C90.57 44.35, 87.78 46.08, 79.37 47.5 M79.37 47.5 C61.51 47.2, 43.82 49.58, 11.87 47.5 M79.37 47.5 C61.65 47.39, 45.38 46.08, 11.87 47.5 M11.87 47.5 C2.54 49.09, 0.86 45.13, 0 35.62 M11.87 47.5 C1.72 48.61, -1.57 41.37, 0 35.62 M0 35.62 C2.06 30.71, 0.28 24.45, 0 11.87 M0 35.62 C0.37 29.4, -0.05 22.82, 0 11.87 M0 11.87 C-0.78 2.05, 5.75 1.06, 11.87 0 M0 11.87 C-1.8 3.81, 4.4 -2.12, 11.87 0" stroke="#f08c00" stroke-width="1" fill="none"></path></g><g stroke-linecap="round" transform="translate(630.8040807775278 303.9845316139049) rotate(0 45.625 23.75)"><path d="M11.87 0 C29.86 -0.25, 43.13 -0.48, 79.37 0 M11.87 0 C36.13 -0.99, 62.58 -0.52, 79.37 0 M79.37 0 C85.62 -1.41, 92.84 4.82, 91.25 11.87 M79.37 0 C89.12 -2.24, 92.36 2.39, 91.25 11.87 M91.25 11.87 C92.39 18.71, 92.62 21.81, 91.25 35.62 M91.25 11.87 C91.22 21.13, 91.1 29.67, 91.25 35.62 M91.25 35.62 C90.33 42.76, 85.38 49.29, 79.37 47.5 M91.25 35.62 C92.47 41.74, 87.15 47.94, 79.37 47.5 M79.37 47.5 C63.8 45.68, 49.62 45.68, 11.87 47.5 M79.37 47.5 C62.41 48.15, 46.5 47.61, 11.87 47.5 M11.87 47.5 C3.98 46.34, -1.13 43.3, 0 35.62 M11.87 47.5 C2.38 47.68, 0.51 41.28, 0 35.62 M0 35.62 C-0.51 28.85, 0.25 16.66, 0 11.87 M0 35.62 C-0.65 27.11, 0.79 19.4, 0 11.87 M0 11.87 C-1.8 3.75, 4.15 1.86, 11.87 0 M0 11.87 C2.08 2.9, 5.62 0.21, 11.87 0" stroke="#9c36b5" stroke-width="1" fill="none"></path></g><g stroke-linecap="round" transform="translate(412.0540807775278 370.2345316139049) rotate(0 45.625 23.75)"><path d="M11.87 0 C32.9 0.02, 55.26 -0.24, 79.37 0 M11.87 0 C36.71 0.43, 62.21 -0.18, 79.37 0 M79.37 0 C89.17 -0.71, 92.66 3.64, 91.25 11.87 M79.37 0 C87.33 0.42, 92.29 5.51, 91.25 11.87 M91.25 11.87 C92.5 18.21, 92.8 24.17, 91.25 35.62 M91.25 11.87 C91.66 20.06, 91.28 27.97, 91.25 35.62 M91.25 35.62 C93.11 44.69, 85.89 49.13, 79.37 47.5 M91.25 35.62 C90.28 43.62, 87.19 46.6, 79.37 47.5 M79.37 47.5 C55.61 46.36, 32.22 46.74, 11.87 47.5 M79.37 47.5 C63.72 48.11, 48.73 47.03, 11.87 47.5 M11.87 47.5 C4.49 48.76, -0.95 42.92, 0 35.62 M11.87 47.5 C3.78 46.79, 0.64 42.1, 0 35.62 M0 35.62 C-1.11 28.93, -0.19 23.2, 0 11.87 M0 35.62 C-0.39 28.29, 0.01 19.46, 0 11.87 M0 11.87 C0.41 4.42, 4.49 -1.46, 11.87 0 M0 11.87 C-0.99 4.7, 2.95 -1.1, 11.87 0" stroke="#f08c00" stroke-width="1" fill="none"></path></g><g stroke-linecap="round" transform="translate(522.0540807775279 371.4845316139049) rotate(0 45.625 23.75)"><path d="M11.87 0 C25 0.1, 39.06 -1.52, 79.37 0 M11.87 0 C28.21 -0.3, 42.5 0.76, 79.37 0 M79.37 0 C88.55 -0.95, 90.63 3.81, 91.25 11.87 M79.37 0 C86.58 0.64, 89.81 2.3, 91.25 11.87 M91.25 11.87 C89.84 17.8, 89.52 24.75, 91.25 35.62 M91.25 11.87 C91.59 16.91, 90.45 22.5, 91.25 35.62 M91.25 35.62 C91.72 44.07, 85.83 46.64, 79.37 47.5 M91.25 35.62 C91.99 42.53, 86.19 46.47, 79.37 47.5 M79.37 47.5 C65.55 45.2, 52.65 48.14, 11.87 47.5 M79.37 47.5 C62.71 47.6, 45.93 47.97, 11.87 47.5 M11.87 47.5 C3.83 48.06, 0.95 45.35, 0 35.62 M11.87 47.5 C2.21 47.08, -0.63 45.75, 0 35.62 M0 35.62 C-1.85 30.27, -1.37 21.88, 0 11.87 M0 35.62 C0.56 27.42, -0.5 20.16, 0 11.87 M0 11.87 C0.84 4.38, 4.68 0.37, 11.87 0 M0 11.87 C-0.32 6.1, 3.47 -2.27, 11.87 0" stroke="#f08c00" stroke-width="1" fill="none"></path></g><g stroke-linecap="round" transform="translate(630.8040807775278 370.2345316139049) rotate(0 45.625 23.75)"><path d="M11.87 0 C31.37 0.39, 48.48 -1, 79.37 0 M11.87 0 C33.86 -0.57, 57.49 -0.23, 79.37 0 M79.37 0 C87.66 -1.92, 92.91 4.98, 91.25 11.87 M79.37 0 C86.13 1.38, 93.25 4.38, 91.25 11.87 M91.25 11.87 C91.19 18.42, 92.26 25.64, 91.25 35.62 M91.25 11.87 C92.17 16.75, 91.36 22.98, 91.25 35.62 M91.25 35.62 C89.43 44.26, 85.96 45.89, 79.37 47.5 M91.25 35.62 C91.99 41.5, 85.85 48.31, 79.37 47.5 M79.37 47.5 C62.1 48.13, 43.87 48.08, 11.87 47.5 M79.37 47.5 C59.09 46.5, 41.66 46.4, 11.87 47.5 M11.87 47.5 C5.63 48.98, -1.84 42.74, 0 35.62 M11.87 47.5 C3.22 45.48, 1.32 45.66, 0 35.62 M0 35.62 C0.78 30.63, 0.02 22.48, 0 11.87 M0 35.62 C-1.06 29.29, -0.25 22.46, 0 11.87 M0 11.87 C0.11 2.44, 4.64 -1.7, 11.87 0 M0 11.87 C-1.24 4.93, 3.91 0.14, 11.87 0" stroke="#9c36b5" stroke-width="1" fill="none"></path></g><g stroke-linecap="round" transform="translate(737.0540807775279 371.4845316139049) rotate(0 45.625 23.75)"><path d="M11.87 0 C23.85 -1.3, 38.85 -2.26, 79.37 0 M11.87 0 C36.75 0.67, 60.6 0.85, 79.37 0 M79.37 0 C87.49 -0.9, 90.72 5.29, 91.25 11.87 M79.37 0 C86.45 -2.08, 91.64 3.76, 91.25 11.87 M91.25 11.87 C91.94 16.89, 90.18 26.16, 91.25 35.62 M91.25 11.87 C90.45 19.81, 90.3 25.75, 91.25 35.62 M91.25 35.62 C93.24 41.57, 88.39 48.81, 79.37 47.5 M91.25 35.62 C89.68 44.62, 85.12 47.84, 79.37 47.5 M79.37 47.5 C60.13 45.63, 42.73 48.75, 11.87 47.5 M79.37 47.5 C51.81 48.53, 24.85 48.13, 11.87 47.5 M11.87 47.5 C4.9 48.42, 0.18 44.37, 0 35.62 M11.87 47.5 C1.69 48.12, 0.82 44.35, 0 35.62 M0 35.62 C-0.57 30.01, -1.79 25.87, 0 11.87 M0 35.62 C-0.04 25.96, 0.14 16.85, 0 11.87 M0 11.87 C0.16 3.25, 4.55 -1.35, 11.87 0 M0 11.87 C-2.26 2.84, 5.67 -1.95, 11.87 0" stroke="#9c36b5" stroke-width="1" fill="none"></path></g><g stroke-linecap="round" transform="translate(843.3040807775278 371.4845316139049) rotate(0 45.62499999999999 23.75)"><path d="M11.87 0 C28.43 -0.31, 45.27 -0.95, 79.37 0 M11.87 0 C24.65 -0.4, 38.18 -0.68, 79.37 0 M79.37 0 C87.14 1.58, 91.88 3.95, 91.25 11.87 M79.37 0 C88.84 1.28, 89.67 3.33, 91.25 11.87 M91.25 11.87 C90.45 20.45, 89.87 29.47, 91.25 35.62 M91.25 11.87 C90.1 19.43, 91.08 24.78, 91.25 35.62 M91.25 35.62 C89.94 42.88, 87.58 49.48, 79.37 47.5 M91.25 35.62 C90.14 44.12, 88.22 47.67, 79.37 47.5 M79.37 47.5 C62.72 46.78, 41.99 46.49, 11.87 47.5 M79.37 47.5 C61.01 46.94, 41.51 46.6, 11.87 47.5 M11.87 47.5 C3.37 48.9, -0.09 43.86, 0 35.62 M11.87 47.5 C4.54 45.82, 0.4 43.6, 0 35.62 M0 35.62 C-1.98 29.38, -0.14 27.39, 0 11.87 M0 35.62 C-0.38 29.63, 0.23 21.67, 0 11.87 M0 11.87 C1.05 4.06, 5.72 0.11, 11.87 0 M0 11.87 C-0.83 5.21, 1.66 2.03, 11.87 0" stroke="#9c36b5" stroke-width="1" fill="none"></path></g><g stroke-linecap="round" transform="translate(735.8040807775279 302.7345316139049) rotate(0 11.875 23.75)"><path d="M5.94 0 C9.9 -0.59, 11.8 0.46, 17.81 0 M5.94 0 C9.5 0.4, 13.05 -0.5, 17.81 0 M17.81 0 C20.85 -0.42, 23.23 2.22, 23.75 5.94 M17.81 0 C22.87 -1.47, 23.34 -0.29, 23.75 5.94 M23.75 5.94 C24.32 16.09, 22.54 25.57, 23.75 41.56 M23.75 5.94 C23.96 15.79, 22.88 27.48, 23.75 41.56 M23.75 41.56 C25.73 45.09, 22.02 45.66, 17.81 47.5 M23.75 41.56 C22.95 46.95, 22.38 45.84, 17.81 47.5 M17.81 47.5 C13.69 47.18, 10.08 46.42, 5.94 47.5 M17.81 47.5 C13 47.1, 9.02 47.92, 5.94 47.5 M5.94 47.5 C1.76 48.59, 1.49 43.69, 0 41.56 M5.94 47.5 C3.64 48.25, -1.98 46.71, 0 41.56 M0 41.56 C-1.3 34.4, -1.77 24.28, 0 5.94 M0 41.56 C1.14 29.76, 0.99 19.06, 0 5.94 M0 5.94 C-1.98 3.97, 1.96 -1.14, 5.94 0 M0 5.94 C-0.68 2.32, 2.18 1.78, 5.94 0" stroke="#9c36b5" stroke-width="1" fill="none"></path></g><g stroke-linecap="round" transform="translate(374.5540807775278 370.2345316139049) rotate(0 11.875 23.75)"><path d="M5.94 0 C10.52 -0.41, 12.63 -0.64, 17.81 0 M5.94 0 C8.71 0.6, 11.38 0.41, 17.81 0 M17.81 0 C20.86 1.15, 24.14 2.58, 23.75 5.94 M17.81 0 C20.15 -1.67, 26 3.85, 23.75 5.94 M23.75 5.94 C24.23 15.96, 23.99 24.23, 23.75 41.56 M23.75 5.94 C23.16 18.48, 22.78 31, 23.75 41.56 M23.75 41.56 C21.82 45.82, 21.77 46.26, 17.81 47.5 M23.75 41.56 C22.88 44.28, 20.41 48.28, 17.81 47.5 M17.81 47.5 C12.64 48.18, 7.52 48.04, 5.94 47.5 M17.81 47.5 C13.37 47.05, 10.27 47.23, 5.94 47.5 M5.94 47.5 C2.47 46.89, -1.16 46.45, 0 41.56 M5.94 47.5 C3.34 48.81, 1.46 46.84, 0 41.56 M0 41.56 C-0.48 30.05, -0.78 14.88, 0 5.94 M0 41.56 C-0.05 29.41, 0.95 15.45, 0 5.94 M0 5.94 C-0.07 1.44, 1.25 -0.6, 5.94 0 M0 5.94 C-0.56 2.81, 3.32 2.07, 5.94 0" stroke="#2f9e44" stroke-width="1" fill="none"></path></g><g stroke-linecap="round" transform="translate(169.55408077752782 301.4845316139049) rotate(0 6.875 23.75)"><path d="M3.44 0 C5.03 0.04, 7.12 0.14, 10.31 0 M3.44 0 C5.88 -0.06, 8.37 -0.04, 10.31 0 M10.31 0 C12.96 0.58, 14.65 1.62, 13.75 3.44 M10.31 0 C13.05 -0.07, 13.47 0.67, 13.75 3.44 M13.75 3.44 C14.33 15.74, 13.52 27.12, 13.75 44.06 M13.75 3.44 C13.9 19.04, 13.13 35.1, 13.75 44.06 M13.75 44.06 C14.22 45.66, 13.18 46.71, 10.31 47.5 M13.75 44.06 C12.73 46.81, 12.2 48.48, 10.31 47.5 M10.31 47.5 C8.57 47.85, 6.6 47.74, 3.44 47.5 M10.31 47.5 C8.6 47.49, 6.75 47.44, 3.44 47.5 M3.44 47.5 C1.55 48.47, 0.75 45.65, 0 44.06 M3.44 47.5 C1 47.2, -0.03 45.95, 0 44.06 M0 44.06 C-0.1 35.63, -0.28 26.45, 0 3.44 M0 44.06 C0.2 32.77, 0.09 20.72, 0 3.44 M0 3.44 C-0.43 1.03, 1.57 -0.59, 3.44 0 M0 3.44 C-0.81 0, 2.29 -0.69, 3.44 0" stroke="#2f9e44" stroke-width="1" fill="none"></path></g><g transform="translate(150.82406840906435 480.4514105756932) rotate(0 93.08989715576172 12.5)"><text x="0" y="17.52" font-family="Virgil, Segoe UI Emoji" font-size="20px" fill="#2f9e44" text-anchor="start" style="white-space: pre;" direction="ltr" dominant-baseline="alphabetic">Compaction Thread</text></g><g transform="translate(421.5523621539428 482.45579027937333) rotate(0 93.08989715576172 12.5)"><text x="0" y="17.52" font-family="Virgil, Segoe UI Emoji" font-size="20px" fill="#f08c00" text-anchor="start" style="white-space: pre;" direction="ltr" dominant-baseline="alphabetic">Compaction Thread</text></g><g transform="translate(701.9703697584231 483.66448858801334) rotate(0 93.08989715576172 12.5)"><text x="0" y="17.52" font-family="Virgil, Segoe UI Emoji" font-size="20px" fill="#9c36b5" text-anchor="start" style="white-space: pre;" direction="ltr" dominant-baseline="alphabetic">Compaction Thread</text></g><g stroke-linecap="round" transform="translate(519.7825882725862 227.04873193409276) rotate(0 7.551003277839982 23.75)"><path d="M3.78 0 C6.61 0.14, 8.21 -0.09, 11.33 0 M3.78 0 C6.97 0.27, 9.62 -0.06, 11.33 0 M11.33 0 C12.21 -1.77, 14.54 0.44, 15.1 3.78 M11.33 0 C14.59 1.66, 14.66 -0.65, 15.1 3.78 M15.1 3.78 C15.02 16.94, 14.46 25.7, 15.1 43.72 M15.1 3.78 C15.34 11.42, 15.93 20.61, 15.1 43.72 M15.1 43.72 C13.72 46.16, 15.73 49.24, 11.33 47.5 M15.1 43.72 C13.66 44.98, 15.04 46.5, 11.33 47.5 M11.33 47.5 C8.92 47.81, 8.14 48.12, 3.78 47.5 M11.33 47.5 C9.97 47.46, 8.2 47.42, 3.78 47.5 M3.78 47.5 C2.78 46.78, 1.12 46.75, 0 43.72 M3.78 47.5 C2.97 47.78, 1.09 46.66, 0 43.72 M0 43.72 C0.17 28.04, 0.36 14.44, 0 3.78 M0 43.72 C0.73 30.41, 1.09 15.15, 0 3.78 M0 3.78 C-0.54 2.59, -0.33 -0.78, 3.78 0 M0 3.78 C2.08 2.61, -0.22 -1.2, 3.78 0" stroke="#f08c00" stroke-width="1" fill="none"></path></g></svg>